<svg xmlns="http://www.w3.org/2000/svg" viewBox="0 0 386.03 390.39"><defs><style>.a3c19302-3656-4144-af89-5bfd0c23f59a{isolation:isolate;}.a6a929e1-00a8-461e-a03c-0c19eb4ee30a{fill:#605974;}.b51cf52c-9ff3-4a00-b642-5d97b881bf60{fill:#ebebeb;}.f1a1af48-7505-4524-85d9-2798ed49bb32{fill:#d2734d;}.ac9fa9f9-725b-4924-ae15-d1949ef305ff{fill:#cacaca;}.b6be5016-81dd-45da-b0a4-1f0fca4191d9{fill:#8f4e35;}.a98bb665-3cb0-4585-a48e-20bc02113ccf{fill:none;stroke:#fff;stroke-linecap:round;stroke-linejoin:round;stroke-width:0.25px;}.b04ef650-8811-4e43-9c7c-e8a7b50acc98{fill:#fff;}.b12aead6-25fa-4774-8ffb-1de655e6910e{fill:#3d5e7f;opacity:0.25;}.b0254f5c-c3d2-482a-97b9-bc320be1ce7c,.b12aead6-25fa-4774-8ffb-1de655e6910e{mix-blend-mode:multiply;}.e4f4a495-dcdb-4583-aff2-7c93dd228bd4{fill:#f1f1f1;}.a48945cf-9b17-425b-a82c-66ebe939af9b{fill:#ac5e3f;}.f7324122-ac26-4dd9-b153-11ebb1c86750{fill:#a55a3d;}.abbb643f-da48-48cc-a15c-a27051ba0986{fill:#8bbebf;}.f2382ecf-330b-42b5-9d84-427ff998be4a{fill:#84b3c6;}.b0254f5c-c3d2-482a-97b9-bc320be1ce7c{fill:#7a808f;opacity:0.42;}.efa5c963-7c6a-4d15-9758-34035c97d2e3{fill:#6a96bb;}</style></defs><g class="a3c19302-3656-4144-af89-5bfd0c23f59a"><g id="a7151908-58d4-438f-b0a3-c45ea50ed7d3" data-name="groups"><path class="a6a929e1-00a8-461e-a03c-0c19eb4ee30a" d="M404,326.26a31.54,31.54,0,0,0,24.55.42l7.92,19.77a52.94,52.94,0,0,1-68.11-70.55l19.48,8.61A31.65,31.65,0,0,0,404,326.26Z" transform="translate(-83.75 -47.27)"/><path class="b51cf52c-9ff3-4a00-b642-5d97b881bf60" d="M438.2,248.85a52.95,52.95,0,0,1-1.71,97.6l-7.92-19.77a31.65,31.65,0,0,0-10.69-61l.71-21.28A52.57,52.57,0,0,1,438.2,248.85Z" transform="translate(-83.75 -47.27)"/><path class="f1a1af48-7505-4524-85d9-2798ed49bb32" d="M418.59,244.37l-.71,21.28a31.64,31.64,0,0,0-30,18.86l-19.48-8.61A52.92,52.92,0,0,1,418.59,244.37Z" transform="translate(-83.75 -47.27)"/><rect class="f1a1af48-7505-4524-85d9-2798ed49bb32" x="4.36" y="241" width="149.96" height="106.99"/><rect class="ac9fa9f9-725b-4924-ae15-d1949ef305ff" x="9.24" y="244.96" width="140.21" height="85.34"/><path class="b6be5016-81dd-45da-b0a4-1f0fca4191d9" d="M107.42,386.31a7.22,7.22,0,1,1-7.22-7.21A7.21,7.21,0,0,1,107.42,386.31Z" transform="translate(-83.75 -47.27)"/><path class="b6be5016-81dd-45da-b0a4-1f0fca4191d9" d="M123.26,386.31a7.21,7.21,0,1,1-7.21-7.21A7.21,7.21,0,0,1,123.26,386.31Z" transform="translate(-83.75 -47.27)"/><polygon class="a98bb665-3cb0-4585-a48e-20bc02113ccf" points="13.82 334.83 13.82 343.25 20.79 339.04 13.82 334.83"/><path class="f1a1af48-7505-4524-85d9-2798ed49bb32" d="M177.06,334.9a14,14,0,1,1-14-14A14,14,0,0,1,177.06,334.9Z" transform="translate(-83.75 -47.27)"/><polygon class="b04ef650-8811-4e43-9c7c-e8a7b50acc98" points="74.25 279.47 74.25 295.79 87.75 287.63 74.25 279.47"/><path class="b12aead6-25fa-4774-8ffb-1de655e6910e" d="M176.24,339.64a14,14,0,0,1-12.45,9.27L158,343.1l13.52-8.2Z" transform="translate(-83.75 -47.27)"/><path class="b04ef650-8811-4e43-9c7c-e8a7b50acc98" d="M114,390.62a.45.45,0,0,1-.45-.45v-7.72a.45.45,0,0,1,.9,0v7.72A.45.45,0,0,1,114,390.62Z" transform="translate(-83.75 -47.27)"/><path class="b04ef650-8811-4e43-9c7c-e8a7b50acc98" d="M118.08,390.62a.45.45,0,0,1-.44-.45v-7.72a.45.45,0,1,1,.89,0v7.72A.45.45,0,0,1,118.08,390.62Z" transform="translate(-83.75 -47.27)"/><rect class="b6be5016-81dd-45da-b0a4-1f0fca4191d9" x="46.93" y="333.96" width="90.12" height="2.64"/><path class="e4f4a495-dcdb-4583-aff2-7c93dd228bd4" d="M133.73,382.56a3.05,3.05,0,1,1-3-3.06A3,3,0,0,1,133.73,382.56Z" transform="translate(-83.75 -47.27)"/><rect class="e4f4a495-dcdb-4583-aff2-7c93dd228bd4" x="141.6" y="333.96" width="7.85" height="1.98"/><rect class="e4f4a495-dcdb-4583-aff2-7c93dd228bd4" x="143.58" y="336.6" width="5.87" height="1.98"/><rect class="e4f4a495-dcdb-4583-aff2-7c93dd228bd4" x="145.52" y="339.24" width="3.92" height="1.97"/><rect class="e4f4a495-dcdb-4583-aff2-7c93dd228bd4" x="147.48" y="341.88" width="1.96" height="1.98"/><path class="b51cf52c-9ff3-4a00-b642-5d97b881bf60" d="M372.58,358.18l-87.23,49.24a3.89,3.89,0,0,1-.3-.5c-2.29-3.78-4.53-7.31-7.63-11.75-1-1.41-1.95-2.8-3.1-4.38-10.81-7.2-14.46-9.67-25.06-19-7.17-6.27-15.09-16.79-19.72-25h65.39c8,0,14.55-6.92,14.55-15.44V267.81a40.76,40.76,0,0,1,5.47,5c-.51-2.16-.25-4.88-.38-7.21s-.64-4.36-.89-6.69c-.42-2.85.51-5.45-.93-8-1-2-2.51-4.24-3.18-6.57v.43c-4-7.89-3.73-34.94-.09-39.57,0,0,0-.08.09-.13a6.19,6.19,0,0,1,4.36-2.83A7.91,7.91,0,0,1,319,203c3.61,1.87,5.35,6.75,6.62,12,1.44,6,2.2,12.42,4.28,15.69,4.41,6.44,9.55,11.32,11.36,19.08a94.35,94.35,0,0,0,5.94,18.32c1.57,4.37,2.08,8.52,4.37,12.39,2.08,3.39,2.21,7.62,2.72,11.49.8,6.74,1.44,15.26,1.44,19.25-.22,4.7.89,9.46,1.86,14,.18,1,.38,2,.6,2.93v.09C360.8,339,366.52,349.11,372.58,358.18Z" transform="translate(-83.75 -47.27)"/><path class="b51cf52c-9ff3-4a00-b642-5d97b881bf60" d="M228.42,240a12.29,12.29,0,0,1-14.88,9l-19.2-4.75a12.28,12.28,0,0,1-9-14.88h0a12.3,12.3,0,0,1,14.88-9l19.2,4.76a12.29,12.29,0,0,1,9,14.88Z" transform="translate(-83.75 -47.27)"/><path class="f1a1af48-7505-4524-85d9-2798ed49bb32" d="M248.61,117.81a25,25,0,0,1-13.42,22.51l.16-45.15A25.16,25.16,0,0,1,248.61,117.81Z" transform="translate(-83.75 -47.27)"/><polygon class="b51cf52c-9ff3-4a00-b642-5d97b881bf60" points="154.15 1.41 154.23 138.61 78.33 99.28 78.53 41.06 78.69 40.96 154.15 1.41"/><path class="a48945cf-9b17-425b-a82c-66ebe939af9b" d="M142.43,121v1.28l0,5.3-.07,17.89v.8l-.06,17.9V165l-.07,17.91v.65l-.08,17.9v1.77c0,10.32-7.9,18.5-17.48,18.48s-17.44-8.33-17.39-18.62v-1.63l0-2.57,0-12.78V182.8l.07-17.75v-1l.06-17.74v-1l.06-17.75v-5.78l0-2.92a40.22,40.22,0,0,0,12.28,1.9Z" transform="translate(-83.75 -47.27)"/><path class="b04ef650-8811-4e43-9c7c-e8a7b50acc98" d="M261,120.54a3.33,3.33,0,0,1-2.83-3.33,3.23,3.23,0,0,1,3.13-3.32L285,114a3.27,3.27,0,0,1,3.16,3.34,3.21,3.21,0,0,1-3.13,3.32l-23.73-.07Z" transform="translate(-83.75 -47.27)"/><path class="b04ef650-8811-4e43-9c7c-e8a7b50acc98" d="M255.78,99.8a3.1,3.1,0,0,1-2-1.22,3.48,3.48,0,0,1,.55-4.68l17.71-14.66a3,3,0,0,1,4.39.58,3.48,3.48,0,0,1-.54,4.68L258.22,99.15A3,3,0,0,1,255.78,99.8Z" transform="translate(-83.75 -47.27)"/><path class="b04ef650-8811-4e43-9c7c-e8a7b50acc98" d="M274.57,157a3.18,3.18,0,0,0,2-1.24,3.48,3.48,0,0,0-.56-4.67l-17.72-14.64a3,3,0,0,0-4.4.59,3.48,3.48,0,0,0,.54,4.68l17.73,14.62A3,3,0,0,0,274.57,157Z" transform="translate(-83.75 -47.27)"/><path class="f1a1af48-7505-4524-85d9-2798ed49bb32" d="M162.44,88.23l-.17.11-.18,58.21-27.57,0-11.6-.07-11.91,0a22.28,22.28,0,0,1-3.48-.28,23.92,23.92,0,0,1-4-.89,26.47,26.47,0,0,1-7.4-3.55c-.5-.35-1-.69-1.46-1.08a29.51,29.51,0,0,1-11-23.4,30,30,0,0,1,8.1-20.57,26.49,26.49,0,0,1,19.39-8.43l11.65,0v-.06Z" transform="translate(-83.75 -47.27)"/><rect class="b51cf52c-9ff3-4a00-b642-5d97b881bf60" x="32.46" y="40.99" width="6.69" height="58.25"/><rect class="f7324122-ac26-4dd9-b153-11ebb1c86750" x="140.72" width="13.51" height="138.61"/><path class="a6a929e1-00a8-461e-a03c-0c19eb4ee30a" d="M294.92,155.1H226.4c-8,0-14.54,6.9-14.54,15.41V331.25c0,8.47,6.52,15.38,14.54,15.38h68.52c8,0,14.54-6.91,14.54-15.38V170.51C309.46,162,302.94,155.1,294.92,155.1ZM302.76,322h-84.2V179.75h84.2Z" transform="translate(-83.75 -47.27)"/><rect class="abbb643f-da48-48cc-a15c-a27051ba0986" x="134.81" y="132.47" width="84.21" height="142.22"/><path class="f2382ecf-330b-42b5-9d84-427ff998be4a" d="M277.82,167.58a1.81,1.81,0,0,1-1.8,1.8H245.3a1.8,1.8,0,0,1-1.8-1.8h0a1.79,1.79,0,0,1,1.8-1.8H276a1.8,1.8,0,0,1,1.8,1.8Z" transform="translate(-83.75 -47.27)"/><path class="b51cf52c-9ff3-4a00-b642-5d97b881bf60" d="M212.28,307.41a.5.5,0,0,0-.14.08l-.29-.58v.71h0a11.92,11.92,0,0,1-5.11,1.19,9.17,9.17,0,0,1-8.32-4.67l-.39-.76-6.09-11.67A8.25,8.25,0,0,1,191,287c0-.14,0-.3.05-.44s.06-.29.08-.44a.31.31,0,0,1,0-.13v0c0-.2.1-.42.16-.62v0c0-.13.09-.26.13-.42s.1-.27.15-.4a11,11,0,0,1,1-1.93,12,12,0,0,1,4.57-4.14,12.23,12.23,0,0,1,5.25-1.38h.06a5.62,5.62,0,0,0,.71,0h.37a9,9,0,0,1,7.5,4.62l.77,1.48,5.71,10.94C219.93,298.71,217.58,304.65,212.28,307.41Z" transform="translate(-83.75 -47.27)"/><path class="b51cf52c-9ff3-4a00-b642-5d97b881bf60" d="M211.85,327.2h0a1,1,0,0,1-.17.11,11.28,11.28,0,0,1-5.15,1.29,7.64,7.64,0,0,1-7-3.83L194,314.28a7.06,7.06,0,0,1-.36-5.47,3.3,3.3,0,0,1,.11-.34,6.93,6.93,0,0,1,.28-.64c.06-.14.13-.29.2-.42s.16-.31.25-.46A10.64,10.64,0,0,1,198,303.4h0l.4.76a9.14,9.14,0,0,0,8.32,4.67,12.1,12.1,0,0,0,5.13-1.18v0h0v-.71l.29.58,4.38,8.4C218.5,319.69,216.41,324.71,211.85,327.2Z" transform="translate(-83.75 -47.27)"/><path class="b0254f5c-c3d2-482a-97b9-bc320be1ce7c" d="M238.05,359.67V380c-1.68-1.85-3.32-3.8-4.89-5.83a108.69,108.69,0,0,1-8.92-13.28h.14c0-.07,0-.1,0-.17H221.1c-8,0-14.54-6.91-14.54-15.38v-4.08a0,0,0,0,1,0,0h0a.45.45,0,0,1-.17.1,11.08,11.08,0,0,1-5.13,1.29,7.62,7.62,0,0,1-7-3.83l-5.47-10.5a7.1,7.1,0,0,1-.38-5.47c0-.1.07-.2.1-.31s.18-.45.28-.66l.21-.42.24-.45a10.58,10.58,0,0,1,3.49-3.56h0l-6.07-11.68a8.53,8.53,0,0,1-.91-4.71c0-.14,0-.28.07-.42a2.34,2.34,0,0,0,.07-.45.29.29,0,0,1,0-.14c0-.21.11-.42.14-.63h0c0-.14.07-.28.1-.42a2.53,2.53,0,0,1,.18-.42,8.38,8.38,0,0,1,1-1.91,11.74,11.74,0,0,1,4.57-4.15,1.87,1.87,0,0,1,.32-.15L198,303.5h0a10.58,10.58,0,0,0-3.49,3.56l-.24.45-.21.42c-.11.21-.17.41-.28.66s-.07.21-.1.31a7.08,7.08,0,0,0,.38,5.48l5.47,10.49a7.63,7.63,0,0,0,7,3.84,11.2,11.2,0,0,0,5.13-1.29.63.63,0,0,0,.17-.1h0s0,0,0,0v4.08c0,8.47,6.52,15.38,14.54,15.38h3.24c0,.07,0,.1,0,.17h-.14c1,1.89,2.27,3.87,3.62,5.89C234.66,355.07,236.3,357.4,238.05,359.67Z" transform="translate(-83.75 -47.27)"/><path class="b51cf52c-9ff3-4a00-b642-5d97b881bf60" d="M216.34,264.13c2,4.38-.31,9.65-5.06,11.78l-.67.3c-4.77,2.14-10.22.32-12.18-4.06l-5.29-11.8c-2-4.38.3-9.65,5.06-11.79l.68-.3c4.76-2.13,10.2-.31,12.17,4.07Z" transform="translate(-83.75 -47.27)"/><path class="f1a1af48-7505-4524-85d9-2798ed49bb32" d="M396.7,376.23a184.55,184.55,0,0,1-106.53,61.44l-14.12-25,9.31-5.23,87.21-49.27,9.48-5.33Z" transform="translate(-83.75 -47.27)"/><polygon class="ac9fa9f9-725b-4924-ae15-d1949ef305ff" points="278.59 125.91 224.43 115.11 237.8 58.6 241.92 59.58 229.56 111.81 279.42 121.76 278.59 125.91"/><path class="b51cf52c-9ff3-4a00-b642-5d97b881bf60" d="M345.85,106.36a22.24,22.24,0,1,1-22.24-22.24A22.24,22.24,0,0,1,345.85,106.36Z" transform="translate(-83.75 -47.27)"/><path class="b51cf52c-9ff3-4a00-b642-5d97b881bf60" d="M326.32,160.73a15.58,15.58,0,1,1-15.57-15.58A15.57,15.57,0,0,1,326.32,160.73Z" transform="translate(-83.75 -47.27)"/><path class="b51cf52c-9ff3-4a00-b642-5d97b881bf60" d="M380.45,169.73A17.7,17.7,0,1,1,362.76,152,17.7,17.7,0,0,1,380.45,169.73Z" transform="translate(-83.75 -47.27)"/><path class="f1a1af48-7505-4524-85d9-2798ed49bb32" d="M312.79,113.05v9.56h21.64v-9.54h-.05l-.65-.25-4.18-1.54-1.17-.43h0l-.84-1.72h-.34v-1.93a8.67,8.67,0,0,0,2.79-5l0-.07a2.88,2.88,0,0,0,.92-1.86c.19-1.25-.19-2.36-.86-2.48a3.94,3.94,0,0,1,0-.52,2.25,2.25,0,0,1,.28-.76,4.39,4.39,0,0,0,.57-1.39c0-.47-.39-.88-.6-1.26A7.6,7.6,0,0,0,324,90.12c-2,0-4.86.79-4.68,3.67a1.25,1.25,0,0,0-1.56-.08,2.21,2.21,0,0,0-.84,1.55,4.58,4.58,0,0,0,.17,2.5H317c-.65.13-1,1.22-.84,2.47a2.48,2.48,0,0,0,1.21,2h.08a8.77,8.77,0,0,0,2.64,4.78l0,0v2h-.25l-.84,1.72,0,0,0,0-1.37.48Z" transform="translate(-83.75 -47.27)"/><path class="a6a929e1-00a8-461e-a03c-0c19eb4ee30a" d="M372.13,175.45v7.66H354.79v-7.64h0l.53-.2L358.7,174l.94-.35h0l.68-1.38h.27v-1.55a6.89,6.89,0,0,1-2.24-4s0,0,0-.05a2.27,2.27,0,0,1-.74-1.5c-.15-1,.15-1.89.69-2a2.62,2.62,0,0,0,0-.42,2,2,0,0,0-.22-.61,3.33,3.33,0,0,1-.45-1.11c0-.37.3-.71.47-1a6.08,6.08,0,0,1,5-3c1.64,0,3.9.64,3.76,2.95a1,1,0,0,1,1.25-.08,1.8,1.8,0,0,1,.67,1.25,3.85,3.85,0,0,1-.13,2h.06c.52.1.82,1,.67,2a2,2,0,0,1-1,1.62l-.06,0a7.06,7.06,0,0,1-2.11,3.82l0,0v1.62h.2l.67,1.38,0,0,0,0,1.1.39Z" transform="translate(-83.75 -47.27)"/><path class="efa5c963-7c6a-4d15-9758-34035c97d2e3" d="M318.45,164.74v6.81H303v-6.79h0l.47-.17,1.81-.68,1.17-.43a1.18,1.18,0,0,0,.07.2l1.6-.56v-1.49l.13-.08-.13-.1v.18c-2.39,1.28-3.81-2.35-3.46-4.87a9.91,9.91,0,0,1,1.81-4.18c1-1,1.62-2.06,4-2.06a5,5,0,0,1,4.26,2.05,8.58,8.58,0,0,1,1.64,3,5.86,5.86,0,0,1,0,3.72c-.4,1.06-1.53,3.05-3.21,2.25v-.1l-.08.07.08,0v1.58l1.65.65.1-.25,1.19.41Z" transform="translate(-83.75 -47.27)"/></g></g></svg>