<svg xmlns="http://www.w3.org/2000/svg" viewBox="0 0 520 331.8"><defs><style>.f1c51d9e-28f1-47a9-adae-861c70a30887{isolation:isolate;}.b35b2923-9ee5-4150-846a-dcb91b9bdf51{fill:#cf7d3e;}.f42e810f-775d-4a0f-b250-ced25746ba6b{fill:#eaddd0;mix-blend-mode:multiply;}.a3c62344-f80c-4643-9884-957b6fb6736c{fill:#eca153;}.bfce22ad-1bdd-437c-8a6f-6db6edd522cf{fill:#f9d9c7;opacity:0.5;mix-blend-mode:soft-light;}.bd342451-5d14-4a55-9054-f53d1aa22873{fill:#ececeb;}.b8a0d6a6-70d4-424f-8853-1855e22b58ca{fill:#6e441f;}.b4b6c012-890d-41d1-895d-e1d1dd2fa9f8,.e6b38ca2-5206-494b-a79c-2be95994d229{fill:none;stroke:#6e441f;stroke-linecap:round;stroke-linejoin:round;}.b4b6c012-890d-41d1-895d-e1d1dd2fa9f8{stroke-width:0.37px;}.bd876642-4050-4d9f-94b8-e270110b29a1{fill:#c47136;}.b0224b1e-cb3b-450f-8fc7-4e8b17805707{fill:#e09348;}.a7ec271f-6a91-4d61-939a-f83ab2cd97cc{fill:#472a27;}.e3782fd6-5db9-4594-b44c-d9e8bf9aac1a{fill:#2f1914;}.b6be8a3a-7a2d-421d-a4e0-95b85e019110{fill:#24120a;}.e6b38ca2-5206-494b-a79c-2be95994d229{stroke-width:0.32px;}</style></defs><g class="f1c51d9e-28f1-47a9-adae-861c70a30887"><g id="bab99d59-9f61-444d-bd7b-69753161ceaf" data-name="圖層 1"><rect class="b35b2923-9ee5-4150-846a-dcb91b9bdf51" x="77" width="37.26" height="74.52"/><rect class="f42e810f-775d-4a0f-b250-ced25746ba6b" x="88.59" width="11.74" height="22.35"/><rect class="a3c62344-f80c-4643-9884-957b6fb6736c" x="8.28" width="68.71" height="74.52"/><polygon class="bfce22ad-1bdd-437c-8a6f-6db6edd522cf" points="10.97 71.59 10.97 2.92 74.3 2.92 10.97 71.59"/><rect class="bd342451-5d14-4a55-9054-f53d1aa22873" x="89.97" width="11.32" height="21.53"/><rect class="b8a0d6a6-70d4-424f-8853-1855e22b58ca" x="46.7" y="51.3" width="25.35" height="3.53"/><rect class="b8a0d6a6-70d4-424f-8853-1855e22b58ca" x="54.89" y="58.01" width="17.16" height="3.53"/><rect class="b4b6c012-890d-41d1-895d-e1d1dd2fa9f8" x="65.13" y="63.67" width="6.08" height="5.47"/><rect class="b4b6c012-890d-41d1-895d-e1d1dd2fa9f8" x="55.8" y="63.67" width="6.07" height="5.47"/><rect class="b35b2923-9ee5-4150-846a-dcb91b9bdf51" x="182.98" width="37.25" height="74.52"/><rect class="f42e810f-775d-4a0f-b250-ced25746ba6b" x="194.57" width="11.73" height="22.35"/><rect class="a3c62344-f80c-4643-9884-957b6fb6736c" x="114.26" width="68.72" height="74.52"/><polygon class="bfce22ad-1bdd-437c-8a6f-6db6edd522cf" points="116.95 71.59 116.95 2.92 180.28 2.92 116.95 71.59"/><rect class="bd342451-5d14-4a55-9054-f53d1aa22873" x="195.95" width="11.32" height="21.53"/><rect class="b8a0d6a6-70d4-424f-8853-1855e22b58ca" x="152.67" y="51.3" width="25.35" height="3.53"/><rect class="b8a0d6a6-70d4-424f-8853-1855e22b58ca" x="160.86" y="58.01" width="17.16" height="3.53"/><rect class="b4b6c012-890d-41d1-895d-e1d1dd2fa9f8" x="171.1" y="63.67" width="6.08" height="5.47"/><rect class="b4b6c012-890d-41d1-895d-e1d1dd2fa9f8" x="161.78" y="63.67" width="6.07" height="5.47"/><rect class="b35b2923-9ee5-4150-846a-dcb91b9bdf51" x="77" y="149.04" width="37.26" height="74.52"/><rect class="f42e810f-775d-4a0f-b250-ced25746ba6b" x="88.59" y="149.04" width="11.74" height="22.35"/><rect class="a3c62344-f80c-4643-9884-957b6fb6736c" x="8.28" y="149.04" width="68.71" height="74.52"/><polygon class="bfce22ad-1bdd-437c-8a6f-6db6edd522cf" points="10.97 220.63 10.97 151.96 74.3 151.96 10.97 220.63"/><rect class="bd342451-5d14-4a55-9054-f53d1aa22873" x="89.97" y="149.04" width="11.32" height="21.53"/><rect class="b8a0d6a6-70d4-424f-8853-1855e22b58ca" x="46.7" y="200.34" width="25.35" height="3.53"/><rect class="b8a0d6a6-70d4-424f-8853-1855e22b58ca" x="54.89" y="207.05" width="17.16" height="3.53"/><rect class="b4b6c012-890d-41d1-895d-e1d1dd2fa9f8" x="65.13" y="212.7" width="6.08" height="5.48"/><rect class="b4b6c012-890d-41d1-895d-e1d1dd2fa9f8" x="55.8" y="212.7" width="6.07" height="5.48"/><rect class="b35b2923-9ee5-4150-846a-dcb91b9bdf51" x="182.98" y="149.04" width="37.25" height="74.52"/><rect class="f42e810f-775d-4a0f-b250-ced25746ba6b" x="194.57" y="149.04" width="11.73" height="22.35"/><rect class="a3c62344-f80c-4643-9884-957b6fb6736c" x="114.26" y="149.04" width="68.72" height="74.52"/><polygon class="bfce22ad-1bdd-437c-8a6f-6db6edd522cf" points="116.95 220.63 116.95 151.96 180.28 151.96 116.95 220.63"/><rect class="bd342451-5d14-4a55-9054-f53d1aa22873" x="195.95" y="149.04" width="11.32" height="21.53"/><rect class="b8a0d6a6-70d4-424f-8853-1855e22b58ca" x="152.67" y="200.34" width="25.35" height="3.53"/><rect class="b8a0d6a6-70d4-424f-8853-1855e22b58ca" x="160.86" y="207.05" width="17.16" height="3.53"/><rect class="b4b6c012-890d-41d1-895d-e1d1dd2fa9f8" x="171.1" y="212.7" width="6.08" height="5.48"/><rect class="b4b6c012-890d-41d1-895d-e1d1dd2fa9f8" x="161.78" y="212.7" width="6.07" height="5.48"/><rect class="bd876642-4050-4d9f-94b8-e270110b29a1" x="77" y="74.52" width="37.26" height="74.52"/><rect class="f42e810f-775d-4a0f-b250-ced25746ba6b" x="88.59" y="74.52" width="11.74" height="22.36"/><rect class="b0224b1e-cb3b-450f-8fc7-4e8b17805707" x="8.28" y="74.52" width="68.71" height="74.52"/><polygon class="bfce22ad-1bdd-437c-8a6f-6db6edd522cf" points="10.97 146.11 10.97 77.44 74.3 77.44 10.97 146.11"/><rect class="bd342451-5d14-4a55-9054-f53d1aa22873" x="89.97" y="74.52" width="11.32" height="21.52"/><rect class="b8a0d6a6-70d4-424f-8853-1855e22b58ca" x="46.7" y="125.82" width="25.35" height="3.53"/><rect class="b8a0d6a6-70d4-424f-8853-1855e22b58ca" x="54.89" y="132.53" width="17.16" height="3.53"/><rect class="b4b6c012-890d-41d1-895d-e1d1dd2fa9f8" x="65.13" y="138.19" width="6.08" height="5.47"/><rect class="b4b6c012-890d-41d1-895d-e1d1dd2fa9f8" x="55.8" y="138.19" width="6.07" height="5.47"/><rect class="bd876642-4050-4d9f-94b8-e270110b29a1" x="182.98" y="74.52" width="37.25" height="74.52"/><rect class="f42e810f-775d-4a0f-b250-ced25746ba6b" x="194.57" y="74.52" width="11.73" height="22.36"/><rect class="b0224b1e-cb3b-450f-8fc7-4e8b17805707" x="114.26" y="74.52" width="68.72" height="74.52"/><polygon class="bfce22ad-1bdd-437c-8a6f-6db6edd522cf" points="116.95 146.11 116.95 77.44 180.28 77.44 116.95 146.11"/><rect class="bd342451-5d14-4a55-9054-f53d1aa22873" x="195.95" y="74.52" width="11.32" height="21.52"/><rect class="b8a0d6a6-70d4-424f-8853-1855e22b58ca" x="152.67" y="125.82" width="25.35" height="3.53"/><rect class="b8a0d6a6-70d4-424f-8853-1855e22b58ca" x="160.86" y="132.53" width="17.16" height="3.53"/><rect class="b4b6c012-890d-41d1-895d-e1d1dd2fa9f8" x="171.1" y="138.19" width="6.08" height="5.47"/><rect class="b4b6c012-890d-41d1-895d-e1d1dd2fa9f8" x="161.78" y="138.19" width="6.07" height="5.47"/><rect class="bd876642-4050-4d9f-94b8-e270110b29a1" x="77" y="223.55" width="37.26" height="74.52"/><rect class="f42e810f-775d-4a0f-b250-ced25746ba6b" x="88.59" y="223.55" width="11.74" height="22.35"/><rect class="b0224b1e-cb3b-450f-8fc7-4e8b17805707" x="8.28" y="223.55" width="68.71" height="74.52"/><polygon class="bfce22ad-1bdd-437c-8a6f-6db6edd522cf" points="10.97 295.14 10.97 226.47 74.3 226.47 10.97 295.14"/><rect class="bd342451-5d14-4a55-9054-f53d1aa22873" x="89.97" y="223.55" width="11.32" height="21.53"/><rect class="b8a0d6a6-70d4-424f-8853-1855e22b58ca" x="46.7" y="274.85" width="25.35" height="3.52"/><rect class="b8a0d6a6-70d4-424f-8853-1855e22b58ca" x="54.89" y="281.56" width="17.16" height="3.53"/><rect class="b4b6c012-890d-41d1-895d-e1d1dd2fa9f8" x="65.13" y="287.22" width="6.08" height="5.47"/><rect class="b4b6c012-890d-41d1-895d-e1d1dd2fa9f8" x="55.8" y="287.22" width="6.07" height="5.47"/><rect class="bd876642-4050-4d9f-94b8-e270110b29a1" x="182.98" y="223.55" width="37.25" height="74.52"/><rect class="f42e810f-775d-4a0f-b250-ced25746ba6b" x="194.57" y="223.55" width="11.73" height="22.35"/><rect class="b0224b1e-cb3b-450f-8fc7-4e8b17805707" x="114.26" y="223.55" width="68.72" height="74.52"/><polygon class="bfce22ad-1bdd-437c-8a6f-6db6edd522cf" points="116.95 295.14 116.95 226.47 180.28 226.47 116.95 295.14"/><rect class="bd342451-5d14-4a55-9054-f53d1aa22873" x="195.95" y="223.55" width="11.32" height="21.53"/><rect class="b8a0d6a6-70d4-424f-8853-1855e22b58ca" x="152.67" y="274.85" width="25.35" height="3.52"/><rect class="b8a0d6a6-70d4-424f-8853-1855e22b58ca" x="160.86" y="281.56" width="17.16" height="3.53"/><rect class="b4b6c012-890d-41d1-895d-e1d1dd2fa9f8" x="171.1" y="287.22" width="6.08" height="5.47"/><rect class="b4b6c012-890d-41d1-895d-e1d1dd2fa9f8" x="161.78" y="287.22" width="6.07" height="5.47"/><rect class="a7ec271f-6a91-4d61-939a-f83ab2cd97cc" y="298.07" width="229.62" height="11.87"/><rect class="e3782fd6-5db9-4594-b44c-d9e8bf9aac1a" y="306.11" width="229.62" height="3.83"/><rect class="a7ec271f-6a91-4d61-939a-f83ab2cd97cc" y="321.84" width="229.62" height="9.95"/><rect class="e3782fd6-5db9-4594-b44c-d9e8bf9aac1a" y="328.59" width="229.62" height="3.21"/><rect class="a7ec271f-6a91-4d61-939a-f83ab2cd97cc" x="6.84" y="309.94" width="7.71" height="11.9"/><rect class="b6be8a3a-7a2d-421d-a4e0-95b85e019110" x="6.84" y="309.94" width="7.71" height="3.96"/><rect class="a7ec271f-6a91-4d61-939a-f83ab2cd97cc" x="48.63" y="309.94" width="7.72" height="11.9"/><rect class="b6be8a3a-7a2d-421d-a4e0-95b85e019110" x="48.63" y="309.94" width="7.72" height="3.96"/><rect class="a7ec271f-6a91-4d61-939a-f83ab2cd97cc" x="90.43" y="309.94" width="7.72" height="11.9"/><rect class="b6be8a3a-7a2d-421d-a4e0-95b85e019110" x="90.43" y="309.94" width="7.72" height="3.96"/><rect class="a7ec271f-6a91-4d61-939a-f83ab2cd97cc" x="132.23" y="309.94" width="7.72" height="11.9"/><rect class="b6be8a3a-7a2d-421d-a4e0-95b85e019110" x="132.23" y="309.94" width="7.72" height="3.96"/><rect class="a7ec271f-6a91-4d61-939a-f83ab2cd97cc" x="174.03" y="309.94" width="7.73" height="11.9"/><rect class="b6be8a3a-7a2d-421d-a4e0-95b85e019110" x="174.03" y="309.94" width="7.73" height="3.96"/><rect class="a7ec271f-6a91-4d61-939a-f83ab2cd97cc" x="215.83" y="309.94" width="7.71" height="11.9"/><rect class="b6be8a3a-7a2d-421d-a4e0-95b85e019110" x="215.83" y="309.94" width="7.71" height="3.96"/><rect class="b35b2923-9ee5-4150-846a-dcb91b9bdf51" x="303.52" y="77.33" width="32.36" height="63.52"/><rect class="f42e810f-775d-4a0f-b250-ced25746ba6b" x="313.58" y="77.33" width="10.19" height="19.05"/><rect class="a3c62344-f80c-4643-9884-957b6fb6736c" x="243.82" y="77.33" width="59.7" height="63.52"/><polygon class="bfce22ad-1bdd-437c-8a6f-6db6edd522cf" points="246.16 138.36 246.16 79.82 301.17 79.82 246.16 138.36"/><rect class="bd342451-5d14-4a55-9054-f53d1aa22873" x="314.78" y="77.33" width="9.83" height="18.35"/><rect class="b8a0d6a6-70d4-424f-8853-1855e22b58ca" x="277.17" y="121.06" width="22.04" height="3.01"/><rect class="b8a0d6a6-70d4-424f-8853-1855e22b58ca" x="284.3" y="126.78" width="14.91" height="3.01"/><rect class="e6b38ca2-5206-494b-a79c-2be95994d229" x="293.2" y="131.6" width="5.28" height="4.66"/><rect class="e6b38ca2-5206-494b-a79c-2be95994d229" x="285.1" y="131.6" width="5.27" height="4.66"/><rect class="b35b2923-9ee5-4150-846a-dcb91b9bdf51" x="487.64" y="267.89" width="32.36" height="63.52"/><rect class="f42e810f-775d-4a0f-b250-ced25746ba6b" x="497.7" y="267.89" width="10.19" height="19.06"/><rect class="a3c62344-f80c-4643-9884-957b6fb6736c" x="427.94" y="267.89" width="59.7" height="63.52"/><polygon class="bfce22ad-1bdd-437c-8a6f-6db6edd522cf" points="430.28 328.92 430.28 270.38 485.29 270.38 430.28 328.92"/><rect class="bd342451-5d14-4a55-9054-f53d1aa22873" x="498.9" y="267.89" width="9.84" height="18.35"/><rect class="b8a0d6a6-70d4-424f-8853-1855e22b58ca" x="461.31" y="311.62" width="22.02" height="3.01"/><rect class="b8a0d6a6-70d4-424f-8853-1855e22b58ca" x="468.42" y="317.34" width="14.91" height="3.02"/><rect class="e6b38ca2-5206-494b-a79c-2be95994d229" x="477.33" y="322.17" width="5.27" height="4.66"/><rect class="e6b38ca2-5206-494b-a79c-2be95994d229" x="469.22" y="322.17" width="5.28" height="4.66"/><rect class="b35b2923-9ee5-4150-846a-dcb91b9bdf51" x="303.52" y="204.37" width="32.36" height="63.52"/><rect class="f42e810f-775d-4a0f-b250-ced25746ba6b" x="313.58" y="204.37" width="10.19" height="19.05"/><rect class="a3c62344-f80c-4643-9884-957b6fb6736c" x="243.82" y="204.37" width="59.7" height="63.52"/><polygon class="bfce22ad-1bdd-437c-8a6f-6db6edd522cf" points="246.16 265.4 246.16 206.86 301.17 206.86 246.16 265.4"/><rect class="bd342451-5d14-4a55-9054-f53d1aa22873" x="314.78" y="204.37" width="9.83" height="18.35"/><rect class="b8a0d6a6-70d4-424f-8853-1855e22b58ca" x="277.17" y="248.1" width="22.04" height="3.01"/><rect class="b8a0d6a6-70d4-424f-8853-1855e22b58ca" x="284.3" y="253.82" width="14.91" height="3.01"/><rect class="e6b38ca2-5206-494b-a79c-2be95994d229" x="293.2" y="258.64" width="5.28" height="4.66"/><rect class="e6b38ca2-5206-494b-a79c-2be95994d229" x="285.1" y="258.64" width="5.27" height="4.66"/><rect class="b35b2923-9ee5-4150-846a-dcb91b9bdf51" x="395.58" y="204.37" width="32.36" height="63.52"/><rect class="f42e810f-775d-4a0f-b250-ced25746ba6b" x="405.64" y="204.37" width="10.18" height="19.05"/><rect class="a3c62344-f80c-4643-9884-957b6fb6736c" x="335.88" y="204.37" width="59.7" height="63.52"/><polygon class="bfce22ad-1bdd-437c-8a6f-6db6edd522cf" points="338.22 265.4 338.22 206.86 393.23 206.86 338.22 265.4"/><rect class="bd342451-5d14-4a55-9054-f53d1aa22873" x="406.84" y="204.37" width="9.83" height="18.35"/><rect class="b8a0d6a6-70d4-424f-8853-1855e22b58ca" x="369.25" y="248.1" width="22.02" height="3.01"/><rect class="b8a0d6a6-70d4-424f-8853-1855e22b58ca" x="376.37" y="253.82" width="14.9" height="3.01"/><rect class="e6b38ca2-5206-494b-a79c-2be95994d229" x="385.26" y="258.64" width="5.27" height="4.66"/><rect class="e6b38ca2-5206-494b-a79c-2be95994d229" x="377.15" y="258.64" width="5.28" height="4.66"/><rect class="bd876642-4050-4d9f-94b8-e270110b29a1" x="303.52" y="140.85" width="32.36" height="63.52"/><rect class="f42e810f-775d-4a0f-b250-ced25746ba6b" x="313.58" y="140.85" width="10.19" height="19.05"/><rect class="b0224b1e-cb3b-450f-8fc7-4e8b17805707" x="243.82" y="140.85" width="59.7" height="63.52"/><polygon class="bfce22ad-1bdd-437c-8a6f-6db6edd522cf" points="246.16 201.88 246.16 143.34 301.17 143.34 246.16 201.88"/><rect class="bd342451-5d14-4a55-9054-f53d1aa22873" x="314.78" y="140.85" width="9.83" height="18.35"/><rect class="b8a0d6a6-70d4-424f-8853-1855e22b58ca" x="277.17" y="184.58" width="22.04" height="3.01"/><rect class="b8a0d6a6-70d4-424f-8853-1855e22b58ca" x="284.3" y="190.3" width="14.91" height="3"/><rect class="e6b38ca2-5206-494b-a79c-2be95994d229" x="293.2" y="195.12" width="5.28" height="4.66"/><rect class="e6b38ca2-5206-494b-a79c-2be95994d229" x="285.1" y="195.12" width="5.27" height="4.66"/><rect class="bd876642-4050-4d9f-94b8-e270110b29a1" x="395.58" y="140.85" width="32.36" height="63.52"/><rect class="f42e810f-775d-4a0f-b250-ced25746ba6b" x="405.64" y="140.85" width="10.18" height="19.05"/><rect class="b0224b1e-cb3b-450f-8fc7-4e8b17805707" x="335.88" y="140.85" width="59.7" height="63.52"/><polygon class="bfce22ad-1bdd-437c-8a6f-6db6edd522cf" points="338.22 201.88 338.22 143.34 393.23 143.34 338.22 201.88"/><rect class="bd342451-5d14-4a55-9054-f53d1aa22873" x="406.84" y="140.85" width="9.83" height="18.35"/><rect class="b8a0d6a6-70d4-424f-8853-1855e22b58ca" x="369.25" y="184.58" width="22.02" height="3.01"/><rect class="b8a0d6a6-70d4-424f-8853-1855e22b58ca" x="376.37" y="190.3" width="14.9" height="3"/><rect class="e6b38ca2-5206-494b-a79c-2be95994d229" x="385.26" y="195.12" width="5.27" height="4.66"/><rect class="e6b38ca2-5206-494b-a79c-2be95994d229" x="377.15" y="195.12" width="5.28" height="4.66"/><rect class="bd876642-4050-4d9f-94b8-e270110b29a1" x="303.52" y="267.89" width="32.36" height="63.52"/><rect class="f42e810f-775d-4a0f-b250-ced25746ba6b" x="313.58" y="267.89" width="10.19" height="19.06"/><rect class="b0224b1e-cb3b-450f-8fc7-4e8b17805707" x="243.82" y="267.89" width="59.7" height="63.52"/><polygon class="bfce22ad-1bdd-437c-8a6f-6db6edd522cf" points="246.16 328.92 246.16 270.38 301.17 270.38 246.16 328.92"/><rect class="bd342451-5d14-4a55-9054-f53d1aa22873" x="314.78" y="267.89" width="9.83" height="18.35"/><rect class="b8a0d6a6-70d4-424f-8853-1855e22b58ca" x="277.17" y="311.62" width="22.04" height="3.01"/><rect class="b8a0d6a6-70d4-424f-8853-1855e22b58ca" x="284.3" y="317.34" width="14.91" height="3.02"/><rect class="e6b38ca2-5206-494b-a79c-2be95994d229" x="293.2" y="322.17" width="5.28" height="4.66"/><rect class="e6b38ca2-5206-494b-a79c-2be95994d229" x="285.1" y="322.17" width="5.27" height="4.66"/><rect class="bd876642-4050-4d9f-94b8-e270110b29a1" x="395.58" y="267.89" width="32.36" height="63.52"/><rect class="f42e810f-775d-4a0f-b250-ced25746ba6b" x="405.64" y="267.89" width="10.18" height="19.06"/><rect class="b0224b1e-cb3b-450f-8fc7-4e8b17805707" x="335.88" y="267.89" width="59.7" height="63.52"/><polygon class="bfce22ad-1bdd-437c-8a6f-6db6edd522cf" points="338.22 328.92 338.22 270.38 393.23 270.38 338.22 328.92"/><rect class="bd342451-5d14-4a55-9054-f53d1aa22873" x="406.84" y="267.89" width="9.83" height="18.35"/><rect class="b8a0d6a6-70d4-424f-8853-1855e22b58ca" x="369.25" y="311.62" width="22.02" height="3.01"/><rect class="b8a0d6a6-70d4-424f-8853-1855e22b58ca" x="376.37" y="317.34" width="14.9" height="3.02"/><rect class="e6b38ca2-5206-494b-a79c-2be95994d229" x="385.26" y="322.17" width="5.27" height="4.66"/><rect class="e6b38ca2-5206-494b-a79c-2be95994d229" x="377.15" y="322.17" width="5.28" height="4.66"/></g></g></svg>