<svg id="b2dd4aef-127b-4e5a-8be6-bbe8517b1023" data-name="Layer 1" xmlns="http://www.w3.org/2000/svg" viewBox="0 0 466.51 396.29"><defs><style>.b201ea20-058a-4c68-81e4-25f6083172f5{fill:#b78a62;}.ac8992af-0029-4b5b-b4bf-15a6c6588f33{fill:#9b7859;}.b3fe45c7-0e7e-4b11-b8b6-da41eea8d727{fill:#444;}.bf330a3d-8096-4ad5-81d8-da8a013c8ca5{fill:#d3a06c;}.a6ed6850-6ca6-438d-8171-336a1a33bca9{fill:#ddd;}.a4779b64-b6da-4b65-8452-81e4b66ebcf3{fill:#fff;}.b6ddc29f-1842-4883-ace4-d7d2d3c1d1dd{fill:#dedeff;}.b5c62a10-6c53-4e43-8e0f-0cd143d8cc54{fill:#777;}.b8248404-35b9-4efd-b52f-01f003c4bfaa{fill:#2561a1;}.a81e97ce-8ff9-4436-aaf1-f6fccc179298{fill:#ff9864;}.bfda41ce-9165-4029-8f3a-95d1f68267cc{fill:#af593c;}.af8ab164-496f-49ac-8dd4-2f77faa00913{fill:#2b2b2b;}</style></defs><rect class="b201ea20-058a-4c68-81e4-25f6083172f5" width="329.34" height="329.34"/><rect class="ac8992af-0029-4b5b-b4bf-15a6c6588f33" x="109.43" width="111.84" height="120.75"/><rect class="b3fe45c7-0e7e-4b11-b8b6-da41eea8d727" x="35.71" y="24.65" width="329.34" height="329.34"/><rect class="bf330a3d-8096-4ad5-81d8-da8a013c8ca5" x="42.71" y="30.14" width="329.34" height="329.34"/><rect class="ac8992af-0029-4b5b-b4bf-15a6c6588f33" x="152.14" y="30.14" width="111.84" height="120.75"/><rect class="a6ed6850-6ca6-438d-8171-336a1a33bca9" x="284.76" y="144.54" width="181.75" height="251.75" rx="12"/><rect class="a4779b64-b6da-4b65-8452-81e4b66ebcf3" x="302.88" y="164.67" width="145.51" height="211.49"/><rect class="b6ddc29f-1842-4883-ace4-d7d2d3c1d1dd" x="329.34" y="134.76" width="92.59" height="43.29"/><path class="b5c62a10-6c53-4e43-8e0f-0cd143d8cc54" d="M356.82,294.25h-6.16a5.89,5.89,0,0,1-5.89-5.89V260.65a5.89,5.89,0,0,1,5.89-5.89h27.71a5.89,5.89,0,0,1,5.88,5.89v4a5.88,5.88,0,0,1-11.44,1.93H356.54v16h.28a5.89,5.89,0,0,1,0,11.77Z" transform="translate(-25.83 -52.4)"/><path class="b8248404-35b9-4efd-b52f-01f003c4bfaa" d="M374.69,293.39a5.89,5.89,0,0,1-4.16-1.72l-9.41-9.4a5.88,5.88,0,0,1,8.32-8.32l5.25,5.24L391.92,262a5.88,5.88,0,0,1,8.32,8.32l-21.39,21.39A5.91,5.91,0,0,1,374.69,293.39Z" transform="translate(-25.83 -52.4)"/><path class="b5c62a10-6c53-4e43-8e0f-0cd143d8cc54" d="M452.28,280.39h-37a5.89,5.89,0,0,1,0-11.77h37a5.89,5.89,0,0,1,0,11.77Z" transform="translate(-25.83 -52.4)"/><path class="b5c62a10-6c53-4e43-8e0f-0cd143d8cc54" d="M356.82,350.42h-6.16a5.89,5.89,0,0,1-5.89-5.88V316.82a5.89,5.89,0,0,1,5.89-5.88h27.71a5.88,5.88,0,0,1,5.88,5.88v4a5.88,5.88,0,0,1-11.44,1.92H356.54v16h.28a5.88,5.88,0,0,1,0,11.76Z" transform="translate(-25.83 -52.4)"/><path class="b8248404-35b9-4efd-b52f-01f003c4bfaa" d="M374.69,349.56a5.81,5.81,0,0,1-4.16-1.72l-9.41-9.39a5.88,5.88,0,1,1,8.32-8.32l5.25,5.24,17.23-17.23a5.88,5.88,0,1,1,8.32,8.32l-21.39,21.39A5.85,5.85,0,0,1,374.69,349.56Z" transform="translate(-25.83 -52.4)"/><path class="b5c62a10-6c53-4e43-8e0f-0cd143d8cc54" d="M452.28,336.56h-37a5.88,5.88,0,0,1,0-11.76h37a5.88,5.88,0,1,1,0,11.76Z" transform="translate(-25.83 -52.4)"/><path class="a81e97ce-8ff9-4436-aaf1-f6fccc179298" d="M277.67,395.27V312.89h20.59v82.38Z" transform="translate(-25.83 -52.4)"/><path class="bfda41ce-9165-4029-8f3a-95d1f68267cc" d="M277.69,312.85v82.39h-20.6V312.85Z" transform="translate(-25.83 -52.4)"/><path class="af8ab164-496f-49ac-8dd4-2f77faa00913" d="M292.26,286.23a20.62,20.62,0,0,1,6,14.57v12.05h-41.2V300.8a20.61,20.61,0,0,1,35.17-14.57Z" transform="translate(-25.83 -52.4)"/><path class="af8ab164-496f-49ac-8dd4-2f77faa00913" d="M298.29,395.24l-7.73,12.88-7.31,12.2a7.12,7.12,0,0,1-1,1.24,6.49,6.49,0,0,1-9.16,0,7.12,7.12,0,0,1-1-1.24l-3.45-5.77-11.59-19.31h41.2Z" transform="translate(-25.83 -52.4)"/><rect class="a4779b64-b6da-4b65-8452-81e4b66ebcf3" x="63.06" y="299.42" width="92.69" height="43.44"/><path d="M104.52,369.78h9.94v9.93h-9.94Z" transform="translate(-25.83 -52.4)"/><path d="M128.91,369.78h9.93v9.93h-9.93Z" transform="translate(-25.83 -52.4)"/><path d="M153.3,369.78h9.93v9.93H153.3Z" transform="translate(-25.83 -52.4)"/></svg>