<?xml version="1.0" encoding="utf-8"?>
<!-- Generator: Adobe Illustrator 24.0.1, SVG Export Plug-In . SVG Version: 6.00 Build 0)  -->
<svg version="1.1" id="Layer_1" xmlns="http://www.w3.org/2000/svg" xmlns:xlink="http://www.w3.org/1999/xlink" x="0px" y="0px"
	 viewBox="0 0 512 512" style="enable-background:new 0 0 512 512;" xml:space="preserve">
<style type="text/css">
	.st0{fill:none;}
	.st1{fill:#62768C;}
	.st2{fill:#FFFFFF;}
	.st3{fill:#8DB1D1;}
	.st4{fill:#EFF2F5;}
	.st5{fill:#58697C;}
	.st6{fill:#B4CDE0;}
	.st7{fill:#D3453F;}
</style>
<title>Commercial delivery</title>
<g>
	<g>
		<path class="st0" d="M258.76,26.51c3.93,0,7.05-3.21,7.05-7.05c0-3.93-3.21-7.05-7.05-7.05c-3.84,0-7.05,3.21-7.05,7.05
			C251.71,23.39,254.83,26.51,258.76,26.51z"/>
		<path class="st1" d="M406.52,31.06H293.65c0.71,2.59,1.16,5.35,1.34,8.21h65.49c7.14,0,12.85,5.71,12.85,12.85v0.18h12.85
			c7.14,0,12.94,5.8,12.94,12.94v408.39c0,7.14-5.8,12.94-12.94,12.94H131.43c-7.14,0-12.94-5.8-12.94-12.94V65.24
			c0-7.14,5.8-12.94,12.94-12.94h12.85v-0.18c0-7.14,5.71-12.85,12.85-12.85h65.49c0.09-2.86,0.54-5.62,1.34-8.21H111
			c-9.9,0-17.93,8.03-17.93,17.93v440.96c0,9.9,8.03,17.93,17.93,17.93h295.43c9.9,0,17.93-8.03,17.93-17.93V49
			C424.36,39.09,416.33,31.06,406.52,31.06z"/>
		<path class="st2" d="M369.4,72.11H148.12c-2.14,0-3.84-1.7-3.84-3.84V52.39h-12.85c-7.14,0-12.94,5.8-12.94,12.94v408.3
			c0,7.14,5.8,12.94,12.94,12.94h254.74c7.14,0,12.94-5.8,12.94-12.94V65.24c0-7.14-5.8-12.94-12.94-12.94h-12.85v15.88
			C373.33,70.32,371.54,72.11,369.4,72.11z"/>
		<path class="st3" d="M157.13,39.27c-7.14,0-12.85,5.71-12.85,12.85v0.18v15.88c0,2.14,1.7,3.84,3.84,3.84H369.4
			c2.14,0,3.84-1.7,3.84-3.84V52.3v-0.18c0-7.14-5.71-12.85-12.85-12.85H294.9c-0.09-2.86-0.54-5.62-1.34-8.21
			c-4.28-15.26-18.29-26.5-34.89-26.5c-16.6,0-30.6,11.24-34.89,26.5c-0.71,2.59-1.16,5.35-1.34,8.21H157.13z M258.76,12.33
			c3.93,0,7.05,3.21,7.05,7.05c0,3.93-3.21,7.05-7.05,7.05c-3.84,0-7.05-3.21-7.05-7.05C251.71,15.54,254.83,12.33,258.76,12.33z"/>
		<path class="st4" d="M148.12,76.66H369.4c2.14,0,3.84-1.7,3.84-3.84v-4.55c0,2.14-1.7,3.84-3.84,3.84H148.12
			c-2.14,0-3.84-1.7-3.84-3.84v4.55C144.19,74.96,145.98,76.66,148.12,76.66z"/>
		<path class="st5" d="M386.09,486.56H131.43c-7.14,0-12.94-5.8-12.94-12.94V86.21L93.16,49.09v440.78c0,9.9,8.03,17.93,17.93,17.93
			h295.43l0,0v-0.09l-15.26-22.31C389.74,486.12,387.96,486.56,386.09,486.56z"/>
		<path class="st4" d="M131.43,486.56h254.74c1.87,0,3.57-0.36,5.18-1.07l0,0L118.5,86.21v387.42
			C118.5,480.76,124.3,486.56,131.43,486.56z"/>
		<g>
			<path class="st6" d="M361.01,39.27c-0.89,0.8-1.7,1.7-2.59,2.5c-10.26,10.08-20.61,20.08-30.78,30.25h8.48
				c8.74-8.74,17.4-17.67,26.05-26.5c1.52-1.52,3.03-3.12,4.55-4.64C365.03,39.99,363.15,39.36,361.01,39.27z"/>
			<path class="st6" d="M159.36,72.11c10.97-10.89,21.95-21.86,32.84-32.84h-5.89c-10.97,10.89-21.86,21.86-32.75,32.84H159.36z"/>
			<path class="st6" d="M328.8,58.1l18.83-18.83h-17.04l-10.35,10.26c-7.58,7.5-15.61,14.9-23.38,22.49h18.47
				C319.79,67.38,324.25,62.65,328.8,58.1z"/>
			<path class="st6" d="M213.08,39.27h-13.56c-11.24,10.89-22.57,21.77-33.73,32.84h15.35C191.84,61.22,202.46,50.16,213.08,39.27z"
				/>
		</g>
	</g>
	<path class="st3" d="M176.58,109.76h-18.74c-4.1,0-7.41,3.3-7.41,7.41v18.74c0,4.1,3.3,7.41,7.41,7.41h18.74
		c4.1,0,7.41-3.3,7.41-7.41v-18.74C183.99,113.06,180.69,109.76,176.58,109.76z M179.88,131.8c0,4.1-3.3,7.41-7.41,7.41h-10.53
		c-4.1,0-7.41-3.3-7.41-7.41v-10.53c0-4.1,3.3-7.41,7.41-7.41h10.53c4.1,0,7.41,3.3,7.41,7.41V131.8z"/>
	<g>
		<path class="st3" d="M365.92,116.99H228.51c-0.98,0-1.87-0.8-1.87-1.87l0,0c0-0.98,0.8-1.87,1.87-1.87h137.32
			c0.98,0,1.87,0.8,1.87,1.87l0,0C367.7,116.19,366.9,116.99,365.92,116.99z"/>
		<path class="st3" d="M365.92,128.41H200.23c-0.98,0-1.87-0.8-1.87-1.87l0,0c0-0.98,0.8-1.87,1.87-1.87h165.6
			c0.98,0,1.87,0.8,1.87,1.87l0,0C367.7,127.61,366.9,128.41,365.92,128.41z"/>
		<path class="st3" d="M336.83,139.83H200.32c-0.98,0-1.87-0.8-1.87-1.87l0,0c0-0.98,0.8-1.87,1.87-1.87h136.52
			c0.98,0,1.87,0.8,1.87,1.87l0,0C338.62,139.03,337.81,139.83,336.83,139.83z"/>
	</g>
	<path class="st3" d="M176.58,184.71h-18.74c-4.1,0-7.41,3.3-7.41,7.41v18.74c0,4.1,3.3,7.41,7.41,7.41h18.74
		c4.1,0,7.41-3.3,7.41-7.41v-18.74C183.99,188.01,180.69,184.71,176.58,184.71z M179.88,206.75c0,4.1-3.3,7.41-7.41,7.41h-10.53
		c-4.1,0-7.41-3.3-7.41-7.41v-10.53c0-4.1,3.3-7.41,7.41-7.41h10.53c4.1,0,7.41,3.3,7.41,7.41V206.75z"/>
	<g>
		<path class="st3" d="M365.92,191.85H228.51c-0.98,0-1.87-0.8-1.87-1.87l0,0c0-0.98,0.8-1.87,1.87-1.87h137.32
			c0.98,0,1.87,0.8,1.87,1.87l0,0C367.7,191.05,366.9,191.85,365.92,191.85z"/>
		<path class="st3" d="M365.92,203.27H200.23c-0.98,0-1.87-0.8-1.87-1.87l0,0c0-0.98,0.8-1.87,1.87-1.87h165.6
			c0.98,0,1.87,0.8,1.87,1.87l0,0C367.7,202.47,366.9,203.27,365.92,203.27z"/>
		<path class="st3" d="M336.83,214.69H200.32c-0.98,0-1.87-0.8-1.87-1.87l0,0c0-0.98,0.8-1.87,1.87-1.87h136.52
			c0.98,0,1.87,0.8,1.87,1.87l0,0C338.62,213.89,337.81,214.69,336.83,214.69z"/>
	</g>
	<path class="st3" d="M176.58,259.57h-18.74c-4.1,0-7.41,3.3-7.41,7.41v18.74c0,4.1,3.3,7.41,7.41,7.41h18.74
		c4.1,0,7.41-3.3,7.41-7.41v-18.74C183.99,262.87,180.69,259.57,176.58,259.57z M179.88,281.61c0,4.1-3.3,7.41-7.41,7.41h-10.53
		c-4.1,0-7.41-3.3-7.41-7.41v-10.53c0-4.1,3.3-7.41,7.41-7.41h10.53c4.1,0,7.41,3.3,7.41,7.41V281.61z"/>
	<g>
		<path class="st3" d="M365.92,266.8H228.51c-0.98,0-1.87-0.8-1.87-1.87l0,0c0-0.98,0.8-1.87,1.87-1.87h137.32
			c0.98,0,1.87,0.8,1.87,1.87l0,0C367.7,266,366.9,266.8,365.92,266.8z"/>
		<path class="st3" d="M365.92,278.22H200.23c-0.98,0-1.87-0.8-1.87-1.87l0,0c0-0.98,0.8-1.87,1.87-1.87h165.6
			c0.98,0,1.87,0.8,1.87,1.87l0,0C367.7,277.42,366.9,278.22,365.92,278.22z"/>
		<path class="st3" d="M336.83,289.64H200.32c-0.98,0-1.87-0.8-1.87-1.87l0,0c0-0.98,0.8-1.87,1.87-1.87h136.52
			c0.98,0,1.87,0.8,1.87,1.87l0,0C338.62,288.84,337.81,289.64,336.83,289.64z"/>
	</g>
	<path class="st3" d="M176.58,334.52h-18.74c-4.1,0-7.41,3.3-7.41,7.41v18.74c0,4.1,3.3,7.41,7.41,7.41h18.74
		c4.1,0,7.41-3.3,7.41-7.41v-18.74C183.99,337.82,180.69,334.52,176.58,334.52z M179.88,356.56c0,4.1-3.3,7.41-7.41,7.41h-10.53
		c-4.1,0-7.41-3.3-7.41-7.41v-10.53c0-4.1,3.3-7.41,7.41-7.41h10.53c4.1,0,7.41,3.3,7.41,7.41V356.56z"/>
	<g>
		<path class="st3" d="M365.92,341.66H228.51c-0.98,0-1.87-0.8-1.87-1.87l0,0c0-0.98,0.8-1.87,1.87-1.87h137.32
			c0.98,0,1.87,0.8,1.87,1.87l0,0C367.7,340.86,366.9,341.66,365.92,341.66z"/>
		<path class="st3" d="M365.92,353.08H200.23c-0.98,0-1.87-0.8-1.87-1.87l0,0c0-0.98,0.8-1.87,1.87-1.87h165.6
			c0.98,0,1.87,0.8,1.87,1.87l0,0C367.7,352.28,366.9,353.08,365.92,353.08z"/>
		<path class="st3" d="M336.83,364.5H200.32c-0.98,0-1.87-0.8-1.87-1.87l0,0c0-0.98,0.8-1.87,1.87-1.87h136.52
			c0.98,0,1.87,0.8,1.87,1.87l0,0C338.62,363.7,337.81,364.5,336.83,364.5z"/>
	</g>
	<path class="st3" d="M176.58,409.38h-18.74c-4.1,0-7.41,3.3-7.41,7.41v18.74c0,4.1,3.3,7.41,7.41,7.41h18.74
		c4.1,0,7.41-3.3,7.41-7.41v-18.74C183.99,412.69,180.69,409.38,176.58,409.38z M179.88,431.42c0,4.1-3.3,7.41-7.41,7.41h-10.53
		c-4.1,0-7.41-3.3-7.41-7.41v-10.53c0-4.1,3.3-7.41,7.41-7.41h10.53c4.1,0,7.41,3.3,7.41,7.41V431.42z"/>
	<g>
		<path class="st3" d="M365.92,416.61H228.51c-0.98,0-1.87-0.8-1.87-1.87l0,0c0-0.98,0.8-1.87,1.87-1.87h137.32
			c0.98,0,1.87,0.8,1.87,1.87l0,0C367.7,415.81,366.9,416.61,365.92,416.61z"/>
		<path class="st3" d="M365.92,428.03H200.23c-0.98,0-1.87-0.8-1.87-1.87l0,0c0-0.98,0.8-1.87,1.87-1.87h165.6
			c0.98,0,1.87,0.8,1.87,1.87l0,0C367.7,427.23,366.9,428.03,365.92,428.03z"/>
		<path class="st3" d="M336.83,439.45H200.32c-0.98,0-1.87-0.8-1.87-1.87l0,0c0-0.98,0.8-1.87,1.87-1.87h136.52
			c0.98,0,1.87,0.8,1.87,1.87l0,0C338.62,438.56,337.81,439.45,336.83,439.45z"/>
	</g>
	<path class="st7" d="M182.92,108.07c-6.96,5.09-12.85,13.12-15.79,21.59c-2.77-2.68-5.62-5.09-9.9-4.46
		c-1.96,0.27-1.96,3.57,0,3.93c3.93,0.71,6.87,5.35,8.74,8.57c1.34,2.14,4.73,2.32,5.98,0c4.73-8.48,8.03-17.67,14.1-25.43
		C187.82,110.03,185.59,106.1,182.92,108.07z"/>
	<path class="st7" d="M182.92,182.66c-6.96,5.09-12.85,13.12-15.79,21.59c-2.77-2.68-5.62-5.09-9.9-4.46
		c-1.96,0.27-1.96,3.57,0,3.93c3.93,0.71,6.87,5.35,8.74,8.57c1.34,2.14,4.73,2.32,5.98,0c4.73-8.48,8.03-17.67,14.1-25.43
		C187.82,184.62,185.59,180.7,182.92,182.66z"/>
	<path class="st7" d="M182.92,257.25c-6.96,5.09-12.85,13.12-15.79,21.59c-2.77-2.68-5.62-5.09-9.9-4.46
		c-1.96,0.27-1.96,3.57,0,3.93c3.93,0.71,6.87,5.35,8.74,8.57c1.34,2.14,4.73,2.32,5.98,0c4.73-8.48,8.03-17.67,14.1-25.43
		C187.82,259.31,185.59,255.29,182.92,257.25z"/>
	<path class="st7" d="M182.92,332.47c-6.96,5.09-12.85,13.12-15.79,21.59c-2.77-2.68-5.62-5.09-9.9-4.46
		c-1.96,0.27-1.96,3.57,0,3.93c3.93,0.71,6.87,5.35,8.74,8.57c1.34,2.14,4.73,2.32,5.98,0c4.73-8.48,8.03-17.67,14.1-25.43
		C187.82,334.52,185.59,330.51,182.92,332.47z"/>
	<path class="st7" d="M182.92,408.31c-6.96,5.09-12.85,13.12-15.79,21.59c-2.77-2.68-5.62-5.09-9.9-4.46
		c-1.96,0.27-1.96,3.57,0,3.93c3.93,0.71,6.87,5.35,8.74,8.57c1.34,2.14,4.73,2.32,5.98,0c4.73-8.48,8.03-17.67,14.1-25.43
		C187.82,410.28,185.59,406.35,182.92,408.31z"/>
</g>
</svg>
