<?xml version="1.0" encoding="utf-8"?>
<!-- Generator: Adobe Illustrator 24.0.1, SVG Export Plug-In . SVG Version: 6.00 Build 0)  -->
<svg version="1.1" id="Layer_1" xmlns="http://www.w3.org/2000/svg" xmlns:xlink="http://www.w3.org/1999/xlink" x="0px" y="0px"
	 viewBox="0 0 512 512" style="enable-background:new 0 0 512 512;" xml:space="preserve">
<style type="text/css">
	.st0{clip-path:url(#SVGID_2_);}
	.st1{fill:#040000;}
	.st2{fill:#F2C4A1;}
	.st3{fill:#DBDBDB;}
	.st4{fill:none;stroke:#3F210E;stroke-width:0.5441;stroke-linecap:round;stroke-miterlimit:10;}
	.st5{fill:#CFA98C;}
	.st6{fill:#FFFFFF;}
	.st7{fill:#D69686;}
	.st8{fill:#3F210E;}
	.st9{fill:#701A40;}
	.st10{fill:#2F0E04;}
	.st11{fill:#E4E4E4;}
	.st12{fill:#EEEDEE;}
	.st13{clip-path:url(#SVGID_4_);}
	.st14{fill:#3B4655;}
	.st15{fill:#DDB595;}
	.st16{fill:#B3B3B3;}
	.st17{fill:#4E0C0E;}
	.st18{clip-path:url(#SVGID_6_);}
	.st19{fill:#AF3237;}
	.st20{fill:#821D23;}
	.st21{fill:#5D3525;}
</style>
<title>Commercial delivery</title>
<g>
	<g>
		<g>
			<defs>
				
					<ellipse id="SVGID_1_" transform="matrix(0.2298 -0.9732 0.9732 0.2298 -142.8694 289.1161)" cx="111.22" cy="234.82" rx="110.96" ry="110.96"/>
			</defs>
			<use xlink:href="#SVGID_1_"  style="overflow:visible;fill:#249ECA;"/>
			<clipPath id="SVGID_2_">
				<use xlink:href="#SVGID_1_"  style="overflow:visible;"/>
			</clipPath>
			<g class="st0">
				<rect x="60.63" y="248.75" class="st1" width="104.18" height="85.3"/>
				<rect x="99.27" y="288.31" class="st2" width="23.91" height="20.23"/>
				<path class="st3" d="M118.13,295.04c1.8,0,3.48,0.2,5.05,0.55v-7.28H99.27v19.71C101.86,300.79,108.14,295.04,118.13,295.04z"/>
				<path class="st2" d="M121.47,305.48h-10.24h-10.25c0,0-40.96-2.2-48.84,40.3h59.09h59.09
					C162.44,303.27,121.47,305.48,121.47,305.48z"/>
				<path class="st2" d="M160.38,230.38c0,34.79-20.35,62.99-49.15,62.99c-28.81,0-49.16-28.2-49.16-62.99
					c0-34.79,20.35-62.99,49.16-62.99C140.04,167.39,160.38,195.58,160.38,230.38z"/>
				<g>
					<path class="st2" d="M154.14,245.38c-1.04,5.48,0.92,10.45,4.37,11.1c3.46,0.65,7.08-3.27,8.12-8.75
						c1.03-5.48-0.93-10.45-4.39-11.1C158.79,235.98,155.17,239.9,154.14,245.38z"/>
					<path class="st3" d="M160.35,241.96c0,0,0.23,0.11,0.63,0.25c0.19,0.08,0.48,0.12,0.66,0.33c0.18,0.19,0.41,0.27,0.55,0.55
						c0.18,0.22,0.33,0.47,0.41,0.79c0.15,0.25,0.1,0.68,0.19,0.99c-0.01,0.76,0,1.57-0.23,2.4c-0.14,0.84-0.43,1.65-0.74,2.37
						c-0.31,0.74-0.7,1.32-1.1,1.77c-0.2,0.16-0.41,0.37-0.62,0.46c-0.21,0.04-0.45,0.19-0.63,0.12c-0.37-0.04-0.66-0.07-0.66-0.07
						s0.16,0.18,0.55,0.47c0.18,0.18,0.49,0.17,0.84,0.26c0.35,0.05,0.76-0.06,1.18-0.21c0.78-0.37,1.53-1.05,2.07-1.89
						c0.57-0.83,0.96-1.82,1.19-2.85c0.11-0.52,0.17-1.06,0.17-1.59c0.06-0.52-0.11-1.07-0.17-1.57c-0.19-0.52-0.3-1.02-0.65-1.42
						c-0.16-0.21-0.29-0.41-0.45-0.58c-0.2-0.14-0.4-0.27-0.59-0.4c-0.33-0.29-0.8-0.31-1.13-0.37c-0.35-0.09-0.59,0-0.8,0.03
						C160.59,241.89,160.35,241.96,160.35,241.96z"/>
				</g>
				<g>
					<path class="st2" d="M68.31,245.38c1.04,5.48-0.92,10.45-4.36,11.1c-3.46,0.65-7.08-3.27-8.12-8.75
						c-1.03-5.48,0.93-10.45,4.38-11.1C63.66,235.98,67.29,239.9,68.31,245.38z"/>
					<path class="st3" d="M62.11,241.96c0,0-0.24,0.11-0.64,0.25c-0.18,0.08-0.48,0.12-0.66,0.33c-0.18,0.19-0.4,0.27-0.55,0.55
						c-0.18,0.22-0.32,0.47-0.4,0.79c-0.16,0.25-0.11,0.68-0.2,0.99c0.02,0.76,0,1.57,0.24,2.4c0.14,0.84,0.43,1.65,0.74,2.37
						c0.31,0.74,0.69,1.32,1.09,1.77c0.21,0.16,0.41,0.37,0.63,0.46c0.21,0.04,0.45,0.19,0.62,0.12c0.38-0.04,0.66-0.07,0.66-0.07
						s-0.15,0.18-0.54,0.47c-0.19,0.18-0.49,0.17-0.85,0.26c-0.35,0.05-0.76-0.06-1.17-0.21c-0.79-0.37-1.54-1.05-2.07-1.89
						c-0.57-0.83-0.96-1.82-1.2-2.85c-0.1-0.52-0.16-1.06-0.16-1.59c-0.06-0.52,0.11-1.07,0.17-1.57c0.19-0.52,0.3-1.02,0.65-1.42
						c0.15-0.21,0.29-0.41,0.45-0.58c0.2-0.14,0.4-0.27,0.58-0.4c0.33-0.29,0.81-0.31,1.13-0.37c0.35-0.09,0.58,0,0.8,0.03
						C61.85,241.89,62.11,241.96,62.11,241.96z"/>
				</g>
				<path class="st4" d="M74.64,219.72c0,0,6.52-11.96,18.85-3.22"/>
				<path class="st4" d="M146.14,219.72c0,0-6.52-11.96-18.85-3.22"/>
				<g>
					<path class="st5" d="M116.62,252.3c0,0,0.28,0.21,0.67,0.67c0.36,0.47,0.94,1.16,1.3,2.2c0.36,0.99,0.63,2.56-0.29,4.06
						c-0.48,0.73-1.12,1.29-1.86,1.67c-0.71,0.33-1.48,0.59-2.2,0.73c-1.48,0.23-2.87,0.16-4.16,0.01
						c-1.27-0.23-2.43-0.49-3.38-0.83c-1.9-0.73-3.09-1.4-3.09-1.4s1.38-0.17,3.34-0.16c0.98-0.02,2.1-0.06,3.28-0.03
						c1.17-0.09,2.39-0.08,3.51-0.3c0.55-0.08,1.06-0.24,1.52-0.41c0.42-0.21,0.8-0.4,1.06-0.69c0.53-0.54,0.72-1.47,0.72-2.36
						c-0.01-0.88-0.1-1.72-0.24-2.27C116.69,252.63,116.62,252.3,116.62,252.3z"/>
				</g>
				<g>
					<path class="st6" d="M99.41,268.62c2.45,5.14,6.81,8.58,11.83,8.58c4.99,0,9.36-3.44,11.82-8.58H99.41z"/>
					<g>
						<path class="st7" d="M99.41,268.62c0.69,1.09,1.42,2.16,2.25,3.1c0.84,0.94,1.78,1.77,2.79,2.49c1,0.72,2.1,1.26,3.24,1.66
							c1.16,0.36,2.35,0.49,3.54,0.49l1.83-0.2c0.55-0.18,1.09-0.29,1.63-0.49c1.1-0.45,2.14-1.04,3.07-1.79
							c0.93-0.76,1.75-1.64,2.49-2.6c0.73-0.96,1.37-2,1.94-3.08l0.86,1.37c-3.94-0.07-7.88-0.05-11.82-0.26
							C107.28,269.18,103.34,268.97,99.41,268.62z M99.41,268.62c3.94-0.35,7.88-0.56,11.82-0.7c3.94-0.21,7.88-0.19,11.82-0.26
							c0.52-0.01,0.95,0.41,0.97,0.93c0,0.16-0.04,0.31-0.11,0.44c-0.6,1.2-1.25,2.39-2.08,3.47c-0.85,1.06-1.82,2.03-2.91,2.87
							c-1.09,0.83-2.32,1.49-3.61,1.98c-0.66,0.23-1.39,0.37-2.08,0.54l-2,0.15c-1.39-0.1-2.74-0.37-4-0.89
							c-1.26-0.55-2.41-1.25-3.43-2.11c-1.02-0.87-1.86-1.9-2.61-2.98C100.44,270.97,99.88,269.82,99.41,268.62z"/>
					</g>
				</g>
				<g>
					<path class="st8" d="M90.59,231.56c0,3.24-2.26,5.86-5.06,5.86c-2.8,0-5.06-2.62-5.06-5.86c0-3.24,2.26-5.86,5.06-5.86
						C88.33,225.7,90.59,228.33,90.59,231.56z"/>
					<g>
						<path class="st6" d="M83.99,229.21c0,1.3-1.05,2.36-2.36,2.36s-2.36-1.06-2.36-2.36c0-1.31,1.05-2.36,2.36-2.36
							S83.99,227.9,83.99,229.21z"/>
						<path class="st6" d="M83.88,232.63c0,0.62-0.5,1.12-1.13,1.12c-0.62,0-1.12-0.5-1.12-1.12c0-0.62,0.5-1.12,1.12-1.12
							C83.38,231.51,83.88,232.01,83.88,232.63z"/>
					</g>
				</g>
				<g>
					<path class="st8" d="M130.4,231.56c0,3.24,2.26,5.86,5.05,5.86c2.8,0,5.06-2.62,5.06-5.86c0-3.24-2.27-5.86-5.06-5.86
						C132.66,225.7,130.4,228.33,130.4,231.56z"/>
					<g>
						<path class="st6" d="M136.99,229.21c0,1.3,1.05,2.36,2.36,2.36s2.36-1.06,2.36-2.36c0-1.31-1.05-2.36-2.36-2.36
							S136.99,227.9,136.99,229.21z"/>
						<path class="st6" d="M137.11,232.63c0,0.62,0.5,1.12,1.12,1.12c0.62,0,1.13-0.5,1.13-1.12c0-0.62-0.5-1.12-1.13-1.12
							C137.61,231.51,137.11,232.01,137.11,232.63z"/>
					</g>
				</g>
				<path class="st9" d="M152.16,345.78H73.55c13.74-10.62,3.68-35.04,3.68-35.04c2.84-1.38,5.65-2.4,8.3-3.16
					c0,0,25.69,31.48,51.17-0.06c3.4,0.96,7.09,2.37,10.74,4.42C147.45,311.94,133.47,335.24,152.16,345.78z"/>
				<path class="st10" d="M62.07,236.56"/>
				<path class="st10" d="M89.47,168.54"/>
				<g>
					<g>
						<path class="st11" d="M65.98,255.39c0,1.84-1.49,3.34-3.33,3.34c-1.84,0-3.33-1.5-3.33-3.34c0-1.84,1.49-3.34,3.33-3.34
							C64.49,252.06,65.98,253.55,65.98,255.39z"/>
						<path class="st12" d="M65.69,256.51c-0.49,0.5-1.17,0.77-1.86,0.77c-0.69,0-1.37-0.28-1.86-0.77
							c-0.49-0.49-0.77-1.16-0.77-1.86v-0.04c0-0.69,0.28-1.37,0.77-1.86c0.31-0.31,0.69-0.54,1.1-0.66
							c-0.14-0.01-0.27-0.03-0.41-0.03c-1.84,0-3.33,1.49-3.33,3.34c0,1.84,1.49,3.34,3.33,3.34c1.52,0,2.8-1.01,3.2-2.39
							C65.79,256.39,65.74,256.45,65.69,256.51z"/>
					</g>
					<path class="st6" d="M65.09,254.42c0,0.68-0.55,1.22-1.22,1.22c-0.67,0-1.22-0.55-1.22-1.22c0-0.67,0.55-1.22,1.22-1.22
						C64.54,253.2,65.09,253.75,65.09,254.42z"/>
				</g>
				<g>
					<g>
						<path class="st11" d="M162.16,255.39c0,1.84-1.49,3.34-3.34,3.34c-1.84,0-3.32-1.5-3.32-3.34c0-1.84,1.49-3.34,3.32-3.34
							C160.66,252.06,162.16,253.55,162.16,255.39z"/>
						<path class="st12" d="M161.87,256.51c-0.49,0.5-1.17,0.77-1.86,0.77c-0.7,0-1.38-0.28-1.87-0.77
							c-0.48-0.49-0.77-1.16-0.77-1.86v-0.04c0-0.69,0.29-1.37,0.77-1.86c0.31-0.31,0.69-0.54,1.11-0.66
							c-0.14-0.01-0.27-0.03-0.42-0.03c-1.84,0-3.32,1.49-3.32,3.34c0,1.84,1.49,3.34,3.32,3.34c1.52,0,2.8-1.01,3.21-2.39
							C161.97,256.39,161.92,256.45,161.87,256.51z"/>
					</g>
					<path class="st6" d="M161.27,254.42c0,0.68-0.55,1.22-1.22,1.22c-0.68,0-1.23-0.55-1.23-1.22c0-0.67,0.55-1.22,1.23-1.22
						C160.72,253.2,161.27,253.75,161.27,254.42z"/>
				</g>
				<path class="st1" d="M107.08,174.76c0,0,7.41,26.65,47.68,41.75c0,0,5.13,4.1,4.44,22.03c0,0,2.18-4.26,5.9,0
					c0,0,7.9-41.3-6.29-63.78c0,0-17.18-23.95-46.1-20.28C112.72,154.48,103.23,159.49,107.08,174.76z"/>
				<path class="st1" d="M115.77,174.76c0,0-7.4,26.65-47.67,41.75c0,0-5.13,4.1-4.44,22.03c0,0-2.18-4.26-5.91,0
					c0,0-7.9-41.3,6.29-63.78c0,0,17.19-23.95,46.1-20.28C110.13,154.48,119.62,159.49,115.77,174.76z"/>
			</g>
		</g>
		<ellipse class="st2" cx="110.3" cy="240.55" rx="44.67" ry="37.79"/>
	</g>
	<g>
		<g>
			<g>
				<defs>
					<path id="SVGID_3_" d="M511.74,233.57c0,61.27-49.68,110.96-110.96,110.96s-110.96-49.68-110.96-110.96
						c0-61.28,49.68-110.96,110.96-110.96S511.74,172.28,511.74,233.57z"/>
				</defs>
				<use xlink:href="#SVGID_3_"  style="overflow:visible;fill:#EDAF32;"/>
				<clipPath id="SVGID_4_">
					<use xlink:href="#SVGID_3_"  style="overflow:visible;"/>
				</clipPath>
				<g class="st13">
					<path class="st2" d="M412.74,304.2h-11.96h-11.96c0,0-61.67,8.41-64.84,34.94v5.39h76.8h76.8v-5.39
						C474.41,312.6,412.74,304.2,412.74,304.2z"/>
					<g>
						<path class="st2" d="M446.09,240.91c-1.04,5.48,0.92,10.45,4.37,11.1c3.45,0.65,7.08-3.27,8.11-8.75
							c1.03-5.48-0.92-10.45-4.38-11.1C450.74,231.51,447.11,235.43,446.09,240.91z"/>
						<path class="st3" d="M452.29,237.5c0,0,0.23,0.11,0.63,0.26c0.19,0.07,0.48,0.12,0.66,0.33c0.19,0.19,0.4,0.26,0.55,0.55
							c0.18,0.21,0.32,0.47,0.4,0.78c0.16,0.26,0.11,0.68,0.2,1c-0.01,0.75,0,1.57-0.23,2.4c-0.14,0.84-0.44,1.65-0.75,2.37
							c-0.31,0.74-0.69,1.33-1.09,1.77c-0.21,0.16-0.41,0.37-0.62,0.46c-0.21,0.04-0.46,0.2-0.63,0.13
							c-0.38-0.05-0.66-0.07-0.66-0.07s0.15,0.17,0.55,0.46c0.18,0.18,0.48,0.17,0.84,0.26c0.35,0.04,0.76-0.06,1.18-0.21
							c0.78-0.36,1.53-1.05,2.07-1.88c0.56-0.84,0.96-1.82,1.18-2.86c0.11-0.52,0.18-1.05,0.17-1.58c0.06-0.52-0.11-1.07-0.17-1.57
							c-0.19-0.51-0.29-1.01-0.64-1.42c-0.16-0.21-0.29-0.41-0.46-0.58c-0.2-0.14-0.4-0.28-0.58-0.4c-0.33-0.29-0.81-0.3-1.13-0.37
							c-0.34-0.09-0.58,0-0.8,0.03C452.54,237.43,452.29,237.5,452.29,237.5z"/>
					</g>
					<g>
						<path class="st2" d="M357.15,240.91c1.03,5.48-0.93,10.45-4.38,11.1c-3.45,0.65-7.07-3.27-8.11-8.75
							c-1.03-5.48,0.93-10.45,4.38-11.1C352.49,231.51,356.11,235.43,357.15,240.91z"/>
						<path class="st3" d="M350.93,237.5c0,0-0.22,0.11-0.63,0.26c-0.19,0.07-0.48,0.12-0.65,0.33c-0.19,0.19-0.41,0.26-0.56,0.55
							c-0.19,0.21-0.32,0.47-0.4,0.78c-0.15,0.26-0.11,0.68-0.2,1c0.01,0.75,0,1.57,0.24,2.4c0.13,0.84,0.43,1.65,0.74,2.37
							c0.31,0.74,0.69,1.33,1.09,1.77c0.21,0.16,0.41,0.37,0.63,0.46c0.2,0.04,0.45,0.2,0.63,0.13c0.37-0.05,0.65-0.07,0.65-0.07
							s-0.16,0.17-0.54,0.46c-0.18,0.18-0.49,0.17-0.85,0.26c-0.34,0.04-0.77-0.06-1.17-0.21c-0.79-0.36-1.54-1.05-2.07-1.88
							c-0.57-0.84-0.97-1.82-1.19-2.86c-0.11-0.52-0.18-1.05-0.17-1.58c-0.06-0.52,0.11-1.07,0.17-1.57
							c0.19-0.51,0.29-1.01,0.64-1.42c0.16-0.21,0.3-0.41,0.46-0.58c0.2-0.14,0.4-0.28,0.58-0.4c0.33-0.29,0.81-0.3,1.13-0.37
							c0.34-0.09,0.58,0,0.8,0.03C350.69,237.43,350.93,237.5,350.93,237.5z"/>
					</g>
					<rect x="388.82" y="288.43" class="st2" width="23.92" height="20.23"/>
					<path class="st3" d="M412.74,290.53v-2.09h-23.92v15.54C392.79,295.42,403.09,290.86,412.74,290.53z"/>
					<path class="st2" d="M452.13,225.59c0,35.79-21.71,64.8-51.34,64.8c-29.63,0-50.77-30.07-50.77-65.86
						c-0.54-47.54,21.14-63.74,50.77-63.74C430.43,160.79,454.74,175.35,452.13,225.59z"/>
					<path class="st14" d="M416.06,304.73c12.84,2.19,58.79,11.58,61.52,34.41v5.39h-153.6v-5.39
						c2.73-22.83,48.74-32.23,61.54-34.41l15.26,19.9L416.06,304.73z"/>
					<path class="st4" d="M365.03,215.26c0,0,6.52-11.96,18.85-3.23"/>
					<path class="st4" d="M436.53,215.26c0,0-6.53-11.96-18.86-3.23"/>
					<g>
						<path class="st5" d="M407,247.85c0,0,0.28,0.21,0.67,0.67c0.36,0.47,0.94,1.15,1.3,2.2c0.37,0.99,0.64,2.56-0.29,4.06
							c-0.48,0.72-1.11,1.29-1.86,1.67c-0.71,0.33-1.47,0.59-2.2,0.73c-1.47,0.22-2.87,0.16-4.15,0.01
							c-1.26-0.23-2.42-0.49-3.38-0.83c-1.9-0.73-3.09-1.4-3.09-1.4s1.38-0.17,3.34-0.16c0.98-0.03,2.1-0.07,3.28-0.04
							c1.16-0.09,2.39-0.07,3.51-0.3c0.55-0.08,1.06-0.24,1.52-0.41c0.42-0.21,0.8-0.4,1.06-0.68c0.53-0.54,0.72-1.47,0.72-2.36
							c0-0.89-0.1-1.72-0.24-2.27C407.07,248.18,407,247.85,407,247.85z"/>
					</g>
					<g>
						<path class="st6" d="M386.72,267.07c3,5.5,8.34,9.18,14.46,9.18c6.11,0,11.46-3.68,14.45-9.18H386.72z"/>
						<g>
							<path class="st15" d="M386.72,267.07c0.87,1.23,1.81,2.41,2.83,3.44c1.07,1.02,2.25,1.88,3.47,2.65
								c1.26,0.73,2.58,1.28,3.95,1.68l2.09,0.39l2.11,0.07l2.16-0.22l1.96-0.5c1.31-0.48,2.56-1.1,3.74-1.85
								c1.15-0.8,2.2-1.73,3.15-2.77c0.91-1.07,1.74-2.21,2.45-3.44l0.99,1.66C405.98,268.11,396.36,267.86,386.72,267.07z
								 M386.72,267.07c9.64-0.79,19.26-1.04,28.9-1.13c0.62-0.01,1.13,0.47,1.13,1.09c0,0.2-0.05,0.41-0.14,0.58
								c-0.79,1.38-1.66,2.7-2.72,3.89c-1.09,1.17-2.3,2.2-3.63,3.1l-2.1,1.16l-2.25,0.83l-2.42,0.5l-2.32,0.11l-2.37-0.26
								l-2.29-0.61c-1.48-0.56-2.87-1.27-4.15-2.16c-1.25-0.93-2.33-2.03-3.31-3.21l-1.31-1.88L386.72,267.07z"/>
						</g>
					</g>
					<g>
						<path class="st8" d="M380.98,227.1c0,3.24-2.26,5.86-5.05,5.86c-2.8,0-5.06-2.62-5.06-5.86c0-3.24,2.26-5.86,5.06-5.86
							C378.72,221.23,380.98,223.86,380.98,227.1z"/>
						<g>
							<path class="st6" d="M374.38,224.74c0,1.3-1.06,2.36-2.36,2.36c-1.3,0-2.36-1.06-2.36-2.36c0-1.3,1.06-2.36,2.36-2.36
								C373.33,222.38,374.38,223.44,374.38,224.74z"/>
							<ellipse class="st6" cx="373.14" cy="228.16" rx="1.12" ry="1.12"/>
						</g>
					</g>
					<g>
						<path class="st8" d="M420.78,227.1c0,3.24,2.27,5.86,5.06,5.86c2.8,0,5.06-2.62,5.06-5.86c0-3.24-2.27-5.86-5.06-5.86
							C423.05,221.23,420.78,223.86,420.78,227.1z"/>
						<g>
							<path class="st6" d="M427.38,224.74c0,1.3,1.06,2.36,2.36,2.36c1.3,0,2.36-1.06,2.36-2.36c0-1.3-1.06-2.36-2.36-2.36
								C428.43,222.38,427.38,223.44,427.38,224.74z"/>
							<path class="st6" d="M427.5,228.16c0,0.62,0.5,1.12,1.12,1.12c0.62,0,1.12-0.5,1.12-1.12s-0.5-1.12-1.12-1.12
								C428,227.04,427.5,227.54,427.5,228.16z"/>
						</g>
					</g>
					<path class="st16" d="M361.33,192.48c0,0,36.61,14.61,73.21-12.39C434.54,180.09,371.03,158.93,361.33,192.48z"/>
					<path class="st17" d="M429.86,183.27c-1.76,0.99-71.65,24.01-85.06-7.41c0,0,2.65,2.46,8.27,0.72c0,0-10.48-1.35-8.41-11.47
						c0,0,3.99,3.11,8.41,3.5c0,0-6.54-2.99-5.48-12.06c0,0,6.67,6.47,14.31,4.08c0,0,31.56-25.29,62.33-7.15
						C424.23,153.46,454.82,169.14,429.86,183.27z"/>
					<path class="st17" d="M380.74,182.79c0,0-14.28-2-17.21,22.14c0,0,0.21,10.2-5.32,16.3c0,0-5.4,3.51-2.17,20.86l-3.66-9.93
						c0,0-4.64-9.78-2.5-35.75c0,0,4.37-35.55,26.96-36.3L380.74,182.79z"/>
					<path class="st17" d="M425.84,182.79c0,0,14.28-2,17.22,22.14c0,0-0.22,10.2,5.31,16.3c0,0,5.4,3.51,2.17,20.86l3.65-9.93
						c0,0,4.65-9.78,2.51-35.75c0,0-4.37-35.55-26.96-36.3L425.84,182.79z"/>
				</g>
			</g>
		</g>
		<ellipse class="st2" cx="401.19" cy="238.26" rx="44.67" ry="40.08"/>
	</g>
	<g>
		<g>
			<g>
				<defs>
					<path id="SVGID_5_" d="M372.16,278.22c0,61.28-49.68,110.96-110.96,110.96c-61.27,0-110.96-49.68-110.96-110.96
						s49.69-110.96,110.96-110.96C322.48,167.26,372.16,216.94,372.16,278.22z"/>
				</defs>
				<use xlink:href="#SVGID_5_"  style="overflow:visible;fill:#13A89D;"/>
				<clipPath id="SVGID_6_">
					<use xlink:href="#SVGID_5_"  style="overflow:visible;"/>
				</clipPath>
				<g class="st18">
					<path class="st2" d="M273.16,348.85H261.2h-11.96c0,0-61.66,8.4-64.84,34.94v5.38h76.8H338v-5.38
						C334.83,357.26,273.16,348.85,273.16,348.85z"/>
					<g>
						<path class="st2" d="M306.51,285.57c-1.03,5.48,0.92,10.45,4.37,11.09c3.46,0.65,7.08-3.27,8.11-8.75
							c1.04-5.48-0.92-10.45-4.37-11.1C311.17,276.17,307.53,280.09,306.51,285.57z"/>
						<path class="st3" d="M312.71,282.16c0,0,0.23,0.11,0.63,0.26c0.2,0.07,0.48,0.12,0.67,0.33c0.18,0.19,0.4,0.27,0.55,0.55
							c0.19,0.21,0.33,0.47,0.41,0.78c0.15,0.26,0.11,0.68,0.2,1c-0.02,0.75-0.01,1.57-0.24,2.4c-0.14,0.84-0.43,1.66-0.74,2.38
							c-0.31,0.74-0.7,1.32-1.09,1.77c-0.21,0.16-0.41,0.37-0.62,0.46c-0.22,0.04-0.46,0.2-0.64,0.13
							c-0.37-0.05-0.65-0.07-0.65-0.07s0.15,0.17,0.54,0.46c0.18,0.18,0.49,0.16,0.85,0.26c0.35,0.04,0.76-0.06,1.17-0.21
							c0.78-0.37,1.54-1.05,2.07-1.89c0.57-0.83,0.96-1.82,1.19-2.85c0.11-0.52,0.17-1.05,0.17-1.58c0.05-0.52-0.11-1.07-0.18-1.57
							c-0.18-0.51-0.29-1.01-0.64-1.42c-0.15-0.21-0.29-0.41-0.45-0.58c-0.2-0.13-0.4-0.27-0.59-0.4c-0.33-0.29-0.81-0.3-1.13-0.37
							c-0.34-0.09-0.57,0-0.79,0.03C312.96,282.08,312.71,282.16,312.71,282.16z"/>
					</g>
					<g>
						<path class="st2" d="M217.57,285.57c1.03,5.48-0.92,10.45-4.37,11.09c-3.45,0.65-7.08-3.27-8.12-8.75
							c-1.02-5.48,0.93-10.45,4.39-11.1C212.92,276.17,216.54,280.09,217.57,285.57z"/>
						<path class="st3" d="M211.36,282.16c0,0-0.23,0.11-0.64,0.26c-0.19,0.07-0.47,0.12-0.65,0.33c-0.18,0.19-0.41,0.27-0.55,0.55
							c-0.18,0.21-0.33,0.47-0.41,0.78c-0.15,0.26-0.1,0.68-0.2,1c0.02,0.75,0.01,1.57,0.24,2.4c0.13,0.84,0.43,1.66,0.74,2.38
							c0.31,0.74,0.7,1.32,1.1,1.77c0.2,0.16,0.41,0.37,0.62,0.46c0.21,0.04,0.46,0.2,0.63,0.13c0.37-0.05,0.65-0.07,0.65-0.07
							s-0.15,0.17-0.54,0.46c-0.18,0.18-0.48,0.16-0.84,0.26c-0.35,0.04-0.76-0.06-1.18-0.21c-0.78-0.37-1.54-1.05-2.07-1.89
							c-0.57-0.83-0.96-1.82-1.19-2.85c-0.11-0.52-0.17-1.05-0.17-1.58c-0.05-0.52,0.11-1.07,0.18-1.57
							c0.18-0.51,0.29-1.01,0.64-1.42c0.16-0.21,0.29-0.41,0.45-0.58c0.2-0.13,0.4-0.27,0.58-0.4c0.33-0.29,0.82-0.3,1.13-0.37
							c0.35-0.09,0.59,0,0.8,0.03C211.12,282.08,211.36,282.16,211.36,282.16z"/>
					</g>
					<rect x="249.24" y="333.09" class="st2" width="23.92" height="20.23"/>
					<path class="st3" d="M273.16,335.18v-2.09h-23.92v15.54C253.22,340.08,263.51,335.51,273.16,335.18z"/>
					<path class="st2" d="M312.55,270.24c0,35.79-21.71,64.81-51.34,64.81c-29.63,0-50.76-30.07-50.76-65.86
						c-0.54-47.55,21.13-63.75,50.76-63.75C290.85,205.44,315.16,220.01,312.55,270.24z"/>
					<path class="st19" d="M276.49,349.39c-2.3,5.59-7.39,9.93-15.27,9.93c-7.9,0-12.98-4.34-15.28-9.93
						c-12.79,2.18-58.8,11.58-61.54,34.41v5.38H338v-5.38C335.27,360.97,289.32,351.57,276.49,349.39z"/>
					<g>
						<path class="st20" d="M276.49,349.39c-2.3,5.59-7.39,9.93-15.27,9.93c-7.9,0-12.98-4.34-15.28-9.93
							c-1.33,0.23-3.04,0.54-5.01,0.93c2.54,8.67,10.66,15.16,20.06,15.16h0.23c9.42,0,17.54-6.51,20.07-15.2
							C279.41,349.9,277.78,349.6,276.49,349.39z"/>
					</g>
					<path class="st4" d="M225.45,259.91c0,0,6.53-11.96,18.86-3.22"/>
					<path class="st4" d="M296.95,259.91c0,0-6.52-11.96-18.85-3.22"/>
					<g>
						<path class="st5" d="M267.42,292.5c0,0,0.28,0.21,0.67,0.67c0.36,0.47,0.94,1.15,1.3,2.2c0.37,0.99,0.64,2.56-0.28,4.06
							c-0.48,0.72-1.12,1.29-1.86,1.67c-0.71,0.33-1.48,0.59-2.2,0.73c-1.47,0.22-2.87,0.16-4.16,0.01
							c-1.26-0.23-2.42-0.49-3.38-0.83c-1.9-0.73-3.09-1.4-3.09-1.4s1.38-0.17,3.34-0.16c0.98-0.03,2.1-0.07,3.27-0.04
							c1.17-0.09,2.39-0.07,3.51-0.3c0.55-0.08,1.06-0.24,1.52-0.41c0.42-0.21,0.8-0.4,1.06-0.69c0.53-0.54,0.71-1.47,0.71-2.36
							c0-0.88-0.1-1.72-0.24-2.27C267.49,292.83,267.42,292.5,267.42,292.5z"/>
					</g>
					<g>
						<path class="st6" d="M247.15,311.72c2.99,5.5,8.33,9.18,14.45,9.18c6.11,0,11.45-3.68,14.45-9.18H247.15z"/>
						<g>
							<path class="st15" d="M247.15,311.72c0.87,1.23,1.81,2.41,2.83,3.44c1.07,1.02,2.25,1.89,3.47,2.65l1.92,0.98l2.03,0.7
								l2.09,0.38l2.11,0.07l2.16-0.22l1.96-0.5c1.32-0.48,2.56-1.09,3.75-1.85c1.15-0.8,2.2-1.73,3.15-2.76
								c0.91-1.08,1.73-2.21,2.45-3.44l0.99,1.66C266.41,312.77,256.78,312.52,247.15,311.72z M247.15,311.72
								c9.64-0.79,19.26-1.04,28.9-1.13c0.62-0.01,1.13,0.47,1.13,1.09c0,0.2-0.05,0.41-0.14,0.58c-0.79,1.38-1.66,2.7-2.73,3.89
								c-1.09,1.17-2.29,2.2-3.62,3.1l-2.1,1.16l-2.25,0.83l-2.42,0.5l-2.32,0.11l-2.37-0.26l-2.29-0.61l-2.16-0.94l-1.99-1.22
								c-1.25-0.93-2.33-2.03-3.31-3.21l-1.31-1.88L247.15,311.72z"/>
						</g>
					</g>
					<g>
						<path class="st8" d="M241.41,271.75c0,3.24-2.27,5.86-5.06,5.86c-2.8,0-5.06-2.63-5.06-5.86c0-3.24,2.26-5.86,5.06-5.86
							C239.14,265.89,241.41,268.51,241.41,271.75z"/>
						<g>
							<path class="st6" d="M234.81,269.4c0,1.3-1.06,2.36-2.37,2.36c-1.3,0-2.36-1.06-2.36-2.36c0-1.3,1.06-2.36,2.36-2.36
								C233.75,267.04,234.81,268.1,234.81,269.4z"/>
							<path class="st6" d="M234.69,272.82c0,0.62-0.5,1.12-1.13,1.12c-0.62,0-1.12-0.49-1.12-1.12c0-0.62,0.5-1.11,1.12-1.11
								C234.19,271.71,234.69,272.2,234.69,272.82z"/>
						</g>
					</g>
					<g>
						<path class="st8" d="M281.2,271.75c0,3.24,2.27,5.86,5.06,5.86c2.8,0,5.06-2.63,5.06-5.86c0-3.24-2.26-5.86-5.06-5.86
							C283.47,265.89,281.2,268.51,281.2,271.75z"/>
						<g>
							<path class="st6" d="M287.8,269.4c0,1.3,1.06,2.36,2.36,2.36c1.3,0,2.35-1.06,2.35-2.36c0-1.3-1.05-2.36-2.35-2.36
								C288.86,267.04,287.8,268.1,287.8,269.4z"/>
							<path class="st6" d="M287.92,272.82c0,0.62,0.5,1.12,1.12,1.12c0.62,0,1.13-0.49,1.13-1.12c0-0.62-0.5-1.11-1.13-1.11
								C288.42,271.71,287.92,272.2,287.92,272.82z"/>
						</g>
					</g>
					<path class="st21" d="M303.38,198.41c0,0,9.15,8.08,18.68-4.01c0,0-1.09,11.63-7.88,15.89c0,0,6.41,6.33,14.11-0.2
						c0,0,2.19,8.13-6.6,15.82c0,0,1.49,22.44-4.5,44.33l-2.58,6.58l-2.37,0.8l-1.28,9.12h-2.45l2.69-30.03
						c0,0,2.45-35.56-29.99-36.66c0,0-14.5-2.6-17.05,8.05c0,0-0.49-10.98-19.84-8.05c0,0-9.43-14.61,4.93-27.49
						C249.24,192.56,272.22,174.93,303.38,198.41z"/>
					<path class="st21" d="M220.38,198.41c31.15-23.48,62.11-10.63,62.11-10.63c14.37,12.88-3.04,32.27-3.04,32.27
						c-13.65-1.46-15.3,8.05-15.3,8.05c-0.18-11.53-21.6-8.05-21.6-8.05c-26.95,1.28-27.86,36.66-27.86,36.66l0.57,30.03h-2.46
						l-1.27-9.12l-2.37-0.8C209.15,276.82,193.11,219.27,220.38,198.41z"/>
				</g>
			</g>
		</g>
		<circle class="st2" cx="261.47" cy="279.49" r="44.67"/>
	</g>
</g>
</svg>
