<?xml version="1.0" encoding="utf-8"?>
<!-- Generator: Adobe Illustrator 24.0.1, SVG Export Plug-In . SVG Version: 6.00 Build 0)  -->
<svg version="1.1" id="Layer_1" xmlns="http://www.w3.org/2000/svg" xmlns:xlink="http://www.w3.org/1999/xlink" x="0px" y="0px"
	 viewBox="0 0 512 512" style="enable-background:new 0 0 512 512;" xml:space="preserve">
<style type="text/css">
	.st0{fill:#CF7D3E;}
	.st1{fill:#EADDD0;}
	.st2{fill:#ECA153;}
	.st3{opacity:0.5;fill:#F9D9C7;enable-background:new    ;}
	.st4{fill:#ECECEB;}
	.st5{fill:#6E441F;}
	.st6{fill:none;stroke:#6E441F;stroke-width:0.3698;stroke-linecap:round;stroke-linejoin:round;stroke-miterlimit:10;}
	.st7{fill:#C47136;}
	.st8{fill:#E09348;}
	.st9{fill:#472A27;}
	.st10{fill:#2F1914;}
	.st11{fill:#24120A;}
	.st12{fill:none;stroke:#6E441F;stroke-width:0.3182;stroke-linecap:round;stroke-linejoin:round;stroke-miterlimit:10;}
</style>
<title>Commercial delivery</title>
<g>
	<g>
		<rect x="77.6" y="98.04" class="st0" width="36.04" height="71.99"/>
		<rect x="88.81" y="98.04" class="st1" width="11.31" height="21.64"/>
		<rect x="11.12" y="98.04" class="st2" width="66.38" height="71.99"/>
		<polygon class="st3" points="13.73,167.22 13.73,100.84 74.99,100.84 		"/>
		<rect x="90.07" y="98.04" class="st4" width="10.92" height="20.77"/>
		<rect x="48.32" y="147.61" class="st5" width="24.45" height="3.38"/>
		<rect x="56.15" y="154.08" class="st5" width="16.62" height="3.38"/>
		<rect x="66.1" y="159.59" class="st6" width="5.89" height="5.31"/>
		<rect x="57.12" y="159.59" class="st6" width="5.89" height="5.31"/>
	</g>
	<g>
		<rect x="179.93" y="98.04" class="st0" width="36.04" height="71.99"/>
		<rect x="191.14" y="98.04" class="st1" width="11.31" height="21.64"/>
		<rect x="113.55" y="98.04" class="st2" width="66.38" height="71.99"/>
		<polygon class="st3" points="116.16,167.22 116.16,100.84 177.32,100.84 		"/>
		<rect x="192.49" y="98.04" class="st4" width="10.92" height="20.77"/>
		<rect x="150.65" y="147.61" class="st5" width="24.54" height="3.38"/>
		<rect x="158.57" y="154.08" class="st5" width="16.62" height="3.38"/>
		<rect x="168.53" y="159.59" class="st6" width="5.89" height="5.31"/>
		<rect x="159.44" y="159.59" class="st6" width="5.89" height="5.31"/>
	</g>
	<g>
		<rect x="77.6" y="242.11" class="st0" width="36.04" height="71.99"/>
		<rect x="88.81" y="242.11" class="st1" width="11.31" height="21.64"/>
		<rect x="11.12" y="242.11" class="st2" width="66.38" height="71.99"/>
		<polygon class="st3" points="13.73,311.29 13.73,244.91 74.99,244.91 		"/>
		<rect x="90.07" y="242.11" class="st4" width="10.92" height="20.77"/>
		<rect x="48.32" y="291.68" class="st5" width="24.45" height="3.38"/>
		<rect x="56.15" y="298.15" class="st5" width="16.62" height="3.38"/>
		<rect x="66.1" y="303.56" class="st6" width="5.89" height="5.31"/>
		<rect x="57.12" y="303.56" class="st6" width="5.89" height="5.31"/>
	</g>
	<g>
		<rect x="179.93" y="242.11" class="st0" width="36.04" height="71.99"/>
		<rect x="191.14" y="242.11" class="st1" width="11.31" height="21.64"/>
		<rect x="113.55" y="242.11" class="st2" width="66.38" height="71.99"/>
		<polygon class="st3" points="116.16,311.29 116.16,244.91 177.32,244.91 		"/>
		<rect x="192.49" y="242.11" class="st4" width="10.92" height="20.77"/>
		<rect x="150.65" y="291.68" class="st5" width="24.54" height="3.38"/>
		<rect x="158.57" y="298.15" class="st5" width="16.62" height="3.38"/>
		<rect x="168.53" y="303.56" class="st6" width="5.89" height="5.31"/>
		<rect x="159.44" y="303.56" class="st6" width="5.89" height="5.31"/>
	</g>
	<g>
		<rect x="77.6" y="170.03" class="st7" width="36.04" height="71.99"/>
		<rect x="88.81" y="170.03" class="st1" width="11.31" height="21.64"/>
		<rect x="11.12" y="170.03" class="st8" width="66.38" height="71.99"/>
		<polygon class="st3" points="13.73,239.21 13.73,172.92 74.99,172.92 		"/>
		<rect x="90.07" y="170.03" class="st4" width="10.92" height="20.77"/>
		<rect x="48.32" y="219.59" class="st5" width="24.45" height="3.38"/>
		<rect x="56.15" y="226.17" class="st5" width="16.62" height="3.38"/>
		<rect x="66.1" y="231.58" class="st6" width="5.89" height="5.31"/>
		<rect x="57.12" y="231.58" class="st6" width="5.89" height="5.31"/>
	</g>
	<g>
		<rect x="179.93" y="170.03" class="st7" width="36.04" height="71.99"/>
		<rect x="191.14" y="170.03" class="st1" width="11.31" height="21.64"/>
		<rect x="113.55" y="170.03" class="st8" width="66.38" height="71.99"/>
		<polygon class="st3" points="116.16,239.21 116.16,172.92 177.32,172.92 		"/>
		<rect x="192.49" y="170.03" class="st4" width="10.92" height="20.77"/>
		<rect x="150.65" y="219.59" class="st5" width="24.54" height="3.38"/>
		<rect x="158.57" y="226.17" class="st5" width="16.62" height="3.38"/>
		<rect x="168.53" y="231.58" class="st6" width="5.89" height="5.31"/>
		<rect x="159.44" y="231.58" class="st6" width="5.89" height="5.31"/>
	</g>
	<g>
		<rect x="77.6" y="314.09" class="st7" width="36.04" height="71.99"/>
		<rect x="88.81" y="314.09" class="st1" width="11.31" height="21.64"/>
		<rect x="11.12" y="314.09" class="st8" width="66.38" height="71.99"/>
		<polygon class="st3" points="13.73,383.28 13.73,316.9 74.99,316.9 		"/>
		<rect x="90.07" y="314.09" class="st4" width="10.92" height="20.77"/>
		<rect x="48.32" y="363.66" class="st5" width="24.45" height="3.38"/>
		<rect x="56.15" y="370.14" class="st5" width="16.62" height="3.38"/>
		<rect x="66.1" y="375.55" class="st6" width="5.89" height="5.31"/>
		<rect x="57.12" y="375.55" class="st6" width="5.89" height="5.31"/>
	</g>
	<g>
		<rect x="179.93" y="314.09" class="st7" width="36.04" height="71.99"/>
		<rect x="191.14" y="314.09" class="st1" width="11.31" height="21.64"/>
		<rect x="113.55" y="314.09" class="st8" width="66.38" height="71.99"/>
		<polygon class="st3" points="116.16,383.28 116.16,316.9 177.32,316.9 		"/>
		<rect x="192.49" y="314.09" class="st4" width="10.92" height="20.77"/>
		<rect x="150.65" y="363.66" class="st5" width="24.54" height="3.38"/>
		<rect x="158.57" y="370.14" class="st5" width="16.62" height="3.38"/>
		<rect x="168.53" y="375.55" class="st6" width="5.89" height="5.31"/>
		<rect x="159.44" y="375.55" class="st6" width="5.89" height="5.31"/>
	</g>
	<rect x="3.2" y="386.08" class="st9" width="221.85" height="11.5"/>
	<rect x="3.2" y="393.81" class="st10" width="221.85" height="3.67"/>
	<rect x="3.2" y="409.08" class="st9" width="221.85" height="9.66"/>
	<rect x="3.2" y="415.55" class="st10" width="221.85" height="3.09"/>
	<rect x="9.77" y="397.58" class="st9" width="7.44" height="11.5"/>
	<rect x="9.77" y="397.58" class="st11" width="7.44" height="3.87"/>
	<rect x="50.16" y="397.58" class="st9" width="7.44" height="11.5"/>
	<rect x="50.16" y="397.58" class="st11" width="7.44" height="3.87"/>
	<rect x="90.55" y="397.58" class="st9" width="7.44" height="11.5"/>
	<rect x="90.55" y="397.58" class="st11" width="7.44" height="3.87"/>
	<rect x="130.94" y="397.58" class="st9" width="7.44" height="11.5"/>
	<rect x="130.94" y="397.58" class="st11" width="7.44" height="3.87"/>
	<rect x="171.33" y="397.58" class="st9" width="7.44" height="11.5"/>
	<rect x="171.33" y="397.58" class="st11" width="7.44" height="3.87"/>
	<rect x="211.72" y="397.58" class="st9" width="7.44" height="11.5"/>
	<rect x="211.72" y="397.58" class="st11" width="7.44" height="3.87"/>
</g>
<g>
	<g>
		<rect x="296.46" y="172.83" class="st0" width="31.31" height="61.36"/>
		<rect x="306.12" y="172.83" class="st1" width="9.86" height="18.46"/>
		<rect x="238.77" y="172.83" class="st2" width="57.69" height="61.36"/>
		<polygon class="st3" points="241,231.77 241,175.15 294.14,175.15 		"/>
		<rect x="307.28" y="172.83" class="st4" width="9.47" height="17.68"/>
		<rect x="270.95" y="215.05" class="st5" width="21.26" height="2.9"/>
		<rect x="277.91" y="220.56" class="st5" width="14.4" height="2.9"/>
		<rect x="286.51" y="225.2" class="st12" width="5.12" height="4.54"/>
		<rect x="278.68" y="225.2" class="st12" width="5.12" height="4.54"/>
	</g>
	<g>
		<rect x="474.35" y="356.9" class="st0" width="31.31" height="61.36"/>
		<rect x="484.11" y="356.9" class="st1" width="9.86" height="18.46"/>
		<rect x="416.66" y="356.9" class="st2" width="57.69" height="61.36"/>
		<polygon class="st3" points="418.88,415.94 418.88,359.32 472.12,359.32 		"/>
		<rect x="485.26" y="356.9" class="st4" width="9.47" height="17.78"/>
		<rect x="448.93" y="399.22" class="st5" width="21.26" height="2.9"/>
		<rect x="455.79" y="404.73" class="st5" width="14.4" height="2.9"/>
		<rect x="464.39" y="409.37" class="st12" width="5.12" height="4.54"/>
		<rect x="456.57" y="409.37" class="st12" width="5.12" height="4.54"/>
	</g>
	<g>
		<rect x="296.46" y="295.54" class="st0" width="31.31" height="61.36"/>
		<rect x="306.12" y="295.54" class="st1" width="9.86" height="18.46"/>
		<rect x="238.77" y="295.54" class="st2" width="57.69" height="61.36"/>
		<polygon class="st3" points="241,354.48 241,297.96 294.14,297.96 		"/>
		<rect x="307.28" y="295.54" class="st4" width="9.47" height="17.78"/>
		<rect x="270.95" y="337.77" class="st5" width="21.26" height="2.9"/>
		<rect x="277.91" y="343.28" class="st5" width="14.4" height="2.9"/>
		<rect x="286.51" y="348.01" class="st12" width="5.12" height="4.54"/>
		<rect x="278.68" y="348.01" class="st12" width="5.12" height="4.54"/>
	</g>
	<g>
		<rect x="385.35" y="295.54" class="st0" width="31.31" height="61.36"/>
		<rect x="395.11" y="295.54" class="st1" width="9.86" height="18.46"/>
		<rect x="327.67" y="295.54" class="st2" width="57.69" height="61.36"/>
		<polygon class="st3" points="329.99,354.48 329.99,297.96 383.13,297.96 		"/>
		<rect x="396.27" y="295.54" class="st4" width="9.47" height="17.78"/>
		<rect x="359.94" y="337.77" class="st5" width="21.26" height="2.9"/>
		<rect x="366.8" y="343.28" class="st5" width="14.4" height="2.9"/>
		<rect x="375.4" y="348.01" class="st12" width="5.12" height="4.54"/>
		<rect x="367.57" y="348.01" class="st12" width="5.12" height="4.54"/>
	</g>
	<g>
		<rect x="296.46" y="234.19" class="st7" width="31.31" height="61.36"/>
		<rect x="306.12" y="234.19" class="st1" width="9.86" height="18.46"/>
		<rect x="238.77" y="234.19" class="st8" width="57.69" height="61.36"/>
		<polygon class="st3" points="241,293.13 241,236.6 294.14,236.6 		"/>
		<rect x="307.28" y="234.19" class="st4" width="9.47" height="17.68"/>
		<rect x="270.95" y="276.41" class="st5" width="21.26" height="2.9"/>
		<rect x="277.91" y="281.92" class="st5" width="14.4" height="2.9"/>
		<rect x="286.51" y="286.56" class="st12" width="5.12" height="4.54"/>
		<rect x="278.68" y="286.56" class="st12" width="5.12" height="4.54"/>
	</g>
	<g>
		<rect x="385.35" y="234.19" class="st7" width="31.31" height="61.36"/>
		<rect x="395.11" y="234.19" class="st1" width="9.86" height="18.46"/>
		<rect x="327.67" y="234.19" class="st8" width="57.69" height="61.36"/>
		<polygon class="st3" points="329.99,293.13 329.99,236.6 383.13,236.6 		"/>
		<rect x="396.27" y="234.19" class="st4" width="9.47" height="17.68"/>
		<rect x="359.94" y="276.41" class="st5" width="21.26" height="2.9"/>
		<rect x="366.8" y="281.92" class="st5" width="14.4" height="2.9"/>
		<rect x="375.4" y="286.56" class="st12" width="5.12" height="4.54"/>
		<rect x="367.57" y="286.56" class="st12" width="5.12" height="4.54"/>
	</g>
	<g>
		<rect x="296.46" y="356.9" class="st7" width="31.31" height="61.36"/>
		<rect x="306.12" y="356.9" class="st1" width="9.86" height="18.46"/>
		<rect x="238.77" y="356.9" class="st8" width="57.69" height="61.36"/>
		<polygon class="st3" points="241,415.94 241,359.32 294.14,359.32 		"/>
		<rect x="307.28" y="356.9" class="st4" width="9.47" height="17.78"/>
		<rect x="270.95" y="399.22" class="st5" width="21.26" height="2.9"/>
		<rect x="277.91" y="404.73" class="st5" width="14.4" height="2.9"/>
		<rect x="286.51" y="409.37" class="st12" width="5.12" height="4.54"/>
		<rect x="278.68" y="409.37" class="st12" width="5.12" height="4.54"/>
	</g>
	<g>
		<rect x="385.35" y="356.9" class="st7" width="31.31" height="61.36"/>
		<rect x="395.11" y="356.9" class="st1" width="9.86" height="18.46"/>
		<rect x="327.67" y="356.9" class="st8" width="57.69" height="61.36"/>
		<polygon class="st3" points="329.99,415.94 329.99,359.32 383.13,359.32 		"/>
		<rect x="396.27" y="356.9" class="st4" width="9.47" height="17.78"/>
		<rect x="359.94" y="399.22" class="st5" width="21.26" height="2.9"/>
		<rect x="366.8" y="404.73" class="st5" width="14.4" height="2.9"/>
		<rect x="375.4" y="409.37" class="st12" width="5.12" height="4.54"/>
		<rect x="367.57" y="409.37" class="st12" width="5.12" height="4.54"/>
	</g>
</g>
</svg>
