<svg xmlns="http://www.w3.org/2000/svg" viewBox="0 0 364.39 306.72"><defs><style>.b5963443-5020-4b53-a7ab-7a07ff96e562{fill:#4f6975;}.e41e89c7-eab9-482b-877e-24d25c6bd2ec{fill:#e2e2e2;}.f8a7a04e-1cbc-492e-9484-fcd22fde7967{fill:#324e65;}.b2891980-5b6d-42de-92ad-5da69516d7c1{fill:#e3c280;}.bda82450-f731-4468-a4a6-eb030fc37f0f{fill:#4c8386;}.ab625376-bf73-4404-972f-5609ce76034f{fill:#deb769;}.e932f87a-bce7-4feb-8013-4d580593ffe9{fill:#c6973d;}.ad7c372d-8bd8-409e-b5e3-a3442b057aa8{fill:#efefee;}.b6880be7-08c7-43d6-b38c-724a11deb854{fill:#adaead;}.e213bd75-76a4-4075-ad02-93b20aabd61a{fill:#fff;}.f0f41d57-234b-4b2b-ad7e-c886d77a8e3d{fill:#8ec5d0;}.ae990dd3-5915-481c-ad2d-9e1f49d199ad{fill:#a8d1db;}.b120a790-091d-488f-abf9-62bbcdbf8db0{fill:#cce4ec;}.bab675d2-ec8c-4286-8814-5865fbc0bdd6{fill:#66aeb2;}.fd8b5842-b45c-4d43-97a2-d35a37b3d6b1{fill:#549295;}.a727d8e8-704e-4885-a80e-198dd74a14ab,.bbbe6b89-78cc-4210-8c13-7006c8482bb7,.f768a245-bd0b-4094-b0b7-13a1580e2126{fill:none;}.bbbe6b89-78cc-4210-8c13-7006c8482bb7,.f768a245-bd0b-4094-b0b7-13a1580e2126{stroke:#4c8386;stroke-width:1.67px;}.bbbe6b89-78cc-4210-8c13-7006c8482bb7{stroke-miterlimit:10;}.f0cc52ba-1a24-4678-afdc-7bc842ecead4{fill:#6888a1;}.a727d8e8-704e-4885-a80e-198dd74a14ab{stroke:#324e65;}.a727d8e8-704e-4885-a80e-198dd74a14ab,.f768a245-bd0b-4094-b0b7-13a1580e2126{stroke-linecap:round;stroke-linejoin:round;}.b1a3d1c1-3df2-42b9-a891-80811722787e{fill:#253a4a;}</style></defs><g id="b1e33bc6-14f1-4e4d-af59-24e33e4ae35a" data-name="groups"><g id="a2bb5565-7214-49ca-9638-b8e43057a3b7" data-name="group03"><rect class="b5963443-5020-4b53-a7ab-7a07ff96e562" x="289.86" y="31.13" width="47.71" height="3.29"/><rect class="b5963443-5020-4b53-a7ab-7a07ff96e562" x="289.86" y="40.53" width="47.71" height="3.29"/><rect class="e41e89c7-eab9-482b-877e-24d25c6bd2ec" x="272.62" y="30.86" width="13.19" height="13.19"/><path class="f8a7a04e-1cbc-492e-9484-fcd22fde7967" d="M341.9,43.25h0a.8.8,0,0,1-.68-.42l-3.3-6.11a.81.81,0,1,1,1.42-.76L342,40.84l3.1-4.94a.8.8,0,1,1,1.36.86l-3.83,6.11A.8.8,0,0,1,341.9,43.25Z" transform="translate(-62.68 -1.91)"/><rect class="b5963443-5020-4b53-a7ab-7a07ff96e562" x="289.86" y="55.93" width="47.71" height="3.29"/><rect class="b5963443-5020-4b53-a7ab-7a07ff96e562" x="289.86" y="65.33" width="47.71" height="3.29"/><rect class="e41e89c7-eab9-482b-877e-24d25c6bd2ec" x="272.62" y="55.66" width="13.19" height="13.19"/><path class="f8a7a04e-1cbc-492e-9484-fcd22fde7967" d="M341.9,68h0a.82.82,0,0,1-.68-.42l-3.3-6.11a.81.81,0,0,1,1.42-.77l2.64,4.9,3.1-4.94a.81.81,0,0,1,1.11-.26.8.8,0,0,1,.25,1.11l-3.83,6.11A.78.78,0,0,1,341.9,68Z" transform="translate(-62.68 -1.91)"/><polygon class="b2891980-5b6d-42de-92ad-5da69516d7c1" points="55.9 156.81 46.17 162.43 46.17 151.19 55.9 156.81"/><polygon class="b2891980-5b6d-42de-92ad-5da69516d7c1" points="41.14 156.81 31.41 162.43 31.41 151.19 41.14 156.81"/><polygon class="b2891980-5b6d-42de-92ad-5da69516d7c1" points="26.38 156.81 16.65 162.43 16.65 151.19 26.38 156.81"/><path class="bda82450-f731-4468-a4a6-eb030fc37f0f" d="M140.52,1.91a9.65,9.65,0,0,0-9.64,9.65c0,5.32,9.64,15.67,9.64,15.67s9.65-10.35,9.65-15.67A9.65,9.65,0,0,0,140.52,1.91Zm0,12.66a4.17,4.17,0,1,1,4.17-4.17A4.17,4.17,0,0,1,140.52,14.57Z" transform="translate(-62.68 -1.91)"/><path class="bda82450-f731-4468-a4a6-eb030fc37f0f" d="M72.33,115.56a9.64,9.64,0,0,0-9.65,9.64c0,5.33,9.65,15.67,9.65,15.67S82,130.53,82,125.2A9.64,9.64,0,0,0,72.33,115.56Zm0,12.65A4.17,4.17,0,1,1,76.49,124,4.16,4.16,0,0,1,72.33,128.21Z" transform="translate(-62.68 -1.91)"/><path class="bda82450-f731-4468-a4a6-eb030fc37f0f" d="M218,9.67a9.65,9.65,0,0,0-9.64,9.65C208.36,24.64,218,35,218,35s9.65-10.35,9.65-15.67A9.65,9.65,0,0,0,218,9.67Zm0,12.66a4.17,4.17,0,1,1,4.17-4.17A4.17,4.17,0,0,1,218,22.33Z" transform="translate(-62.68 -1.91)"/><path class="ab625376-bf73-4404-972f-5609ce76034f" d="M385.1,228.16c-.07.24-.15.49-.23.73a21.09,21.09,0,0,1-1.64,3.72c-.25.45-.5.88-.78,1.3a21,21,0,0,1-2.71,3.36c-.36.36-.72.71-1.1,1a21.46,21.46,0,0,1-3.31,2.4q-.65.39-1.32.72a22.49,22.49,0,0,1-3.8,1.48c-.48.13-1,.25-1.47.36a22.11,22.11,0,0,1-4.3.46c-.51,0-1,0-1.51,0a21.9,21.9,0,0,1-4-.64l-.72-.2-.72-.23a20.78,20.78,0,0,1-3.73-1.64c-.44-.24-.87-.5-1.29-.77a21.68,21.68,0,0,1-3.37-2.72c-.36-.36-.7-.72-1-1.09a22.29,22.29,0,0,1-2.41-3.32q-.39-.65-.72-1.32a22.49,22.49,0,0,1-1.48-3.8c-.13-.48-.26-1-.36-1.46a21.37,21.37,0,0,1-.45-4.31c0-.5,0-1,0-1.51a20.86,20.86,0,0,1,.64-4c.06-.25.13-.49.2-.74s.15-.47.23-.71a21.29,21.29,0,0,1,1.64-3.74c.25-.44.51-.87.77-1.28a20.84,20.84,0,0,1,2.73-3.37c.35-.36.71-.7,1.08-1a22.1,22.1,0,0,1,3.32-2.41c.44-.26.88-.5,1.33-.71a21.31,21.31,0,0,1,3.79-1.49c.48-.13,1-.26,1.47-.36a22.13,22.13,0,0,1,4.31-.46c.5,0,1,0,1.5,0a21.92,21.92,0,0,1,4,.65l.73.2.71.23a20.57,20.57,0,0,1,3.74,1.64c.43.24.86.5,1.28.77a21.23,21.23,0,0,1,3.37,2.72c.36.36.7.72,1,1.1A20,20,0,0,1,383,211c.26.42.5.86.73,1.32a22.07,22.07,0,0,1,1.48,3.79c.13.48.25,1,.36,1.46a22.13,22.13,0,0,1,.46,4.31c0,.5,0,1,0,1.51a21.92,21.92,0,0,1-.65,4C385.24,227.68,385.17,227.92,385.1,228.16Z" transform="translate(-62.68 -1.91)"/><path class="e932f87a-bce7-4feb-8013-4d580593ffe9" d="M371.14,201.46,358.89,243l-.72-.2-.72-.23L369.7,201l.73.2Z" transform="translate(-62.68 -1.91)"/><path class="e932f87a-bce7-4feb-8013-4d580593ffe9" d="M385.1,228.16c-.07.24-.15.49-.23.73l-41.58-12.25c.06-.25.13-.49.2-.74s.15-.47.23-.71l41.58,12.25C385.24,227.68,385.17,227.92,385.1,228.16Z" transform="translate(-62.68 -1.91)"/><path class="e932f87a-bce7-4feb-8013-4d580593ffe9" d="M383.69,212.33l-17.88,9.74-.29.16-.2.1-.15.09-.14.07-.1.06-.35.19-.1,0-.1.06-.1.06-.13.07-.15.07-.2.11-.29.16-.45.24-.85.47-2.64,1.44-13.95,7.6q-.39-.65-.72-1.32l17.43-9.5.45-.25.3-.16.58-.32.1-.05.09-.05.18-.1.08,0L369,218.6,383,211C383.22,211.43,383.46,211.87,383.69,212.33Z" transform="translate(-62.68 -1.91)"/><path class="e932f87a-bce7-4feb-8013-4d580593ffe9" d="M375.33,240.71q-.65.39-1.32.72l-7.59-13.93L365,224.85l-.47-.86-.24-.45-.16-.29-.1-.2-.09-.14-.07-.13,0-.11-.11-.19-.1-.17-.09-.18-.06-.11-.08-.13-.07-.16-.11-.2-.16-.28-.25-.45-.46-.85-1.44-2.65-7.6-13.94c.44-.26.88-.5,1.33-.71l7.58,13.92,1.45,2.66,1.24,2.27.05.08.1.18,0,.09.05.1.06.1.07.13.09.15.1.2.16.3.25.45.46.84,1.44,2.64Z" transform="translate(-62.68 -1.91)"/><path class="e932f87a-bce7-4feb-8013-4d580593ffe9" d="M380.56,207.69,369,218.6l-2.13,2-.76.72-.37.34-.23.22-.17.16-.13.12-.1.1-.09.09-.08.08-.07.06-.15.15-.07.06-.09.08-.08.08-.1.1-.13.12-.17.15-.23.22-.38.36-.7.67-2,1.9-11.72,11.08c-.36-.36-.7-.72-1-1.09l11.54-10.92,2.14-2,.75-.71.36-.35.24-.22.17-.16.12-.12.11-.1.09-.09.08-.08.07-.06.15-.14.07-.07.09-.08.08-.08.1-.09.14-.13.16-.15.23-.22.38-.36.7-.67,2-1.9,11.72-11.08C379.89,207,380.23,207.31,380.56,207.69Z" transform="translate(-62.68 -1.91)"/><path class="e932f87a-bce7-4feb-8013-4d580593ffe9" d="M379.74,237.27c-.36.36-.72.71-1.1,1l-10.91-11.55-2-2.14-.72-.75-.35-.36-.21-.24-.16-.17-.12-.12-.1-.11-.09-.09-.07-.08-.07-.07-.14-.15-.07-.07-.08-.08-.08-.09-.1-.1-.12-.13-.15-.17-.22-.23-.36-.38-.67-.71-1.9-2L348.86,206.8c.35-.36.71-.7,1.08-1l10.92,11.53,2,2.14.72.76.35.37.22.23.16.17.11.13.1.1.09.09.08.08.2.21.07.08.08.08.08.09.09.1.13.13.16.17.21.23.37.38.67.71,1.9,2Z" transform="translate(-62.68 -1.91)"/><path class="e932f87a-bce7-4feb-8013-4d580593ffe9" d="M386,223.4,370.06,223l-2.94-.08-1,0h-3.64l-1,0-2.77-.07-16.1-.46c0-.5,0-1,0-1.51l15.86.45,3,.08,1,0,.51,0h2.6l.52,0,1,0,2.75.08,16.13.45C386,222.39,386,222.89,386,223.4Z" transform="translate(-62.68 -1.91)"/><path class="e932f87a-bce7-4feb-8013-4d580593ffe9" d="M364.44,243.73c-.51,0-1,0-1.51,0l.45-15.89.08-2.93,0-1,0-.51v-2.6l0-.52,0-1,.08-2.76.46-16.13c.5,0,1,0,1.5,0l-.45,15.9-.08,2.93,0,1,0,.51v2.6l0,.52,0,1-.08,2.76Z" transform="translate(-62.68 -1.91)"/><path class="e932f87a-bce7-4feb-8013-4d580593ffe9" d="M376.16,203.87l-8.35,13.8L366.38,220l-.5.83-.27.45-.17.27-.11.19-.1.15-.07.12-.06.11-.06.09-.05.09-.1.17-.06.1-.05.08-.07.11-.07.12-.09.15-.12.2-.17.27L364,224l-.54.88-1.52,2.52L353.72,241c-.44-.24-.87-.5-1.29-.77l8.35-13.8,1.43-2.37.5-.83.27-.45.17-.26.11-.2.09-.15.08-.12.06-.11.06-.1.05-.08.1-.17.06-.09.06-.09.06-.11.07-.12L364,221l.13-.2.16-.28.26-.43.54-.88,1.53-2.53,8.22-13.58C375.31,203.34,375.74,203.6,376.16,203.87Z" transform="translate(-62.68 -1.91)"/><path class="e932f87a-bce7-4feb-8013-4d580593ffe9" d="M383.23,232.61c-.25.45-.5.88-.78,1.3l-13.78-8.35-2.38-1.44-.83-.5-.45-.27-.27-.16-.19-.12-.15-.09-.12-.07-.11-.07-.09-.06-.08,0-.18-.11-.09-.06-.09,0-.11-.07-.12-.07-.15-.09-.2-.12-.28-.17-.43-.26-.88-.54-2.54-1.53-13.57-8.22c.25-.44.51-.87.77-1.28l13.8,8.34L362.3,220l.83.5.45.27.27.17.19.11.15.1.12.07.11.06.1.06.08.05.17.1.09.06.09.05.11.07.12.07.15.09.2.12.28.17.43.26.88.54,2.55,1.54Z" transform="translate(-62.68 -1.91)"/><path class="e932f87a-bce7-4feb-8013-4d580593ffe9" d="M385.53,217.58l-15.67,3.86-2.68.66-.94.23-.51.13-.31.07-.21.06-.18,0-.14,0-.11,0-.11,0-.09,0-.21,0-.1,0-.1,0-.12,0-.14,0-.16,0-.23.06-.31.08-.5.12-1,.25-2.87.7L343.42,228c-.13-.48-.26-1-.36-1.46l15.65-3.85,2.69-.67,1-.23.51-.13.31-.08.22-.05.17,0,.14,0,.12,0,.1,0,.11,0,.28-.07.11,0,.12,0,.14,0,.17,0,.22-.05.32-.08.49-.12,1-.25,2.88-.71,15.4-3.79C385.3,216.6,385.42,217.09,385.53,217.58Z" transform="translate(-62.68 -1.91)"/><path class="e932f87a-bce7-4feb-8013-4d580593ffe9" d="M370.21,242.91c-.48.13-1,.25-1.47.36l-3.85-15.66-.66-2.69L364,224l-.13-.51-.07-.31-.05-.22-.05-.17,0-.13,0-.12,0-.11,0-.1,0-.19,0-.1,0-.11,0-.12,0-.14,0-.17-.06-.22-.08-.32-.12-.49-.25-1-.71-2.87-3.79-15.41c.48-.13,1-.26,1.47-.36l3.85,15.67.66,2.68.23.94.13.51.08.31.05.21,0,.18,0,.14,0,.11,0,.11,0,.1,0,.19,0,.1,0,.11,0,.12,0,.14,0,.17.05.23.08.31.12.49.25,1,.71,2.88Z" transform="translate(-62.68 -1.91)"/><circle class="e932f87a-bce7-4feb-8013-4d580593ffe9" cx="364.3" cy="222.04" r="18.43" transform="translate(-99.42 74.58) rotate(-11.42)"/><path class="ab625376-bf73-4404-972f-5609ce76034f" d="M348.6,217.41a16.36,16.36,0,1,1,11.07,20.32A16.36,16.36,0,0,1,348.6,217.41Z" transform="translate(-62.68 -1.91)"/><path class="ab625376-bf73-4404-972f-5609ce76034f" d="M426.18,180.6c-.07.24-.15.48-.23.72a21.19,21.19,0,0,1-1.64,3.73c-.25.44-.5.87-.78,1.29a21.74,21.74,0,0,1-2.71,3.37c-.36.35-.72.7-1.1,1a21.52,21.52,0,0,1-3.31,2.41q-.65.38-1.32.72a22.45,22.45,0,0,1-3.8,1.47c-.48.14-1,.26-1.47.37a21.37,21.37,0,0,1-4.31.45c-.5,0-1,0-1.5,0a21.11,21.11,0,0,1-4-.65l-.72-.2-.72-.22a21.65,21.65,0,0,1-3.74-1.65c-.43-.23-.86-.5-1.28-.77a22.22,22.22,0,0,1-3.37-2.71c-.36-.36-.7-.73-1-1.1a21.79,21.79,0,0,1-2.41-3.32q-.39-.65-.72-1.32a21.85,21.85,0,0,1-1.48-3.8c-.13-.48-.26-1-.36-1.46a21.27,21.27,0,0,1-.45-4.3c0-.5,0-1,0-1.51a21.92,21.92,0,0,1,.65-4c.06-.24.13-.49.2-.73s.15-.48.23-.72a20.78,20.78,0,0,1,1.64-3.73c.25-.44.5-.87.77-1.29a21.2,21.2,0,0,1,2.73-3.36c.35-.36.71-.71,1.08-1a22,22,0,0,1,3.32-2.4c.44-.26.88-.5,1.33-.72a21.28,21.28,0,0,1,3.79-1.48c.48-.14,1-.26,1.47-.36a22,22,0,0,1,4.3-.47c.51,0,1,0,1.51,0a21.11,21.11,0,0,1,4,.65c.24.06.48.12.72.2l.72.22a22.41,22.41,0,0,1,3.74,1.64c.43.24.86.51,1.28.78a21.68,21.68,0,0,1,3.37,2.72c.36.35.7.71,1,1.09a21.07,21.07,0,0,1,2.4,3.32c.26.43.5.87.73,1.32a21.85,21.85,0,0,1,1.48,3.8c.13.48.25,1,.36,1.46a22,22,0,0,1,.46,4.31c0,.49,0,1,0,1.5a22.51,22.51,0,0,1-.65,4C426.31,180.12,426.25,180.36,426.18,180.6Z" transform="translate(-62.68 -1.91)"/><path class="e932f87a-bce7-4feb-8013-4d580593ffe9" d="M412.22,153.89,400,195.47l-.72-.2-.72-.22,12.25-41.58c.24.06.48.12.72.2Z" transform="translate(-62.68 -1.91)"/><path class="e932f87a-bce7-4feb-8013-4d580593ffe9" d="M426.18,180.6c-.07.24-.15.48-.23.72l-41.58-12.25c.06-.24.13-.49.2-.73s.15-.48.23-.72l41.58,12.25C426.31,180.12,426.25,180.36,426.18,180.6Z" transform="translate(-62.68 -1.91)"/><path class="e932f87a-bce7-4feb-8013-4d580593ffe9" d="M424.77,164.76l-17.88,9.75-.3.15-.19.11-.15.09-.14.07L406,175l-.34.19-.1,0-.11.05-.09.06-.13.07-.16.08-.19.11-.29.16-.45.24-.85.46-2.64,1.45L386.7,185.5q-.39-.65-.72-1.32l17.43-9.5.45-.24.3-.16.58-.32.1-.05.08,0,.19-.1.08,0L410.1,171l13.94-7.6C424.3,163.87,424.54,164.31,424.77,164.76Z" transform="translate(-62.68 -1.91)"/><path class="e932f87a-bce7-4feb-8013-4d580593ffe9" d="M416.41,193.15q-.65.38-1.32.72l-7.59-13.93-1.45-2.66-.47-.86-.24-.44-.16-.29-.11-.2-.08-.15-.07-.13-.05-.1-.11-.19-.1-.17-.1-.19-.05-.11-.08-.13-.08-.15-.1-.2-.17-.29-.24-.45-.46-.85-1.44-2.64-7.6-13.94c.44-.26.88-.5,1.33-.72L403.25,169l1.45,2.66,1.24,2.27.05.09.09.18.05.09.05.09.06.11.07.12.09.16.1.2.16.29.25.45.46.85,1.44,2.64Z" transform="translate(-62.68 -1.91)"/><path class="e932f87a-bce7-4feb-8013-4d580593ffe9" d="M421.64,160.12,410.1,171l-2.13,2-.76.71-.37.35-.23.22-.17.16-.13.11-.1.11-.09.08-.08.08L406,175l-.16.14-.06.06-.09.09-.09.08-.1.09-.13.12-.16.16-.23.21-.38.36-.7.67-2,1.9-11.72,11.09c-.36-.36-.7-.73-1-1.1l11.54-10.91,2.13-2,.76-.71.36-.35.24-.21.17-.16.12-.13.11-.1.09-.09.08-.07.07-.07.14-.13.08-.07.08-.08.09-.08.1-.1.14-.12.16-.16.23-.21.38-.36.7-.67,2-1.9L420.61,159C421,159.38,421.31,159.74,421.64,160.12Z" transform="translate(-62.68 -1.91)"/><path class="e932f87a-bce7-4feb-8013-4d580593ffe9" d="M420.82,189.71c-.36.35-.72.7-1.1,1L408.81,179.2l-2-2.14-.72-.75-.35-.37-.22-.24-.16-.17-.11-.12-.1-.11-.09-.09-.07-.07-.07-.08-.14-.14-.07-.07-.08-.08-.08-.09-.1-.1-.12-.13-.15-.17-.22-.23-.36-.39-.67-.7L401,171l-11.06-11.71c.35-.36.71-.71,1.08-1l10.92,11.54,2,2.14.72.75.34.37.23.24.16.17.11.12.1.11.09.09.08.08.2.21.07.08.07.08.09.09.09.1.13.13.15.16.22.23.36.39.68.71,1.9,2Z" transform="translate(-62.68 -1.91)"/><path class="e932f87a-bce7-4feb-8013-4d580593ffe9" d="M427,175.83l-15.89-.44-2.94-.09-1,0-.51,0h-2.28l-.32,0h-.52l-1,0-2.77-.08-16.1-.45c0-.5,0-1,0-1.51l15.87.45,3,.08,1,0,.5,0h2.61l.52,0,1,0,2.75.08,16.13.45C427.08,174.82,427.06,175.33,427,175.83Z" transform="translate(-62.68 -1.91)"/><path class="e932f87a-bce7-4feb-8013-4d580593ffe9" d="M405.51,196.16c-.5,0-1,0-1.5,0l.45-15.9.08-2.93,0-1,0-.5v-2.6l0-.53,0-1,.08-2.76.45-16.13c.51,0,1,0,1.51,0l-.45,15.89-.08,2.94,0,1,0,.51v2.59l0,.53,0,1-.08,2.77Z" transform="translate(-62.68 -1.91)"/><path class="e932f87a-bce7-4feb-8013-4d580593ffe9" d="M417.24,156.31l-8.35,13.8-1.44,2.37-.49.82-.27.45-.17.27-.11.2-.1.15-.07.12-.06.1-.06.1-.05.08-.1.18-.06.09-.05.09-.07.11-.08.12-.08.15-.13.19-.16.28-.26.43-.54.88L403,179.82l-8.23,13.58c-.43-.23-.86-.5-1.28-.77l8.35-13.8,1.43-2.37.5-.83.27-.45.17-.26.11-.2.09-.14.08-.13.06-.1.06-.1.05-.09.1-.17.06-.08.05-.1.07-.1.07-.12.09-.15.13-.2.16-.28.26-.43.54-.88,1.52-2.53L416,155.53C416.39,155.77,416.82,156,417.24,156.31Z" transform="translate(-62.68 -1.91)"/><path class="e932f87a-bce7-4feb-8013-4d580593ffe9" d="M424.31,185.05c-.25.44-.5.87-.78,1.29L409.75,178l-2.38-1.44-.83-.5-.45-.28-.27-.16-.19-.11-.16-.1-.11-.07-.11-.07-.1-.05-.07-.05-.18-.11-.09-.05-.09,0-.11-.07-.12-.07-.15-.1-.2-.11-.28-.17-.43-.27-.88-.53L400,172.11l-13.57-8.22c.25-.44.5-.87.77-1.29L401,171l2.38,1.43.83.51.45.27.27.16.19.12.15.09.12.07.11.06.09.06.09.06.17.1.09.05.09.06.1.07.13.07.15.09.2.12.28.17.43.26.88.53,2.55,1.54Z" transform="translate(-62.68 -1.91)"/><path class="e932f87a-bce7-4feb-8013-4d580593ffe9" d="M426.61,170l-15.67,3.86-2.68.66-.94.23-.51.12-.31.08-.21.05-.18,0-.14,0-.11,0-.11,0-.09,0-.21,0-.1,0-.1,0-.12,0-.14,0-.17,0-.22.06-.31.07-.5.12-1,.25-2.86.71-15.42,3.79c-.13-.48-.26-1-.36-1.46l15.65-3.85,2.69-.66.95-.24.51-.12.31-.08.21-.05.18,0,.14,0,.11,0,.11,0,.11,0,.28-.07.11,0,.12,0,.14,0,.17,0,.22-.06.31-.07.5-.13,1-.24,2.88-.71,15.4-3.79C426.38,169,426.5,169.52,426.61,170Z" transform="translate(-62.68 -1.91)"/><path class="e932f87a-bce7-4feb-8013-4d580593ffe9" d="M411.29,195.34c-.48.14-1,.26-1.47.37L406,180.05l-.66-2.69-.23-1-.13-.51-.07-.3-.06-.22,0-.17,0-.14,0-.11,0-.11,0-.1,0-.19,0-.1,0-.11,0-.13,0-.13,0-.17,0-.23-.08-.31-.12-.49-.25-1-.71-2.88-3.79-15.4c.48-.14,1-.26,1.47-.36l3.85,15.66.66,2.69.23.94.13.51.07.3.06.22,0,.17,0,.14,0,.12,0,.11,0,.1.05.19,0,.09,0,.11,0,.13,0,.14,0,.16,0,.23.08.32.12.49.25,1,.71,2.88Z" transform="translate(-62.68 -1.91)"/><path class="e932f87a-bce7-4feb-8013-4d580593ffe9" d="M387.7,169.26a18.43,18.43,0,1,1,12.47,22.89A18.43,18.43,0,0,1,387.7,169.26Z" transform="translate(-62.68 -1.91)"/><circle class="ab625376-bf73-4404-972f-5609ce76034f" cx="405.37" cy="174.47" r="16.36" transform="translate(-96.37 127.94) rotate(-17.48)"/><path class="ab625376-bf73-4404-972f-5609ce76034f" d="M122.94,63.55c.1.23.2.47.29.7a20.53,20.53,0,0,1,1.15,3.91c.1.49.18,1,.24,1.49a21.46,21.46,0,0,1,.1,4.31c0,.51-.09,1-.17,1.51a21.73,21.73,0,0,1-1,4c-.16.47-.34.94-.54,1.4a22.15,22.15,0,0,1-2,3.58c-.29.41-.58.83-.89,1.23a22,22,0,0,1-3,3.12c-.38.33-.78.64-1.18.94a21.21,21.21,0,0,1-3.51,2.11l-.68.32-.69.29a21.61,21.61,0,0,1-3.92,1.15c-.48.1-1,.18-1.48.24a21.56,21.56,0,0,1-4.32.1c-.51,0-1-.1-1.5-.17a21.63,21.63,0,0,1-4-1c-.47-.16-.94-.35-1.4-.55a20.71,20.71,0,0,1-3.58-2c-.41-.28-.82-.57-1.22-.88a21,21,0,0,1-3.12-3c-.33-.38-.65-.77-1-1.18a22.27,22.27,0,0,1-2.11-3.5c-.11-.23-.22-.46-.32-.69L83,80.34a21.61,21.61,0,0,1-1.15-3.92c-.1-.49-.18-1-.24-1.48a20.93,20.93,0,0,1-.09-4.33c0-.5.09-1,.16-1.49a22.15,22.15,0,0,1,1-4,14.78,14.78,0,0,1,.56-1.41,20,20,0,0,1,1.94-3.58c.28-.41.57-.83.89-1.22a21,21,0,0,1,3-3.13c.38-.33.77-.64,1.17-.94a21.63,21.63,0,0,1,3.51-2.11l.68-.32.69-.29A21.61,21.61,0,0,1,99,51c.48-.1,1-.18,1.48-.25a22.42,22.42,0,0,1,4.33-.09c.5,0,1,.1,1.49.17a20.88,20.88,0,0,1,4,1q.7.24,1.41.54a21.66,21.66,0,0,1,3.57,1.94c.42.29.82.58,1.22.89a22.13,22.13,0,0,1,3.14,3c.32.38.63.77.93,1.18a21.21,21.21,0,0,1,2.11,3.51C122.73,63.09,122.84,63.32,122.94,63.55Z" transform="translate(-62.68 -1.91)"/><path class="e932f87a-bce7-4feb-8013-4d580593ffe9" d="M95,52.15l17.47,39.67-.68.32-.69.29L93.67,52.76l.68-.32Z" transform="translate(-62.68 -1.91)"/><path class="e932f87a-bce7-4feb-8013-4d580593ffe9" d="M122.94,63.55c.1.23.2.47.29.7L83.56,81.72c-.11-.23-.22-.46-.32-.69L83,80.34l39.67-17.47C122.73,63.09,122.84,63.32,122.94,63.55Z" transform="translate(-62.68 -1.91)"/><path class="e932f87a-bce7-4feb-8013-4d580593ffe9" d="M111.65,52.36l-7.38,19-.12.31-.09.21,0,.16-.06.14,0,.12-.15.37,0,.1,0,.11,0,.11,0,.13-.07.16-.08.21-.12.31-.18.47-.36.91L101.7,78,95.94,92.77c-.47-.16-.94-.35-1.4-.55l7.19-18.5.18-.48.13-.31.24-.62,0-.11,0-.09.08-.19,0-.09,2-5.21,5.75-14.8Q110.95,52.06,111.65,52.36Z" transform="translate(-62.68 -1.91)"/><path class="e932f87a-bce7-4feb-8013-4d580593ffe9" d="M123.57,79.44c-.16.47-.34.94-.54,1.4L108.24,75.1,105.42,74l-.91-.36-.47-.18-.31-.13-.21-.08-.16-.05-.14-.06-.1,0-.21-.08-.18-.07-.2-.08-.11,0-.14-.06-.16-.06-.21-.08-.31-.12-.48-.18-.9-.36-2.8-1.09L82.61,65.15a14.78,14.78,0,0,1,.56-1.41l14.77,5.74,2.82,1.1,2.42.94.09,0,.19.08.09,0,.1,0,.11,0,.14.06.16.06.22.08.31.12.47.19.9.35,2.81,1.09Z" transform="translate(-62.68 -1.91)"/><path class="e932f87a-bce7-4feb-8013-4d580593ffe9" d="M106.26,50.83l-1.77,15.79-.33,2.92-.12,1-.06.51,0,.31,0,.24,0,.17v.14l0,.13v.2l0,.21v.21l0,.12V73l0,.17,0,.22,0,.32-.06.52-.1,1-.31,2.75-1.8,16c-.51,0-1-.1-1.5-.17L101.7,78,102,75l.12-1,0-.5,0-.32,0-.23,0-.18,0-.14v-.33l0-.2,0-.1v-.23l0-.14,0-.18,0-.23,0-.31.06-.52.1-1,.31-2.74,1.81-16C105.27,50.7,105.77,50.76,106.26,50.83Z" transform="translate(-62.68 -1.91)"/><path class="e932f87a-bce7-4feb-8013-4d580593ffe9" d="M124.72,74c0,.51-.09,1-.17,1.51l-15.78-1.78-2.93-.33-1-.12-.5,0-.32,0-.24,0-.16,0-.15,0h-.33l-.2,0h-.21l-.12,0h-.14l-.18,0-.22,0-.32,0-.52-.06-1-.1-2.75-.31-16-1.81c0-.5.09-1,.16-1.49l15.79,1.77,2.92.33,1,.12.51.06.32,0,.23,0,.17,0h.14l.13,0H103l.29,0,.1,0h.23l.14,0,.18,0,.23,0,.31,0,.53,0,1,.11,2.75.31Z" transform="translate(-62.68 -1.91)"/><path class="e932f87a-bce7-4feb-8013-4d580593ffe9" d="M120.51,59.36l-12.42,9.91-2.3,1.83-.8.64-.4.32-.26.21-.18.14-.14.11-.11.09-.09.08-.09.06-.08.07-.17.13-.06,0-.1.07-.09.08-.11.09-.14.11-.17.14-.25.19-.41.33-.76.61-2.17,1.73L86.62,86.4c-.33-.38-.65-.77-1-1.18l12.41-9.9,2.31-1.84.81-.65.4-.31.25-.2.19-.15.13-.11.11-.08.1-.08.08-.07.08-.07.16-.12.08-.06.09-.07.09-.08.11-.09.14-.11.18-.13.24-.2.41-.33.77-.61L107,68.24l12.62-10.06C119.9,58.56,120.21,59,120.51,59.36Z" transform="translate(-62.68 -1.91)"/><path class="e932f87a-bce7-4feb-8013-4d580593ffe9" d="M117.2,88.77c-.38.33-.78.64-1.18.94l-9.91-12.43L104.28,75l-.65-.8-.31-.4-.2-.25-.15-.18-.1-.13-.09-.12L102.7,73l-.07-.09,0-.08-.14-.16-.06-.08-.07-.09-.07-.09-.1-.11-.1-.14L101.9,72l-.2-.24-.33-.41-.61-.76-1.71-2.16L89,55.81c.38-.33.77-.64,1.17-.94l9.92,12.43,1.83,2.3.64.8.31.4.2.25.15.18.11.14.08.11.08.1.07.08.07.08.12.16.06.08.07.09.08.09.09.11.11.14.14.18.19.24.33.41.61.77,1.73,2.15Z" transform="translate(-62.68 -1.91)"/><path class="e932f87a-bce7-4feb-8013-4d580593ffe9" d="M100.44,50.75,103,66.69l.44,2.74.15.95.08.52.05.31,0,.22,0,.18,0,.13,0,.12,0,.12,0,.1,0,.19,0,.11v.1l0,.13,0,.14,0,.17,0,.23.05.32.08.49.16,1,.46,2.92,2.48,15.68c-.48.1-1,.18-1.48.24l-2.52-15.93-.44-2.73-.15-1-.08-.52,0-.3,0-.23,0-.17,0-.14,0-.12,0-.12,0-.1,0-.19V72.2l0-.1,0-.12,0-.15,0-.16,0-.24-.06-.32-.08-.5-.15-1-.47-2.92L99,51C99.44,50.9,99.94,50.82,100.44,50.75Z" transform="translate(-62.68 -1.91)"/><path class="e932f87a-bce7-4feb-8013-4d580593ffe9" d="M124.38,68.16c.1.49.18,1,.24,1.49l-15.91,2.51L106,72.6l-.95.15-.53.08-.31,0-.22,0-.17,0-.14,0-.13,0h-.1l-.09,0-.21,0H103l-.11,0h-.12l-.14,0-.17,0-.24,0-.32,0-.5.08-1,.16-2.92.46L81.8,76.42c-.1-.49-.18-1-.24-1.48l15.92-2.52,2.74-.44,1-.15.52-.08.31,0,.22,0,.18,0,.13,0,.12,0,.12,0,.1,0,.2,0h.1l.1,0,.12,0,.15,0,.17,0,.23,0,.32,0,.5-.08,1-.16,2.94-.47Z" transform="translate(-62.68 -1.91)"/><path class="e932f87a-bce7-4feb-8013-4d580593ffe9" d="M116.44,55.19l-9.48,13-1.63,2.24-.56.78-.31.43-.18.25-.14.18-.1.15-.09.11-.07.1-.06.09-.06.08-.12.17-.07.08-.06.09-.07.09-.08.13-.1.13-.14.19-.19.26-.3.41L102,75l-1.73,2.39L91,90.27c-.41-.28-.82-.57-1.22-.88l9.47-13,1.63-2.24.57-.79.31-.43.19-.25.13-.18.1-.15.09-.11.07-.1.07-.09.06-.09.17-.23.06-.09.08-.11.09-.11.09-.14.14-.19.19-.26.3-.41.61-.84,1.75-2.4,9.31-12.84C115.64,54.59,116,54.88,116.44,55.19Z" transform="translate(-62.68 -1.91)"/><path class="e932f87a-bce7-4feb-8013-4d580593ffe9" d="M121.08,84.42c-.29.41-.58.83-.89,1.23l-13-9.49-2.25-1.62-.78-.58-.43-.3-.25-.19-.18-.13-.15-.1-.11-.08-.1-.07-.09-.07-.08-.06-.15-.12-.09-.06-.09-.06-.1-.08-.12-.08-.14-.1-.19-.14-.26-.19-.41-.3-.84-.61-2.4-1.74L85.11,60.16c.28-.41.57-.83.89-1.22l13,9.48,2.23,1.63.78.56.43.31.25.18.18.14.15.1.11.09.1.07.09.07.09.06.16.11.07.06.09.06.11.08L104,72l.13.1.19.15.27.18.41.3.83.61,2.4,1.74Z" transform="translate(-62.68 -1.91)"/><circle class="e932f87a-bce7-4feb-8013-4d580593ffe9" cx="103.09" cy="72.29" r="18.43" transform="translate(-64.31 140.29) rotate(-68.77)"/><circle class="ab625376-bf73-4404-972f-5609ce76034f" cx="103.09" cy="72.29" r="16.36" transform="translate(-68.33 133.85) rotate(-65.31)"/><polygon class="ad7c372d-8bd8-409e-b5e3-a3442b057aa8" points="144.74 221.93 143.18 242.46 197.11 242.46 195.55 221.93 144.74 221.93"/><polygon class="b6880be7-08c7-43d6-b38c-724a11deb854" points="194.69 210.66 145.6 210.66 144.74 221.93 195.55 221.93 194.69 210.66"/><path class="e213bd75-76a4-4075-ad02-93b20aabd61a" d="M134,240.65h72.33a4.38,4.38,0,0,1,4.38,4.38v4.48a0,0,0,0,1,0,0H129.6a0,0,0,0,1,0,0V245A4.38,4.38,0,0,1,134,240.65Z"/><path class="f8a7a04e-1cbc-492e-9484-fcd22fde7967" d="M352.11,43.56H113.55a7.28,7.28,0,0,0-7.28,7.28V194.07H359.39V50.84A7.28,7.28,0,0,0,352.11,43.56Z" transform="translate(-62.68 -1.91)"/><path class="e41e89c7-eab9-482b-877e-24d25c6bd2ec" d="M231.82,218.61H352.11a7.28,7.28,0,0,0,7.28-7.28V194.07h-103Z" transform="translate(-62.68 -1.91)"/><path class="e213bd75-76a4-4075-ad02-93b20aabd61a" d="M106.27,194.07v17.26a7.28,7.28,0,0,0,7.28,7.28H231.82l24.55-24.54Z" transform="translate(-62.68 -1.91)"/><rect class="b2891980-5b6d-42de-92ad-5da69516d7c1" x="123.25" y="265.27" width="20.1" height="39.36"/><rect class="ab625376-bf73-4404-972f-5609ce76034f" x="143.35" y="265.27" width="19.26" height="39.36"/><rect class="f8a7a04e-1cbc-492e-9484-fcd22fde7967" x="129.6" y="271.76" width="26.31" height="3.29"/><rect class="f8a7a04e-1cbc-492e-9484-fcd22fde7967" x="129.6" y="277.29" width="26.31" height="3.29"/><rect class="f8a7a04e-1cbc-492e-9484-fcd22fde7967" x="129.6" y="282.81" width="26.31" height="3.29"/><rect class="f8a7a04e-1cbc-492e-9484-fcd22fde7967" x="129.6" y="288.33" width="18.04" height="3.29"/><rect class="b2891980-5b6d-42de-92ad-5da69516d7c1" x="208.68" y="270.25" width="39.36" height="20.1" transform="translate(-174.76 400.13) rotate(-70.51)"/><rect class="ab625376-bf73-4404-972f-5609ce76034f" x="227.23" y="277.24" width="39.36" height="19.26" transform="translate(-168.59 421.99) rotate(-70.51)"/><rect class="f8a7a04e-1cbc-492e-9484-fcd22fde7967" x="227.97" y="270.93" width="26.31" height="3.29" transform="translate(42.09 -66.75) rotate(19.49)"/><rect class="f8a7a04e-1cbc-492e-9484-fcd22fde7967" x="226.12" y="276.14" width="26.31" height="3.29" transform="translate(43.72 -65.83) rotate(19.49)"/><rect class="f8a7a04e-1cbc-492e-9484-fcd22fde7967" x="224.28" y="281.34" width="26.31" height="3.29" transform="translate(45.35 -64.92) rotate(19.49)"/><rect class="f8a7a04e-1cbc-492e-9484-fcd22fde7967" x="222.68" y="285.17" width="18.04" height="3.29" transform="translate(46.3 -62.78) rotate(19.49)"/><path class="e213bd75-76a4-4075-ad02-93b20aabd61a" d="M141.73,30.48a1.21,1.21,0,1,1-1.21-1.21A1.22,1.22,0,0,1,141.73,30.48Z" transform="translate(-62.68 -1.91)"/><path class="e213bd75-76a4-4075-ad02-93b20aabd61a" d="M147.76,30.48a1.21,1.21,0,1,1-1.21-1.21A1.22,1.22,0,0,1,147.76,30.48Z" transform="translate(-62.68 -1.91)"/><path class="e213bd75-76a4-4075-ad02-93b20aabd61a" d="M153.79,30.48a1.22,1.22,0,1,1-2.43,0,1.22,1.22,0,0,1,2.43,0Z" transform="translate(-62.68 -1.91)"/><path class="e213bd75-76a4-4075-ad02-93b20aabd61a" d="M159.81,30.48a1.21,1.21,0,1,1-1.21-1.21A1.22,1.22,0,0,1,159.81,30.48Z" transform="translate(-62.68 -1.91)"/><path class="e213bd75-76a4-4075-ad02-93b20aabd61a" d="M165.84,30.48a1.22,1.22,0,1,1-2.43,0,1.22,1.22,0,0,1,2.43,0Z" transform="translate(-62.68 -1.91)"/><path class="e213bd75-76a4-4075-ad02-93b20aabd61a" d="M171.86,30.48a1.21,1.21,0,1,1-1.21-1.21A1.22,1.22,0,0,1,171.86,30.48Z" transform="translate(-62.68 -1.91)"/><circle class="e213bd75-76a4-4075-ad02-93b20aabd61a" cx="155.32" cy="36.24" r="1.21"/><circle class="e213bd75-76a4-4075-ad02-93b20aabd61a" cx="161.35" cy="36.24" r="1.21"/><circle class="e213bd75-76a4-4075-ad02-93b20aabd61a" cx="167.37" cy="36.24" r="1.21"/><path class="e213bd75-76a4-4075-ad02-93b20aabd61a" d="M237.29,38.15a1.21,1.21,0,1,1-1.21-1.21A1.22,1.22,0,0,1,237.29,38.15Z" transform="translate(-62.68 -1.91)"/><circle class="e213bd75-76a4-4075-ad02-93b20aabd61a" cx="179.42" cy="36.24" r="1.21"/><path class="e213bd75-76a4-4075-ad02-93b20aabd61a" d="M249.34,38.15a1.21,1.21,0,1,1-1.21-1.21A1.22,1.22,0,0,1,249.34,38.15Z" transform="translate(-62.68 -1.91)"/><path class="e213bd75-76a4-4075-ad02-93b20aabd61a" d="M73.71,144.62a1.21,1.21,0,1,1-1.21-1.21A1.22,1.22,0,0,1,73.71,144.62Z" transform="translate(-62.68 -1.91)"/><path class="e213bd75-76a4-4075-ad02-93b20aabd61a" d="M79.74,144.62a1.22,1.22,0,1,1-2.43,0,1.22,1.22,0,0,1,2.43,0Z" transform="translate(-62.68 -1.91)"/><path class="e213bd75-76a4-4075-ad02-93b20aabd61a" d="M85.76,144.62a1.21,1.21,0,1,1-1.21-1.21A1.22,1.22,0,0,1,85.76,144.62Z" transform="translate(-62.68 -1.91)"/><path class="e213bd75-76a4-4075-ad02-93b20aabd61a" d="M91.79,144.62a1.22,1.22,0,1,1-1.21-1.21A1.22,1.22,0,0,1,91.79,144.62Z" transform="translate(-62.68 -1.91)"/><path class="e213bd75-76a4-4075-ad02-93b20aabd61a" d="M97.81,144.62a1.21,1.21,0,1,1-1.21-1.21A1.22,1.22,0,0,1,97.81,144.62Z" transform="translate(-62.68 -1.91)"/><path class="e213bd75-76a4-4075-ad02-93b20aabd61a" d="M103.84,144.62a1.22,1.22,0,1,1-1.21-1.21A1.22,1.22,0,0,1,103.84,144.62Z" transform="translate(-62.68 -1.91)"/><polygon class="b2891980-5b6d-42de-92ad-5da69516d7c1" points="234.31 26.37 224.57 31.99 224.57 20.75 234.31 26.37"/><polygon class="b2891980-5b6d-42de-92ad-5da69516d7c1" points="219.55 26.37 209.81 31.99 209.81 20.75 219.55 26.37"/><polygon class="b2891980-5b6d-42de-92ad-5da69516d7c1" points="204.78 26.37 195.05 31.99 195.05 20.75 204.78 26.37"/><polygon class="b2891980-5b6d-42de-92ad-5da69516d7c1" points="270.72 202.53 260.99 208.15 260.99 196.91 270.72 202.53"/><polygon class="b2891980-5b6d-42de-92ad-5da69516d7c1" points="255.96 202.53 246.23 208.15 246.23 196.91 255.96 202.53"/><polygon class="b2891980-5b6d-42de-92ad-5da69516d7c1" points="241.2 202.53 231.46 208.15 231.46 196.91 241.2 202.53"/><rect class="b5963443-5020-4b53-a7ab-7a07ff96e562" x="289.86" y="6.33" width="47.71" height="3.29"/><rect class="b5963443-5020-4b53-a7ab-7a07ff96e562" x="289.86" y="15.73" width="47.71" height="3.29"/><rect class="e41e89c7-eab9-482b-877e-24d25c6bd2ec" x="272.62" y="6.06" width="13.19" height="13.19"/><path class="f8a7a04e-1cbc-492e-9484-fcd22fde7967" d="M341.9,18.45h0a.82.82,0,0,1-.68-.42l-3.3-6.12a.81.81,0,1,1,1.42-.76L342,16l3.1-4.94a.81.81,0,0,1,1.11-.25.8.8,0,0,1,.25,1.11l-3.83,6.11A.78.78,0,0,1,341.9,18.45Z" transform="translate(-62.68 -1.91)"/></g><g id="aef9abc1-6ef8-4d5d-8c9b-f764802f293a" data-name="group02"><polygon class="f0f41d57-234b-4b2b-ad7e-c886d77a8e3d" points="52.07 50.9 52.07 139 52.07 148.04 120.74 148.04 120.74 50.9 52.07 50.9"/><polygon class="ae990dd3-5915-481c-ad2d-9e1f49d199ad" points="140.93 50.9 120.74 50.9 120.74 148.04 231.28 148.04 231.28 50.9 140.93 50.9"/><rect class="f0f41d57-234b-4b2b-ad7e-c886d77a8e3d" x="231.27" y="50.9" width="55.27" height="97.14"/><rect class="b120a790-091d-488f-abf9-62bbcdbf8db0" x="52.07" y="148.04" width="234.47" height="34.33"/><rect class="bab675d2-ec8c-4286-8814-5865fbc0bdd6" x="65.47" y="95.92" width="11.72" height="39.16"/><rect class="fd8b5842-b45c-4d43-97a2-d35a37b3d6b1" x="82.65" y="83.22" width="11.72" height="51.86"/><rect class="bda82450-f731-4468-a4a6-eb030fc37f0f" x="99.83" y="70.38" width="11.72" height="64.7"/><line class="bbbe6b89-78cc-4210-8c13-7006c8482bb7" x1="68.47" y1="81.34" x2="96.24" y2="62.75"/><path class="bda82450-f731-4468-a4a6-eb030fc37f0f" d="M129,83.25a2.14,2.14,0,1,1,2.14,2.14A2.14,2.14,0,0,1,129,83.25Z" transform="translate(-62.68 -1.91)"/><polygon class="bda82450-f731-4468-a4a6-eb030fc37f0f" points="101.49 59.82 95.9 68.71 90.99 60.22 101.49 59.82"/><polygon class="e213bd75-76a4-4075-ad02-93b20aabd61a" points="278.17 72.67 265.61 72.67 265.61 79.37 255.56 79.37 255.56 88.58 271.75 88.58 274.82 92.43 274.82 88.58 278.17 88.58 278.17 72.67"/><polygon class="e213bd75-76a4-4075-ad02-93b20aabd61a" points="263.1 60.11 240.49 60.11 240.49 76.86 243 76.86 243 80.71 246.2 76.86 263.1 76.86 263.1 60.11"/><rect class="f0cc52ba-1a24-4678-afdc-7bc842ecead4" x="121.62" y="155.58" width="41.82" height="2.47"/><rect class="f0cc52ba-1a24-4678-afdc-7bc842ecead4" x="121.62" y="159.76" width="41.82" height="2.47"/><rect class="f0cc52ba-1a24-4678-afdc-7bc842ecead4" x="121.62" y="163.95" width="41.82" height="2.47"/><rect class="f0cc52ba-1a24-4678-afdc-7bc842ecead4" x="121.62" y="168.13" width="41.82" height="2.47"/><line class="a727d8e8-704e-4885-a80e-198dd74a14ab" x1="91.85" y1="156.11" x2="102.11" y2="153.84"/><line class="a727d8e8-704e-4885-a80e-198dd74a14ab" x1="91.85" y1="160.81" x2="103.15" y2="160.81"/><line class="a727d8e8-704e-4885-a80e-198dd74a14ab" x1="91.85" y1="165.18" x2="101.06" y2="168.75"/><rect class="f0cc52ba-1a24-4678-afdc-7bc842ecead4" x="195.55" y="73.56" width="30.14" height="2.47"/><rect class="f0cc52ba-1a24-4678-afdc-7bc842ecead4" x="129.67" y="59.26" width="96.02" height="3.89"/><rect class="f0cc52ba-1a24-4678-afdc-7bc842ecead4" x="195.55" y="77.74" width="30.14" height="2.47"/><rect class="f0cc52ba-1a24-4678-afdc-7bc842ecead4" x="195.55" y="81.92" width="30.14" height="2.47"/><rect class="f0cc52ba-1a24-4678-afdc-7bc842ecead4" x="195.55" y="86.1" width="22.89" height="2.47"/><rect class="f0cc52ba-1a24-4678-afdc-7bc842ecead4" x="195.55" y="94.47" width="30.14" height="2.47"/><rect class="f0cc52ba-1a24-4678-afdc-7bc842ecead4" x="195.55" y="98.65" width="30.14" height="2.47"/><rect class="f0cc52ba-1a24-4678-afdc-7bc842ecead4" x="195.55" y="102.84" width="30.14" height="2.47"/><rect class="f0cc52ba-1a24-4678-afdc-7bc842ecead4" x="195.55" y="107.02" width="30.14" height="2.47"/><rect class="f0cc52ba-1a24-4678-afdc-7bc842ecead4" x="195.55" y="111.2" width="30.14" height="2.47"/><rect class="f0cc52ba-1a24-4678-afdc-7bc842ecead4" x="195.55" y="115.38" width="30.14" height="2.47"/><rect class="f0cc52ba-1a24-4678-afdc-7bc842ecead4" x="195.55" y="119.57" width="22.89" height="2.47"/><rect class="f0cc52ba-1a24-4678-afdc-7bc842ecead4" x="195.55" y="127.93" width="30.14" height="2.47"/><rect class="f0cc52ba-1a24-4678-afdc-7bc842ecead4" x="195.55" y="132.11" width="30.14" height="2.47"/><circle class="b2891980-5b6d-42de-92ad-5da69516d7c1" cx="186.66" cy="163.09" r="9.25"/><polygon class="e932f87a-bce7-4feb-8013-4d580593ffe9" points="192.44 163.09 184.23 167.83 184.23 158.35 192.44 163.09"/><circle class="f0cc52ba-1a24-4678-afdc-7bc842ecead4" cx="255.56" cy="112.43" r="18.24"/><circle class="e213bd75-76a4-4075-ad02-93b20aabd61a" cx="255.56" cy="112.43" r="15.5"/><line class="f768a245-bd0b-4094-b0b7-13a1580e2126" x1="255.56" y1="112.43" x2="247.63" y2="101.98"/><line class="f768a245-bd0b-4094-b0b7-13a1580e2126" x1="263.4" y1="108.25" x2="255.56" y2="112.43"/><line class="f768a245-bd0b-4094-b0b7-13a1580e2126" x1="255.56" y1="98.65" x2="255.56" y2="101.12"/><line class="f768a245-bd0b-4094-b0b7-13a1580e2126" x1="255.56" y1="123.08" x2="255.56" y2="125.55"/><line class="f768a245-bd0b-4094-b0b7-13a1580e2126" x1="269.01" y1="112.1" x2="266.54" y2="112.1"/><line class="f768a245-bd0b-4094-b0b7-13a1580e2126" x1="244.58" y1="112.1" x2="242.11" y2="112.1"/><polygon class="b2891980-5b6d-42de-92ad-5da69516d7c1" points="241.04 136.58 242.11 138.75 244.51 139.1 242.78 140.79 243.18 143.17 241.04 142.04 238.91 143.17 239.31 140.79 237.58 139.1 239.97 138.75 241.04 136.58"/><polygon class="b2891980-5b6d-42de-92ad-5da69516d7c1" points="251.09 136.58 252.16 138.75 254.55 139.1 252.82 140.79 253.23 143.17 251.09 142.04 248.95 143.17 249.36 140.79 247.63 139.1 250.02 138.75 251.09 136.58"/><polygon class="b2891980-5b6d-42de-92ad-5da69516d7c1" points="261.14 136.58 262.21 138.75 264.6 139.1 262.87 140.79 263.28 143.17 261.14 142.04 259 143.17 259.41 140.79 257.68 139.1 260.07 138.75 261.14 136.58"/><polygon class="b2891980-5b6d-42de-92ad-5da69516d7c1" points="271.19 136.58 272.26 138.75 274.65 139.1 272.92 140.79 273.33 143.17 271.19 142.04 269.05 143.17 269.46 140.79 267.73 139.1 270.12 138.75 271.19 136.58"/><path class="b1a3d1c1-3df2-42b9-a891-80811722787e" d="M137.79,181.06h0a1.84,1.84,0,0,1-2.42-1l-4.11-9.77a1.85,1.85,0,0,1,1-2.42h0a1.84,1.84,0,0,1,2.42,1l4.11,9.77A1.85,1.85,0,0,1,137.79,181.06Z" transform="translate(-62.68 -1.91)"/><rect class="f8a7a04e-1cbc-492e-9484-fcd22fde7967" x="67.57" y="164.08" width="5.82" height="4.67" rx="1.6"/><path class="ab625376-bf73-4404-972f-5609ce76034f" d="M152.24,162.23a4.05,4.05,0,1,1-4.05-4A4,4,0,0,1,152.24,162.23Z" transform="translate(-62.68 -1.91)"/><path class="f8a7a04e-1cbc-492e-9484-fcd22fde7967" d="M136.57,167.43H132.3a4.71,4.71,0,0,1-4.71-4.71h0a4.71,4.71,0,0,1,4.71-4.7h4.27Z" transform="translate(-62.68 -1.91)"/><polygon class="b2891980-5b6d-42de-92ad-5da69516d7c1" points="84.73 152.88 70.5 156.11 70.5 160.6 84.73 160.6 84.73 152.88"/><polygon class="ab625376-bf73-4404-972f-5609ce76034f" points="70.5 160.6 70.5 165.55 84.73 167.71 84.73 160.6 70.5 160.6"/><path class="f8a7a04e-1cbc-492e-9484-fcd22fde7967" d="M148.42,170h0a.79.79,0,0,1-.79-.79v-14a.79.79,0,0,1,.79-.79h0a.79.79,0,0,1,.79.79v14A.79.79,0,0,1,148.42,170Z" transform="translate(-62.68 -1.91)"/></g><g id="af642707-4e37-4803-9c7b-55105f9f3258" data-name="group01"><circle class="e213bd75-76a4-4075-ad02-93b20aabd61a" cx="222.17" cy="105.98" r="28.91" transform="translate(5.3 295.95) rotate(-76.72)"/><path class="f8a7a04e-1cbc-492e-9484-fcd22fde7967" d="M222.17,106h28.92a28.92,28.92,0,0,1-56,10.21Z" transform="translate(-62.68 -1.91)"/><path class="bab675d2-ec8c-4286-8814-5865fbc0bdd6" d="M222.17,106h28.92a28.91,28.91,0,0,1-45.82,23.46Z" transform="translate(-62.68 -1.91)"/><path class="ab625376-bf73-4404-972f-5609ce76034f" d="M222.17,106h28.92a28.95,28.95,0,0,1-10.16,22Z" transform="translate(-62.68 -1.91)"/></g></g></svg>