<?xml version="1.0" encoding="utf-8"?>
<!-- Generator: Adobe Illustrator 24.0.1, SVG Export Plug-In . SVG Version: 6.00 Build 0)  -->
<svg version="1.1" id="圖層_1" xmlns="http://www.w3.org/2000/svg" xmlns:xlink="http://www.w3.org/1999/xlink" x="0px" y="0px"
	 viewBox="0 0 800 800" style="enable-background:new 0 0 800 800;" xml:space="preserve">
<style type="text/css">
	.st0{fill:#473F97;}
	.st1{fill:#5250A0;}
	.st2{fill:#C0BFDF;}
	.st3{opacity:0.35;}
	.st4{fill:#FFFFFF;}
	.st5{opacity:0.25;}
	.st6{fill:#F2A31D;}
	.st7{fill:#ABAAD4;}
	.st8{opacity:0.15;}
	.st9{opacity:0.26;fill:#040000;}
	.st10{opacity:0.62;}
	.st11{fill:#D5DAD9;}
	.st12{fill:#F0EFEF;}
	.st13{fill:#7175B6;}
	.st14{fill:#CCCBE6;}
	.st15{opacity:0.55;fill:#C0BFDF;}
	.st16{fill:#9F9FCF;}
	.st17{fill:#D4D3EA;}
	.st18{fill:#E7E3F1;}
	.st19{fill:#BAC1E2;}
	.st20{fill:#7D7FBC;}
	.st21{fill:#969DCE;}
	.st22{fill:none;stroke:#969DCE;stroke-width:1.5;stroke-miterlimit:10;}
</style>
<rect x="390.95" y="529.93" class="st0" width="173.98" height="46.8"/>
<path class="st1" d="M771.04,545.21H186.68c-5.18,0-9.39-4.2-9.39-9.39V120.68c0-5.18,4.2-9.39,9.39-9.39h584.36
	c5.18,0,9.39,4.2,9.39,9.39v415.14C780.42,541,776.22,545.21,771.04,545.21z"/>
<path class="st2" d="M755.97,503.57H199.9c-3.19,0-5.77-2.58-5.77-5.77V132.88c0-3.19,2.58-5.77,5.77-5.77h556.07
	c3.19,0,5.77,2.58,5.77,5.77V497.8C761.74,500.99,759.16,503.57,755.97,503.57z"/>
<path class="st1" d="M639.71,602.16H316.16v-22.18c0-4.04,3.28-7.32,7.32-7.32h308.91c4.04,0,7.32,3.28,7.32,7.32V602.16z"/>
<g class="st3">
	<g>
		<g>
			<path class="st4" d="M709.44,420.07H347.09c-9.61,0-17.4-7.79-17.4-17.4V170.51c0-9.61,7.79-17.4,17.4-17.4h362.35
				c9.61,0,17.4,7.79,17.4,17.4v232.15C726.84,412.28,719.05,420.07,709.44,420.07z"/>
		</g>
	</g>
</g>
<g class="st5">
	<g>
		<g>
			<g>
				<g>
					<rect x="367.43" y="348.12" class="st6" width="17.3" height="43.43"/>
				</g>
			</g>
		</g>
		<g>
			<g>
				<g>
					<rect x="406.41" y="310" class="st7" width="17.3" height="81.56"/>
				</g>
			</g>
		</g>
		<g>
			<g>
				<g>
					<rect x="445.4" y="318.43" class="st6" width="17.3" height="73.13"/>
				</g>
			</g>
		</g>
		<g>
			<g>
				<g>
					<rect x="484.38" y="277.14" class="st7" width="17.3" height="114.41"/>
				</g>
			</g>
		</g>
		<g class="st8">
			<g>
				<g>
					<rect x="406.41" y="310" class="st9" width="7.94" height="81.56"/>
				</g>
			</g>
		</g>
		<g class="st8">
			<g>
				<g>
					<rect x="367.43" y="348.12" class="st9" width="7.94" height="43.43"/>
				</g>
			</g>
		</g>
		<g class="st10">
			<g>
				<g>
					<rect x="484.38" y="277.14" class="st9" width="7.94" height="114.41"/>
				</g>
			</g>
		</g>
		<g class="st8">
			<g>
				<g>
					<rect x="445.4" y="318.43" class="st9" width="7.94" height="73.13"/>
				</g>
			</g>
		</g>
		<g>
			<g>
				<g>
					<polygon class="st11" points="510.84,403.51 356,403.51 356,238.64 358.37,238.64 358.37,401.15 510.84,401.15 					"/>
				</g>
			</g>
		</g>
		<g>
			<g>
				<g>
					<polygon class="st11" points="371.91,327.78 370.33,326.03 410.83,289.66 448.35,297.81 488.97,252.58 490.73,254.16 
						449.19,300.41 411.51,292.22 					"/>
				</g>
			</g>
		</g>
		<g>
			<g>
				<g>
					<polygon class="st11" points="493.91,260.84 482.46,249.86 497.24,245.9 					"/>
				</g>
			</g>
		</g>
		<g>
			<g>
				<g>
					<g>
						<rect x="525.5" y="345.04" class="st7" width="11.88" height="11.88"/>
					</g>
				</g>
			</g>
			<g>
				<g>
					<g>
						<rect x="525.5" y="365.86" class="st6" width="11.88" height="11.88"/>
					</g>
				</g>
			</g>
			<g>
				<g>
					<g>
						<rect x="540.65" y="370.99" class="st12" width="37.66" height="6.75"/>
					</g>
				</g>
			</g>
			<g>
				<g>
					<g>
						<rect x="540.65" y="350.17" class="st12" width="37.66" height="6.75"/>
					</g>
				</g>
			</g>
		</g>
		<g>
			<g>
				<g>
					<g>
						<rect x="595.37" y="345.04" class="st7" width="11.88" height="11.88"/>
					</g>
				</g>
			</g>
			<g>
				<g>
					<g>
						<rect x="595.37" y="365.86" class="st6" width="11.88" height="11.88"/>
					</g>
				</g>
			</g>
			<g>
				<g>
					<g>
						<rect x="610.52" y="370.99" class="st12" width="37.66" height="6.75"/>
					</g>
				</g>
			</g>
			<g>
				<g>
					<g>
						<rect x="610.52" y="350.17" class="st12" width="37.66" height="6.75"/>
					</g>
				</g>
			</g>
		</g>
		<g>
			<g>
				<g>
					<g>
						<rect x="658.28" y="345.04" class="st7" width="11.88" height="11.88"/>
					</g>
				</g>
			</g>
			<g>
				<g>
					<g>
						<rect x="658.28" y="365.86" class="st6" width="11.88" height="11.88"/>
					</g>
				</g>
			</g>
			<g>
				<g>
					<g>
						<rect x="673.44" y="370.99" class="st12" width="24.78" height="6.75"/>
					</g>
				</g>
			</g>
			<g>
				<g>
					<g>
						<rect x="673.44" y="350.17" class="st12" width="24.78" height="6.75"/>
					</g>
				</g>
			</g>
		</g>
		<g>
			<g>
				<g>
					<g>
						<rect x="527.72" y="231.53" class="st12" width="170.5" height="3.1"/>
					</g>
				</g>
			</g>
			<g>
				<g>
					<g>
						<rect x="356" y="193.48" class="st12" width="342.22" height="7.1"/>
					</g>
				</g>
			</g>
			<g>
				<g>
					<g>
						<rect x="527.21" y="241.17" class="st12" width="171.01" height="3.1"/>
					</g>
				</g>
			</g>
			<g>
				<g>
					<g>
						<rect x="527.21" y="221.89" class="st12" width="171.01" height="3.1"/>
					</g>
				</g>
			</g>
			<g>
				<g>
					<g>
						<rect x="527.21" y="250.81" class="st12" width="171.01" height="3.1"/>
					</g>
				</g>
			</g>
			<g>
				<g>
					<g>
						<rect x="527.21" y="260.45" class="st12" width="171.01" height="3.1"/>
					</g>
				</g>
			</g>
			<g>
				<g>
					<g>
						<rect x="527.21" y="270.09" class="st12" width="171.01" height="3.1"/>
					</g>
				</g>
			</g>
			<g>
				<g>
					<g>
						<rect x="527.21" y="279.73" class="st12" width="171.01" height="3.1"/>
					</g>
				</g>
			</g>
			<g>
				<g>
					<g>
						<rect x="527.21" y="289.37" class="st12" width="171.01" height="3.1"/>
					</g>
				</g>
			</g>
			<g>
				<g>
					<g>
						<rect x="527.21" y="299.01" class="st12" width="171.01" height="3.1"/>
					</g>
				</g>
			</g>
			<g>
				<g>
					<g>
						<rect x="548.15" y="308.65" class="st12" width="150.07" height="3.1"/>
					</g>
				</g>
			</g>
		</g>
	</g>
	<path class="st13" d="M709.44,153.11H347.09c-9.61,0-17.4,7.79-17.4,17.4v15.23h397.16v-15.23
		C726.84,160.9,719.05,153.11,709.44,153.11z"/>
	<path class="st14" d="M675.76,170.03c0,2.77-2.25,5.02-5.02,5.02c-2.77,0-5.02-2.25-5.02-5.02s2.25-5.02,5.02-5.02
		C673.51,165.01,675.76,167.26,675.76,170.03z"/>
	<circle class="st14" cx="691.19" cy="170.03" r="5.02"/>
	<circle class="st14" cx="711.65" cy="170.03" r="5.02"/>
</g>
<g>
	<g>
		<g>
			<path class="st15" d="M603.94,479.12H241.59c-9.61,0-17.4-7.79-17.4-17.4V229.57c0-9.61,7.79-17.4,17.4-17.4h362.35
				c9.61,0,17.4,7.79,17.4,17.4v232.15C621.34,471.33,613.55,479.12,603.94,479.12z"/>
		</g>
	</g>
</g>
<g>
	<g>
		<g>
			<path class="st4" d="M612,468.73H249.64c-9.61,0-17.4-7.79-17.4-17.4V219.17c0-9.61,7.79-17.4,17.4-17.4H612
				c9.61,0,17.4,7.79,17.4,17.4v232.15C629.4,460.93,621.61,468.73,612,468.73z"/>
		</g>
	</g>
</g>
<path class="st16" d="M612,201.77H249.64c-9.61,0-17.4,7.79-17.4,17.4v15.23H629.4v-15.23C629.4,209.56,621.61,201.77,612,201.77z"
	/>
<path class="st14" d="M578.32,218.68c0,2.77-2.25,5.02-5.02,5.02c-2.77,0-5.02-2.25-5.02-5.02s2.25-5.02,5.02-5.02
	C576.07,213.66,578.32,215.91,578.32,218.68z"/>
<path class="st14" d="M598.77,218.68c0,2.77-2.25,5.02-5.02,5.02c-2.77,0-5.02-2.25-5.02-5.02s2.25-5.02,5.02-5.02
	C596.52,213.66,598.77,215.91,598.77,218.68z"/>
<path class="st14" d="M619.22,218.68c0,2.77-2.25,5.02-5.02,5.02c-2.77,0-5.02-2.25-5.02-5.02s2.25-5.02,5.02-5.02
	C616.97,213.66,619.22,215.91,619.22,218.68z"/>
<g>
	<polygon class="st6" points="359.01,269.46 342.8,437.46 502.12,437.49 486.71,269.18 	"/>
	<g>
		<g>
			<path class="st1" d="M386.79,284.84L386.79,284.84c0-2.79,2.67-5.06,5.96-5.07c0,0,0,0,0.01,0c3.29,0,5.97,2.26,5.98,5.04
				c0,2.78-2.67,5.06-5.96,5.06c0,0,0,0-0.01,0C389.48,289.88,386.8,287.62,386.79,284.84z M392.76,281.7
				c-2.23,0.01-4.04,1.41-4.04,3.13c0.01,1.72,1.82,3.12,4.05,3.12c0,0,0.01,0,0.01,0c2.23-0.01,4.05-1.41,4.04-3.13
				C396.81,283.1,395,281.7,392.76,281.7C392.77,281.7,392.76,281.7,392.76,281.7z M387.73,284.84h0.02H387.73z"/>
		</g>
		<g>
			<path class="st1" d="M446.17,284.7l0.96,0L446.17,284.7c0-1.2,0.49-2.36,1.4-3.27c1.13-1.14,2.8-1.79,4.56-1.79
				c0.01,0,0.02,0,0.03,0c3.28,0,5.96,2.25,5.97,5.03c0,1.39-0.64,2.68-1.81,3.64c-1.11,0.92-2.59,1.42-4.15,1.43c0,0,0,0-0.01,0
				C448.86,289.74,446.18,287.49,446.17,284.7z M452.13,281.57c-1.25,0-2.42,0.45-3.19,1.23c-0.38,0.38-0.84,1.03-0.84,1.9l0,0
				c0.01,1.72,1.82,3.12,4.05,3.12c0,0,0.01,0,0.01,0c1.12,0,2.16-0.35,2.93-0.99c0.71-0.59,1.11-1.35,1.11-2.14
				c-0.01-1.72-1.82-3.12-4.05-3.12C452.15,281.57,452.14,281.57,452.13,281.57z"/>
		</g>
	</g>
	<g>
		<path class="st1" d="M420.7,321.56c0.55,0,1.12-0.01,1.69-0.03c10.91-0.36,19.23-3.88,24.73-10.44
			c9.1-10.87,7.04-26.03,6.95-26.67c-0.15-1.05-1.14-1.82-2.18-1.63c-1.06,0.15-1.79,1.13-1.64,2.18c0.02,0.14,1.9,14.14-6.1,23.67
			c-4.76,5.67-12.13,8.72-21.89,9.04c-9.45,0.28-16.49-2.17-21.18-7.39c-8.51-9.47-6.41-25.03-6.39-25.19
			c0.15-1.05-0.58-2.03-1.64-2.18c-1.02-0.15-2.03,0.58-2.18,1.64c-0.1,0.71-2.38,17.47,7.32,28.29
			C403.39,318.63,410.96,321.56,420.7,321.56z"/>
	</g>
</g>
<g>
	<polygon class="st17" points="50.85,414.74 42.36,533.62 155.76,533.62 147.95,414.52 	"/>
	<g>
		<g>
			<path class="st18" d="M73.34,425.19L73.34,425.19c0-1.81,1.74-3.29,3.88-3.3c0,0,0,0,0,0c2.15,0,3.89,1.47,3.9,3.28
				c0,1.81-1.74,3.29-3.88,3.3c0,0,0,0,0,0C75.1,428.47,73.35,427,73.34,425.19z M77.23,423.14c-1.45,0.01-2.63,0.92-2.63,2.04
				c0.01,1.12,1.19,2.03,2.64,2.03c0,0,0.01,0,0.01,0c1.45-0.01,2.63-0.92,2.63-2.04C79.87,424.05,78.69,423.14,77.23,423.14
				L77.23,423.14z M73.95,425.18h0.02H73.95z"/>
		</g>
		<g>
			<path class="st18" d="M112,425.1l0.63,0L112,425.1c0-0.78,0.32-1.53,0.91-2.13c0.74-0.74,1.82-1.17,2.97-1.17
				c0.01,0,0.01,0,0.02,0c2.14,0,3.88,1.47,3.89,3.28c0,0.9-0.42,1.75-1.18,2.37c-0.73,0.6-1.68,0.93-2.7,0.93c0,0,0,0-0.01,0
				C113.75,428.38,112.01,426.91,112,425.1z M115.88,423.05c-0.82,0-1.58,0.29-2.08,0.8c-0.25,0.25-0.55,0.67-0.55,1.24l0,0
				c0.01,1.12,1.19,2.03,2.64,2.03h0.01c0.73,0,1.4-0.23,1.91-0.64c0.46-0.38,0.72-0.88,0.72-1.4c-0.01-1.12-1.18-2.03-2.63-2.03
				C115.89,423.05,115.89,423.05,115.88,423.05z"/>
		</g>
		<path class="st18" d="M95.41,449.09c0.36,0,0.73-0.01,1.1-0.02c7.1-0.24,12.52-2.53,16.1-6.8c5.92-7.08,4.58-16.94,4.52-17.36
			c-0.1-0.68-0.74-1.18-1.42-1.06c-0.69,0.1-1.16,0.73-1.07,1.42c0.01,0.09,1.24,9.2-3.97,15.41c-3.1,3.69-7.9,5.68-14.25,5.89
			c-6.15,0.18-10.73-1.42-13.79-4.81c-5.54-6.16-4.17-16.29-4.16-16.4c0.1-0.68-0.38-1.32-1.07-1.42c-0.66-0.1-1.32,0.38-1.42,1.06
			c-0.07,0.46-1.55,11.37,4.77,18.42C84.14,447.18,89.06,449.09,95.41,449.09z"/>
	</g>
	<polygon class="st19" points="104.18,448.06 90.63,536.44 213.74,536.16 201.28,447.83 	"/>
	<g>
		<path class="st20" d="M58.58,597.29c-13.79,0-24.97,11.18-24.97,24.97s11.18,24.97,24.97,24.97c13.79,0,24.97-11.18,24.97-24.97
			S72.37,597.29,58.58,597.29z M58.58,633.86c-6.38,0-11.59-5.16-11.59-11.59c0-6.38,5.21-11.59,11.59-11.59
			c6.43,0,11.64,5.21,11.64,11.59C70.23,628.7,65.02,633.86,58.58,633.86z"/>
		<path class="st21" d="M54.48,597.29c-13.79,0-24.97,11.18-24.97,24.97s11.18,24.97,24.97,24.97c13.79,0,24.97-11.18,24.97-24.97
			S68.26,597.29,54.48,597.29z M54.48,633.86c-6.38,0-11.59-5.16-11.59-11.59c0-6.38,5.21-11.59,11.59-11.59
			c6.43,0,11.64,5.21,11.64,11.59C66.12,628.7,60.91,633.86,54.48,633.86z"/>
		<path class="st20" d="M199.67,597.29c-13.79,0-24.97,11.18-24.97,24.97s11.18,24.97,24.97,24.97c13.79,0,24.97-11.18,24.97-24.97
			S213.45,597.29,199.67,597.29z M199.67,633.86c-6.38,0-11.59-5.16-11.59-11.59c0-6.38,5.21-11.59,11.59-11.59
			c6.43,0,11.64,5.21,11.64,11.59C211.31,628.7,206.1,633.86,199.67,633.86z"/>
		<path class="st21" d="M195.56,597.29c-13.79,0-24.97,11.18-24.97,24.97s11.18,24.97,24.97,24.97c13.79,0,24.97-11.18,24.97-24.97
			S209.35,597.29,195.56,597.29z M195.56,633.86c-6.38,0-11.59-5.16-11.59-11.59c0-6.38,5.21-11.59,11.59-11.59
			c6.43,0,11.64,5.21,11.64,11.59C207.2,628.7,201.99,633.86,195.56,633.86z"/>
		<g>
			<path class="st22" d="M388.13,316.99H313.1c-7.89,0-15.23,4.07-19.4,10.77l-45.35,72.82"/>
			<path class="st22" d="M46.76,534.41h167.67c8.93,0,16.53-6.48,17.95-15.3l17.35-108.22c1.77-11.05-6.76-21.05-17.95-21.05H29.41
				c-11.19,0-19.72,10.01-17.95,21.05l17.35,108.22C30.22,527.93,37.83,534.41,46.76,534.41z"/>
			<line class="st22" x1="130.59" y1="389.83" x2="130.59" y2="534.41"/>
			<line class="st22" x1="241.51" y1="462.12" x2="19.68" y2="462.12"/>
			<line class="st22" x1="196.81" y1="389.83" x2="182.47" y2="534.41"/>
			<line class="st22" x1="67.68" y1="389.83" x2="80.93" y2="534.41"/>
			<path class="st22" d="M228.42,527.84l27.16,40.4c7.39,10.99-0.49,25.78-13.73,25.78H19.68"/>
		</g>
	</g>
</g>
</svg>
