<?xml version="1.0" encoding="utf-8"?>
<!-- Generator: Adobe Illustrator 24.0.1, SVG Export Plug-In . SVG Version: 6.00 Build 0)  -->
<svg version="1.1" id="圖層_1" xmlns="http://www.w3.org/2000/svg" xmlns:xlink="http://www.w3.org/1999/xlink" x="0px" y="0px"
	 viewBox="0 0 800 800" style="enable-background:new 0 0 800 800;" xml:space="preserve">
<style type="text/css">
	.st0{fill:#5250A0;}
	.st1{fill:#FFFFFF;}
	.st2{fill:#8ECEBC;}
	.st3{fill:#7C9AD0;}
	.st4{fill:#F0F2F6;}
	.st5{fill:#CED1E3;}
	.st6{fill:url(#SVGID_1_);}
	.st7{fill:url(#SVGID_2_);}
	.st8{fill:url(#SVGID_3_);}
	.st9{fill:url(#SVGID_4_);}
	.st10{fill:url(#SVGID_5_);}
	.st11{fill:url(#SVGID_6_);}
	.st12{fill:url(#SVGID_7_);}
	.st13{fill:url(#SVGID_8_);}
	.st14{fill:#5161AB;}
	.st15{fill:#1B2F68;}
	.st16{fill:#E4C287;}
	.st17{opacity:0.55;fill:#FFFFFF;}
</style>
<path class="st0" d="M536.59,786.8l-261.16-1.21c-31.41-0.14-56.76-25.71-56.63-57.11l2.77-654.58
	c0.13-31.42,25.73-56.78,57.15-56.63l261.16,1.21c31.41,0.14,56.76,25.71,56.63,57.12l-2.77,654.58
	C593.61,761.58,568.02,786.94,536.59,786.8z"/>
<path class="st1" d="M539.51,41.06l-50.64-0.23c-6.79-0.03-12.32,5.7-12.35,12.79l-0.04,9.18c-0.03,7.1-5.56,12.83-12.35,12.79
	l-98.7-0.46c-6.79-0.03-12.27-5.81-12.24-12.91l0.04-9.18c0.03-7.1-5.45-12.88-12.24-12.91l-17.81-0.08l-44.32-0.2
	c-22.01-0.1-39.93,17.66-40.03,39.66l-2.7,638.92c-0.09,21.99,17.66,39.9,39.66,40l260.64,1.2c22.01,0.1,39.93-17.66,40.03-39.66
	l2.7-638.92C579.26,59.07,561.51,41.16,539.51,41.06z"/>
<path class="st2" d="M542.14,698.45H270.8c-1.1,0-2-0.9-2-2V505.99c0-1.1,0.9-2,2-2h271.34c1.1,0,2,0.9,2,2v190.46
	C544.14,697.55,543.24,698.45,542.14,698.45z"/>
<g>
	<g>
		<g>
			<path class="st1" d="M318.02,539.32c5.02,0,10.04,0,15.07,0c2.72,0,16,0.9,13.37-1.21c4.41,3.54,7.03,18.18,8.99,23.24
				c8.19,21.19,16.38,42.37,24.57,63.55c0.29,0.75,0.88,1.32,1.73,1.32c22.79,0,45.58,0,68.36,0c0.58,0,1.29-0.33,1.56-0.89
				c9.65-20.85,19.31-41.71,28.96-62.57c0.56-1.2-0.09-2.71-1.55-2.71c-29.36,0-58.71,0-88.06,0c-2.32,0-2.32,3.6,0,3.6
				c22.6,0,45.2,0,67.79,0c4.96,0,10.33,0.57,15.26,0c1.28-0.15,2.6,0.12,3.88,0c2.01-0.18-0.19-2.99-0.87-1.76
				c-5.54,10.13-9.82,21.21-14.67,31.68c-2.87,6.2-5.74,12.4-8.61,18.6c-1.25,2.7-2.74,9.03-5.08,10.97
				c1.88-1.56-3.12-0.52-5.73-0.52c-6.6,0-13.2,0-19.8,0c-12.7,0-25.64,0.73-38.33,0c-4.76-0.27-0.41,2.18-2.08-0.46
				c-2.21-3.49-3.27-8.46-4.76-12.32c-9.38-24.27-18.77-48.53-28.15-72.8c-0.29-0.75-0.88-1.32-1.73-1.32c-10.04,0-20.09,0-30.13,0
				C315.71,535.72,315.7,539.32,318.02,539.32L318.02,539.32z"/>
		</g>
		<g>
			<path class="st1" d="M453.5,647.59c-0.6,11.13-17.38,11.23-17.38,0C436.12,636.37,452.9,636.46,453.5,647.59
				c0.12,2.3,3.72,2.32,3.6,0c-0.36-6.66-5.33-12.28-12.28-12.28c-6.66,0-12.31,5.61-12.28,12.28c0.03,6.47,5.24,11.96,11.71,12.25
				c7.17,0.33,12.48-5.35,12.85-12.25C457.22,645.28,453.62,645.29,453.5,647.59z"/>
		</g>
		<g>
			<path class="st1" d="M393.98,647.59c-0.6,11.13-17.38,11.23-17.38,0C376.6,636.37,393.38,636.46,393.98,647.59
				c0.12,2.3,3.72,2.32,3.59,0c-0.36-6.66-5.33-12.28-12.28-12.28c-6.66,0-12.32,5.61-12.28,12.28c0.03,6.47,5.24,11.96,11.71,12.25
				c7.17,0.33,12.48-5.35,12.85-12.25C397.7,645.28,394.1,645.29,393.98,647.59z"/>
		</g>
	</g>
	<g>
		<path class="st1" d="M367.93,587.97c31.5,1.98,64.03,1.38,95.59,0.48c2.28-0.06,2.28-3.48,0-3.54c-31.56-0.9-64.09-1.5-95.59,0.48
			C366.27,585.49,366.26,587.86,367.93,587.97L367.93,587.97z"/>
	</g>
	<g>
		<path class="st1" d="M376.67,608.94c25.33,2.79,53.79,2.24,79.21,0.42c1.77-0.13,1.77-2.62,0-2.75
			c-25.42-1.82-53.89-2.37-79.21,0.42C375.45,607.16,375.44,608.8,376.67,608.94L376.67,608.94z"/>
	</g>
	<g>
		<path class="st1" d="M450.38,565.65c-4.82,19.47-8.55,39.2-13.49,58.63c-0.18,0.69,0.92,0.98,1.05,0.29
			c3.86-19.68,8.94-39.12,12.93-58.78C450.93,565.47,450.46,565.34,450.38,565.65L450.38,565.65z"/>
	</g>
	<g>
		<path class="st1" d="M419.97,570c-0.38,18.15-1.34,36.31,0.22,54.43c0.07,0.78,1.22,0.81,1.24,0c0.23-18.14-0.82-36.29-1.2-54.43
			C420.22,569.83,419.97,569.83,419.97,570L419.97,570z"/>
	</g>
	<g>
		<path class="st1" d="M388.41,571.35c4.15,17.71,6.77,35.81,12.11,53.23c0.19,0.63,1.31,0.56,1.21-0.16
			c-2.32-18.23-8.78-35.38-12.94-53.18C388.73,571,388.35,571.11,388.41,571.35L388.41,571.35z"/>
	</g>
</g>
<rect x="256.83" y="176.56" class="st3" width="293.72" height="293.71"/>
<g>
	<g>
		<polygon class="st4" points="239.9,96.35 182.15,159.11 617.85,159.11 580.05,96.35 		"/>
		<path class="st5" d="M243.67,159.11v24.27c0,17.08,13.85,30.93,30.94,30.93l0,0c17.08,0,30.93-13.85,30.93-30.93v-24.27H243.67z"
			/>
		<path class="st5" d="M366.72,159.11v24.27c0,17.08,13.85,30.93,30.93,30.93l0,0c17.08,0,30.93-13.85,30.93-30.93v-24.27H366.72z"
			/>
		<path class="st5" d="M489.77,159.11v24.27c0,17.08,15.47,30.93,34.55,30.93l0,0c19.08,0,34.55-13.85,34.55-30.93l-1.36-24.27
			H489.77z"/>
		<g>
			<linearGradient id="SVGID_1_" gradientUnits="userSpaceOnUse" x1="159.1314" y1="182.888" x2="892.5229" y2="223.5513">
				<stop  offset="0" style="stop-color:#E8CB6D"/>
				<stop  offset="0.9981" style="stop-color:#C8593B"/>
			</linearGradient>
			<path class="st6" d="M182.15,159.11v24.27c0,17.08,13.85,30.93,30.93,30.93l0,0c17.08,0,30.93-13.85,30.93-30.93v-24.27H182.15z"
				/>
			<linearGradient id="SVGID_2_" gradientUnits="userSpaceOnUse" x1="159.5021" y1="176.0862" x2="892.9267" y2="216.7514">
				<stop  offset="0" style="stop-color:#E8CB6D"/>
				<stop  offset="0.9981" style="stop-color:#C8593B"/>
			</linearGradient>
			<path class="st7" d="M305.2,159.11v24.27c0,17.08,13.85,30.93,30.94,30.93l0,0c17.08,0,30.93-13.85,30.93-30.93v-24.27H305.2z"/>
			<linearGradient id="SVGID_3_" gradientUnits="userSpaceOnUse" x1="159.8876" y1="169.2854" x2="893.2826" y2="209.9489">
				<stop  offset="0" style="stop-color:#E8CB6D"/>
				<stop  offset="0.9981" style="stop-color:#C8593B"/>
			</linearGradient>
			<path class="st8" d="M428.24,159.11v24.27c0,17.08,13.85,30.93,30.93,30.93l0,0c17.09,0,30.93-13.85,30.93-30.93v-24.27H428.24z"
				/>
			<linearGradient id="SVGID_4_" gradientUnits="userSpaceOnUse" x1="157.6842" y1="162.0384" x2="907.6291" y2="203.6196">
				<stop  offset="0" style="stop-color:#E8CB6D"/>
				<stop  offset="0.9981" style="stop-color:#C8593B"/>
			</linearGradient>
			<path class="st9" d="M557.5,159.11l1.36,24.27c0,17.08,13.2,30.93,29.49,30.93l0,0c16.29,0,29.49-13.85,29.49-30.93v-24.27H557.5
				z"/>
		</g>
		<g>
			<linearGradient id="SVGID_5_" gradientUnits="userSpaceOnUse" x1="233.3827" y1="104.5466" x2="248.5538" y2="220.858">
				<stop  offset="0" style="stop-color:#E8CB6D"/>
				<stop  offset="0.9981" style="stop-color:#C8593B"/>
			</linearGradient>
			<polygon class="st10" points="290.66,96.35 243.67,159.11 182.15,159.11 239.9,96.35 			"/>
			<linearGradient id="SVGID_6_" gradientUnits="userSpaceOnUse" x1="342.5944" y1="90.3018" x2="357.7655" y2="206.614">
				<stop  offset="0" style="stop-color:#E8CB6D"/>
				<stop  offset="0.9981" style="stop-color:#C8593B"/>
			</linearGradient>
			<polygon class="st11" points="342.22,96.35 305.2,159.11 366.72,159.11 389.76,96.35 			"/>
			<linearGradient id="SVGID_7_" gradientUnits="userSpaceOnUse" x1="452.2564" y1="75.9985" x2="467.4275" y2="192.3102">
				<stop  offset="0" style="stop-color:#E8CB6D"/>
				<stop  offset="0.9981" style="stop-color:#C8593B"/>
			</linearGradient>
			<polygon class="st12" points="441.32,96.35 428.24,159.11 489.77,159.11 489.77,96.35 			"/>
			<linearGradient id="SVGID_8_" gradientUnits="userSpaceOnUse" x1="561.5795" y1="46.7313" x2="576.7506" y2="163.0429">
				<stop  offset="0" style="stop-color:#E8CB6D"/>
				<stop  offset="0.9981" style="stop-color:#C8593B"/>
			</linearGradient>
			<polygon class="st13" points="526.44,96.35 557.5,159.11 617.85,159.11 580.05,96.35 			"/>
		</g>
	</g>
</g>
<g>
	<path class="st14" d="M526.09,399.67H279.88c-3.38,0-6.12-2.74-6.12-6.12V254.51c0-3.38,2.74-6.12,6.12-6.12h246.21
		c3.38,0,6.12,2.74,6.12,6.12v139.03C532.22,396.93,529.47,399.67,526.09,399.67z"/>
	<rect x="464.68" y="357.37" class="st15" width="47.26" height="23.18"/>
	<rect x="293.85" y="272.84" class="st16" width="47.26" height="31.05"/>
	<rect x="290.48" y="328.84" class="st1" width="29.72" height="10.21"/>
	<rect x="325.91" y="328.84" class="st1" width="33.91" height="10.21"/>
	<rect x="364.65" y="328.84" class="st1" width="33.91" height="10.21"/>
	<rect x="486.27" y="328.84" class="st1" width="23.62" height="10.21"/>
	<rect x="402.79" y="328.84" class="st1" width="33.91" height="10.21"/>
	<rect x="439.72" y="328.84" class="st1" width="39.72" height="10.21"/>
	<rect x="290.48" y="357.37" class="st17" width="99.69" height="6.3"/>
	<rect x="290.48" y="370.59" class="st17" width="99.69" height="6.31"/>
</g>
</svg>
