<svg version="1.1" id="&#x5716;&#x5C64;_1" xmlns="http://www.w3.org/2000/svg" x="0" y="0" viewBox="0 0 141.73 141.73" xml:space="preserve" enable-background="new 0 0 141.73 141.73"><title>index_03</title><g class="nc-icon-wrapper" fill="#d57a66"><path d="M115.76 79.06c-3-11.32-7.89-21.68-15.62-30.59-2.47-2.89-5.47-5.47-8.32-8.32.05-.11.27-.54.49-.86 4.83-8.8 9.66-17.6 14.49-26.45.43-.81.75-1.88.65-2.79-.27-2.47-1.77-3.54-4.62-3.54H38.27c-3.49.27-5.1 3.22-3.49 6.23 1.77 3.27 3.59 6.55 5.36 9.77 3.27 6.01 6.55 11.97 9.82 17.93-1.07.92-2.09 1.72-3.06 2.58-1.02.86-1.99 1.77-2.89 2.69-7.78 8-13.04 17.5-16.53 28.01-3.43 10.31-5.04 20.87-3.32 31.72 1.88 12.13 8.37 20.71 19.75 25.55 6.66 2.85 13.69 3.86 20.87 4.13 9.07.32 18.14.27 27.05-2.09 15.46-4.03 24.25-14.06 26.13-29.9.86-8.13-.1-16.18-2.2-24.07zm-70.03-63.6c-.05-.22-.11-.38-.22-.7h50.72c-.22.49-.38.86-.59 1.18-3.76 6.87-7.57 13.79-11.32 20.71-.43.81-.96 1.12-1.88 1.12-7.89-.05-15.73 0-23.62 0-.65 0-1.18 0-1.55-.75-3.81-7.18-7.68-14.37-11.54-21.56zm63.28 91.28c-2.15 9.17-8 14.75-16.74 17.55-7.73 2.47-15.73 2.85-23.72 2.74-6.12-.11-12.24-.65-18.14-2.47-11.54-3.49-17.93-11.27-18.51-23.24-.92-18.51 4.88-34.88 17.01-48.89 1.93-2.26 4.46-3.97 6.76-5.85.54-.38 1.34-.59 2.04-.59 4.4-.05 8.8 0 13.2 0 4.35 0 8.74-.05 13.09.05.7 0 1.5.27 2.15.65 5.53 3.65 9.66 8.64 13.15 14.22 5.96 9.61 9.5 20.07 10.58 31.29.36 4.88.25 9.77-.87 14.54z"/><path d="M69.56 70.47c3.22-.65 6.55 1.23 7.57 4.3.16.59.27 1.18.43 1.77h8.16c-.43-7.19-4.3-11.54-10.78-13.96v-4.19h-8.16c0 1.07-.05 2.04 0 3 .11.97-.27 1.39-1.18 1.72-6.97 2.58-10.89 10.15-9.01 17.23 1.66 6.44 7.35 10.68 14.49 10.89 3.49.11 6.17 2.63 6.39 5.96.22 3.16-2.15 6.01-5.47 6.55-3.22.54-6.55-1.5-7.4-4.56-.16-.54-.22-1.07-.32-1.61h-8.05v.96c.59 6.07 3.86 10.2 9.44 12.51.96.38 1.28.86 1.23 1.88-.11 1.07 0 2.09 0 3.16h8.27v-4.51c.54-.22.97-.38 1.39-.54 6.81-2.69 10.62-10.2 8.74-17.17-1.72-6.37-7.4-10.66-14.39-10.82-3.49-.11-6.17-2.53-6.5-5.85-.43-3.18 1.88-6.08 5.15-6.72z"/></g></svg>