<svg version="1.1" id="&#x5716;&#x5C64;_1" xmlns="http://www.w3.org/2000/svg" x="0" y="0" viewBox="0 0 141.73 141.73" xml:space="preserve" enable-background="new 0 0 141.73 141.73"><title>index_01</title><g class="nc-icon-wrapper" fill="#d57a66"><path d="M5.4 119.36c0-1.96.63-3.72 1.73-5.33 12.89-18.77 25.76-37.57 38.68-56.32 2.94-4.27 7.84-4.61 11.61-.93 8.21 8 16.41 16.01 24.55 24.09 1.44 1.42 2.16 1.53 3.28-.37 5.38-9.13 10.86-18.2 16.39-27.24 1.04-1.71.95-2.72-.74-3.89-2.79-1.93-5.37-4.17-8.14-6.14-4.43-3.15-4.69-9.32 1.19-12.08 11.01-5.18 21.92-10.61 32.63-16.39 5.45-2.94 9.95 1.07 9.75 6.43-.47 12.4-.91 24.8-1.38 37.2-.08 2.05-.24 4.1-.4 6.15-.35 4.5-4.79 6.65-8.46 4.05-2.7-1.92-5.32-3.97-7.94-6.01-2.53-1.97-2.52-2-4.11.69-7.11 11.96-14.22 23.93-21.34 35.89-2.46 4.13-5.82 5.56-9.45 4.15-1.21-.47-2.14-1.32-3.05-2.21-8.13-7.97-16.26-15.94-24.39-23.9-2.05-2.01-2.06-2.02-3.75.41-10.7 15.29-21.41 30.57-32.1 45.86-1.01 1.44-2.07 2.81-3.65 3.66-5.01 2.69-10.9-1.51-10.91-7.77z"/></g></svg>