<svg version="1.1" id="&#x5716;&#x5C64;_1" xmlns="http://www.w3.org/2000/svg" x="0" y="0" viewBox="0 0 300 300" xml:space="preserve" enable-background="new 0 0 300 300"><title>question_02</title><g class="nc-icon-wrapper" fill="#d57a66"><path d="M287.81 202.73c-6.1-3.35-12.15-6.77-18.24-10.14-.88-.48-1.64-.71-1.68-2.09-.17-5.66-.51-11.31-.93-16.95-.1-1.31.17-1.98 1.29-2.76 5.75-4.05 11.37-8.27 17.09-12.37 1.29-.93 1.45-1.89.84-3.27-2.1-4.72-4.18-9.45-6.19-14.2-.52-1.22-1.28-1.55-2.52-1.31-6.97 1.35-13.96 2.61-20.91 4.04-1.28.26-1.96.15-2.89-.88-3.68-4.11-7.46-8.15-11.38-12.03-1.07-1.06-1.12-1.79-.77-3.11 1.75-6.58 3.35-13.2 5.03-19.81.42-1.65.16-2.83-1.57-3.64-4.54-2.15-9.03-4.39-13.49-6.7-1.37-.71-2.22-.38-3.1.71-4.43 5.46-8.94 10.86-13.31 16.38-.84 1.05-1.51 1.32-2.83 1.14-5.4-.75-10.81-1.42-16.23-1.89-1.53-.13-2.16-.6-2.79-1.96-2.95-6.3-6.09-12.51-9.11-18.78-.65-1.35-1.56-1.7-2.94-1.36-5.01 1.23-10.03 2.46-15.06 3.62-1.36.32-1.86 1.04-1.83 2.41.14 7.1.19 14.21.37 21.31.03 1.24-.29 1.81-1.37 2.49-4.68 2.93-9.29 5.96-13.82 9.12-1.15.81-1.82.95-3.16.33-6.43-3-12.94-5.83-19.46-8.62-.62-.27-1.88-.2-2.21.22-3.76 4.69-7.41 9.48-11.41 14.66 5.32 6.01 10.31 11.73 15.42 17.36.95 1.04 1.17 1.75.7 3.14-1.67 4.95-3.3 9.94-4.53 15.01-.47 1.94-1.16 2.58-3 3.07-6.65 1.78-13.21 3.85-19.82 5.76-1.26.36-1.7 1.04-1.62 2.32.34 5.16.65 10.32.89 15.48.07 1.51.73 2.15 2.17 2.37 6.87 1.09 13.74 2.21 20.59 3.41.84.15 2.03.6 2.31 1.24 2.48 5.79 4.79 11.64 7.31 17.85-.05.06-.52.6-.91 1.19-3.9 5.85-7.78 11.72-11.7 17.55-.66.99-.69 1.73.17 2.63 3.68 3.83 7.34 7.69 10.96 11.57.89.96 1.72 1 2.82.37 4.61-2.64 9.27-5.18 13.85-7.86 2.09-1.23 4.03-2.71 5.47-3.69 5.84 2.78 11.24 5.42 16.72 7.9 1.29.58 1.74 1.17 1.86 2.62.62 7 1.44 13.99 2.18 20.98.13 1.18.53 2 1.91 2.14 5.21.55 10.41 1.14 15.61 1.79 1.5.19 2.24-.4 2.7-1.75 2.29-6.64 4.59-13.28 6.96-19.89.26-.72.94-1.67 1.58-1.82 6.13-1.42 12.29-2.68 18.27-3.96 5.43 5.03 11.07 10.23 16.67 15.48 1.02.96 1.87.98 3 .23 4.11-2.75 8.24-5.49 12.42-8.14 1.58-1 2.03-2.08 1.31-3.88-2.53-6.4-4.89-12.87-7.44-19.26-.49-1.23-.41-1.93.43-3 3.44-4.41 6.75-8.92 10-13.47.68-.95 1.16-1.22 2.37-1.12 7.15.59 14.32.99 21.48 1.51 1.4.1 2.09-.43 2.47-1.74 1.43-4.89 2.88-9.77 4.39-14.63.52-1.6.03-2.54-1.39-3.32zm-92.04 28.39c-25.13-.2-45.14-20.29-44.96-45.14.17-25.04 20.28-45.04 45.19-44.96 24.75.08 45.07 20.47 44.93 45.08-.15 25.02-20.41 45.22-45.16 45.02z"/><path d="M103.97 136.73c-1.14-3.55-2.26-7.11-3.24-10.7-.19-.71.03-1.76.46-2.37 2.55-3.63 5.29-7.13 7.79-10.79.68-.99 1.24-1.26 2.38-1.23 3.66.08 7.32-.04 10.98 0 1.29.01 2-.48 2.23-1.73.95-5.14 1.96-10.27 2.79-15.43.1-.63-.59-1.8-1.2-2.07-3.34-1.49-6.72-2.89-10.18-4.07-1.4-.47-1.78-1.17-2.09-2.49-1-4.17-2.15-8.31-3.39-12.41-.31-1.02-.26-1.6.44-2.44 2.39-2.86 4.63-5.85 6.97-8.76.73-.91.91-1.73.1-2.66-3.43-3.95-6.86-7.9-10.26-11.87-.87-1.02-1.74-.98-2.82-.35-3.6 2.07-7.24 4.09-10.43 5.88-4.88-1.94-9.61-3.76-14.28-5.73-.59-.25-1.05-1.22-1.24-1.95-.86-3.41-1.66-6.83-2.37-10.27-.32-1.57-1.23-2.19-2.69-2.13-5.15.22-10.31.44-15.46.81-.57.04-1.44.94-1.56 1.56-.69 3.66-1.14 7.37-1.81 11.04-.14.75-.67 1.71-1.31 2.04-4.37 2.28-8.81 4.43-13.53 6.76-3.43-1.57-7.25-3.38-11.14-5.02-.62-.26-1.94-.01-2.32.49-3.24 4.19-6.34 8.5-9.49 12.76-.74 1.01-.46 1.81.32 2.65 2.51 2.67 4.93 5.42 7.49 8.03.8.81 1 1.41.75 2.57-.96 4.33-1.66 8.72-2.58 13.06-.16.74-.76 1.63-1.41 1.97-3.23 1.71-6.54 3.27-9.83 4.85-1.09.52-1.73 1.18-1.36 2.5 1.41 5.1 2.73 10.23 4.24 15.31.17.58 1.36 1.25 2.05 1.22 3.66-.13 7.31-.42 10.95-.76 1.2-.11 1.86.17 2.66 1.17 2.74 3.4 5.72 6.61 8.51 9.97.48.58.8 1.61.66 2.33-.69 3.66-1.5 7.3-2.38 10.93-.32 1.33.16 2.05 1.28 2.54 4.66 2.03 9.32 4.06 13.97 6.09 1.23.54 2.13.29 2.91-.88 2.02-3.05 4.06-6.09 6.22-9.05.43-.59 1.37-1.1 2.11-1.15 4.5-.29 9.01-.49 13.52-.59.73-.02 1.7.47 2.18 1.04 2.42 2.84 4.66 5.83 7.11 8.65.45.51 1.77.86 2.33.58 4.74-2.36 9.39-4.9 14.07-7.36 1.12-.63 1.27-1.41.9-2.54zm-35.18-17.88c-15.07-.04-27.29-12.33-27.2-27.37.09-15.11 12.26-27.16 27.41-27.12 15.02.04 27.15 12.32 27.1 27.45-.04 14.88-12.37 27.08-27.31 27.04z"/></g></svg>