<svg version="1.1" id="&#x5716;&#x5C64;_1" xmlns="http://www.w3.org/2000/svg" x="0" y="0" viewBox="0 0 24 24" xml:space="preserve" enable-background="new 0 0 24 24"><title>title_02</title><g class="nc-icon-wrapper" fill="#000000"><path d="M22.02 14.43c-1.18-2.96-3.08-5.42-5.39-7.59a.649.649 0 0 0-.4-.14c-2.83-.01-5.65 0-8.48-.01-.29 0-.5.09-.7.28-1.82 1.74-3.37 3.68-4.53 5.92-.89 1.7-1.47 3.47-1.52 5.4-.03 1.22.19 2.39.88 3.43.96 1.45 2.25 2.3 4.05 2.28 1.99-.02 3.98 0 5.97 0h6.21c.62 0 1.2-.12 1.75-.4 1.82-.93 2.75-2.46 2.94-4.46.16-1.63-.18-3.2-.78-4.71zm-7.04 3.1c-.24.94-.88 1.44-1.76 1.72l-.33.09c-.02 0-.03.02-.07.04v1.41h-1.81v-1.43c-1.22-.29-2.11-.89-2.23-2.28h1.54c.45.96 1.61 1.33 2.57.83.33-.17.54-.43.54-.82-.01-.38-.25-.61-.58-.72-.53-.17-1.08-.3-1.62-.43-.52-.12-1.04-.25-1.47-.58-.76-.58-1.02-1.7-.61-2.6.3-.67.83-1.07 1.5-1.3.12-.04.23-.07.36-.11V9.89h1.82c0 .38.02.73-.01 1.09-.02.29.07.41.35.49.81.25 1.4.75 1.66 1.59.05.16.06.33.1.52h-1.52c-.34-.95-1.57-1.33-2.42-.75-.56.39-.53 1.13.09 1.39.5.21 1.05.3 1.58.44.37.1.75.18 1.09.33 1.09.46 1.52 1.39 1.23 2.54z"/><path d="M7.27 4.62c.06.19.15.26.36.25 1.43-.01 2.86-.01 4.29-.01h4.27c.21 0 .31-.05.38-.26.22-.68.47-1.34.7-2.01.29-.82-.11-1.38-.98-1.38-.7 0-1.4.01-2.11-.01-.13 0-.29-.07-.39-.16-1.09-.99-2.67-.98-3.75.01-.1.09-.26.15-.39.15-.72.01-1.44 0-2.16.01-.8.02-1.19.59-.94 1.35.24.69.49 1.37.72 2.06z"/></g></svg>