<svg version="1.1" id="&#x5716;&#x5C64;_1" xmlns="http://www.w3.org/2000/svg" x="0" y="0" viewBox="0 0 24 24" xml:space="preserve" enable-background="new 0 0 24 24"><title>title_01</title><g class="nc-icon-wrapper" fill="#000000"><path d="M12.01.84h1.62c.43 0 .63.2.63.63v2c0 .34.14.54.46.67.28.11.55.22.83.34.29.12.52.09.75-.13.48-.47.95-.95 1.43-1.43.32-.32.66-.32.98 0l2.28 2.28c.32.32.32.66 0 .98-.47.47-.94.94-1.41 1.42-.25.26-.29.48-.14.81.11.26.22.53.32.79.13.34.33.48.69.48h1.98c.48 0 .66.19.66.67v3.12c0 .55-.23.78-.77.78h-1.9c-.38 0-.54.12-.67.47-.1.25-.21.49-.31.73-.13.3-.1.53.14.76l1.44 1.44c.3.3.3.64.01.94l-2.33 2.33c-.29.29-.64.28-.92 0-.47-.47-.94-.94-1.42-1.41-.28-.28-.48-.31-.84-.15l-.72.3c-.39.15-.51.32-.51.74v1.94c0 .48-.23.71-.71.71h-3.12c-.49 0-.73-.25-.73-.74v-1.96c0-.38-.12-.55-.48-.69-.24-.09-.48-.19-.72-.3-.36-.16-.56-.13-.84.15-.46.46-.93.92-1.39 1.39-.33.32-.66.33-.98.01-.76-.76-1.52-1.52-2.28-2.27-.33-.33-.33-.66.01-.99.46-.46.93-.92 1.39-1.39.27-.27.3-.48.14-.83-.11-.24-.21-.49-.31-.74-.12-.3-.3-.43-.62-.43H1.61c-.44 0-.71-.26-.71-.71v-3.24c0-.4.21-.62.61-.62.69-.01 1.37 0 2.06 0 .37 0 .57-.14.71-.49.07-.3.17-.57.29-.85.13-.3.09-.53-.14-.76l-1.4-1.4c-.35-.35-.35-.67 0-1.02l2.26-2.26c.32-.32.65-.32.96-.01l1.4 1.4c.28.27.49.3.85.15.25-.11.5-.22.75-.32.31-.12.45-.3.45-.63v-2c0-.43.22-.65.66-.65.55-.01 1.1-.01 1.65-.01zM12 6.18c-3.13-.01-5.71 2.55-5.72 5.68-.01 3.17 2.53 5.74 5.69 5.75 3.18.01 5.73-2.54 5.74-5.71 0-3.15-2.56-5.71-5.71-5.72z"/></g></svg>