<svg xmlns="http://www.w3.org/2000/svg" viewBox="0 0 136.74 25.26"><defs><style>.a7642c34-da3d-4612-ac46-b941847eb871{fill:#f08437;}.ff94a14b-65f3-426f-87bf-dfc7680d2eb7{fill:#4d4d4d;}</style></defs><g id="eb9b1429-13ee-4fe2-83a5-3270dbf5b503" data-name="圖層 2"><g id="f4e24ad9-c54e-4e63-815a-b20b6c36bdac" data-name="圖層 1"><path class="a7642c34-da3d-4612-ac46-b941847eb871" d="M95.63,0H84.49c-3.37,0-5.7.6-7,1.8a7.09,7.09,0,0,0-2,5.46v18h7.65V9.77a4.28,4.28,0,0,1,.94-3c.62-.69,1.86-1,3.72-1H92.1q3,0,3.87,1a4.42,4.42,0,0,1,.87,3V25.26h7.62v-18a7.31,7.31,0,0,0-1.87-5.39Q100.72,0,95.63,0Z"/><polygon class="ff94a14b-65f3-426f-87bf-dfc7680d2eb7" points="21.27 0.03 21.27 9.68 21.27 12.09 7.61 12.09 7.61 0.03 0.04 0.03 0 9.69 0.04 18.89 7.61 18.89 21.27 18.89 21.27 20.64 21.27 25.26 28.93 25.26 28.93 17.99 28.93 7.29 28.93 0.03 21.27 0.03"/><path class="a7642c34-da3d-4612-ac46-b941847eb871" d="M116.44,6.81c.63-.69,1.87-1,3.72-1h16.58V0H116.81c-3.36,0-5.7.6-7,1.8s-2,3-2,5.46V18q0,3.66,2,5.46c1.3,1.21,3.64,1.81,7,1.81h19.93v-14H123.48v5.68h5.69v2.59h-9q-2.77,0-3.72-1.05a4.29,4.29,0,0,1-.93-3V9.77A4.32,4.32,0,0,1,116.44,6.81Z"/><path class="a7642c34-da3d-4612-ac46-b941847eb871" d="M52.25,0H32.32V25.26H52.25c3.36,0,5.7-.6,7-1.81s2-3,2-5.46V7.29c0-2.44-.65-4.25-2-5.46S55.61,0,52.25,0Zm1.31,15.48a4.29,4.29,0,0,1-.94,3q-.93,1.05-3.72,1.05H41a1.1,1.1,0,0,1-1.1-1.1V6.87A1.1,1.1,0,0,1,41,5.77H48.9c1.86,0,3.1.35,3.72,1a4.33,4.33,0,0,1,.94,3Z"/><path class="a7642c34-da3d-4612-ac46-b941847eb871" d="M45.89,10.28a1.64,1.64,0,1,1-1.63-1.63A1.63,1.63,0,0,1,45.89,10.28Z"/><polygon class="a7642c34-da3d-4612-ac46-b941847eb871" points="64.6 8.54 64.6 25.23 72.17 25.23 72.22 15.49 72.22 8.54 64.6 8.54"/><rect class="a7642c34-da3d-4612-ac46-b941847eb871" x="64.6" width="7.61" height="6.43"/></g></g></svg>