<svg xmlns="http://www.w3.org/2000/svg" viewBox="0 0 126.91 55.78"><defs><style>.af9d6429-6e0b-4067-96e2-88226a2ca817{fill:#f08437;}.a13d83f2-e1d9-4c5c-8e4d-564bf30e226e{fill:#4d4d4d;}.b07161ee-2c24-4698-b5ed-d421ed1fee26{fill:#ed6d1f;}.e563ba6e-73c0-45f4-b5ea-0b38188d87ae{fill:#727171;}</style></defs><g id="b72b6839-34d1-4cd5-9096-7f59603c7e72" data-name="圖層 2"><g id="b8b45f95-0056-4e03-9e84-e7c43d89e038" data-name="圖層 1"><path class="af9d6429-6e0b-4067-96e2-88226a2ca817" d="M96,33.63H87.56c-2.53,0-4.29.46-5.28,1.36a5.35,5.35,0,0,0-1.47,4.12V52.64h5.77V41a3.24,3.24,0,0,1,.7-2.23,3.78,3.78,0,0,1,2.8-.78h3.21c1.51,0,2.48.24,2.92.72A3.31,3.31,0,0,1,96.87,41V52.64h5.73V39.11A5.52,5.52,0,0,0,101.19,35Q99.78,33.63,96,33.63Z"/><polygon class="a13d83f2-e1d9-4c5c-8e4d-564bf30e226e" points="64.3 9.55 64.3 16.83 64.3 18.64 54.01 18.64 54.01 9.55 48.31 9.55 48.27 16.84 48.31 23.76 54.01 23.76 64.3 23.76 64.3 25.08 64.3 28.56 70.06 28.56 70.06 23.09 70.06 15.03 70.06 9.55 64.3 9.55"/><path class="af9d6429-6e0b-4067-96e2-88226a2ca817" d="M111.63,38.74a3.76,3.76,0,0,1,2.8-.78h12.48V33.63h-15c-2.53,0-4.29.46-5.27,1.36a5.35,5.35,0,0,0-1.47,4.12v8.06a5.34,5.34,0,0,0,1.47,4.11c1,.9,2.74,1.36,5.27,1.36h15V42.09h-10v4.28h4.28v1.94h-6.78a3.76,3.76,0,0,1-2.8-.78,3.24,3.24,0,0,1-.71-2.23V41A3.24,3.24,0,0,1,111.63,38.74Z"/><path class="b07161ee-2c24-4698-b5ed-d421ed1fee26" d="M29.89,44.17a12,12,0,0,1-5.45,2.49,20,20,0,0,1-5.63.21,37.21,37.21,0,0,1-4.33-.71c-1.5-.32-3-.7-4.49-1l-7.42-1.7-.34-.07L.74,43l-.63,2.7A3.92,3.92,0,0,0,.64,48.8a4.13,4.13,0,0,0,2.57,1.86l21.83,5a4,4,0,0,0,3.09-.53A4.08,4.08,0,0,0,30,52.57l2.77-12.06A11.46,11.46,0,0,1,29.89,44.17Z"/><path class="af9d6429-6e0b-4067-96e2-88226a2ca817" d="M37.29,16.94A10,10,0,0,0,36,13.29L28.91,1.93A4,4,0,0,0,26.33.12a4,4,0,0,0-3.11.5L11.85,7.73a10.05,10.05,0,0,0-2.74,2.72,9.85,9.85,0,0,0-1.66,3.49L1.61,39.25l1.47.33c2.43.54,4.85,1.1,7.27,1.66a55,55,0,0,0,10.08,1.83,10.83,10.83,0,0,0,6.29-1.36,8.7,8.7,0,0,0,3.4-4.8v0a8.86,8.86,0,0,0-.47-7.33c-1.41-2.46-4.28-4.34-7.86-5.14l.84-3.77c4.64,1,8.42,3.59,10.38,7a11.73,11.73,0,0,1,1.5,5.19l2.75-12A9.91,9.91,0,0,0,37.29,16.94ZM21.51,35.21l-.82,3.66-3.1-.7-.83,3.35L13.1,40.7l.84-3.35-1.09-.24L4.26,35.18l.8-3.58L16.42,21.16l-1.28,5.73L9,32.41l4.68,1.05,1.09.24,3.15-14.08,3.65.82L18.41,34.52Zm5-21.87a3.12,3.12,0,0,1-3.72,2.33A3.1,3.1,0,0,1,20.42,12,3,3,0,0,1,21.8,10a3,3,0,0,1,2.34-.39,3.1,3.1,0,0,1,2.33,3.72Z"/><path class="af9d6429-6e0b-4067-96e2-88226a2ca817" d="M63.28,33.63h-15v19h15c2.53,0,4.29-.46,5.28-1.36A5.34,5.34,0,0,0,70,47.17V39.11A5.35,5.35,0,0,0,68.56,35C67.57,34.09,65.81,33.63,63.28,33.63Zm1,11.67a3.24,3.24,0,0,1-.7,2.23,3.76,3.76,0,0,1-2.8.78h-6a.82.82,0,0,1-.82-.82v-8.7A.83.83,0,0,1,54.8,38h6a3.76,3.76,0,0,1,2.8.78,3.24,3.24,0,0,1,.7,2.23Z"/><circle class="af9d6429-6e0b-4067-96e2-88226a2ca817" cx="57.26" cy="41.36" r="1.23"/><polygon class="af9d6429-6e0b-4067-96e2-88226a2ca817" points="72.59 40.05 72.59 52.62 78.29 52.62 78.32 45.28 78.32 40.05 72.59 40.05"/><rect class="af9d6429-6e0b-4067-96e2-88226a2ca817" x="72.59" y="33.61" width="5.73" height="4.85"/><path class="e563ba6e-73c0-45f4-b5ea-0b38188d87ae" d="M78.46,12.81h-.78V11.2h2.7v-.29H78v-.56h5.61v.56h-2.4v.29H84v1.61h-.83l-.15.51a11.11,11.11,0,0,0-1.65-.4l.16-.48a10,10,0,0,1,1.62.34v-1h-.39l.26.36a7.89,7.89,0,0,1-1.28.35l-.26-.4c.28-.07.68-.2,1-.31H81.21v1.49h-.83V11.76H79a7.7,7.7,0,0,1,1.11.29l-.23.46a7.34,7.34,0,0,0-1.23-.35l.2-.4h-.38v1l1.65-.23,0,.49-1.52.34ZM83,16c.37,0,.43-.11.48-.71a2.62,2.62,0,0,0,.71.27c-.1.85-.33,1.08-1.11,1.08H81.59c-1,0-1.25-.2-1.25-.94v0H79.15V16h-.81V13.43h5v2.29H81.16v0c0,.26.08.3.51.3Zm-3.87-2v.32h1.19V14Zm1.19,1.14v-.32H79.15v.32ZM82.45,14H81.16v.32h1.29Zm0,1.14v-.32H81.16v.32Z"/><path class="e563ba6e-73c0-45f4-b5ea-0b38188d87ae" d="M97.67,14H94.9v1.73c0,.48-.11.71-.45.85a4.33,4.33,0,0,1-1.49.15,3.18,3.18,0,0,0-.37-.88c.5,0,1.06,0,1.21,0s.21,0,.21-.16V14H91.17v-.85H94v-1a8.21,8.21,0,0,0,1.38-.84H91.88V10.5h4.46l.2,0,.65.5a11,11,0,0,1-2.29,1.69v.54h2.77Z"/><path class="e563ba6e-73c0-45f4-b5ea-0b38188d87ae" d="M111.21,11.5h-2.1l.67.14c-.14.25-.3.5-.44.73h1.54V16c0,.38-.09.54-.36.64a3.78,3.78,0,0,1-1.22.11,2,2,0,0,0-.22-.62h.85c.12,0,.16,0,.16-.14V13.05H109v.19c0,.14,0,.2.13.2h.35a1.78,1.78,0,0,0,.41,0c0,.19,0,.37.05.56a1.47,1.47,0,0,1-.45,0h-.57c-.58,0-.68-.27-.68-.78v-.18h-.51a1.26,1.26,0,0,1-.93,1.11h2.59V15.9h-2.07v.3h-.7v-2l-.28.07a1.71,1.71,0,0,0-.33-.54v3h-.82V12.37h1.48a7.67,7.67,0,0,0-.33-.72l.48-.15h-2v-.72h2.82a4.1,4.1,0,0,0-.16-.53l.82-.21a7.16,7.16,0,0,1,.25.74h2.64ZM106,13.7c.66-.11.89-.3,1-.65h-1Zm2.55-1.33a6.29,6.29,0,0,0,.37-.87h-1.81c.13.24.28.52.36.7l-.46.17Zm-1.24,2.37v.58h1.39v-.58Z"/><path class="e563ba6e-73c0-45f4-b5ea-0b38188d87ae" d="M124.43,11.52a3.53,3.53,0,0,1-.71,1.05A5.67,5.67,0,0,0,125,13a3.08,3.08,0,0,0-.54.72A5,5,0,0,1,123,13.1a6,6,0,0,1-1.46.6l-.2-.3a9.64,9.64,0,0,1-.35,1.19l-.58-.26a8.62,8.62,0,0,0,.23-1h-.38v2.52c0,.39,0,.62-.31.74a2,2,0,0,1-1,.15,3,3,0,0,0-.25-.8h.65c.08,0,.11,0,.11-.1V14.31a4.48,4.48,0,0,1-.89,1.33,5.22,5.22,0,0,0-.39-.83,4.48,4.48,0,0,0,1-1.47h-.9V12.6H120a9.93,9.93,0,0,0-1.38-.7l.54-.54c.17.06.37.14.56.23a3.9,3.9,0,0,0,.45-.46h-1.72v-.71h2.32l.13,0,.54.34a5.25,5.25,0,0,1-1,1.19,3.54,3.54,0,0,1,.53.31l-.35.37h.34l.11,0,.52.17,0,.17a4.64,4.64,0,0,0,.87-.33,4.19,4.19,0,0,1-.5-.6,3.13,3.13,0,0,1-.33.31,6,6,0,0,0-.69-.48,4.24,4.24,0,0,0,1.37-1.7l.79.21a4.74,4.74,0,0,1-.26.5h2.11v.71Zm.34,2.56a3.19,3.19,0,0,1,0,.33c-.11,1.24-.24,1.79-.45,2a.83.83,0,0,1-.52.25,6.57,6.57,0,0,1-.8,0,1.89,1.89,0,0,0-.23-.79,5.82,5.82,0,0,0,.61,0,.31.31,0,0,0,.23-.08c.1-.09.2-.4.27-1.07H123a2.83,2.83,0,0,1-1.88,2,2.36,2.36,0,0,0-.49-.66,2.26,2.26,0,0,0,1.49-1.33h-.86v-.71h1a4.19,4.19,0,0,0,.07-.63h.86c0,.21,0,.43-.08.63Zm-2.35-2.56a2.88,2.88,0,0,0,.6.61,2.16,2.16,0,0,0,.47-.61Z"/><path class="e563ba6e-73c0-45f4-b5ea-0b38188d87ae" d="M78.51,23.27v3.88h-.83V20.74h2.75v2.53Zm0-1.92v.36h1.12v-.36Zm1.12,1.31v-.39H78.51v.39Zm2.1,2.88V27H81V25.54H80.3a2.34,2.34,0,0,1-.92,1.61,3.15,3.15,0,0,0-.54-.49,1.7,1.7,0,0,0,.73-1.12h-.73v-.69h.76v-.54h-.66v-.67H82.4v.67h-.67v.54h.79v.69ZM81,24.85v-.54h-.67v.54Zm2.72,1.31c0,.44-.08.67-.33.81a2.62,2.62,0,0,1-1.18.16,2.91,2.91,0,0,0-.26-.84h.78c.12,0,.16-.05.16-.15V23.29h-2V20.74h2.8Zm-2-4.81v.36h1.16v-.36Zm1.16,1.32v-.4H81.72v.4Z"/><path class="e563ba6e-73c0-45f4-b5ea-0b38188d87ae" d="M97.53,21.27v.81H92.39v1a8.84,8.84,0,0,1-.77,4.07,4.21,4.21,0,0,0-.75-.49,7.58,7.58,0,0,0,.65-3.59v-1.8H94.2a4.45,4.45,0,0,0-.25-.62l.85-.18a3.57,3.57,0,0,1,.36.8ZM95.16,23h2.19v.76H95.16v.66H97v2.69h-.88v-.28H93.63v.28h-.84V24.38h1.49V22.29h.88Zm1,2.2H93.63V26h2.51Z"/><path class="e563ba6e-73c0-45f4-b5ea-0b38188d87ae" d="M106.91,25.39a7.56,7.56,0,0,1-1.58,1.48,8.35,8.35,0,0,0-.74-.55A5.12,5.12,0,0,0,106,25.09Zm1.43-.57v1.42c0,.42-.09.63-.4.77a3.32,3.32,0,0,1-1.24.14,3.08,3.08,0,0,0-.31-.83h.92c.13,0,.16,0,.16-.11V24.89a10.17,10.17,0,0,0-2.2.27,4.45,4.45,0,0,0-.25-.76,3.2,3.2,0,0,0,1-.37,10,10,0,0,0,1.13-.59,6.07,6.07,0,0,0-1.55.18c0-.16-.17-.56-.25-.78a2,2,0,0,0,.6-.24,7.36,7.36,0,0,0,1.14-.72c-.68.13-1.38.24-2,.33a2.83,2.83,0,0,0-.23-.73,19.61,19.61,0,0,0,4.54-1.06l.63.68a14.82,14.82,0,0,1-2,.6l.38.25a11,11,0,0,1-1.21.8l1.24-.06c.26-.19.51-.38.75-.58l.63.57a14.34,14.34,0,0,1-2.42,1.47l2-.13q-.22-.27-.45-.51l.7-.36a14.27,14.27,0,0,1,1.4,1.61l-.72.44c-.1-.14-.22-.32-.37-.5Zm1.07.17A10.13,10.13,0,0,1,111,26.3l-.76.5a9.33,9.33,0,0,0-1.54-1.36Z"/><path class="e563ba6e-73c0-45f4-b5ea-0b38188d87ae" d="M119,25.28a8.38,8.38,0,0,1-.31,1.75,2.63,2.63,0,0,0-.63-.23,6.35,6.35,0,0,0,.28-1.63Zm1.28-.42c0-.1,0-.2-.07-.33a7.79,7.79,0,0,0-1.83.41,5.74,5.74,0,0,0-.26-.76c.19-.05.34-.2.55-.47a4.75,4.75,0,0,0,.44-.56,2.51,2.51,0,0,0-.79.15c0-.17-.17-.54-.25-.76.13,0,.25-.17.4-.38a8.15,8.15,0,0,0,.83-1.76l.76.33a11.32,11.32,0,0,1-1,1.78l.47,0c.19-.34.39-.72.55-1.07l.7.43a12,12,0,0,1-1.49,2.2l.73-.11a4.46,4.46,0,0,0-.22-.53l.58-.23a6.52,6.52,0,0,1,.5,1.44Zm-.53.25a14.13,14.13,0,0,1,.19,1.47l-.64.16a11.78,11.78,0,0,0-.15-1.48Zm.76-.21c.13.37.28.85.35,1.16l-.6.22a8,8,0,0,0-.33-1.19ZM124,26.27c.13,0,.15-.13.17-1a2.12,2.12,0,0,0,.72.31c-.08,1.11-.27,1.42-.81,1.42h-.51c-.65,0-.8-.26-.8-1V23.89l-.4.05c-.06,1.53-.26,2.61-1.42,3.24a2.37,2.37,0,0,0-.52-.66c1-.49,1.09-1.28,1.13-2.47a1.6,1.6,0,0,0-.48.11c0-.16-.19-.59-.29-.81.17-.05.32-.23.49-.52a5.44,5.44,0,0,0,.43-.74h-.85v-.8H122c.11-.28.23-.57.32-.86l.92.24c-.08.21-.17.41-.26.62h1.68v.8h-2.08c-.22.4-.45.78-.68,1.13l1.51-.15c-.12-.19-.23-.38-.33-.56l.69-.3a9.76,9.76,0,0,1,1,1.77l-.74.35a5.32,5.32,0,0,0-.22-.56l-.28,0V26c0,.23,0,.25.13.25Z"/></g></g></svg>