<svg xmlns="http://www.w3.org/2000/svg" viewBox="0 0 180.7 48.14"><defs><style>.ede49854-b9b0-44e1-8a1b-535d187dd2f5{fill:#f08437;}.bf54ad2e-13de-4aa0-b022-0060580d0e51{fill:#4d4d4d;}.e66b93fd-b2f0-4421-ae1c-3f9836ad19b4{fill:#ed6d1f;}.e95645a2-dace-45f2-b61f-e9ec45a2979e{fill:#727171;}</style></defs><g id="b12f6cae-1c4f-4965-ab41-cae17e6ddd41" data-name="圖層 2"><g id="a4aa11d1-0a67-4d63-ba80-36cc6829602d" data-name="圖層 1"><path class="ede49854-b9b0-44e1-8a1b-535d187dd2f5" d="M139.59,6.66H128.45c-3.36,0-5.7.6-7,1.81s-2,3-2,5.46v18h7.66V16.41a4.29,4.29,0,0,1,.93-3q.94-1,3.72-1h4.27q3,0,3.87,1a4.45,4.45,0,0,1,.87,3.05V31.89h7.61v-18a7.31,7.31,0,0,0-1.87-5.4Q144.68,6.66,139.59,6.66Z"/><polygon class="bf54ad2e-13de-4aa0-b022-0060580d0e51" points="65.24 6.66 65.24 16.32 65.24 18.72 51.58 18.72 51.58 6.66 44.01 6.66 43.96 16.33 44.01 25.52 51.58 25.52 65.24 25.52 65.24 27.28 65.24 31.89 72.9 31.89 72.9 24.63 72.9 13.93 72.9 6.66 65.24 6.66"/><path class="ede49854-b9b0-44e1-8a1b-535d187dd2f5" d="M160.41,13.45q.93-1,3.72-1H180.7V6.66H160.78c-3.37,0-5.7.6-7,1.81a7.08,7.08,0,0,0-2,5.46v10.7a7.1,7.1,0,0,0,2,5.46c1.31,1.2,3.64,1.8,7,1.8H180.7v-14H167.45v5.69h5.68v2.58h-9c-1.86,0-3.1-.35-3.72-1a4.26,4.26,0,0,1-.94-3V16.41A4.24,4.24,0,0,1,160.41,13.45Z"/><path class="e66b93fd-b2f0-4421-ae1c-3f9836ad19b4" d="M25.8,38.13a10.41,10.41,0,0,1-4.71,2.15,17.21,17.21,0,0,1-4.86.17,31.48,31.48,0,0,1-3.73-.6c-1.3-.28-2.59-.61-3.88-.91l-6.4-1.46-.29-.06-1.3-.29L.1,39.46a3.41,3.41,0,0,0,.45,2.67,3.59,3.59,0,0,0,2.22,1.6l18.84,4.32a3.4,3.4,0,0,0,2.67-.46,3.56,3.56,0,0,0,1.6-2.21L28.27,35A10.11,10.11,0,0,1,25.8,38.13Z"/><path class="ede49854-b9b0-44e1-8a1b-535d187dd2f5" d="M32.19,14.63a8.64,8.64,0,0,0-1.1-3.16L25,1.66A3.61,3.61,0,0,0,20,.53L10.23,6.67A8.76,8.76,0,0,0,7.86,9a8.45,8.45,0,0,0-1.43,3l-5,21.85,1.27.28,6.27,1.43a47,47,0,0,0,8.71,1.59A9.3,9.3,0,0,0,23.06,36,7.44,7.44,0,0,0,26,31.86v0a7.6,7.6,0,0,0-.4-6.33,10.19,10.19,0,0,0-6.78-4.44l.72-3.26a13.55,13.55,0,0,1,9,6,10.12,10.12,0,0,1,1.3,4.48L32.17,18A8.52,8.52,0,0,0,32.19,14.63ZM18.57,30.39l-.71,3.16L15.19,33l-.73,2.89-3.15-.71L12,32.24,11.09,32,3.67,30.37l.7-3.1,9.8-9-1.1,4.95L7.76,28l4,.91.94.21,2.72-12.15,3.15.7L15.89,29.79Zm4.28-18.88a2.59,2.59,0,0,1-1.19,1.67A2.68,2.68,0,0,1,18,12.33a2.68,2.68,0,0,1,.85-3.69,2.68,2.68,0,0,1,4,2.87Z"/><path class="e95645a2-dace-45f2-b61f-e9ec45a2979e" d="M45.28,42.19h-1V40.05h3.59v-.38H44.67v-.74h7.45v.74H48.94v.38h3.67v2.14h-1.1l-.2.67a14.45,14.45,0,0,0-2.19-.52l.22-.64a13.64,13.64,0,0,1,2.14.45V40.79H51l.34.49a9.61,9.61,0,0,1-1.69.45l-.35-.53a12.85,12.85,0,0,0,1.3-.41H48.94v2H47.83v-2H46a11.57,11.57,0,0,1,1.48.39l-.3.61a13.26,13.26,0,0,0-1.64-.47l.27-.53h-.51v1.3c.58-.06,1.37-.18,2.19-.3l0,.64-2,.46Zm6.06,4.29c.49,0,.57-.15.64-.95a2.87,2.87,0,0,0,.94.36c-.13,1.14-.45,1.44-1.48,1.44h-2c-1.29,0-1.66-.27-1.66-1.25v0H46.2v.41H45.12V43H51.7v3H48.86v0c0,.34.12.4.69.4ZM46.2,43.77v.42h1.58v-.42Zm1.58,1.52v-.43H46.2v.43Zm2.8-1.52H48.86v.42h1.72Zm0,1.52v-.43H48.86v.43Z"/><path class="e95645a2-dace-45f2-b61f-e9ec45a2979e" d="M70.79,43.82H67.11v2.29c0,.64-.15,1-.59,1.14a5.79,5.79,0,0,1-2,.19A4.3,4.3,0,0,0,64,46.28c.67,0,1.41,0,1.61,0s.28,0,.28-.22V43.82H62.16V42.69h3.77V41.37a12,12,0,0,0,1.83-1.12H63.1V39.13H69l.26-.06.86.66a14.59,14.59,0,0,1-3,2.24v.72h3.68Z"/><path class="e95645a2-dace-45f2-b61f-e9ec45a2979e" d="M88.76,40.45H86l.89.18c-.19.34-.4.67-.59,1h2v4.81c0,.5-.13.72-.48.85a4.75,4.75,0,0,1-1.61.15,3.21,3.21,0,0,0-.31-.83c.46,0,1,0,1.14,0s.21-.05.21-.19V42.51H85.82v.25c0,.18,0,.26.17.26h.46A3.33,3.33,0,0,0,87,43a6.49,6.49,0,0,0,.06.75,2.06,2.06,0,0,1-.6.07h-.76c-.77,0-.9-.37-.9-1v-.24h-.68A1.65,1.65,0,0,1,82.9,44h3.44v2.32H83.59v.39h-.94V44.06l-.36.09a2.18,2.18,0,0,0-.45-.71v4H80.76V41.6h2c-.11-.29-.29-.66-.43-1l.63-.2H80.31v-1h3.75a6.78,6.78,0,0,0-.22-.72l1.09-.27c.12.3.25.67.34,1h3.49Zm-6.92,2.93c.89-.16,1.19-.41,1.31-.87H81.84Zm3.4-1.78a7.41,7.41,0,0,0,.48-1.15H83.33a10.19,10.19,0,0,1,.47.93l-.61.22Zm-1.65,3.15v.76h1.85v-.76Z"/><path class="e95645a2-dace-45f2-b61f-e9ec45a2979e" d="M106.33,40.48a4.73,4.73,0,0,1-1,1.38,7.81,7.81,0,0,0,1.75.57,4.19,4.19,0,0,0-.71,1,6.91,6.91,0,0,1-1.94-.82,7.74,7.74,0,0,1-1.94.8,3.74,3.74,0,0,0-.26-.4,11.69,11.69,0,0,1-.47,1.58L101,44.2a11.81,11.81,0,0,0,.3-1.31h-.5v3.35c0,.51-.08.81-.41,1a2.8,2.8,0,0,1-1.34.2,3.92,3.92,0,0,0-.32-1.08h.85c.12,0,.16,0,.16-.14v-2a6,6,0,0,1-1.19,1.76,6.79,6.79,0,0,0-.52-1.09,5.89,5.89,0,0,0,1.35-2H98.24v-1h2.17A14.23,14.23,0,0,0,98.58,41l.71-.72c.23.08.49.19.75.3a5.66,5.66,0,0,0,.6-.6H98.36V39h3.07l.17,0,.72.46A7,7,0,0,1,100.93,41a5.15,5.15,0,0,1,.7.42l-.47.48h.46l.15,0,.69.22,0,.22a5.48,5.48,0,0,0,1.16-.44,5.07,5.07,0,0,1-.68-.78,4,4,0,0,1-.43.4,7.07,7.07,0,0,0-.92-.63,5.65,5.65,0,0,0,1.82-2.27l1,.29a6.11,6.11,0,0,1-.35.67h2.81v.94Zm.44,3.4s0,.29,0,.43c-.15,1.64-.32,2.37-.6,2.68a1,1,0,0,1-.69.33,6.88,6.88,0,0,1-1.06,0,2.58,2.58,0,0,0-.31-1.05,7.69,7.69,0,0,0,.82.05.39.39,0,0,0,.3-.1c.14-.13.26-.53.36-1.42h-1.1a3.79,3.79,0,0,1-2.5,2.64,3.35,3.35,0,0,0-.65-.87,3,3,0,0,0,2-1.77h-1.15v-.94h1.39a7.6,7.6,0,0,0,.1-.85h1.13c0,.29-.06.57-.1.85Zm-3.12-3.4a4,4,0,0,0,.79.81,2.9,2.9,0,0,0,.63-.81Z"/><path class="e95645a2-dace-45f2-b61f-e9ec45a2979e" d="M117.75,42.31v5.15h-1.1V39h3.66v3.36Zm0-2.56v.49h1.5v-.49Zm1.5,1.74V41h-1.5v.51ZM122,45.33v2h-1v-2h-.91a3.07,3.07,0,0,1-1.22,2.12,4,4,0,0,0-.72-.64,2.21,2.21,0,0,0,1-1.48h-1V44.4h1v-.71h-.87V42.8h4.59v.89H122v.71h1v.93Zm-1-.93v-.71h-.88v.71Zm3.62,1.74c0,.58-.1.9-.44,1.08a3.38,3.38,0,0,1-1.56.22,4.2,4.2,0,0,0-.34-1.13c.42,0,.89,0,1,0s.2,0,.2-.19v-3.8h-2.61V39h3.72ZM122,39.75v.49h1.54v-.49Zm1.54,1.76V41H122v.53Z"/><path class="e95645a2-dace-45f2-b61f-e9ec45a2979e" d="M143,39.65v1.07h-6.82v1.33a11.6,11.6,0,0,1-1,5.41,4.77,4.77,0,0,0-1-.65A10.06,10.06,0,0,0,135,42V39.65h3.55a4.35,4.35,0,0,0-.33-.83l1.13-.24a5.33,5.33,0,0,1,.48,1.07Zm-3.14,2.24h2.91v1h-2.91v.88h2.46v3.56h-1.16V47h-3.34v.37h-1.11V43.79h2V41h1.17Zm1.3,2.93h-3.34V46h3.34Z"/><path class="e95645a2-dace-45f2-b61f-e9ec45a2979e" d="M155.46,45.12a9.91,9.91,0,0,1-2.09,2,9.44,9.44,0,0,0-1-.74,6.67,6.67,0,0,0,1.93-1.63Zm1.9-.76v1.89c0,.56-.11.84-.53,1a4.46,4.46,0,0,1-1.64.18,4.43,4.43,0,0,0-.41-1.1c.48,0,1.06,0,1.22,0s.21,0,.21-.15V44.46a13.16,13.16,0,0,0-2.92.36,7.41,7.41,0,0,0-.33-1,4.39,4.39,0,0,0,1.32-.48,12.19,12.19,0,0,0,1.5-.79,7.22,7.22,0,0,0-2.06.25c-.06-.22-.22-.75-.33-1.05a2.55,2.55,0,0,0,.8-.31,12.2,12.2,0,0,0,1.52-1c-.91.18-1.84.32-2.71.43a3.85,3.85,0,0,0-.31-1,26.19,26.19,0,0,0,6-1.4l.84.89a17.39,17.39,0,0,1-2.73.8l.51.33a18,18,0,0,1-1.61,1.07l1.64-.09c.35-.24.69-.49,1-.76l.84.75a19.79,19.79,0,0,1-3.22,2l2.68-.18c-.2-.24-.41-.47-.6-.68l.94-.47a19.15,19.15,0,0,1,1.85,2.14l-1,.58a7.82,7.82,0,0,0-.49-.67Zm1.43.23a13,13,0,0,1,2.13,1.74l-1,.67a12.64,12.64,0,0,0-2-1.81Z"/><path class="e95645a2-dace-45f2-b61f-e9ec45a2979e" d="M171.51,45a11,11,0,0,1-.42,2.32,4.16,4.16,0,0,0-.84-.3,8.25,8.25,0,0,0,.39-2.16Zm1.69-.56c0-.13,0-.26-.08-.43a10.53,10.53,0,0,0-2.44.55,6.12,6.12,0,0,0-.35-1,1.52,1.52,0,0,0,.74-.63,5.38,5.38,0,0,0,.58-.75,3.5,3.5,0,0,0-1,.2c-.06-.22-.23-.71-.35-1,.19-.05.35-.23.54-.51a11.09,11.09,0,0,0,1.11-2.33l1,.44a15.41,15.41,0,0,1-1.32,2.36l.62,0a12.82,12.82,0,0,0,.73-1.43l.93.58a16.42,16.42,0,0,1-2,2.92l1-.15a5.83,5.83,0,0,0-.29-.71l.76-.29a8.21,8.21,0,0,1,.67,1.9Zm-.7.34a16.28,16.28,0,0,1,.25,2l-.84.21c0-.53-.11-1.34-.2-2Zm1-.28A13.76,13.76,0,0,1,174,46l-.8.29a11.32,11.32,0,0,0-.43-1.57Zm4.58,1.82c.17,0,.2-.18.23-1.29a3,3,0,0,0,1,.42c-.1,1.46-.36,1.87-1.07,1.87h-.68c-.87,0-1.06-.33-1.06-1.33V43.13l-.54.07c-.08,2-.33,3.46-1.88,4.3a3.09,3.09,0,0,0-.69-.88c1.26-.65,1.45-1.69,1.51-3.28a2.18,2.18,0,0,0-.65.15,11,11,0,0,0-.38-1.08c.23-.07.42-.3.66-.69a7.93,7.93,0,0,0,.57-1h-1.14v-1h1.62c.15-.37.3-.75.43-1.14l1.22.32c-.11.28-.22.54-.35.82h2.24v1h-2.77a16.28,16.28,0,0,1-.9,1.51l2-.2c-.15-.25-.3-.5-.43-.74l.91-.41a13.58,13.58,0,0,1,1.28,2.36l-1,.46a5.58,5.58,0,0,0-.29-.74l-.37,0v3c0,.3,0,.33.18.33Z"/><path class="ede49854-b9b0-44e1-8a1b-535d187dd2f5" d="M96.21,6.66H76.29V31.89H96.21c3.37,0,5.7-.6,7-1.8a7.1,7.1,0,0,0,2-5.46V13.93a7.08,7.08,0,0,0-2-5.46C101.91,7.26,99.58,6.66,96.21,6.66Zm1.31,15.49a4.26,4.26,0,0,1-.94,3c-.62.69-1.86,1-3.72,1H85a1.1,1.1,0,0,1-1.1-1.1V13.5A1.1,1.1,0,0,1,85,12.4h7.9q2.79,0,3.72,1a4.24,4.24,0,0,1,.94,3Z"/><path class="ede49854-b9b0-44e1-8a1b-535d187dd2f5" d="M89.86,16.92a1.64,1.64,0,1,1-1.64-1.64A1.63,1.63,0,0,1,89.86,16.92Z"/><polygon class="ede49854-b9b0-44e1-8a1b-535d187dd2f5" points="108.57 15.18 108.57 31.87 116.14 31.87 116.18 22.12 116.18 15.18 108.57 15.18"/><rect class="ede49854-b9b0-44e1-8a1b-535d187dd2f5" x="108.57" y="6.64" width="7.61" height="6.43"/></g></g></svg>