<svg xmlns="http://www.w3.org/2000/svg" viewBox="0 0 136.74 40.87"><defs><style>.b306d531-b599-4b55-9be6-fe31b736eda0{fill:#f08437;}.b85f60e1-17b3-4e53-9d2f-51f43c1577e2{fill:#4d4d4d;}.a427b673-1ec9-4069-9fde-f450d00e159c{fill:#727171;}</style></defs><g id="ab9cf6dc-9bd7-405e-8164-5751781609e6" data-name="圖層 2"><g id="f535bca5-e5b0-4559-96be-42741b6446ff" data-name="圖層 1"><path class="b306d531-b599-4b55-9be6-fe31b736eda0" d="M95.63,0H84.49c-3.37,0-5.7.6-7,1.8a7.09,7.09,0,0,0-2,5.46v18h7.65V9.77a4.28,4.28,0,0,1,.94-3c.62-.69,1.86-1,3.72-1H92.1q3,0,3.87,1a4.42,4.42,0,0,1,.87,3V25.26h7.62v-18a7.31,7.31,0,0,0-1.87-5.39Q100.72,0,95.63,0Z"/><polygon class="b85f60e1-17b3-4e53-9d2f-51f43c1577e2" points="21.27 0.03 21.27 9.68 21.27 12.09 7.61 12.09 7.61 0.03 0.04 0.03 0 9.69 0.04 18.89 7.61 18.89 21.27 18.89 21.27 20.64 21.27 25.26 28.93 25.26 28.93 17.99 28.93 7.29 28.93 0.03 21.27 0.03"/><path class="b306d531-b599-4b55-9be6-fe31b736eda0" d="M116.44,6.81c.63-.69,1.87-1,3.72-1h16.58V0H116.81c-3.36,0-5.7.6-7,1.8s-2,3-2,5.46V18q0,3.66,2,5.46c1.3,1.21,3.64,1.81,7,1.81h19.93v-14H123.48v5.68h5.69v2.59h-9q-2.77,0-3.72-1.05a4.29,4.29,0,0,1-.93-3V9.77A4.32,4.32,0,0,1,116.44,6.81Z"/><path class="a427b673-1ec9-4069-9fde-f450d00e159c" d="M1.31,35.55h-1V33.41H3.87V33H.7v-.74H8.16V33H5v.38H8.64v2.14H7.55l-.2.68a15.49,15.49,0,0,0-2.2-.53l.22-.63a12.22,12.22,0,0,1,2.14.44V34.16H7l.34.48a9.9,9.9,0,0,1-1.69.46l-.35-.54a10.62,10.62,0,0,0,1.3-.4H5v2H3.87v-2H2.05a10,10,0,0,1,1.49.38l-.31.61a11.64,11.64,0,0,0-1.63-.46l.26-.53H1.35v1.3c.58-.07,1.38-.18,2.2-.31l0,.65-2,.46Zm6.07,4.29c.48,0,.57-.14.63-.94a3.07,3.07,0,0,0,1,.35c-.14,1.14-.45,1.45-1.49,1.45h-2c-1.3,0-1.67-.27-1.67-1.26v0H2.23v.41H1.15V36.37H7.74v3H4.9v0c0,.34.11.4.68.4ZM2.23,37.13v.43H3.81v-.43Zm1.58,1.52v-.43H2.23v.43Zm2.81-1.52H4.9v.43H6.62Zm0,1.52v-.43H4.9v.43Z"/><path class="a427b673-1ec9-4069-9fde-f450d00e159c" d="M26.83,37.19H23.14v2.29c0,.64-.14,1-.59,1.13a5.69,5.69,0,0,1-2,.2,4.32,4.32,0,0,0-.48-1.17c.67,0,1.41,0,1.61,0s.27-.06.27-.22V37.19H18.2V36.06H22V34.74a12.13,12.13,0,0,0,1.84-1.13H19.14V32.49h5.92l.27-.06.85.66a14,14,0,0,1-3,2.24v.73h3.69Z"/><path class="a427b673-1ec9-4069-9fde-f450d00e159c" d="M44.8,33.81H42l.9.18c-.19.35-.4.68-.59,1h2v4.81c0,.51-.12.73-.47.86a5.17,5.17,0,0,1-1.62.14A3,3,0,0,0,42,40h1.14c.15,0,.21,0,.21-.19V35.88H41.85v.24c0,.18,0,.27.17.27h.47a2.44,2.44,0,0,0,.55-.06,6.15,6.15,0,0,0,.07.75,2.1,2.1,0,0,1-.6.07h-.76c-.77,0-.9-.36-.9-1v-.23h-.68a1.66,1.66,0,0,1-1.24,1.46h3.45v2.31H39.63v.4h-.94V37.43l-.36.08a2.14,2.14,0,0,0-.45-.7v4H36.8V35h2c-.1-.28-.28-.65-.42-1l.62-.2h-2.6v-1h3.74a6.6,6.6,0,0,0-.21-.71L41,31.87c.11.31.25.68.33,1h3.5Zm-6.92,2.93c.88-.15,1.19-.41,1.3-.86h-1.3ZM41.27,35a8.62,8.62,0,0,0,.49-1.15h-2.4c.17.32.37.69.48.93l-.61.22Zm-1.64,3.16v.76h1.84v-.76Z"/><path class="a427b673-1ec9-4069-9fde-f450d00e159c" d="M62.36,33.84a4.75,4.75,0,0,1-1,1.39,7,7,0,0,0,1.75.56,4.34,4.34,0,0,0-.71,1,6.79,6.79,0,0,1-1.94-.82,7.38,7.38,0,0,1-1.94.8,3.52,3.52,0,0,0-.27-.4,11,11,0,0,1-.46,1.59l-.77-.35a12.18,12.18,0,0,0,.31-1.31h-.5V39.6c0,.52-.08.82-.41,1a2.82,2.82,0,0,1-1.34.2,3.57,3.57,0,0,0-.33-1.07h.86c.11,0,.15,0,.15-.15v-2a5.72,5.72,0,0,1-1.19,1.76,6.07,6.07,0,0,0-.51-1.1,5.89,5.89,0,0,0,1.35-2H54.27v-1h2.18a12.15,12.15,0,0,0-1.84-.92l.72-.73c.22.09.49.19.75.31a6.79,6.79,0,0,0,.6-.6H54.39v-.95h3.07l.18,0,.72.46A7.22,7.22,0,0,1,57,34.36a6.19,6.19,0,0,1,.69.42l-.46.49h.45l.16-.05.68.23,0,.22a6.08,6.08,0,0,0,1.16-.44,5.7,5.7,0,0,1-.67-.79,5.42,5.42,0,0,1-.43.41,8.83,8.83,0,0,0-.92-.64A5.67,5.67,0,0,0,59.4,32l1.06.29c-.11.22-.22.44-.35.66h2.8v.94Zm.45,3.4s0,.3,0,.43c-.15,1.65-.32,2.38-.6,2.68a1.06,1.06,0,0,1-.69.34,9,9,0,0,1-1.07,0,2.48,2.48,0,0,0-.3-1,7.56,7.56,0,0,0,.82.05.38.38,0,0,0,.3-.11,2.85,2.85,0,0,0,.36-1.41h-1.1A3.82,3.82,0,0,1,58,40.83a3.28,3.28,0,0,0-.66-.88,3,3,0,0,0,2-1.76H58.17v-.95h1.39q.06-.41.09-.84h1.13l-.09.84Zm-3.12-3.4a3.56,3.56,0,0,0,.79.81,3.15,3.15,0,0,0,.63-.81Z"/><path class="a427b673-1ec9-4069-9fde-f450d00e159c" d="M73.79,35.68v5.15h-1.1V32.31h3.66v3.37Zm0-2.56v.48h1.49v-.48Zm1.49,1.74v-.51H73.79v.51Zm2.79,3.83v2h-1v-2h-.91A3.1,3.1,0,0,1,75,40.82a4.45,4.45,0,0,0-.72-.65,2.28,2.28,0,0,0,1-1.48h-1v-.92h1v-.72h-.86v-.89H79v.89h-.89v.72h1v.92Zm-1-.92v-.72h-.89v.72Zm3.62,1.74c0,.58-.1.89-.45,1.07a3.36,3.36,0,0,1-1.56.22,3.81,3.81,0,0,0-.34-1.12c.43,0,.9,0,1,0s.2-.06.2-.19V35.7H77V32.31H80.7Zm-2.65-6.39v.48h1.54v-.48Zm1.54,1.76v-.53H78.05v.53Z"/><path class="a427b673-1ec9-4069-9fde-f450d00e159c" d="M99,33v1.08H92.22v1.33a11.72,11.72,0,0,1-1,5.41,5.25,5.25,0,0,0-1-.66,10,10,0,0,0,.86-4.76V33h3.56a5,5,0,0,0-.33-.82L95.42,32A4.52,4.52,0,0,1,95.89,33ZM95.9,35.26h2.91v1H95.9v.87h2.47v3.56H97.21v-.37H93.87v.37H92.76V37.15h2V34.37H95.9Zm1.31,2.93H93.87v1.16h3.34Z"/><path class="a427b673-1ec9-4069-9fde-f450d00e159c" d="M111.5,38.49a10.23,10.23,0,0,1-2.1,2,9.3,9.3,0,0,0-1-.74,6.7,6.7,0,0,0,1.93-1.64Zm1.9-.76v1.88c0,.56-.12.85-.53,1a4.52,4.52,0,0,1-1.65.18,4.29,4.29,0,0,0-.41-1.1c.49,0,1.07,0,1.23,0s.21,0,.21-.16V37.82a12.61,12.61,0,0,0-2.92.37,8.48,8.48,0,0,0-.33-1,4.46,4.46,0,0,0,1.32-.49,15.27,15.27,0,0,0,1.5-.78,8,8,0,0,0-2.06.24c-.06-.22-.22-.75-.34-1a2.51,2.51,0,0,0,.8-.32,9.22,9.22,0,0,0,1.52-1c-.91.18-1.83.33-2.71.44a3.38,3.38,0,0,0-.31-1,26.78,26.78,0,0,0,6-1.41l.83.9a17.61,17.61,0,0,1-2.72.79l.51.34A16.12,16.12,0,0,1,111.76,35l1.65-.08c.35-.25.68-.5,1-.76l.84.75a20.89,20.89,0,0,1-3.21,2l2.68-.19c-.2-.23-.41-.46-.61-.67l.94-.48a18.33,18.33,0,0,1,1.86,2.14l-1,.58c-.13-.19-.29-.41-.49-.66Zm1.42.23A11.36,11.36,0,0,1,117,39.7l-1,.66a12.68,12.68,0,0,0-2-1.8Z"/><path class="a427b673-1ec9-4069-9fde-f450d00e159c" d="M127.55,38.34a11.11,11.11,0,0,1-.42,2.32,3.64,3.64,0,0,0-.84-.31,8.19,8.19,0,0,0,.38-2.15Zm1.69-.56a4.15,4.15,0,0,0-.09-.43,11,11,0,0,0-2.43.54,7.68,7.68,0,0,0-.35-1c.25-.06.45-.26.74-.62a9.06,9.06,0,0,0,.58-.75,3.82,3.82,0,0,0-1,.19c0-.21-.23-.71-.34-1,.18-.05.34-.23.53-.52a10.84,10.84,0,0,0,1.11-2.33l1,.44a14.71,14.71,0,0,1-1.32,2.37l.63-.05c.25-.45.52-.95.73-1.42l.92.58a15.34,15.34,0,0,1-2,2.91l1-.15a5.67,5.67,0,0,0-.28-.7l.76-.3a8.21,8.21,0,0,1,.67,1.9Zm-.71.33a16.83,16.83,0,0,1,.26,2l-.85.21a18,18,0,0,0-.19-2Zm1-.28c.18.5.38,1.14.48,1.54l-.8.3a13.19,13.19,0,0,0-.44-1.58Zm4.58,1.83c.18,0,.2-.18.23-1.29a2.88,2.88,0,0,0,1,.41c-.09,1.47-.35,1.88-1.06,1.88h-.69c-.86,0-1.05-.34-1.05-1.33V36.49l-.54.07c-.08,2-.34,3.46-1.89,4.31a2.82,2.82,0,0,0-.68-.89c1.25-.64,1.44-1.69,1.5-3.28a2.09,2.09,0,0,0-.64.16,9.88,9.88,0,0,0-.39-1.09c.23-.07.42-.29.66-.68a7.44,7.44,0,0,0,.57-1H130V33h1.62c.15-.37.3-.75.42-1.14l1.23.33c-.11.27-.23.54-.35.81h2.23V34.1h-2.76a17.51,17.51,0,0,1-.91,1.5l2-.19c-.15-.26-.31-.5-.44-.74l.91-.41a12.4,12.4,0,0,1,1.29,2.36l-1,.45a7.21,7.21,0,0,0-.3-.74l-.37.05v2.95c0,.29,0,.33.18.33Z"/><path class="b306d531-b599-4b55-9be6-fe31b736eda0" d="M52.25,0H32.32V25.26H52.25c3.36,0,5.7-.6,7-1.81s2-3,2-5.46V7.29c0-2.44-.65-4.25-2-5.46S55.61,0,52.25,0Zm1.31,15.48a4.29,4.29,0,0,1-.94,3q-.93,1.05-3.72,1.05H41a1.1,1.1,0,0,1-1.1-1.1V6.87A1.1,1.1,0,0,1,41,5.77H48.9c1.86,0,3.1.35,3.72,1a4.33,4.33,0,0,1,.94,3Z"/><path class="b306d531-b599-4b55-9be6-fe31b736eda0" d="M45.89,10.28a1.64,1.64,0,1,1-1.63-1.63A1.63,1.63,0,0,1,45.89,10.28Z"/><polygon class="b306d531-b599-4b55-9be6-fe31b736eda0" points="64.6 8.54 64.6 25.23 72.17 25.23 72.22 15.49 72.22 8.54 64.6 8.54"/><rect class="b306d531-b599-4b55-9be6-fe31b736eda0" x="64.6" width="7.61" height="6.43"/></g></g></svg>