<svg xmlns="http://www.w3.org/2000/svg" viewBox="0 0 704.9 737.14"><defs><style>.a439f61b-1aab-4346-8a19-20d47f3f7bba,.e94e6d82-e257-456e-a8e6-a800e7fbeb1d{fill:none;stroke-miterlimit:10;}.a439f61b-1aab-4346-8a19-20d47f3f7bba{stroke:#ef8337;stroke-width:4px;}.a7f53372-2868-4ea5-a5ba-e9ea642f35be{fill:#ddd;}.be91cf33-5414-4e18-91b1-dfe2389ed825{fill:#f2f2f2;}.fde4d11a-3673-45a6-ad92-11063930ff49{fill:#3d3d3d;}.a05a9e19-5b4b-4736-abb3-1f8c01867dd8{fill:#ffdab6;}.bc71ffc1-b721-474d-b032-512bdb2707ed,.f8f8f40e-5e21-48a1-a4c9-23e6bb374826{fill:#ef8337;}.bbdf934a-1bbf-4802-85dc-f5649d707297{fill:#474747;}.e805076e-f1c8-4c62-9731-34a544084703{fill:#ec6c1f;}.b4fc61e1-1ac2-4184-890a-c869e15f961e{fill:#3a3a3a;}.e94e6d82-e257-456e-a8e6-a800e7fbeb1d{stroke:#232323;stroke-width:6px;}.a52934e5-c604-472e-aa54-75e0c82efc58{fill:#fff;}.f68078ee-effc-4bfe-ab0e-4ef1caab6f57{fill:#e6e6e6;}.a78a5363-50b4-43d5-a4c1-c07f86ef2abf{fill:#fff8bb;}.f8f8f40e-5e21-48a1-a4c9-23e6bb374826{font-size:110.15px;font-family:Menlo-Bold, Menlo;font-weight:700;}</style></defs><g id="a10a3ab3-7c8d-49a7-bae5-15fc098b545a" data-name="Objects"><path class="a439f61b-1aab-4346-8a19-20d47f3f7bba" d="M351.43,496l-32.55-22.32a2.71,2.71,0,1,0-3.07,4.47l.09.06a20.08,20.08,0,0,0-3,10.82,72,72,0,0,1-19.51-9.82,68.68,68.68,0,0,1-15.07-16.19,20.09,20.09,0,0,0,9.83-6.23,2.75,2.75,0,0,0,3.33-.85,2.8,2.8,0,0,0-.72-3.87l-32-23.15a2.72,2.72,0,1,0-3.26,4.34A20.14,20.14,0,0,0,253,447.12c.4,4.7,3.89,30.66,33.24,51.82C309.92,516,333,510,338.5,508.23a20.13,20.13,0,0,0,10.74-7.31,2.72,2.72,0,0,0,3-1A2.78,2.78,0,0,0,351.43,496Z" transform="translate(-77.05 -46.28)"/><path class="a439f61b-1aab-4346-8a19-20d47f3f7bba" d="M429.27,115.92,396.73,93.6a2.71,2.71,0,1,0-3.07,4.47l.09.06a20.08,20.08,0,0,0-3,10.82,72.46,72.46,0,0,1-19.52-9.82,69.1,69.1,0,0,1-15.07-16.19A20.12,20.12,0,0,0,366,76.71a2.74,2.74,0,0,0,3.32-.85,2.78,2.78,0,0,0-.72-3.87l-32-23.15a2.71,2.71,0,1,0-3.25,4.34A20.14,20.14,0,0,0,330.88,67c.4,4.7,3.89,30.66,33.24,51.82,23.65,17.06,46.72,11.09,52.23,9.29a20.13,20.13,0,0,0,10.74-7.31,2.72,2.72,0,0,0,3-1A2.77,2.77,0,0,0,429.27,115.92Z" transform="translate(-77.05 -46.28)"/><path class="a439f61b-1aab-4346-8a19-20d47f3f7bba" d="M215.26,302a6,6,0,0,0,.67-8.43c-.05-.06-.12-.1-.17-.16l-36.86-41a3.87,3.87,0,0,0,0-5.17,3.8,3.8,0,0,0-2.34-1.22,38.31,38.31,0,1,0-13.81,12.21,3.83,3.83,0,0,0,1,2.65,3.87,3.87,0,0,0,5.47.29l.61-.54,36.94,41.08,0,.05A6,6,0,0,0,215.26,302Z" transform="translate(-77.05 -46.28)"/><path class="a439f61b-1aab-4346-8a19-20d47f3f7bba" d="M739.92,691.86a6,6,0,0,0,2.51-8.07,2.26,2.26,0,0,0-.13-.2l-26.92-48.1a3.83,3.83,0,0,0-.85-6.75,38.32,38.32,0,1,0-16.17,8.87A3.86,3.86,0,0,0,704,641.9l.71-.4,27,48.22,0,.06A6,6,0,0,0,739.92,691.86Z" transform="translate(-77.05 -46.28)"/><path class="a439f61b-1aab-4346-8a19-20d47f3f7bba" d="M205.79,623.93c17.12,0,28.53,8.28,28.53,23.83,0,22.54-22.54,23.54-22.54,42.8H199.22c0-23,19.84-23.11,19.84-40.38,0-8.27-5.85-12.27-14.7-12.27-9.28,0-14.84,4.86-15.27,14.56l-12.84-.15C176.82,634.2,188.09,623.93,205.79,623.93Zm8.56,90.89c0,5.57-3.85,9.56-9,9.56s-9-4-9-9.56,3.85-9.27,9-9.27S214.35,709.4,214.35,714.82Z" transform="translate(-77.05 -46.28)"/><path class="a439f61b-1aab-4346-8a19-20d47f3f7bba" d="M579.76,387.84c17.12,0,28.54,8.28,28.54,23.83,0,22.54-22.55,23.54-22.55,42.8H573.19c0-23,19.84-23.11,19.84-40.38,0-8.27-5.85-12.27-14.7-12.27-9.28,0-14.84,4.86-15.27,14.56l-12.84-.15C550.79,398.11,562.06,387.84,579.76,387.84Zm8.56,90.89c0,5.57-3.85,9.56-9,9.56s-9-4-9-9.56,3.85-9.27,9-9.27S588.32,473.31,588.32,478.73Z" transform="translate(-77.05 -46.28)"/><path class="a439f61b-1aab-4346-8a19-20d47f3f7bba" d="M171.85,477.78v-9.63l-8-1.87a36.59,36.59,0,0,0-4.55-12.4l4.87-10.48L157,437l-8,5.63a36.36,36.36,0,0,0-13.32-6l-2.77-9.22h-9.62l-2.08,8.91a36.37,36.37,0,0,0-11.61,4.17l-9.69-6-7.22,6.37L98,450.83a36.53,36.53,0,0,0-6.19,13.54l-9.69,2.91v9.62l9.37,2.19A36.4,36.4,0,0,0,95.94,491l-6.32,9.41,6.11,7.44,10.78-5.32A36.7,36.7,0,0,0,118.22,508l2.88,9.58h9.63l2-8.7a36.55,36.55,0,0,0,14.91-5.56l11.09,4.77,6.18-7.37-6.33-8.44a36.52,36.52,0,0,0,5-12Zm-44.19,23.63a28.88,28.88,0,1,1,28.88-28.88A28.88,28.88,0,0,1,127.66,501.41Z" transform="translate(-77.05 -46.28)"/><path class="a439f61b-1aab-4346-8a19-20d47f3f7bba" d="M776.84,353v-9.63l-8-1.87a36.59,36.59,0,0,0-4.55-12.4l4.87-10.48L762,312.19l-8,5.63a36.36,36.36,0,0,0-13.32-6l-2.77-9.22h-9.62l-2.08,8.92a36.11,36.11,0,0,0-11.61,4.16l-9.69-6-7.22,6.37L703,326a36.53,36.53,0,0,0-6.19,13.54l-9.69,2.91v9.62l9.37,2.19a36.19,36.19,0,0,0,4.42,11.94l-6.33,9.41,6.11,7.44,10.78-5.32a36.65,36.65,0,0,0,11.72,5.45l2.87,9.59h9.63l2-8.71a36.6,36.6,0,0,0,14.92-5.56l11.08,4.77,6.19-7.37-6.34-8.44a36.52,36.52,0,0,0,5-12Zm-44.2,23.63a28.88,28.88,0,1,1,28.88-28.88A28.87,28.87,0,0,1,732.64,376.59Z" transform="translate(-77.05 -46.28)"/><path class="a7f53372-2868-4ea5-a5ba-e9ea642f35be" d="M426.09,726.4c-2.36,0-4.73-.08-7-.16l.16-5c2.29.08,4.62.13,6.95.16Zm7.06,0-.06-5c2.29,0,4.63-.08,6.94-.15l.16,5C437.85,726.31,435.48,726.37,433.15,726.39ZM412,725.93c-2.31-.13-4.68-.28-7-.47l.38-5c2.33.18,4.66.33,6.93.46Zm35.25,0-.28-5c2.32-.13,4.65-.29,6.93-.47l.4,5C452,725.63,449.6,725.79,447.24,725.92Zm-49.32-1.08c-2.32-.24-4.68-.5-7-.79l.61-5c2.29.28,4.62.54,6.9.77Zm63.39,0-.5-5c2.32-.24,4.65-.5,6.9-.78l.62,5C466,724.31,463.68,724.57,461.31,724.81Zm-77.4-1.7c-2.3-.34-4.65-.71-7-1.1l.84-4.93c2.28.39,4.59.75,6.86,1.08Zm91.41,0-.73-5c2.3-.34,4.61-.71,6.86-1.09l.84,4.93C480,722.36,477.65,722.73,475.32,723.08ZM370,720.75c-2.32-.44-4.64-.92-6.92-1.41l1.06-4.89c2.24.49,4.53.95,6.81,1.39Zm119.23,0-1-4.91c2.27-.44,4.56-.91,6.8-1.4l1.06,4.89C493.86,719.78,491.54,720.26,489.23,720.71Zm-133-3c-2.29-.55-4.59-1.13-6.84-1.72l1.28-4.84c2.21.59,4.48,1.16,6.73,1.7Zm146.82,0-1.17-4.86c2.24-.54,4.5-1.12,6.73-1.71l1.28,4.84C507.6,716.58,505.3,717.16,503,717.71Zm-160.46-3.56c-2.27-.65-4.54-1.34-6.76-2l1.5-4.77c2.18.69,4.42,1.37,6.65,2Zm174.1-.06-1.39-4.81c2.21-.64,4.45-1.32,6.65-2l1.5,4.77C521.18,712.75,518.91,713.43,516.66,714.09Zm-187.59-4.18c-2.22-.75-4.47-1.54-6.68-2.35l1.72-4.7c2.17.8,4.38,1.58,6.57,2.32Zm201.05-.06-1.61-4.74c2.19-.74,4.39-1.52,6.55-2.31l1.72,4.7C534.59,708.3,532.35,709.09,530.12,709.85Zm-214.35-4.79c-2.18-.85-4.39-1.75-6.56-2.66l1.92-4.61c2.15.89,4.32,1.77,6.46,2.61ZM543.38,705l-1.83-4.66c2.14-.83,4.29-1.71,6.42-2.59l1.93,4.61C547.74,703.26,545.55,704.15,543.38,705Zm-240.67-5.4c-2.13-.94-4.29-1.94-6.43-3l2.13-4.52c2.11,1,4.24,2,6.33,2.9Zm253.64,0-2-4.57c2.11-.94,4.23-1.91,6.29-2.88l2.14,4.52C560.65,697.63,558.5,698.62,556.35,699.57Zm12.72-6-2.23-4.47c2-1,4.11-2.09,6.15-3.17l2.34,4.42C573.26,691.44,571.15,692.52,569.07,693.56Zm-279.16,0c-2.11-1.06-4.22-2.15-6.28-3.24L286,685.9c2,1.08,4.11,2.15,6.18,3.19ZM581.52,687l-2.44-4.37c2-1.11,4-2.28,6-3.44l2.53,4.31C585.61,684.66,583.55,685.84,581.52,687Zm-304.1,0c-2.05-1.14-4.11-2.32-6.14-3.51l2.54-4.31c2,1.17,4,2.34,6,3.46Zm316.23-7.1L591,675.59c2-1.22,3.94-2.47,5.86-3.72l2.72,4.19C597.65,677.33,595.65,678.6,593.65,679.84Zm-328.42-.07c-2-1.24-4-2.52-6-3.79l2.73-4.19c1.91,1.25,3.89,2.51,5.87,3.73Zm340.23-7.62L602.64,668c1.91-1.31,3.82-2.65,5.68-4l2.92,4.06C609.35,669.47,607.4,670.83,605.46,672.15Zm-352.07-.09c-1.93-1.32-3.87-2.68-5.78-4.06l2.91-4.06c1.88,1.35,3.8,2.69,5.7,4Zm363.53-8.12-3-4c1.85-1.4,3.7-2.82,5.5-4.24l3.09,3.93C620.68,661.08,618.8,662.53,616.92,663.94Zm-375-.12c-1.88-1.41-3.76-2.86-5.6-4.31l3.1-3.92c1.8,1.42,3.66,2.85,5.5,4.24ZM628,655.22l-3.19-3.86c1.78-1.46,3.57-3,5.31-4.47l3.26,3.79C631.62,652.2,629.8,653.73,628,655.22Zm-397.17-.14c-1.8-1.48-3.61-3-5.4-4.55l3.27-3.79c1.76,1.52,3.54,3,5.31,4.48ZM638.67,646l-3.35-3.71c1.71-1.55,3.43-3.13,5.1-4.71l3.44,3.63C642.15,642.83,640.41,644.44,638.67,646Zm-418.53-.16c-1.72-1.56-3.47-3.17-5.18-4.79l3.44-3.63c1.68,1.59,3.4,3.17,5.1,4.71Zm428.79-9.53-3.51-3.55c1.63-1.62,3.27-3.28,4.88-4.94l3.59,3.48C652.26,633,650.59,634.69,648.93,636.32Zm-439-.17c-1.66-1.64-3.33-3.33-5-5l3.6-3.48c1.6,1.66,3.24,3.32,4.88,4.94Zm448.86-10-3.67-3.39c1.57-1.71,3.14-3.44,4.66-5.15l3.74,3.31C661.94,622.69,660.35,624.45,658.75,626.18ZM200.08,626c-1.59-1.73-3.18-3.49-4.72-5.24l3.74-3.3c1.52,1.71,3.09,3.45,4.66,5.15Zm468-10.4-3.82-3.23c1.49-1.76,3-3.56,4.43-5.35l3.89,3.14C671.12,612,669.61,613.82,668.1,615.61Zm-477.35-.17c-1.51-1.79-3-3.62-4.49-5.44l3.89-3.14c1.45,1.79,2.93,3.59,4.42,5.35ZM677,604.62l-4-3c1.42-1.84,2.83-3.71,4.18-5.55l4,3C679.84,600.86,678.41,602.75,677,604.62Zm-495.07-.16c-1.42-1.84-2.85-3.74-4.24-5.63l4-3c1.37,1.86,2.77,3.72,4.17,5.54Zm503.44-11.21-4.09-2.87c1.32-1.9,2.64-3.83,3.92-5.74l4.16,2.78C688,589.36,686.69,591.33,685.34,593.25Zm-511.79-.15c-1.35-1.93-2.69-3.88-4-5.81l4.16-2.78c1.26,1.9,2.58,3.83,3.91,5.72Zm519.64-11.6L689,578.82c1.23-1.93,2.46-3.92,3.67-5.91l4.28,2.58C695.69,577.52,694.44,579.54,693.19,581.5Zm-527.46-.12c-1.26-2-2.51-4-3.71-6l4.28-2.59c1.18,2,2.41,3.94,3.65,5.89Zm534.77-12-4.33-2.48c1.16-2,2.31-4.08,3.39-6.08l4.4,2.39C702.85,565.26,701.69,567.33,700.5,569.4Zm-542-.07c-1.17-2-2.32-4.1-3.44-6.15l4.4-2.39c1.09,2,2.23,4.05,3.37,6.05ZM707.26,557l-4.44-2.3c1.06-2.05,2.11-4.15,3.12-6.22l4.49,2.19C709.41,552.77,708.34,554.89,707.26,557Zm-555.54,0c-1.08-2.09-2.14-4.21-3.15-6.29l4.49-2.19c1,2,2,4.13,3.1,6.19Zm-6.16-12.65c-1-2.13-1.95-4.29-2.87-6.42l4.6-2c.9,2.09,1.85,4.21,2.81,6.32Zm567.9,0-4.55-2.09c1-2.09,1.92-4.23,2.84-6.36l4.59,2C715.4,540,714.43,542.14,713.46,544.27ZM140,531.4c-.88-2.15-1.74-4.37-2.58-6.57l4.68-1.77c.82,2.17,1.67,4.34,2.53,6.46Zm579.09-.13-4.64-1.87c.86-2.13,1.72-4.31,2.54-6.49l4.68,1.77C720.81,526.89,719.94,529.11,719.07,531.27ZM135,518.2c-.78-2.21-1.54-4.45-2.27-6.68l4.75-1.56c.72,2.19,1.47,4.4,2.24,6.58ZM724.08,518l-4.71-1.66c.76-2.18,1.52-4.4,2.24-6.6l4.75,1.55C725.63,513.57,724.86,515.82,724.08,518Zm-593.5-13.24c-.68-2.22-1.34-4.5-2-6.77l4.81-1.34c.63,2.23,1.28,4.47,1.94,6.66Zm597.91-.22-4.79-1.45c.67-2.2,1.31-4.45,1.93-6.67l4.82,1.34C729.82,500.05,729.16,502.33,728.49,504.57ZM126.79,491.2c-.57-2.27-1.13-4.58-1.66-6.87l4.88-1.11c.52,2.25,1.06,4.52,1.63,6.74ZM732.26,491l-4.85-1.23c.57-2.25,1.12-4.52,1.63-6.75l4.87,1.11C733.39,486.37,732.84,488.68,732.26,491ZM123.63,477.44c-.47-2.29-.92-4.62-1.34-6.93l4.92-.89c.41,2.26.86,4.56,1.32,6.81Zm611.78-.23-4.9-1c.47-2.28.91-4.57,1.32-6.82l4.92.89C736.33,472.57,735.88,474.9,735.41,477.21ZM121.1,463.56c-.37-2.32-.71-4.67-1-7l5-.67c.31,2.28.65,4.59,1,6.87Zm616.83-.24-4.94-.78c.36-2.27.7-4.59,1-6.87l5,.67C738.64,458.66,738.29,461,737.93,463.32ZM119.2,449.57c-.26-2.33-.5-4.69-.71-7l5-.45c.2,2.29.44,4.62.7,6.91Zm620.62-.23-5-.56c.26-2.3.49-4.63.7-6.91l5,.44C740.32,444.64,740.08,447,739.82,449.34ZM117.93,435.52c-.16-2.33-.29-4.7-.4-7l5-.22c.1,2.31.24,4.64.39,6.93Zm623.15-.24-5-.33c.15-2.3.28-4.63.38-6.94l5,.22C741.37,430.58,741.23,433,741.08,435.28ZM117.29,421.42c-.05-2.35-.08-4.72-.08-7.06h5c0,2.3,0,4.63.08,6.94Zm624.41-.24-5-.11c0-2.31.07-4.65.07-6.94v-.47h5v.45C741.78,416.46,741.76,418.83,741.7,421.18ZM122.28,407.42l-5-.11c0-2.33.13-4.71.23-7.05l5,.21C122.41,402.79,122.33,405.12,122.28,407.42Zm614.42-.7c-.06-2.31-.14-4.64-.25-6.94l5-.23c.11,2.33.19,4.71.24,7.05ZM122.89,393.54l-5-.33c.15-2.33.34-4.7.54-7l5,.44C123.22,388.92,123,391.25,122.89,393.54Zm613.17-.69c-.16-2.31-.34-4.64-.55-6.93l5-.45c.21,2.33.4,4.69.56,7ZM124.12,379.71l-5-.55c.26-2.33.55-4.69.86-7l4.95.67C124.66,375.1,124.37,377.42,124.12,379.71ZM734.8,379c-.26-2.3-.55-4.62-.86-6.9l4.95-.67c.32,2.31.61,4.67.88,7ZM126,366l-4.94-.78c.36-2.31.76-4.65,1.17-7l4.92.89C126.71,361.37,126.32,363.67,126,366Zm606.95-.69c-.37-2.28-.76-4.58-1.17-6.85l4.91-.9c.42,2.3.83,4.64,1.2,7Zm-604.48-13-4.9-1c.47-2.29,1-4.61,1.49-6.9l4.87,1.11C129.39,347.74,128.9,350,128.44,352.28Zm602-.68c-.47-2.27-1-4.56-1.49-6.79l4.88-1.12c.52,2.27,1,4.59,1.5,6.89Zm-598.9-12.86-4.84-1.22c.56-2.25,1.17-4.55,1.8-6.82L133.3,332C132.68,334.27,132.08,336.53,131.52,338.74Zm595.78-.67c-.57-2.24-1.18-4.5-1.79-6.71l4.81-1.35c.63,2.26,1.24,4.55,1.82,6.82ZM135.23,325.36l-4.79-1.44c.68-2.26,1.39-4.53,2.12-6.76l4.75,1.55C136.6,320.9,135.89,323.14,135.23,325.36Zm588.33-.67c-.66-2.18-1.36-4.4-2.09-6.62l4.75-1.56c.74,2.25,1.46,4.51,2.13,6.73Zm-584-12.58-4.72-1.66c.78-2.21,1.6-4.45,2.43-6.65l4.68,1.76C141.12,307.73,140.32,309.93,139.55,312.11Zm579.68-.61c-.77-2.16-1.57-4.35-2.39-6.52l4.67-1.78c.84,2.21,1.66,4.44,2.43,6.63ZM144.47,299.08l-4.63-1.88c.88-2.19,1.8-4.39,2.72-6.53l4.6,2C146.25,294.76,145.34,296.92,144.47,299.08Zm569.82-.56c-.87-2.15-1.77-4.3-2.67-6.38l4.59-2c.91,2.12,1.83,4.3,2.72,6.49ZM150,286.29l-4.54-2.08c1-2.13,2-4.28,3-6.4L153,280C151.94,282.08,150.94,284.2,150,286.29Zm558.82-.47c-1-2.1-2-4.21-3-6.25l4.5-2.2c1,2.08,2,4.22,3,6.36ZM156.07,273.77l-4.45-2.29c1.07-2.09,2.19-4.19,3.31-6.25l4.39,2.39C158.22,269.64,157.12,271.71,156.07,273.77Zm546.65-.39c-1.05-2-2.14-4.1-3.24-6.12l4.39-2.39c1.12,2.05,2.23,4.14,3.3,6.21Zm-540-11.84-4.34-2.48c1.16-2,2.37-4.08,3.59-6.1l4.28,2.59C165,257.53,163.85,259.55,162.71,261.54Zm533.39-.33c-1.15-2-2.33-4-3.53-6l4.28-2.59c1.21,2,2.42,4,3.58,6.06ZM169.9,249.64,165.68,247c1.25-2,2.55-4,3.85-5.93l4.16,2.78C172.41,245.73,171.13,247.69,169.9,249.64Zm519-.28c-1.23-1.94-2.51-3.89-3.79-5.81l4.16-2.78c1.3,1.95,2.6,3.94,3.85,5.9ZM177.61,238.07l-4.09-2.87c1.34-1.92,2.73-3.85,4.12-5.74l4,3C180.3,234.28,178.94,236.18,177.61,238.07Zm503.6-.24c-1.32-1.88-2.68-3.77-4-5.63l4-3c1.39,1.88,2.77,3.81,4.12,5.72Zm-495.37-11-4-3.05c1.43-1.86,2.9-3.73,4.37-5.55l3.89,3.14C188.69,223.2,187.25,225,185.84,226.87ZM673,226.66c-1.4-1.81-2.84-3.65-4.29-5.45l3.89-3.14c1.47,1.83,2.94,3.69,4.36,5.54ZM194.56,216.05l-3.82-3.23c1.51-1.79,3.07-3.58,4.62-5.34l3.74,3.31C197.58,212.52,196.05,214.29,194.56,216.05Zm469.72-.18c-1.5-1.77-3-3.54-4.54-5.25l3.74-3.32c1.55,1.75,3.1,3.54,4.61,5.34ZM203.76,205.64l-3.67-3.4c1.59-1.72,3.22-3.44,4.84-5.13l3.6,3.48C206.93,202.25,205.32,203.94,203.76,205.64Zm451.32-.17c-1.57-1.7-3.18-3.39-4.77-5L653.9,197c1.62,1.67,3.25,3.4,4.85,5.12Zm-441.67-9.82-3.51-3.55c1.66-1.65,3.36-3.3,5.07-4.91l3.43,3.63C216.73,192.41,215.05,194,213.41,195.65Zm432-.16c-1.63-1.61-3.31-3.23-5-4.82l3.43-3.63c1.71,1.61,3.41,3.25,5.08,4.9ZM223.5,186.11l-3.36-3.71c1.74-1.56,3.51-3.13,5.29-4.67l3.27,3.79C227,183,225.2,184.57,223.5,186.11ZM635.33,186c-1.72-1.55-3.48-3.1-5.21-4.6l3.26-3.78c1.77,1.52,3.55,3.09,5.3,4.67ZM234,177l-3.18-3.86c1.8-1.49,3.65-3,5.48-4.42l3.1,3.92C237.59,174.11,235.77,175.57,234,177Zm390.81-.15c-1.79-1.48-3.61-2.95-5.41-4.36l3.09-3.93c1.83,1.44,3.68,2.93,5.5,4.43Zm-379.92-8.44-3-4c1.86-1.4,3.77-2.8,5.67-4.17l2.92,4.06C248.6,165.69,246.73,167.07,244.89,168.45Zm369-.16c-1.86-1.39-3.74-2.78-5.61-4.11l2.92-4.07c1.89,1.36,3.8,2.77,5.69,4.18Zm-357.73-7.93-2.82-4.13c1.92-1.31,3.9-2.63,5.86-3.91l2.72,4.19C260,157.77,258.06,159.06,256.16,160.36Zm346.43-.17c-1.92-1.3-3.86-2.6-5.79-3.85l2.73-4.19c2,1.27,3.93,2.59,5.88,3.91Zm-334.82-7.4-2.63-4.25c2-1.23,4-2.46,6-3.64l2.54,4.31C271.73,150.37,269.73,151.58,267.77,152.79Zm323.16-.18c-1.95-1.21-4-2.42-6-3.59l2.54-4.31c2,1.19,4.06,2.42,6,3.65Zm-311.22-6.86-2.44-4.36c2-1.14,4.12-2.27,6.18-3.37l2.35,4.42C283.77,143.52,281.72,144.63,279.71,145.75Zm299.23-.19c-2-1.13-4.09-2.24-6.12-3.32l2.34-4.42c2.06,1.09,4.15,2.23,6.21,3.38Zm-287-6.29-2.24-4.47c2.09-1.05,4.22-2.09,6.33-3.08l2.13,4.52C296.1,137.22,294,138.24,292,139.27Zm274.68-.21c-2.07-1-4.17-2.05-6.26-3l2.13-4.52c2.12,1,4.26,2,6.37,3.09Zm-262.17-5.71-2-4.57c2.13-1,4.3-1.89,6.45-2.79l1.93,4.61C308.7,131.48,306.56,132.41,304.46,133.35ZM554,133.13c-2.11-.94-4.26-1.86-6.39-2.75l1.92-4.62c2.17.91,4.36,1.85,6.5,2.8ZM317.22,128l-1.82-4.66c2.18-.85,4.4-1.7,6.6-2.5l1.72,4.69C321.55,126.33,319.37,127.15,317.22,128Zm224-.23c-2.15-.84-4.35-1.67-6.52-2.46l1.71-4.7c2.21.81,4.44,1.65,6.63,2.5Zm-210.93-4.55-1.61-4.74c2.22-.75,4.48-1.49,6.7-2.2l1.51,4.77C334.67,121.74,332.45,122.47,330.26,123.22ZM528.1,123c-2.18-.73-4.4-1.46-6.63-2.16l1.49-4.77c2.27.71,4.53,1.45,6.74,2.2Zm-184.6-4-1.39-4.81c2.25-.65,4.54-1.29,6.8-1.89l1.28,4.83C348,117.76,345.72,118.39,343.5,119Zm171.32-.2c-2.21-.64-4.46-1.26-6.69-1.85l1.27-4.83c2.27.6,4.56,1.23,6.81,1.88Zm-157.9-3.38-1.18-4.86c2.28-.55,4.59-1.08,6.88-1.58l1.07,4.88C361.44,114.4,359.16,114.92,356.92,115.46Zm144.47-.16c-2.23-.54-4.51-1.06-6.77-1.54l1.06-4.89c2.29.49,4.61,1,6.88,1.57Zm-130.9-2.8-1-4.91c2.3-.44,4.64-.87,7-1.27l.84,4.93C375.05,111.64,372.75,112.06,370.49,112.5Zm117.33-.13c-2.27-.44-4.57-.85-6.83-1.23l.83-4.93c2.3.38,4.63.8,6.94,1.25Zm-103.65-2.21-.73-5c2.31-.34,4.66-.66,7-.95l.61,5C388.76,109.51,386.45,109.82,384.17,110.16Zm90-.1c-2.29-.33-4.6-.64-6.88-.92l.6-5c2.32.29,4.68.6,7,.94ZM398,108.44l-.51-5c2.32-.24,4.68-.46,7-.64l.39,5C402.57,108,400.24,108.21,398,108.44Zm62.39-.07c-2.31-.23-4.64-.43-6.92-.61l.38-5c2.32.18,4.69.39,7,.62Zm-48.55-1-.28-5c2.34-.13,4.71-.24,7.05-.32l.17,5C416.44,107.11,414.1,107.21,411.8,107.34Zm34.7,0c-2.3-.12-4.64-.22-6.94-.3l.16-5c2.34.07,4.71.17,7,.3Zm-20.83-.43-.06-5c2.35,0,4.71,0,7.06,0l-.05,5C430.31,106.83,428,106.84,425.67,106.87Z" transform="translate(-77.05 -46.28)"/><rect class="be91cf33-5414-4e18-91b1-dfe2389ed825" x="294.68" y="461.49" width="94.51" height="185.52"/><path class="fde4d11a-3673-45a6-ad92-11063930ff49" d="M532.83,78.45a36.76,36.76,0,1,0,36.75,36.76A36.75,36.75,0,0,0,532.83,78.45Zm0,65.64a28.88,28.88,0,1,1,28.88-28.88A28.88,28.88,0,0,1,532.83,144.09Z" transform="translate(-77.05 -46.28)"/><polygon class="fde4d11a-3673-45a6-ad92-11063930ff49" points="464.97 36.99 448.35 36.99 451.41 23.86 461.04 23.86 464.97 36.99"/><polygon class="fde4d11a-3673-45a6-ad92-11063930ff49" points="486.85 78.12 486.85 61.49 499.98 64.56 499.98 74.18 486.85 78.12"/><polygon class="fde4d11a-3673-45a6-ad92-11063930ff49" points="486.52 52.23 474.09 41.19 485.1 33.41 492.29 39.81 486.52 52.23"/><polygon class="fde4d11a-3673-45a6-ad92-11063930ff49" points="439.67 38.16 427.21 49.16 420.81 37.3 428.03 30.93 439.67 38.16"/><polygon class="fde4d11a-3673-45a6-ad92-11063930ff49" points="445.28 100.87 461.91 100.87 458.85 114 449.22 114 445.28 100.87"/><polygon class="fde4d11a-3673-45a6-ad92-11063930ff49" points="423.41 59.74 423.41 76.37 410.28 73.31 410.28 63.68 423.41 59.74"/><polygon class="fde4d11a-3673-45a6-ad92-11063930ff49" points="425.39 85.47 435.94 98.32 423.85 104.28 417.75 96.84 425.39 85.47"/><polygon class="fde4d11a-3673-45a6-ad92-11063930ff49" points="474.29 99.09 484.97 86.35 493.07 97.13 486.88 104.51 474.29 99.09"/><path class="fde4d11a-3673-45a6-ad92-11063930ff49" d="M580.52,628.21A36.76,36.76,0,1,0,617.28,665,36.76,36.76,0,0,0,580.52,628.21Zm0,65.64A28.88,28.88,0,1,1,609.4,665,28.87,28.87,0,0,1,580.52,693.85Z" transform="translate(-77.05 -46.28)"/><polygon class="fde4d11a-3673-45a6-ad92-11063930ff49" points="512.67 586.75 496.04 586.75 499.1 573.62 508.73 573.62 512.67 586.75"/><polygon class="fde4d11a-3673-45a6-ad92-11063930ff49" points="534.54 627.88 534.54 611.25 547.67 614.32 547.67 623.94 534.54 627.88"/><polygon class="fde4d11a-3673-45a6-ad92-11063930ff49" points="534.21 601.99 521.78 590.95 532.79 583.17 539.99 589.57 534.21 601.99"/><polygon class="fde4d11a-3673-45a6-ad92-11063930ff49" points="487.36 587.92 474.9 598.92 468.51 587.05 475.72 580.69 487.36 587.92"/><polygon class="fde4d11a-3673-45a6-ad92-11063930ff49" points="492.98 650.63 509.6 650.63 506.54 663.76 496.92 663.76 492.98 650.63"/><polygon class="fde4d11a-3673-45a6-ad92-11063930ff49" points="471.1 609.5 471.1 626.13 457.97 623.07 457.97 613.44 471.1 609.5"/><polygon class="fde4d11a-3673-45a6-ad92-11063930ff49" points="473.08 635.23 483.63 648.08 471.55 654.04 465.44 646.6 473.08 635.23"/><polygon class="fde4d11a-3673-45a6-ad92-11063930ff49" points="521.99 648.85 532.67 636.11 540.76 646.89 534.58 654.27 521.99 648.85"/><rect class="a05a9e19-5b4b-4736-abb3-1f8c01867dd8" x="323.8" y="427.08" width="51.91" height="65.18"/><path class="bc71ffc1-b721-474d-b032-512bdb2707ed" d="M558.47,749.49s8.23-207.08-4.14-220.15c-6.31-6.67-69.93-19-69.93-19-1.25,1.66-14.76-4.41-23.59-8.55l-10.35,48.69-26.07-11.72L402.87,552.1l-9.65-49.25a30.38,30.38,0,0,1-12.32,5c-18.77,3.53-77.72,15.31-87.82,23.14-13.91,10.79-4.42,216.84-4.42,216.84Z" transform="translate(-77.05 -46.28)"/><polygon class="bbdf934a-1bbf-4802-85dc-f5649d707297" points="326.66 506.65 340.93 543.64 357.69 543.64 369.69 505.82 348.62 492.17 326.66 506.65"/><polygon class="bbdf934a-1bbf-4802-85dc-f5649d707297" points="340.93 540.07 331.62 686.66 351.07 698.66 373 685 356.87 539.77 340.93 540.07"/><polygon class="e805076e-f1c8-4c62-9731-34a544084703" points="307.21 454.92 313.41 514.51 349 492.58 323.76 444.17 307.21 454.92"/><polygon class="e805076e-f1c8-4c62-9731-34a544084703" points="392.04 454.92 385.83 514.51 348.59 492.58 375.49 444.17 392.04 454.92"/><path class="a05a9e19-5b4b-4736-abb3-1f8c01867dd8" d="M426.88,193v-.07c-.42,0-.83,0-1.24,0l-1.32,0-1.32,0c-.42,0-.83,0-1.24,0V193C351.48,195,310.18,255,310.18,325.74c0,101,27.31,122.49,58.76,147.32,24.55,19.38,26.41,15.64,52.82,15.86h5.12c26.41-.22,43.82-2.3,66.2-24.14,34.7-33.84,60.42-48,60.42-141.41A130.48,130.48,0,0,0,426.88,193Z" transform="translate(-77.05 -46.28)"/><path class="b4fc61e1-1ac2-4184-890a-c869e15f961e" d="M426.3,193v-.07c-.43,0-.86,0-1.3,0l-1.38,0c-.47,0-.92,0-1.39,0l-1.29,0V193c-100.46,2.84-107.4,63.26-107.4,63.26S278,268.64,304,325.74c2.23,4.91.08,10.4.23,15.22l20.58-5.29a185.55,185.55,0,0,0,16.48-31.45c6.94-17.38,11.28-24.82,11.28-24.82s60.72,21.51,99.75,22.34c34.31.73,87.61,42.21,87.61,42.21l18.34-.63c.48-6.22,4.21-9.65,4.21-16.75,0-28.87,9.69-49.57-6.94-71.18C531.39,224,469.91,194.18,426.3,193Z" transform="translate(-77.05 -46.28)"/><path class="e94e6d82-e257-456e-a8e6-a800e7fbeb1d" d="M567.78,407s5.86,27.39-30.36,47c-33.46,18.13-64.44,4-64.44,4" transform="translate(-77.05 -46.28)"/><path class="fde4d11a-3673-45a6-ad92-11063930ff49" d="M447,448c-2,4.83.64,10.23,5.92,12.07l16.79,5.85c5.28,1.83,11.18-.59,13.19-5.41h0c2-4.83-.63-10.23-5.91-12.07l-16.79-5.84c-5.28-1.84-11.18.58-13.2,5.4Z" transform="translate(-77.05 -46.28)"/><path class="a52934e5-c604-472e-aa54-75e0c82efc58" d="M307.93,345.32c0-60.77,55.39-110,123.72-110s123.73,49.27,123.73,110a98.94,98.94,0,0,1-7.79,38.46,97.77,97.77,0,0,0,16.47-53.91c0-61.55-59.09-111.44-132-111.44s-132,49.89-132,111.44A97.19,97.19,0,0,0,314.24,380,99.07,99.07,0,0,1,307.93,345.32Z" transform="translate(-77.05 -46.28)"/><path class="be91cf33-5414-4e18-91b1-dfe2389ed825" d="M551.55,334.12v80.23c19.08-.19,34.51-18.07,34.51-40.11S570.63,334.31,551.55,334.12Z" transform="translate(-77.05 -46.28)"/><path class="f68078ee-effc-4bfe-ab0e-4ef1caab6f57" d="M555.12,411.08c0,6.25-3.06,11.31-6.84,11.31h0c-3.77,0-6.84-5.06-6.84-11.31V337.39c0-6.25,3.07-11.31,6.84-11.31h0c3.78,0,6.84,5.06,6.84,11.31Z" transform="translate(-77.05 -46.28)"/><path class="be91cf33-5414-4e18-91b1-dfe2389ed825" d="M311.07,331.57V411.8c-19.08-.18-34.5-18.07-34.5-40.11S292,331.76,311.07,331.57Z" transform="translate(-77.05 -46.28)"/><path class="f68078ee-effc-4bfe-ab0e-4ef1caab6f57" d="M307.5,408.54c0,6.24,3.06,11.3,6.84,11.3h0c3.78,0,6.84-5.06,6.84-11.3v-73.7c0-6.25-3.06-11.31-6.84-11.31h0c-3.78,0-6.84,5.06-6.84,11.31Z" transform="translate(-77.05 -46.28)"/><path class="f68078ee-effc-4bfe-ab0e-4ef1caab6f57" d="M564.4,761.3c-.53,6.71-6.18,12.18-12.55,12.16l-254.91-.81c-6.38,0-12-5.52-12.45-12.23L273,597c-.47-6.71,4.35-12.2,10.73-12.2h283c6.38,0,11.16,5.48,10.63,12.19Z" transform="translate(-77.05 -46.28)"/><path class="be91cf33-5414-4e18-91b1-dfe2389ed825" d="M564.4,762.77a12.81,12.81,0,0,1-12.55,11.51l-254.91-.76a12.74,12.74,0,0,1-12.45-11.59L273,607.1a10.62,10.62,0,0,1,10.73-11.55h283a10.51,10.51,0,0,1,10.63,11.55Z" transform="translate(-77.05 -46.28)"/><path class="f68078ee-effc-4bfe-ab0e-4ef1caab6f57" d="M571.71,775.14c0,4.58-3.31,8.28-7.39,8.28H282.81c-4.08,0-7.39-3.7-7.39-8.28h0c0-4.57,3.31-8.27,7.39-8.27H564.32c4.08,0,7.39,3.7,7.39,8.27Z" transform="translate(-77.05 -46.28)"/><rect class="a78a5363-50b4-43d5-a4c1-c07f86ef2abf" y="272.1" width="155.81" height="91.89" rx="15.98"/><polygon class="a78a5363-50b4-43d5-a4c1-c07f86ef2abf" points="133.17 350.68 147.82 381.31 99.88 353.34 133.17 350.68"/><path class="bc71ffc1-b721-474d-b032-512bdb2707ed" d="M130.28,361a13.3,13.3,0,1,1-13.3-13.3A13.29,13.29,0,0,1,130.28,361Z" transform="translate(-77.05 -46.28)"/><path class="bc71ffc1-b721-474d-b032-512bdb2707ed" d="M169,361a13.3,13.3,0,1,1-13.3-13.3A13.29,13.29,0,0,1,169,361Z" transform="translate(-77.05 -46.28)"/><path class="bc71ffc1-b721-474d-b032-512bdb2707ed" d="M208.89,361a13.31,13.31,0,1,1-13.31-13.3A13.3,13.3,0,0,1,208.89,361Z" transform="translate(-77.05 -46.28)"/><path class="a78a5363-50b4-43d5-a4c1-c07f86ef2abf" d="M782,520a64.45,64.45,0,1,1-64.44-64.45A64.44,64.44,0,0,1,782,520Z" transform="translate(-77.05 -46.28)"/><text class="f8f8f40e-5e21-48a1-a4c9-23e6bb374826" transform="translate(607.29 513.42)">?</text><circle class="a78a5363-50b4-43d5-a4c1-c07f86ef2abf" cx="614.29" cy="165.7" r="64.43"/><path class="bc71ffc1-b721-474d-b032-512bdb2707ed" d="M655.4,176.34c-.26.34-.52.67-.76,1a17.1,17.1,0,1,0,28.44,19c.24-.36.45-.72.65-1.09Z" transform="translate(-77.05 -46.28)"/><path class="bc71ffc1-b721-474d-b032-512bdb2707ed" d="M706.36,214.56a10.8,10.8,0,0,0-.76,1,17.1,17.1,0,1,0,28.43,19c.24-.36.45-.73.66-1.1Z" transform="translate(-77.05 -46.28)"/><path class="bc71ffc1-b721-474d-b032-512bdb2707ed" d="M666,190.11s7.47,17.46,20.26,26.92,30.62,11.79,30.62,11.79l8.59,12.36s-22.31,9.06-45.26-7.49C652.74,213.92,652,189.2,652,189.2Z" transform="translate(-77.05 -46.28)"/><path class="bc71ffc1-b721-474d-b032-512bdb2707ed" d="M684,194.06a2.36,2.36,0,0,1,.61,3.28h0a2.35,2.35,0,0,1-3.3.44l-27-19.59a2.37,2.37,0,0,1-.61-3.28h0a2.37,2.37,0,0,1,3.31-.44Z" transform="translate(-77.05 -46.28)"/><path class="bc71ffc1-b721-474d-b032-512bdb2707ed" d="M735.3,231.23a2.36,2.36,0,0,1,.69,3.26h0a2.35,2.35,0,0,1-3.29.53l-27.54-18.89a2.36,2.36,0,0,1-.69-3.26h0a2.37,2.37,0,0,1,3.29-.53Z" transform="translate(-77.05 -46.28)"/><path class="a78a5363-50b4-43d5-a4c1-c07f86ef2abf" d="M246,600.53a64.45,64.45,0,1,1-64.44-64.45A64.45,64.45,0,0,1,246,600.53Z" transform="translate(-77.05 -46.28)"/><path class="bc71ffc1-b721-474d-b032-512bdb2707ed" d="M190.73,571.66a25.11,25.11,0,1,1-34.83-6.91A25.11,25.11,0,0,1,190.73,571.66Z" transform="translate(-77.05 -46.28)"/><path class="bc71ffc1-b721-474d-b032-512bdb2707ed" d="M209.26,637l-21.32-31.85-6.66,4.45,21.38,32,0,0a4,4,0,0,0,6.68-4.47A1.27,1.27,0,0,1,209.26,637Z" transform="translate(-77.05 -46.28)"/><path class="bc71ffc1-b721-474d-b032-512bdb2707ed" d="M189.67,603.7a2.54,2.54,0,0,1-.69,3.52l-6.89,4.61a2.54,2.54,0,0,1-3.51-.7h0a2.54,2.54,0,0,1,.69-3.52l6.88-4.61a2.54,2.54,0,0,1,3.52.7Z" transform="translate(-77.05 -46.28)"/><path class="a52934e5-c604-472e-aa54-75e0c82efc58" d="M185,575.52a18.16,18.16,0,1,1-25.2-5A18.17,18.17,0,0,1,185,575.52Z" transform="translate(-77.05 -46.28)"/><path class="e805076e-f1c8-4c62-9731-34a544084703" d="M447.4,713.46a18.16,18.16,0,0,1-8.24,3.76,30,30,0,0,1-8.51.31,55.53,55.53,0,0,1-6.53-1.07c-2.27-.49-4.53-1.06-6.79-1.57q-5.59-1.29-11.2-2.56l-.51-.12-2.26-.5-.95,4.08a6,6,0,0,0,.8,4.67,6.24,6.24,0,0,0,3.88,2.8l33,7.56a5.94,5.94,0,0,0,4.67-.8,6.19,6.19,0,0,0,2.8-3.87l4.19-18.22A17.78,17.78,0,0,1,447.4,713.46Z" transform="translate(-77.05 -46.28)"/><path class="bc71ffc1-b721-474d-b032-512bdb2707ed" d="M458.58,672.32a14.89,14.89,0,0,0-1.93-5.51l-10.74-17.17a6.33,6.33,0,0,0-8.59-2L420.15,658.4a15.08,15.08,0,0,0-4.14,4.12,14.56,14.56,0,0,0-2.51,5.27L404.67,706l2.23.5q5.49,1.23,11,2.5c5,1.15,10.06,2.58,15.23,2.78,3.25.12,6.7-.26,9.5-2.06a13.14,13.14,0,0,0,5.13-7.26v-.05c1.35-4.19,1.11-7.92-.7-11.07-2.13-3.73-6.46-6.56-11.88-7.77l1.28-5.7c7,1.57,12.72,5.42,15.67,10.57a17.68,17.68,0,0,1,2.28,7.83l4.15-18.09A15.19,15.19,0,0,0,458.58,672.32Zm-23.84,27.6-1.24,5.52-4.68-1.05-1.26,5.06L422,708.21l1.26-5.05-1.65-.37-13-2.91,1.21-5.42,17.17-15.77-1.94,8.66-9.28,8.34,7.06,1.58,1.65.37,4.76-21.27,5.52,1.24-4.76,21.26Zm7.49-33a4.68,4.68,0,1,1-.59-3.54A4.52,4.52,0,0,1,442.23,666.88Z" transform="translate(-77.05 -46.28)"/><path class="a78a5363-50b4-43d5-a4c1-c07f86ef2abf" d="M331.92,141.9a75.2,75.2,0,1,0-46.77,69.6l23,18.28-6-28A75.05,75.05,0,0,0,331.92,141.9Z" transform="translate(-77.05 -46.28)"/></g></svg>