<svg version="1.1" id="&#x5716;&#x5C64;_1" xmlns="http://www.w3.org/2000/svg" x="0" y="0" viewBox="0 0 100 100" xml:space="preserve" enable-background="new 0 0 100 100"><title>bottom_02</title><g class="nc-icon-wrapper" fill="#ffffff"><path d="M47.95 97.04c-8.48.9-16.16-1.35-23.43-5.36-2.33-1.28-2.44-1.8-.61-3.6 2.55-2.51 5.16-4.95 7.69-7.48.98-.98 1.92-.75 3-.27 6.92 3.06 14.06 3.42 21.4 1.83 11.39-2.47 21.21-13.18 23.6-24.55 3.13-14.9-5.91-32.18-23.46-36.75-6.49-1.69-12.94-1.37-19.27.92-2.03.74-2.08 1.05-.47 2.56 1.15 1.08 2.39 2.08 3.47 3.23 1.24 1.31.94 2.16-.76 2.59L6.34 38.47c-1.75.45-2.4-.26-1.85-2.33.79-2.99 1.75-5.94 2.6-8.91 2.03-7.15 4.04-14.3 6.06-21.46.15-.53.33-1.05.51-1.57.48-1.4 1.18-1.54 2.21-.45 1.66 1.74 3.44 3.38 5.05 5.16 1.1 1.22 2 1.34 3.53.55 17.54-9.12 34.7-8.31 51.14 2.63 10.03 6.67 16.61 16.16 19.12 27.93 4.67 21.86-4.99 41.54-23.86 51.9-7.15 3.91-14.74 6.04-22.9 5.12z"/><path d="M44.81 45.66c0-3.51.04-7.01-.02-10.52-.02-1.72.55-2.8 2.42-2.85 1.84-.04 2.61.74 2.62 2.84.02 5.29 0 10.59.01 15.88.01 2.5.18 2.66 2.73 2.67 3.98.01 7.97-.01 11.95.01 2.38.01 3 .59 3.01 2.63.01 2.02-.66 2.69-2.99 2.7-5.63.04-11.26.04-16.9-.01-2.24-.02-2.81-.64-2.83-2.85-.02-3.49 0-6.99 0-10.5z"/></g></svg>