<svg version="1.1" id="&#x5716;&#x5C64;_1" xmlns="http://www.w3.org/2000/svg" x="0" y="0" viewBox="0 0 100 100" xml:space="preserve" enable-background="new 0 0 100 100"><title>bottom_01</title><g class="nc-icon-wrapper" fill="#000000"><path d="M32.77 12.81h25.84c2.92 0 3.74.81 3.75 3.7.01 4.39.05 8.79-.02 13.18-.03 1.52.5 1.99 1.99 1.99 9-.05 18-.03 26.99-.02.71 0 1.43.01 2.13.13 1.43.25 2.24 1.09 2.24 2.6 0 11.37.01 22.74-.02 34.1 0 1.78-.97 2.61-3.05 2.68-2.3.08-4.61.09-6.91.01-1.45-.05-1.96.48-1.88 1.91.09 1.64.03 3.29.02 4.94-.01 1.31.18 2.71-1.26 3.49-1.47.79-2.63-.07-3.79-.81-4.49-2.85-9-5.69-13.47-8.58-1.01-.66-2.03-.95-3.24-.95-5.54.04-11.08.02-16.62.01-3.47-.01-4.25-.81-4.26-4.29 0-3.57-.04-7.14.02-10.71.02-1.27-.41-1.67-1.7-1.74-2.83-.16-5.29.4-7.69 2.1-3.98 2.82-8.21 5.29-12.33 7.9-1 .63-2 1.2-3.21.54-1.25-.68-1.45-1.82-1.44-3.09.02-1.81-.07-3.63.03-5.44.08-1.46-.35-2.1-1.93-2.01-2.19.12-4.39.04-6.58.03-2.48-.01-3.35-.87-3.36-3.39C3 41.05 3.01 31 3.01 20.95c0-1.59-.02-3.19.01-4.78.03-2.46.93-3.36 3.42-3.36 8.77-.01 17.55 0 26.33 0zM19.93 58.23c4.21-2.67 8.06-5.08 11.87-7.56 1.29-.84 2.61-1.26 4.16-1.24 6.52.05 13.05-.01 19.57.04 1.35.01 1.81-.44 1.8-1.81-.05-9.33-.04-18.66-.01-27.99 0-1.18-.22-1.82-1.61-1.81-15.35.04-30.71.03-46.06 0-1.24 0-1.6.48-1.59 1.66.03 9.44.03 18.88 0 28.32 0 1.24.47 1.64 1.66 1.61 2.36-.05 4.72-.04 7.07 0 2.18.04 3.09.97 3.13 3.14.03 1.75.01 3.49.01 5.64zm70.72-6.86c0-4.23-.05-8.45.03-12.68.02-1.47-.39-2.02-1.95-2.01-8.17.07-16.34.06-24.51 0-1.46-.01-1.9.48-1.88 1.9.07 4.17.04 8.34.02 12.52-.01 2.52-.88 3.38-3.36 3.39-3.73.01-7.46.03-11.19-.01-1.14-.01-1.56.39-1.54 1.53.05 2.63.09 5.27-.01 7.9-.06 1.58.47 2.11 2.06 2.09 4.82-.08 9.65-.01 14.48-.04 1.53-.01 2.88.38 4.17 1.23 3.48 2.29 7.03 4.48 10.53 6.74.91.59 1.36.63 1.31-.65-.05-1.21-.03-2.42 0-3.62.06-2.66.88-3.55 3.56-3.65 2.14-.08 4.28-.09 6.41-.01 1.45.05 1.91-.54 1.89-1.94-.06-4.24-.02-8.46-.02-12.69z"/></g></svg>