<svg version="1.1" id="&#x5716;&#x5C64;_1" xmlns="http://www.w3.org/2000/svg" x="0" y="0" viewBox="0 0 100 100" xml:space="preserve" enable-background="new 0 0 100 100"><title>bottom_03</title><g class="nc-icon-wrapper" fill="#ffffff"><path d="M49.57 88.41H4.18c-2.66 0-2.67-.01-2.67-2.67V12.35c0-2.66.01-2.67 2.67-2.67h90.77c2.66 0 2.67.01 2.67 2.67v73.39c0 2.66-.01 2.67-2.67 2.67H49.57zm.03-73.13c-12.41 0-24.83 0-37.24.01-.56 0-1.35-.25-1.63.28-.38.72.47 1.1.86 1.54 8.89 9.93 17.78 19.85 26.69 29.75 2.51 2.79 5 5.6 7.67 8.23 2.38 2.35 4.73 2.27 7.21.05.82-.73 1.58-1.54 2.31-2.35 10.69-11.87 21.37-23.75 32.04-35.64.4-.45 1.26-.84.92-1.53-.31-.63-1.18-.33-1.79-.33-12.35-.01-24.69-.01-37.04-.01zm0 67.54c12.41 0 24.82 0 37.23-.01.55 0 1.26.25 1.62-.32.3-.48-.26-.8-.54-1.11-8.16-9.09-16.35-18.17-24.49-27.28-.95-1.06-1.52-.97-2.42.07-2.19 2.55-4.43 5.07-7.17 7.07-2.94 2.13-5.64 2.11-8.57-.04-2.52-1.85-4.57-4.19-6.67-6.48-1.74-1.9-1.71-1.91-3.43 0-7.81 8.71-15.64 17.42-23.45 26.14-.42.47-1.26.91-1.05 1.51.28.82 1.24.44 1.9.44 12.35.01 24.7.01 37.04.01zM6.62 19.15v59.86C15.4 69.22 23.93 59.69 32.5 50.2c.89-.99.64-1.57-.13-2.42-5.11-5.66-10.17-11.36-15.27-17.03-3.43-3.82-6.89-7.63-10.48-11.6zm85.98.15c-.28.18-.45.25-.57.38-8.47 9.42-16.92 18.85-25.41 28.24-.91 1.01-.58 1.59.17 2.42 6.45 7.15 12.86 14.33 19.29 21.5 2.09 2.33 4.2 4.64 6.52 7.19V19.3z"/></g></svg>