<svg version="1.1" id="&#x5716;&#x5C64;_1" xmlns="http://www.w3.org/2000/svg" x="0" y="0" viewBox="0 0 141.73 141.73" xml:space="preserve" enable-background="new 0 0 141.73 141.73"><title>index_02</title><g class="nc-icon-wrapper" fill="#d57a66"><path d="M141.57 71.81c-1.86-5.32-3.73-10.63-5.58-15.95a3.52 3.52 0 0 1-.18-1.06c-.03-.88-.01-1.75-.01-2.63 0-2.22-1.45-3.68-3.66-3.68H63.79c-2.07 0-3.56 1.48-3.57 3.55 0 .88.03 1.75-.01 2.63-.03.54-.1 1.09-.28 1.59-1.82 5.24-3.66 10.46-5.48 15.7-.14.39-.17.87-.09 1.27.38 1.82 1.64 2.75 3.5 2.68.88-.03 1.66-.32 2.39-1.02v38.48c0 2.23 1.44 3.67 3.66 3.67H108.32V86.22h17.18v30.81h7.28c.07 0 .14-.02.21-.04 1.7-.36 2.79-1.73 2.79-3.56V75.64v-.74c1.12.89 1.89 1.1 3.2.95 1.95-.21 3.23-2.22 2.59-4.04zm-64.55.78c.16-1.68.55-3.34.84-5.01.48-2.77.96-5.53 1.45-8.29.03-.16.07-.31.11-.48h8.04c-.07.99-.13 1.95-.2 2.9l-.81 10.64c-.04.54-.03 1.1-.15 1.63-.55 2.38-2.83 3.95-5.2 3.61-2.47-.35-4.32-2.53-4.08-5zm-11.66 4.58c-2.22-.18-4.08-2.1-4.22-4.39-.01-.18.02-.37.06-.54 1.22-4.39 2.45-8.78 3.68-13.17.02-.09.06-.17.1-.28h8.33c-.22 1.1-.42 2.17-.64 3.24-.67 3.34-1.35 6.68-2.02 10.03-.1.5-.11 1.02-.23 1.51-.54 2.32-2.64 3.8-5.06 3.6zm32.63 29.57H70.61V86.23h27.38v20.51zm1.72-29.43c-3.04 1.16-6.35-1.03-6.39-4.29-.02-2.15.07-4.3.12-6.45.06-2.42.12-4.85.19-7.27 0-.14.02-.29.03-.49h8.83c0 1.11-.02 2.19 0 3.28.07 3.5.17 7 .24 10.5.05 2.25-1.08 3.98-3.02 4.72zm15.16.29c-2.68.3-5.09-1.76-5.25-4.41-.21-3.42-.48-6.84-.73-10.27-.1-1.36-.2-2.72-.3-4.12h8.05c.17.92.34 1.86.51 2.81.61 3.5 1.22 7.01 1.84 10.51.47 2.62-1.46 5.19-4.12 5.48zm15.74.01c-2.8.19-5.01-1.9-5.15-4.71-.06-1.32-.42-2.62-.68-3.92-.66-3.32-1.33-6.65-2-9.97-.01-.05 0-.11 0-.22h8.03c.3.98.6 1.96.9 2.95 1 3.33 2 6.67 2.99 10 .83 2.77-1.19 5.67-4.09 5.87z"/><path d="M60.27 41.41c.01.38.04.77.14 1.13.44 1.6 1.77 2.52 3.6 2.52H132.44c1.67-.08 3.08-1.2 3.26-2.85.16-1.51.17-3.07 0-4.58-.19-1.78-1.67-2.85-3.57-2.85H98.02c-11.31 0-22.63.03-33.94-.02-2.12-.01-3.95 1.47-3.83 3.87.05.92 0 1.85.02 2.78z"/><path d="M52.99 77.64c-.08-.22-.11-.46-.12-.69-.02-.56 0-1.13-.01-1.69 0-1.43-.93-2.37-2.35-2.37H6.5c-1.34 0-2.29.96-2.3 2.29 0 .56.02 1.13-.01 1.69-.02.35-.07.7-.18 1.03-1.17 3.37-2.36 6.74-3.53 10.11-.09.25-.11.56-.06.82C.68 90 1.49 90.6 2.7 90.56c.57-.02 1.07-.2 1.54-.65v24.78c0 1.44.93 2.37 2.35 2.37h28.6V97.21h11.06v19.84h4.69c.05 0 .09-.02.14-.02 1.1-.23 1.8-1.12 1.8-2.29V90.41v-.47c.72.57 1.22.71 2.06.61 1.25-.15 2.07-1.44 1.66-2.62-1.21-3.44-2.41-6.86-3.61-10.29zM15.03 88.42c.11-1.08.35-2.15.54-3.23l.93-5.34c.02-.1.05-.2.07-.31h5.18c-.04.64-.08 1.25-.13 1.87-.17 2.28-.35 4.57-.52 6.85-.03.35-.02.71-.1 1.05-.35 1.53-1.82 2.54-3.35 2.33-1.59-.23-2.78-1.63-2.62-3.22zm-7.51 2.95c-1.43-.11-2.63-1.36-2.72-2.83-.01-.11.01-.24.04-.35l2.37-8.48c.02-.06.04-.11.06-.18h5.36c-.14.71-.27 1.4-.41 2.08-.43 2.15-.87 4.3-1.3 6.46-.06.32-.07.66-.14.97-.35 1.5-1.7 2.46-3.26 2.33zm21.01 19.04H10.9V97.2h17.63v13.21zm1.11-18.95c-1.96.75-4.09-.66-4.11-2.76-.02-1.38.05-2.77.08-4.16l.12-4.68c0-.09.01-.19.02-.32h5.69c0 .71-.01 1.41 0 2.11.05 2.25.11 4.51.15 6.76.02 1.46-.7 2.57-1.95 3.05zm9.76.19c-1.73.19-3.28-1.13-3.38-2.84-.14-2.2-.31-4.41-.47-6.61-.06-.88-.13-1.75-.19-2.65h5.19c.11.59.22 1.2.33 1.81.4 2.26.78 4.51 1.18 6.77.3 1.67-.95 3.33-2.66 3.52zm10.14 0c-1.81.12-3.23-1.23-3.31-3.03-.04-.85-.27-1.69-.44-2.53-.42-2.14-.86-4.28-1.29-6.42-.01-.03 0-.07 0-.14h5.17c.19.63.39 1.26.58 1.9.64 2.15 1.29 4.29 1.93 6.44.53 1.79-.78 3.66-2.64 3.78z"/><path d="M4.24 68.34c0 .24.02.5.09.73.29 1.03 1.14 1.62 2.32 1.62h44.07c1.07-.05 1.99-.77 2.1-1.83.1-.97.11-1.98 0-2.95-.12-1.15-1.08-1.84-2.3-1.84H28.55c-7.29 0-14.57.02-21.86-.02-1.36 0-2.54.95-2.46 2.49.03.6 0 1.2.01 1.8z"/></g></svg>