<svg version="1.1" id="&#x5716;&#x5C64;_1" xmlns="http://www.w3.org/2000/svg" x="0" y="0" viewBox="0 0 300 300" xml:space="preserve" enable-background="new 0 0 300 300"><title>question_01</title><g class="nc-icon-wrapper" fill="#d57a66"><path d="M271.58 56.42L158.79 10.58c-5.28-1.76-10.6-1.76-15.85 0L28.43 56.42c-7.04 1.76-12.33 10.6-12.33 17.61v133.92c0 7.04 3.52 14.09 10.6 17.61l114.52 61.66c1.76 3.52 5.28 3.52 8.84 3.52 3.52 0 7.04 0 8.8-1.76l114.55-61.66c7.04-3.52 10.6-10.6 10.6-17.61V74.03c-.1-7.07-5.39-15.85-12.43-17.61zM148.26 22.94h3.52l24.65 8.84L67.2 82.84 39 66.99c-.01 0 109.26-44.05 109.26-44.05zm-5.28 251.92l-111.03-59.9c-1.76 0-3.52-3.52-3.52-5.28V75.79L58.4 91.64v52.86c0 1.76 1.76 3.52 3.52 5.28l35.25 17.61c5.28 3.52 10.6 0 10.6-5.28v-44.05l35.25 17.61-.04 139.19zm7.04-149.73l-33.49-17.61L225.77 52.9l35.22 14.09-110.97 58.14zm119.8 84.55c0 1.76-1.76 3.52-3.52 5.28l-111.03 58.17V135.69l114.55-59.9v133.89z"/></g></svg>