<svg version="1.1" id="&#x5716;&#x5C64;_1" xmlns="http://www.w3.org/2000/svg" x="0" y="0" viewBox="0 0 300 300" xml:space="preserve" enable-background="new 0 0 300 300"><title>question_03</title><g class="nc-icon-wrapper" fill="#d57a66"><path d="M282.42 65.23c1.94 8.2 4.1 14.87 5.04 21.72 6.53 47.97-20.51 90.69-66.32 105.07-14.92 4.68-30.1 5.32-45.18 1.17-4.85-1.33-7.67-.12-10.99 3.21-25.24 25.34-50.24 50.93-76.15 75.58-21.77 20.71-52.94 17.14-69.26-6.78-10.95-16.05-9.32-38.55 5.06-54.8 10.43-11.79 21.95-22.61 33.07-33.79 15.1-15.18 30.35-30.2 45.29-45.54 1.52-1.56 2.35-5.09 1.76-7.22C90.81 73.92 127.95 10.8 194.84 9.82c14.93-.22 25.98 1.52 36.59 6.22-1.84 1.98-3.44 3.8-5.15 5.52-12.28 12.35-24.65 24.61-36.87 37.02-15.89 16.14-15.76 29.16.21 44.76 2.69 2.63 5.26 5.39 7.95 8.03 11.21 11.01 23.71 12.05 35.95 2.01 7.79-6.4 14.7-13.88 21.89-21 8.67-8.58 17.22-17.29 27.01-27.15zM76.27 237.15c.2-8.07-6.81-15.39-14.96-15.63-8.06-.24-15.39 6.62-15.83 14.82-.43 8.14 7.19 16.12 15.37 16.11 8.18 0 15.22-7 15.42-15.3z"/></g></svg>