<svg version="1.1" id="&#x5716;&#x5C64;_1" xmlns="http://www.w3.org/2000/svg" x="0" y="0" viewBox="0 0 24 24" xml:space="preserve" enable-background="new 0 0 24 24"><title>title_03</title><g class="nc-icon-wrapper" fill="#000000"><path d="M22.63 10.4C22.63 4.66 17.79 0 11.82 0S1 4.66 1 10.4c0 5.61 4.62 10.18 10.4 10.39.6 1.34 1.62 2.82 3.26 3.21 0 0-1.39-1.42-1.54-3.28 5.36-.62 9.51-5 9.51-10.32zm-9.84 7.76h-1.93v-2.04h1.93v2.04zm3.53-9.97c-.23.48-.72 1.08-1.47 1.8s-1.24 1.23-1.49 1.53c-.24.3-.43.67-.56 1.09-.13.42-.18.99-.17 1.7H10.9c0-.83.07-1.49.2-1.99s.3-.93.49-1.3.64-.91 1.33-1.63c.7-.72 1.2-1.24 1.5-1.57.3-.33.46-.83.46-1.5s-.25-1.27-.76-1.79c-.5-.52-1.24-.78-2.22-.78-2.16 0-3.24 1.22-3.24 3.67H6.97c.03-1.06.16-1.87.38-2.43.22-.55.58-1.05 1.07-1.49a4.77 4.77 0 0 1 1.63-.97c.6-.21 1.23-.31 1.9-.31 1.35 0 2.47.4 3.37 1.19.9.79 1.34 1.85 1.34 3.17 0 .59-.11 1.13-.34 1.61z"/></g></svg>