<svg xmlns="http://www.w3.org/2000/svg" viewBox="0 0 484.74 409.83"><defs><style>.a3f8e30c-d125-481c-a5e5-4a18bc289fab{isolation:isolate;}.b07a3ff6-edf2-4c5c-b4e7-36441a5e19a3{fill:#e9f4f8;}.aeb1f8b0-e7b5-4595-95d5-2e91c3b48ae4{fill:#f1f1f1;}.b1dca86f-08f7-44de-82c9-49578a9d585f{fill:#bbc0c1;}.a3eba762-0221-449a-8a63-a984e9a69b80{fill:#cee7f0;}.b0d7156c-8028-40e8-b441-a72bf115d87a{fill:#aed7d6;}.e14dad2f-9c6e-4438-843b-05dd80400126{fill:#94cacf;}.f17f8984-7b52-4cdf-ae18-42e370673df0{fill:#eaeff0;}.e82ff8d7-ccf4-44f8-8556-205bcf2d51c0{fill:#d4d4d4;}.b601e69d-43eb-476f-944b-e3996d2e24e3{fill:#524c63;}.ad96652f-be0c-41f6-945d-34a6d60eee1c{fill:#90c7ca;}.a4e200a0-50d8-48fa-b5d5-d3c9c244c35f,.b3d9c453-9763-40ea-95ed-d73f47f171d1{fill:#e3e3e3;}.eccb86d4-83a9-4df2-acd7-546f32c611c4{fill:#3e6183;opacity:0.25;}.a4e200a0-50d8-48fa-b5d5-d3c9c244c35f,.b1b6996a-cc0f-4de0-bee7-87971d70110b,.eccb86d4-83a9-4df2-acd7-546f32c611c4{mix-blend-mode:multiply;}.a8de99f0-b76f-4c3a-989d-e235fd77e5d2{fill:#cacaca;}.b25d2a3f-0738-435a-a31e-a40c40cbbc7c{fill:#549489;}.a974dca9-c213-4c7a-8bbf-efa1bb33fe9a{fill:#8dc1ce;}.f506ee4c-41f8-4704-92d9-5c521925a411{fill:#e8a334;}.ff4d7c1d-4a11-4d1e-b160-cfbcca2ad56c{fill:#fff;}.b1b6996a-cc0f-4de0-bee7-87971d70110b{fill:#7c8291;opacity:0.42;}.a4e200a0-50d8-48fa-b5d5-d3c9c244c35f{opacity:0.88;}.bb284eeb-9546-4a72-9f8b-28a87595ce80{fill:#625b77;}.f5c854ce-424b-4418-9fba-f2fb2cb46f96{fill:#e27f1e;}.ac8cf75f-2b8f-4a33-90a8-123528966f36{fill:#81b8bc;}.fa7e55d3-3120-49db-982b-44e8d256e01a{fill:#de754d;}.b3a4f96d-6bdf-4e05-a197-4e7dea0031db{fill:#b0b0b0;}.a6a2fcd0-6fe2-4fec-8222-24492c412e07{fill:#88b8b9;}.f6b80abb-8ccb-4450-bc58-42c95f318a58{fill:#46777e;}.a53a4d09-e701-4f0c-8f29-8f3a2497c3fe{fill:#d5d5dc;}.f3a470bd-2083-4c79-9c02-b99a05be35b9{fill:#89c4da;}.bc950136-9a44-434b-a592-9c900aacbd7e{fill:#f7e439;}.b3785eca-76a2-4b17-82e8-7c8bad713e98{fill:#d8d8de;}.a168e351-3f75-4dba-877f-f9e6d3406214{fill:#c2c2c7;}.a7f8ab08-fccc-405e-a639-95c9c815adb1{fill:#b9b9bd;}.f6391afc-1338-44a0-9dad-c54b72b88b3f{fill:#b79f2d;}.a8c56312-d120-4f77-a972-84b11c51f3ea{fill:#f5f042;}.bb658393-1dd0-442b-9003-dda808276e62{fill:#f7ef3e;}.b45926b4-d1e1-481b-aad9-0d0629fddbfb{fill:#d7c834;}.a9317f4c-76af-41b9-b852-8ce0167c97cf{fill:#f7f33f;}.b8a8511c-9457-4750-8766-a5c289ccbfd5{fill:#c16743;}</style></defs><g class="a3f8e30c-d125-481c-a5e5-4a18bc289fab"><g id="a36a0d09-0805-44bc-9583-af1504620f47" data-name="groups"><g id="f86db591-9344-4d0d-8187-3041ae01bca7" data-name="group03"><path class="b07a3ff6-edf2-4c5c-b4e7-36441a5e19a3" d="M95.06,192.78a6.16,6.16,0,0,1,4.46-5.93,22.43,22.43,0,0,0-2.26-5.41,6.15,6.15,0,0,1-7.29-1l0,0-.05-.06h0c-.19-.19-.4-.38-.58-.57.15.15.33.3.49.47a6.13,6.13,0,0,1-.89-7.16,22.33,22.33,0,0,0-5.4-2.25,6.17,6.17,0,0,1-11.85,0,22.57,22.57,0,0,0-5.41,2.25,6.12,6.12,0,0,1-.94,7.22l.5-.48c-.19.2-.4.39-.59.58l-.1.1a6.15,6.15,0,0,1-7.23.94,22.43,22.43,0,0,0-2.26,5.41,6.16,6.16,0,0,1,0,11.84,22.43,22.43,0,0,0,2.26,5.41,6.15,6.15,0,0,1,7.27,1s0,0,0,.06,0,0,0,0a6.14,6.14,0,0,1,1,7.29,22.57,22.57,0,0,0,5.41,2.25,6.19,6.19,0,0,1,5.69-4.45h.47a6.17,6.17,0,0,1,5.69,4.45,22.33,22.33,0,0,0,5.4-2.25,6.17,6.17,0,0,1,1-7.24s0,0,0,0l.13-.13a6.15,6.15,0,0,1,7.26-1,22.83,22.83,0,0,0,2.26-5.41A6.15,6.15,0,0,1,95.06,192.78Zm-17.5,8.08a8.09,8.09,0,1,1,8.09-8.08A8.08,8.08,0,0,1,77.56,200.86Z" transform="translate(-27.69 -52.47)"/><path class="aeb1f8b0-e7b5-4595-95d5-2e91c3b48ae4" d="M77.56,184.69a8.09,8.09,0,1,0,8.09,8.09A8.08,8.08,0,0,0,77.56,184.69Zm0,14.25a6.16,6.16,0,1,1,6.17-6.16A6.16,6.16,0,0,1,77.56,198.94Z" transform="translate(-27.69 -52.47)"/><path class="b1dca86f-08f7-44de-82c9-49578a9d585f" d="M89.78,180.24c-.16-.17-.34-.32-.49-.47.18.19.39.38.58.57A.45.45,0,0,0,89.78,180.24Zm-12.45,30h0Zm-12-30a.3.3,0,0,0-.09.1c.19-.19.4-.38.59-.58Zm-.1.1s-.08.07-.09.1l.1-.1Z" transform="translate(-27.69 -52.47)"/><path class="a3eba762-0221-449a-8a63-a984e9a69b80" d="M90,180.44l0,0-.05-.06a17.49,17.49,0,0,0-24.74,24.74l0,0,0,0a17.49,17.49,0,0,0,24.63,0v0l.06-.06a.34.34,0,0,0,.06-.06h0a17.52,17.52,0,0,0,0-24.63ZM77.56,205.59a12.82,12.82,0,1,1,12.82-12.81A12.82,12.82,0,0,1,77.56,205.59Z" transform="translate(-27.69 -52.47)"/><path class="a3eba762-0221-449a-8a63-a984e9a69b80" d="M77.56,184.69a8.09,8.09,0,1,0,8.09,8.09A8.08,8.08,0,0,0,77.56,184.69Zm0,14.25a6.16,6.16,0,1,1,6.17-6.16A6.16,6.16,0,0,1,77.56,198.94Z" transform="translate(-27.69 -52.47)"/><path class="b0d7156c-8028-40e8-b441-a72bf115d87a" d="M110.78,256.81a11.64,11.64,0,0,1,8.42-11.2A42.42,42.42,0,0,0,115,235.39a11.65,11.65,0,0,1-13.78-1.89l-.09-.08a.41.41,0,0,1-.08-.12h0l-1.11-1.08c.3.28.64.58.94.89a11.59,11.59,0,0,1-1.69-13.53,41.88,41.88,0,0,0-10.2-4.25,11.65,11.65,0,0,1-22.39,0,42.52,42.52,0,0,0-10.22,4.25,11.55,11.55,0,0,1-1.78,13.64c.31-.3.64-.61.95-.89l-1.12,1.09-.19.19a11.65,11.65,0,0,1-13.67,1.78,42.42,42.42,0,0,0-4.25,10.22,11.63,11.63,0,0,1,0,22.36,42.32,42.32,0,0,0,4.25,10.23,11.65,11.65,0,0,1,13.75,1.86.76.76,0,0,1,.08.11s.06,0,.09.06A11.62,11.62,0,0,1,56.3,294a43.34,43.34,0,0,0,10.22,4.25,11.72,11.72,0,0,1,10.75-8.42h.89a11.71,11.71,0,0,1,10.75,8.42A42.68,42.68,0,0,0,99.11,294a11.69,11.69,0,0,1,1.83-13.7s0,0,0,0l.25-.26A11.66,11.66,0,0,1,115,278.2,43.55,43.55,0,0,0,119.2,268,11.61,11.61,0,0,1,110.78,256.81ZM77.72,272.09A15.28,15.28,0,1,1,93,256.81,15.29,15.29,0,0,1,77.72,272.09Z" transform="translate(-27.69 -52.47)"/><path class="aeb1f8b0-e7b5-4595-95d5-2e91c3b48ae4" d="M77.72,241.53A15.28,15.28,0,1,0,93,256.81,15.27,15.27,0,0,0,77.72,241.53Zm0,26.92a11.65,11.65,0,1,1,11.64-11.64A11.64,11.64,0,0,1,77.72,268.45Z" transform="translate(-27.69 -52.47)"/><path class="b1dca86f-08f7-44de-82c9-49578a9d585f" d="M100.8,233.11c-.3-.31-.64-.61-.94-.89L101,233.3A1,1,0,0,0,100.8,233.11ZM77.27,289.84a2.27,2.27,0,0,0,.45,0,2.17,2.17,0,0,0,.44,0ZM54.52,233.22a.88.88,0,0,0-.17.2l1.12-1.09C55.16,232.61,54.83,232.92,54.52,233.22Zm-.2.2a1,1,0,0,0-.16.19l.19-.19Z" transform="translate(-27.69 -52.47)"/><path class="e14dad2f-9c6e-4438-843b-05dd80400126" d="M101.16,233.5l-.07-.07-.1-.11a33.06,33.06,0,0,0-46.75,46.76l.1.09.07.07a33.05,33.05,0,0,0,46.55.07l0,0,.11-.11.11-.1,0,0a33.06,33.06,0,0,0-.07-46.54ZM77.72,281a24.21,24.21,0,1,1,24.21-24.21A24.2,24.2,0,0,1,77.72,281Z" transform="translate(-27.69 -52.47)"/><path class="f17f8984-7b52-4cdf-ae18-42e370673df0" d="M77.72,241.53A15.28,15.28,0,1,0,93,256.81,15.27,15.27,0,0,0,77.72,241.53Zm0,26.92a11.65,11.65,0,1,1,11.64-11.64A11.64,11.64,0,0,1,77.72,268.45Z" transform="translate(-27.69 -52.47)"/><rect class="e82ff8d7-ccf4-44f8-8556-205bcf2d51c0" x="179.97" y="325.14" width="104.65" height="37"/><path class="b601e69d-43eb-476f-944b-e3996d2e24e3" d="M425,160.66V336.18H95V160.66a6.12,6.12,0,0,1,6.11-6.11H418.86A6.1,6.1,0,0,1,425,160.66Z" transform="translate(-27.69 -52.47)"/><rect class="ad96652f-be0c-41f6-945d-34a6d60eee1c" x="83.13" y="117.84" width="298.32" height="149.68"/><rect class="b3d9c453-9763-40ea-95ed-d73f47f171d1" x="155.77" y="360.13" width="153.03" height="15.21"/><rect class="eccb86d4-83a9-4df2-acd7-546f32c611c4" x="179.97" y="327.39" width="104.65" height="11.84"/><path class="b3d9c453-9763-40ea-95ed-d73f47f171d1" d="M425,336.18v37.59a6.09,6.09,0,0,1-6.11,6.1H101.11a6.11,6.11,0,0,1-6.11-6.1V336.18Z" transform="translate(-27.69 -52.47)"/><path class="a8de99f0-b76f-4c3a-989d-e235fd77e5d2" d="M270.29,358A10.31,10.31,0,1,1,260,347.69,10.31,10.31,0,0,1,270.29,358Z" transform="translate(-27.69 -52.47)"/><rect class="aeb1f8b0-e7b5-4595-95d5-2e91c3b48ae4" x="94.71" y="130" width="270.98" height="137.53"/><rect class="b25d2a3f-0738-435a-a31e-a40c40cbbc7c" x="94.71" y="130" width="270.98" height="15.93"/><path class="aeb1f8b0-e7b5-4595-95d5-2e91c3b48ae4" d="M390.57,190.43a4.85,4.85,0,1,1-4.84-4.84A4.85,4.85,0,0,1,390.57,190.43Z" transform="translate(-27.69 -52.47)"/><path class="aeb1f8b0-e7b5-4595-95d5-2e91c3b48ae4" d="M377.14,190.43a4.85,4.85,0,1,1-4.85-4.84A4.85,4.85,0,0,1,377.14,190.43Z" transform="translate(-27.69 -52.47)"/><path class="aeb1f8b0-e7b5-4595-95d5-2e91c3b48ae4" d="M363.7,190.43a4.84,4.84,0,1,1-4.84-4.84A4.84,4.84,0,0,1,363.7,190.43Z" transform="translate(-27.69 -52.47)"/><rect class="a8de99f0-b76f-4c3a-989d-e235fd77e5d2" x="104.18" y="154.74" width="253.86" height="12.18"/><rect class="a974dca9-c213-4c7a-8bbf-efa1bb33fe9a" x="112.22" y="175.25" width="34.7" height="33.48"/><rect class="a974dca9-c213-4c7a-8bbf-efa1bb33fe9a" x="154.63" y="175.25" width="34.7" height="33.48"/><rect class="a974dca9-c213-4c7a-8bbf-efa1bb33fe9a" x="197.04" y="175.25" width="34.7" height="33.48"/><rect class="a8de99f0-b76f-4c3a-989d-e235fd77e5d2" x="242.28" y="176.47" width="110.14" height="6.99"/><rect class="a8de99f0-b76f-4c3a-989d-e235fd77e5d2" x="242.28" y="188.49" width="110.14" height="6.99"/><rect class="a8de99f0-b76f-4c3a-989d-e235fd77e5d2" x="242.28" y="200.51" width="110.14" height="6.99"/><polygon class="b25d2a3f-0738-435a-a31e-a40c40cbbc7c" points="180.66 245.53 154.52 232.58 111.75 232.89 111.72 229.13 155.38 228.82 180.89 241.46 241.55 219.69 273.21 237.52 304.84 221.11 306.57 224.44 273.13 241.78 241.21 223.8 180.66 245.53"/><path class="f506ee4c-41f8-4704-92d9-5c521925a411" d="M189.35,283.48a6.15,6.15,0,1,1-6.15-6.14A6.15,6.15,0,0,1,189.35,283.48Z" transform="translate(-27.69 -52.47)"/><path class="f506ee4c-41f8-4704-92d9-5c521925a411" d="M145.58,283.48a6.15,6.15,0,1,1-6.15-6.14A6.15,6.15,0,0,1,145.58,283.48Z" transform="translate(-27.69 -52.47)"/><path class="f506ee4c-41f8-4704-92d9-5c521925a411" d="M214.93,295.78a6.15,6.15,0,1,1-6.15-6.15A6.14,6.14,0,0,1,214.93,295.78Z" transform="translate(-27.69 -52.47)"/><path class="f506ee4c-41f8-4704-92d9-5c521925a411" d="M275.53,274.17a6.15,6.15,0,1,1-6.15-6.15A6.15,6.15,0,0,1,275.53,274.17Z" transform="translate(-27.69 -52.47)"/><path class="f506ee4c-41f8-4704-92d9-5c521925a411" d="M307.57,291.39a6.15,6.15,0,1,1-6.15-6.15A6.15,6.15,0,0,1,307.57,291.39Z" transform="translate(-27.69 -52.47)"/><path class="f506ee4c-41f8-4704-92d9-5c521925a411" d="M339.54,275.25a6.15,6.15,0,1,1-6.15-6.15A6.15,6.15,0,0,1,339.54,275.25Z" transform="translate(-27.69 -52.47)"/><polygon class="a974dca9-c213-4c7a-8bbf-efa1bb33fe9a" points="111.74 245.06 111.74 260.59 305.7 260.59 305.7 238.92 273.73 254.03 241.69 237.16 181.09 254.35 155.51 245.06 111.74 245.06"/><rect class="a974dca9-c213-4c7a-8bbf-efa1bb33fe9a" x="316.33" y="238.92" width="10.62" height="21.68"/><rect class="a974dca9-c213-4c7a-8bbf-efa1bb33fe9a" x="331.01" y="245.06" width="10.62" height="15.53"/><rect class="f506ee4c-41f8-4704-92d9-5c521925a411" x="331.01" y="241.38" width="10.62" height="4.15"/><rect class="f506ee4c-41f8-4704-92d9-5c521925a411" x="316.33" y="234.16" width="10.62" height="6.01"/><rect class="f506ee4c-41f8-4704-92d9-5c521925a411" x="345.69" y="225.13" width="10.62" height="7.78"/><rect class="a974dca9-c213-4c7a-8bbf-efa1bb33fe9a" x="345.69" y="232.77" width="10.62" height="27.82"/><path class="ff4d7c1d-4a11-4d1e-b160-cfbcca2ad56c" d="M167.82,449c0,7.34-5.52,13.29-12.33,13.29H40c-6.82,0-12.34-5.95-12.34-13.29V287.61c0-7.34,5.52-13.29,12.34-13.29H155.49c6.81,0,12.33,5.95,12.33,13.29Z" transform="translate(-27.69 -52.47)"/><path class="b1b6996a-cc0f-4de0-bee7-87971d70110b" d="M194.06,310.09v69.78H167.82V296.82h13.91C188.56,296.82,194.06,302.78,194.06,310.09Z" transform="translate(-27.69 -52.47)"/><rect class="ad96652f-be0c-41f6-945d-34a6d60eee1c" x="12.63" y="235.47" width="114.57" height="150.29"/><path class="a4e200a0-50d8-48fa-b5d5-d3c9c244c35f" d="M106.06,451A8.07,8.07,0,1,1,98,442.93,8.07,8.07,0,0,1,106.06,451Z" transform="translate(-27.69 -52.47)"/><path class="bb284eeb-9546-4a72-9f8b-28a87595ce80" d="M75,341.13a19.93,19.93,0,0,0,6,14.27L71.66,365A33.38,33.38,0,0,1,95,307.75v13.42A20,20,0,0,0,75,341.13Z" transform="translate(-27.69 -52.47)"/><path class="f5c854ce-424b-4418-9fba-f2fb2cb46f96" d="M128.38,341.13A33.38,33.38,0,0,1,71.66,365L81,355.4a20,20,0,0,0,32.48-21.71l12.45-5A32.87,32.87,0,0,1,128.38,341.13Z" transform="translate(-27.69 -52.47)"/><path class="ff4d7c1d-4a11-4d1e-b160-cfbcca2ad56c" d="M126,328.68l-12.45,5A20,20,0,0,0,95,321.17V307.75A33.35,33.35,0,0,1,126,328.68Z" transform="translate(-27.69 -52.47)"/><path class="aeb1f8b0-e7b5-4595-95d5-2e91c3b48ae4" d="M148.12,379.17H120.93a1.53,1.53,0,0,1-1.19-.57L109.29,366a1.55,1.55,0,0,1,2.39-2l10,12.05h26.46a1.56,1.56,0,0,1,0,3.11Z" transform="translate(-27.69 -52.47)"/><path class="aeb1f8b0-e7b5-4595-95d5-2e91c3b48ae4" d="M110.49,319a1.56,1.56,0,0,1-1.2-2.54l10.45-12.62a1.55,1.55,0,0,1,1.19-.56h27.19a1.55,1.55,0,0,1,0,3.1H121.66l-10,12.06A1.55,1.55,0,0,1,110.49,319Z" transform="translate(-27.69 -52.47)"/><path class="aeb1f8b0-e7b5-4595-95d5-2e91c3b48ae4" d="M85.45,319a1.56,1.56,0,0,1-1.2-.56l-10-12.06H47.82a1.55,1.55,0,1,1,0-3.1H75a1.59,1.59,0,0,1,1.2.56l10.44,12.62A1.55,1.55,0,0,1,85.45,319Z" transform="translate(-27.69 -52.47)"/><rect class="ff4d7c1d-4a11-4d1e-b160-cfbcca2ad56c" x="20.13" y="244.93" width="26.25" height="3.94"/><rect class="ff4d7c1d-4a11-4d1e-b160-cfbcca2ad56c" x="94.17" y="244.93" width="26.25" height="3.94"/><rect class="ff4d7c1d-4a11-4d1e-b160-cfbcca2ad56c" x="94.17" y="318.1" width="26.25" height="3.94"/><rect class="ff4d7c1d-4a11-4d1e-b160-cfbcca2ad56c" x="20.13" y="330.11" width="37.63" height="9.12"/><rect class="ff4d7c1d-4a11-4d1e-b160-cfbcca2ad56c" x="67.31" y="330.11" width="25.85" height="9.12"/><rect class="ff4d7c1d-4a11-4d1e-b160-cfbcca2ad56c" x="20.13" y="343.65" width="97.17" height="3.56"/><rect class="ff4d7c1d-4a11-4d1e-b160-cfbcca2ad56c" x="20.13" y="350.91" width="83.59" height="3.57"/><rect class="ff4d7c1d-4a11-4d1e-b160-cfbcca2ad56c" x="20.13" y="358.18" width="90.85" height="3.56"/><rect class="ff4d7c1d-4a11-4d1e-b160-cfbcca2ad56c" x="20.13" y="365.43" width="97.17" height="3.57"/><rect class="ff4d7c1d-4a11-4d1e-b160-cfbcca2ad56c" x="20.13" y="372.7" width="87.17" height="3.57"/><path class="b1b6996a-cc0f-4de0-bee7-87971d70110b" d="M378.92,379.87h-37.3a72.58,72.58,0,0,1-14.89-25,71.6,71.6,0,0,0,32,12.52,57.14,57.14,0,0,0,4.46,4A50.6,50.6,0,0,0,378.92,379.87Z" transform="translate(-27.69 -52.47)"/><path class="b1b6996a-cc0f-4de0-bee7-87971d70110b" d="M418.89,285.24a51.48,51.48,0,0,0-74.8,50.95,36.82,36.82,0,0,0,.79,5,49,49,0,0,1-7.88-5c-.22-.14-.41-.33-.64-.48a51.47,51.47,0,0,1-12.86-15.15,71.59,71.59,0,0,1,15-34.75A72.54,72.54,0,0,1,405,259.07,50.86,50.86,0,0,1,418.89,285.24Z" transform="translate(-27.69 -52.47)"/><rect class="ff4d7c1d-4a11-4d1e-b160-cfbcca2ad56c" x="372.37" y="73" width="108.83" height="86.39"/><rect class="b601e69d-43eb-476f-944b-e3996d2e24e3" x="368.84" y="73" width="115.9" height="11.36"/><rect class="ac8cf75f-2b8f-4a33-90a8-123528966f36" x="397.03" y="155.41" width="58.99" height="7.95"/><rect class="fa7e55d3-3120-49db-982b-44e8d256e01a" x="379.29" y="128.5" width="7.98" height="16.11"/><rect class="fa7e55d3-3120-49db-982b-44e8d256e01a" x="391.65" y="124.05" width="7.99" height="20.56"/><rect class="fa7e55d3-3120-49db-982b-44e8d256e01a" x="404.02" y="117.26" width="7.98" height="27.35"/><rect class="fa7e55d3-3120-49db-982b-44e8d256e01a" x="416.39" y="119.81" width="7.98" height="24.8"/><rect class="fa7e55d3-3120-49db-982b-44e8d256e01a" x="428.76" y="111.54" width="7.98" height="33.07"/><rect class="fa7e55d3-3120-49db-982b-44e8d256e01a" x="441.12" y="105.18" width="7.98" height="39.43"/><rect class="fa7e55d3-3120-49db-982b-44e8d256e01a" x="453.49" y="100.09" width="7.99" height="44.52"/><rect class="fa7e55d3-3120-49db-982b-44e8d256e01a" x="465.86" y="93.94" width="7.98" height="50.67"/><polygon class="b3a4f96d-6bdf-4e05-a197-4e7dea0031db" points="383.68 123.52 382.88 122.03 395.25 115.45 407.98 107.67 420.26 114.12 432.44 103.61 444.81 98.8 457.06 91.79 469.53 86.8 470.16 88.37 457.8 93.32 445.53 100.33 433.19 105.14 420.5 116.16 408.04 109.62 396.09 116.92 383.68 123.52"/><rect class="aeb1f8b0-e7b5-4595-95d5-2e91c3b48ae4" x="400.49" y="163.37" width="3.54" height="25.55"/><rect class="aeb1f8b0-e7b5-4595-95d5-2e91c3b48ae4" x="397.24" y="188.92" width="10.04" height="3.18"/><rect class="aeb1f8b0-e7b5-4595-95d5-2e91c3b48ae4" x="449.24" y="163.37" width="3.54" height="25.55"/><rect class="aeb1f8b0-e7b5-4595-95d5-2e91c3b48ae4" x="445.99" y="188.92" width="10.03" height="3.18"/><rect class="b3d9c453-9763-40ea-95ed-d73f47f171d1" x="404.02" y="169.13" width="45.22" height="2.4"/><path class="a6a2fcd0-6fe2-4fec-8222-24492c412e07" d="M323.68,133.86a2.51,2.51,0,1,1-2.5-2.51A2.5,2.5,0,0,1,323.68,133.86Z" transform="translate(-27.69 -52.47)"/><path class="a6a2fcd0-6fe2-4fec-8222-24492c412e07" d="M330.27,133.86a2.51,2.51,0,1,1-2.51-2.51A2.51,2.51,0,0,1,330.27,133.86Z" transform="translate(-27.69 -52.47)"/><path class="a6a2fcd0-6fe2-4fec-8222-24492c412e07" d="M336.85,133.86a2.51,2.51,0,1,1-2.5-2.51A2.5,2.5,0,0,1,336.85,133.86Z" transform="translate(-27.69 -52.47)"/><rect class="aeb1f8b0-e7b5-4595-95d5-2e91c3b48ae4" x="240.43" y="92.78" width="70.52" height="6.28"/><rect class="ff4d7c1d-4a11-4d1e-b160-cfbcca2ad56c" x="211.56" y="0.27" width="136.63" height="97.89"/><rect class="f6b80abb-8ccb-4450-bc58-42c95f318a58" x="211.55" width="136.64" height="10.44"/><path class="aeb1f8b0-e7b5-4595-95d5-2e91c3b48ae4" d="M356.78,57.83a3.09,3.09,0,1,1-3.09-3.09A3.09,3.09,0,0,1,356.78,57.83Z" transform="translate(-27.69 -52.47)"/><path class="aeb1f8b0-e7b5-4595-95d5-2e91c3b48ae4" d="M364.9,57.83a3.09,3.09,0,1,1-3.09-3.09A3.09,3.09,0,0,1,364.9,57.83Z" transform="translate(-27.69 -52.47)"/><path class="aeb1f8b0-e7b5-4595-95d5-2e91c3b48ae4" d="M373,57.83a3.09,3.09,0,1,1-3.09-3.09A3.09,3.09,0,0,1,373,57.83Z" transform="translate(-27.69 -52.47)"/><rect class="aeb1f8b0-e7b5-4595-95d5-2e91c3b48ae4" x="214.22" y="3.42" width="42.15" height="3.88"/><rect class="a53a4d09-e701-4f0c-8f29-8f3a2497c3fe" x="217.61" y="18.56" width="53.54" height="43.25"/><path class="aeb1f8b0-e7b5-4595-95d5-2e91c3b48ae4" d="M286.39,94.38a15.83,15.83,0,0,1-29.52,7.93l13.69-7.93Z" transform="translate(-27.69 -52.47)"/><path class="f506ee4c-41f8-4704-92d9-5c521925a411" d="M289.42,92.59H273.59l7.31-14A15.82,15.82,0,0,1,289.42,92.59Z" transform="translate(-27.69 -52.47)"/><path class="f3a470bd-2083-4c79-9c02-b99a05be35b9" d="M278.94,78.55l-7.31,14V76.75A15.66,15.66,0,0,1,278.94,78.55Z" transform="translate(-27.69 -52.47)"/><path class="bc950136-9a44-434b-a592-9c900aacbd7e" d="M270.56,78.55V94.38l-5.71-14.77A15.7,15.7,0,0,1,270.56,78.55Z" transform="translate(-27.69 -52.47)"/><path class="f5c854ce-424b-4418-9fba-f2fb2cb46f96" d="M270.56,94.38l-13.69,7.93a15.82,15.82,0,0,1,8-22.7Z" transform="translate(-27.69 -52.47)"/><rect class="b3785eca-76a2-4b17-82e8-7c8bad713e98" x="280.57" y="18.56" width="61.67" height="5.73"/><rect class="b3785eca-76a2-4b17-82e8-7c8bad713e98" x="280.57" y="27.14" width="61.67" height="2.86"/><rect class="b3785eca-76a2-4b17-82e8-7c8bad713e98" x="280.57" y="32.56" width="61.67" height="2.87"/><rect class="b3785eca-76a2-4b17-82e8-7c8bad713e98" x="280.57" y="37.97" width="61.67" height="2.86"/><rect class="b3785eca-76a2-4b17-82e8-7c8bad713e98" x="280.57" y="43.39" width="61.67" height="2.86"/><rect class="b3785eca-76a2-4b17-82e8-7c8bad713e98" x="280.57" y="48.81" width="61.67" height="2.86"/><rect class="b3785eca-76a2-4b17-82e8-7c8bad713e98" x="280.57" y="54.23" width="61.67" height="2.86"/><rect class="b3785eca-76a2-4b17-82e8-7c8bad713e98" x="280.57" y="59.64" width="61.67" height="2.86"/><rect class="f6b80abb-8ccb-4450-bc58-42c95f318a58" x="217.61" y="74.7" width="25.35" height="18.09"/><rect class="a168e351-3f75-4dba-877f-f9e6d3406214" x="218.44" y="75.38" width="23.7" height="14.43"/><polygon class="ff4d7c1d-4a11-4d1e-b160-cfbcca2ad56c" points="228.18 79.7 228.18 85.48 232.96 82.59 228.18 79.7"/><rect class="f6b80abb-8ccb-4450-bc58-42c95f318a58" x="249.05" y="74.7" width="25.35" height="18.09"/><rect class="a168e351-3f75-4dba-877f-f9e6d3406214" x="249.87" y="75.38" width="23.7" height="14.43"/><polygon class="ff4d7c1d-4a11-4d1e-b160-cfbcca2ad56c" points="259.61 79.7 259.61 85.48 264.4 82.59 259.61 79.7"/><rect class="f6b80abb-8ccb-4450-bc58-42c95f318a58" x="280.48" y="74.7" width="25.36" height="18.09"/><rect class="a168e351-3f75-4dba-877f-f9e6d3406214" x="281.31" y="75.38" width="23.7" height="14.43"/><polygon class="ff4d7c1d-4a11-4d1e-b160-cfbcca2ad56c" points="291.05 79.7 291.05 85.48 295.83 82.59 291.05 79.7"/><rect class="f6b80abb-8ccb-4450-bc58-42c95f318a58" x="311.92" y="74.7" width="25.36" height="18.09"/><rect class="a168e351-3f75-4dba-877f-f9e6d3406214" x="312.74" y="75.38" width="23.71" height="14.43"/><polygon class="ff4d7c1d-4a11-4d1e-b160-cfbcca2ad56c" points="322.48 79.7 322.48 85.48 327.26 82.59 322.48 79.7"/><rect class="a7f8ab08-fccc-405e-a639-95c9c815adb1" x="217.61" y="69.19" width="11.56" height="2.54"/><rect class="a7f8ab08-fccc-405e-a639-95c9c815adb1" x="237.98" y="69.19" width="4.16" height="2.54"/><rect class="a7f8ab08-fccc-405e-a639-95c9c815adb1" x="230.88" y="69.19" width="5.51" height="2.54"/><rect class="a7f8ab08-fccc-405e-a639-95c9c815adb1" x="311.92" y="70.47" width="15.35" height="2.54"/><rect class="a7f8ab08-fccc-405e-a639-95c9c815adb1" x="329.6" y="70.47" width="4.42" height="2.54"/><rect class="a7f8ab08-fccc-405e-a639-95c9c815adb1" x="248.93" y="69.19" width="11.69" height="2.54"/><rect class="a7f8ab08-fccc-405e-a639-95c9c815adb1" x="280.48" y="69.19" width="8.84" height="2.54"/><rect class="a7f8ab08-fccc-405e-a639-95c9c815adb1" x="291.05" y="69.19" width="12.08" height="2.54"/><rect class="a7f8ab08-fccc-405e-a639-95c9c815adb1" x="263.82" y="69.19" width="5.84" height="2.54"/><path class="eccb86d4-83a9-4df2-acd7-546f32c611c4" d="M375.89,106.43v44.19h-47L277.27,99a7.93,7.93,0,0,0,3.61,1.69,6.29,6.29,0,0,0,1.28.12h2a8.82,8.82,0,0,0,1.28-.12,9.08,9.08,0,0,0,6.34-5.61,12,12,0,0,0-1.63-12L300,93A11.58,11.58,0,0,0,304,97a9.68,9.68,0,0,0,3.26,1.22,9.52,9.52,0,0,0,1.6.14h2.53a7.13,7.13,0,0,0,1.6-.17,11.22,11.22,0,0,0,7.88-7,14.94,14.94,0,0,0-1.66-14.48l10.64,10.64a15.56,15.56,0,0,0-1,2c-3.51,8.37-.69,18.57,6.32,22.79a12.17,12.17,0,0,0,4.24,1.63,13.1,13.1,0,0,0,2.13.2h3.34a12.08,12.08,0,0,0,2.07-.26c4.3-.87,8.22-4.07,10.35-9.1a19.62,19.62,0,0,0-2.59-19.56Z" transform="translate(-27.69 -52.47)"/><path class="f6391afc-1338-44a0-9dad-c54b72b88b3f" d="M357.23,104.74c-2.13,5-6.05,8.23-10.35,9.1a12.08,12.08,0,0,1-2.07.26h-3.32A9.34,9.34,0,0,0,343,114a8.22,8.22,0,0,0,.84-.15c4.31-.87,8.23-4.07,10.32-9.1,3.52-8.4.7-18.61-6.31-22.82A12.31,12.31,0,0,0,343,80.2a13.13,13.13,0,0,0-1.54-.08h3.06a12.45,12.45,0,0,1,6.36,1.8,14.19,14.19,0,0,1,1.63,1.16,12.64,12.64,0,0,1,2.1,2.1A19.62,19.62,0,0,1,357.23,104.74Z" transform="translate(-27.69 -52.47)"/><path class="a8c56312-d120-4f77-a972-84b11c51f3ea" d="M346,100.61a4.08,4.08,0,0,1-.93,2.77,3.54,3.54,0,0,1-1.81,1.11,3.31,3.31,0,0,1-.68.12l0,1.59h-1.9v-1.63a3.7,3.7,0,0,1-1.46-.58,3.85,3.85,0,0,1-1.35-1.5,5.53,5.53,0,0,1-.58-2.19l2.5-.17a3.4,3.4,0,0,0,.82,2,1.45,1.45,0,0,0,1.08.42,1.69,1.69,0,0,0,1.38-.76,1.64,1.64,0,0,0,.26-1,2.72,2.72,0,0,0-1-1.92c-.53-.42-1.3-1.07-2.35-1.94a9.58,9.58,0,0,1-1.86-2,4.27,4.27,0,0,1-.59-2.18,3.61,3.61,0,0,1,1.59-3.2,3.69,3.69,0,0,1,1.5-.59V87.3l1.89,0v1.59a4.12,4.12,0,0,1,1.46.48,3.38,3.38,0,0,1,1.26,1.2,4.26,4.26,0,0,1,.59,1.79l-2.52.42a2.52,2.52,0,0,0-.63-1.48,1.28,1.28,0,0,0-1-.37,1.25,1.25,0,0,0-1.1.57,2,2,0,0,0-.3,1.13,3.25,3.25,0,0,0,1,2.17,10,10,0,0,0,1.17,1,12.94,12.94,0,0,1,1.21.94,8.06,8.06,0,0,1,1.53,1.7c.15.27.29.5.39.72A3.83,3.83,0,0,1,346,100.61Z" transform="translate(-27.69 -52.47)"/><path class="bb658393-1dd0-442b-9003-dda808276e62" d="M347.83,81.92A12.31,12.31,0,0,0,343,80.2a13.13,13.13,0,0,0-1.54-.08h0c-4.57,0-9,2.64-11.66,7.32a15.56,15.56,0,0,0-1,2c-3.51,8.37-.69,18.57,6.32,22.79a12.17,12.17,0,0,0,4.24,1.63,13.1,13.1,0,0,0,2.13.2h0A9.34,9.34,0,0,0,343,114a8.22,8.22,0,0,0,.84-.15c4.31-.87,8.23-4.07,10.32-9.1C357.66,96.34,354.84,86.13,347.83,81.92Zm4.1,21.48c-1.92,4.57-5.66,7.33-9.65,7.68h0a10.07,10.07,0,0,1-6.05-1.45,12.37,12.37,0,0,1-3.69-3.52A16.29,16.29,0,0,1,331,90.82a11.7,11.7,0,0,1,.73-1.46,10.24,10.24,0,0,1,.81-1.31,11,11,0,0,1,8.93-5,7.86,7.86,0,0,1,.84,0h0a10.51,10.51,0,0,1,4.38,1.45C352.51,88.05,354.84,96.49,351.93,103.4Z" transform="translate(-27.69 -52.47)"/><path class="a8c56312-d120-4f77-a972-84b11c51f3ea" d="M346,100.61a4.08,4.08,0,0,1-.93,2.77,3.54,3.54,0,0,1-1.81,1.11,3.31,3.31,0,0,1-.68.12l0,1.59h-1.9v-1.63a3.7,3.7,0,0,1-1.46-.58,3.85,3.85,0,0,1-1.35-1.5,5.53,5.53,0,0,1-.58-2.19l2.5-.17a3.4,3.4,0,0,0,.82,2,1.45,1.45,0,0,0,1.08.42,1.69,1.69,0,0,0,1.38-.76,1.64,1.64,0,0,0,.26-1,2.72,2.72,0,0,0-1-1.92c-.53-.42-1.3-1.07-2.35-1.94a9.58,9.58,0,0,1-1.86-2,4.27,4.27,0,0,1-.59-2.18,3.61,3.61,0,0,1,1.59-3.2,3.69,3.69,0,0,1,1.5-.59V87.3l1.89,0v1.59a4.12,4.12,0,0,1,1.46.48,3.38,3.38,0,0,1,1.26,1.2,4.26,4.26,0,0,1,.59,1.79l-2.52.42a2.52,2.52,0,0,0-.63-1.48,1.28,1.28,0,0,0-1-.37,1.25,1.25,0,0,0-1.1.57,2,2,0,0,0-.3,1.13,3.25,3.25,0,0,0,1,2.17,10,10,0,0,0,1.17,1,12.94,12.94,0,0,1,1.21.94,8.06,8.06,0,0,1,1.53,1.7c.15.27.29.5.39.72A3.83,3.83,0,0,1,346,100.61Z" transform="translate(-27.69 -52.47)"/><path class="a8c56312-d120-4f77-a972-84b11c51f3ea" d="M346.73,84.57a10.17,10.17,0,0,0-4.42-1.45A11.26,11.26,0,0,0,334.16,88s0,0,0,0a14.25,14.25,0,0,0-1.53,2.75,16.18,16.18,0,0,0,1.51,15.31,11.88,11.88,0,0,0,3.69,3.51,10.41,10.41,0,0,0,4.46,1.47c4-.35,7.73-3.12,9.65-7.69C354.84,96.49,352.51,88,346.73,84.57Zm-1.68,18.81a3.54,3.54,0,0,1-1.81,1.11,3.31,3.31,0,0,1-.68.12l0,1.59h-1.9v-1.63a3.7,3.7,0,0,1-1.46-.58,3.85,3.85,0,0,1-1.35-1.5,5.53,5.53,0,0,1-.58-2.19l2.5-.17a3.4,3.4,0,0,0,.82,2,1.45,1.45,0,0,0,1.08.42,1.69,1.69,0,0,0,1.38-.76,1.64,1.64,0,0,0,.26-1,2.72,2.72,0,0,0-1-1.92c-.53-.42-1.3-1.07-2.35-1.94a9.58,9.58,0,0,1-1.86-2,4.27,4.27,0,0,1-.59-2.18,3.61,3.61,0,0,1,1.59-3.2,3.69,3.69,0,0,1,1.5-.59V87.3l1.89,0v1.59a4.12,4.12,0,0,1,1.46.48,3.38,3.38,0,0,1,1.26,1.2,4.26,4.26,0,0,1,.59,1.79l-2.52.42a2.52,2.52,0,0,0-.63-1.48,1.28,1.28,0,0,0-1-.37,1.25,1.25,0,0,0-1.1.57,2,2,0,0,0-.3,1.13,3.25,3.25,0,0,0,1,2.17,10,10,0,0,0,1.17,1,12.94,12.94,0,0,1,1.21.94,8.06,8.06,0,0,1,1.53,1.7c.15.27.29.5.39.72a3.83,3.83,0,0,1,.4,1.49A4.08,4.08,0,0,1,345.05,103.38Z" transform="translate(-27.69 -52.47)"/><path class="f6391afc-1338-44a0-9dad-c54b72b88b3f" d="M337.83,109.62a10.41,10.41,0,0,0,4.46,1.47,10,10,0,0,1-6.07-1.47,12,12,0,0,1-3.71-3.51A16.23,16.23,0,0,1,331,90.8a13.77,13.77,0,0,1,1.54-2.75s0,0,0,0a10.86,10.86,0,0,1,9.76-4.92A11.26,11.26,0,0,0,334.16,88s0,0,0,0a14.25,14.25,0,0,0-1.53,2.75,16.18,16.18,0,0,0,1.51,15.31A11.88,11.88,0,0,0,337.83,109.62Z" transform="translate(-27.69 -52.47)"/><path class="a8c56312-d120-4f77-a972-84b11c51f3ea" d="M346,100.61a4.08,4.08,0,0,1-.93,2.77,3.54,3.54,0,0,1-1.81,1.11,3.31,3.31,0,0,1-.68.12l0,1.59h-1.9v-1.63a3.7,3.7,0,0,1-1.46-.58,3.85,3.85,0,0,1-1.35-1.5,5.53,5.53,0,0,1-.58-2.19l2.5-.17a3.4,3.4,0,0,0,.82,2,1.45,1.45,0,0,0,1.08.42,1.69,1.69,0,0,0,1.38-.76,1.64,1.64,0,0,0,.26-1,2.72,2.72,0,0,0-1-1.92c-.53-.42-1.3-1.07-2.35-1.94a9.58,9.58,0,0,1-1.86-2,4.27,4.27,0,0,1-.59-2.18,3.61,3.61,0,0,1,1.59-3.2,3.69,3.69,0,0,1,1.5-.59V87.3l1.89,0v1.59a4.12,4.12,0,0,1,1.46.48,3.38,3.38,0,0,1,1.26,1.2,4.26,4.26,0,0,1,.59,1.79l-2.52.42a2.52,2.52,0,0,0-.63-1.48,1.28,1.28,0,0,0-1-.37,1.25,1.25,0,0,0-1.1.57,2,2,0,0,0-.3,1.13,3.25,3.25,0,0,0,1,2.17,10,10,0,0,0,1.17,1,12.94,12.94,0,0,1,1.21.94,8.06,8.06,0,0,1,1.53,1.7c.15.27.29.5.39.72A3.83,3.83,0,0,1,346,100.61Z" transform="translate(-27.69 -52.47)"/><path class="b45926b4-d1e1-481b-aad9-0d0629fddbfb" d="M351.94,103.4c-1.92,4.57-5.67,7.34-9.65,7.69h0a10.42,10.42,0,0,1-4.43-1.47,11.88,11.88,0,0,1-3.69-3.51,16.18,16.18,0,0,1-1.51-15.31,14.25,14.25,0,0,1,1.53-2.75s0,0,0,0a11.26,11.26,0,0,1,8.15-4.92h0a10.18,10.18,0,0,1,4.39,1.45C352.51,88,354.84,96.49,351.94,103.4Z" transform="translate(-27.69 -52.47)"/><path class="a9317f4c-76af-41b9-b852-8ce0167c97cf" d="M346,100.61a4.08,4.08,0,0,1-.93,2.77,3.54,3.54,0,0,1-1.81,1.11,3.31,3.31,0,0,1-.68.12l0,1.59h-1.9v-1.63a3.7,3.7,0,0,1-1.46-.58,3.85,3.85,0,0,1-1.35-1.5,5.53,5.53,0,0,1-.58-2.19l2.5-.17a3.4,3.4,0,0,0,.82,2,1.45,1.45,0,0,0,1.08.42,1.69,1.69,0,0,0,1.38-.76,1.64,1.64,0,0,0,.26-1,2.72,2.72,0,0,0-1-1.92c-.53-.42-1.3-1.07-2.35-1.94a9.58,9.58,0,0,1-1.86-2,4.27,4.27,0,0,1-.59-2.18,3.61,3.61,0,0,1,1.59-3.2,3.69,3.69,0,0,1,1.5-.59V87.3l1.89,0v1.59a4.12,4.12,0,0,1,1.46.48,3.38,3.38,0,0,1,1.26,1.2,4.26,4.26,0,0,1,.59,1.79l-2.52.42a2.52,2.52,0,0,0-.63-1.48,1.28,1.28,0,0,0-1-.37,1.25,1.25,0,0,0-1.1.57,2,2,0,0,0-.3,1.13,3.25,3.25,0,0,0,1,2.17,10,10,0,0,0,1.17,1,12.94,12.94,0,0,1,1.21.94,8.06,8.06,0,0,1,1.53,1.7c.15.27.29.5.39.72A3.83,3.83,0,0,1,346,100.61Z" transform="translate(-27.69 -52.47)"/><path class="f6391afc-1338-44a0-9dad-c54b72b88b3f" d="M320.83,91.28a11.22,11.22,0,0,1-7.88,7,7.13,7.13,0,0,1-1.6.17h-2.5c.37,0,.75,0,1.13-.05a5.89,5.89,0,0,0,.64-.12,11.11,11.11,0,0,0,7.85-7c2.67-6.37.55-14.16-4.8-17.36a9,9,0,0,0-3.66-1.3,8,8,0,0,0-1.16-.09h2.32A9.26,9.26,0,0,1,316,73.92a8.39,8.39,0,0,1,.93.67,9.1,9.1,0,0,1,2.21,2.21A14.94,14.94,0,0,1,320.83,91.28Z" transform="translate(-27.69 -52.47)"/><path class="a8c56312-d120-4f77-a972-84b11c51f3ea" d="M312.26,88.14a3.15,3.15,0,0,1-.71,2.11,2.65,2.65,0,0,1-1.38.85c-.15,0-.33.07-.51.1v1.2h-1.45V91.16a2.77,2.77,0,0,1-1.1-.44,2.87,2.87,0,0,1-1-1.14,4.16,4.16,0,0,1-.44-1.67l1.9-.13a2.55,2.55,0,0,0,.63,1.49,1.07,1.07,0,0,0,.82.33A1.29,1.29,0,0,0,310,89a1.36,1.36,0,0,0,.19-.78,2.06,2.06,0,0,0-.76-1.46l-1.79-1.49a7.52,7.52,0,0,1-1.41-1.53,3.2,3.2,0,0,1-.45-1.65A2.78,2.78,0,0,1,307,79.66a2.91,2.91,0,0,1,1.13-.44V78h1.45v1.21a3,3,0,0,1,1.11.36,2.54,2.54,0,0,1,1,.91,3,3,0,0,1,.45,1.37l-1.92.32a1.93,1.93,0,0,0-.47-1.12,1,1,0,0,0-.8-.29,1,1,0,0,0-.84.43,1.58,1.58,0,0,0-.22.87,2.44,2.44,0,0,0,.79,1.64,6.47,6.47,0,0,0,.89.75,9.89,9.89,0,0,1,.93.72,6.32,6.32,0,0,1,1.15,1.29c.12.21.23.38.31.55A3.07,3.07,0,0,1,312.26,88.14Z" transform="translate(-27.69 -52.47)"/><path class="bb658393-1dd0-442b-9003-dda808276e62" d="M313.67,73.92a9,9,0,0,0-3.66-1.3,8,8,0,0,0-1.16-.09h0c-3.93,0-7.73,2.61-9.65,7.12A15,15,0,0,0,300,93,11.58,11.58,0,0,0,304,97a9.68,9.68,0,0,0,3.26,1.22,9.52,9.52,0,0,0,1.6.14h0c.37,0,.75,0,1.13-.05a5.89,5.89,0,0,0,.64-.12,11.11,11.11,0,0,0,7.85-7C321.14,84.91,319,77.12,313.67,73.92Zm3.11,16.34a9,9,0,0,1-7.32,5.85h0A7.39,7.39,0,0,1,304.84,95,8.6,8.6,0,0,1,302,92.33a12.33,12.33,0,0,1-1.16-11.66A12,12,0,0,1,302,78.58a8.46,8.46,0,0,1,6.84-3.78c.2,0,.4,0,.61,0h0a5.56,5.56,0,0,1,1,.18,6.21,6.21,0,0,1,1.55.49c.25.15.55.29.82.44C317.22,78.58,319,85,316.78,90.26Z" transform="translate(-27.69 -52.47)"/><path class="a8c56312-d120-4f77-a972-84b11c51f3ea" d="M312.26,88.14a3.15,3.15,0,0,1-.71,2.11,2.65,2.65,0,0,1-1.38.85c-.15,0-.33.07-.51.1v1.2h-1.45V91.16a2.77,2.77,0,0,1-1.1-.44,2.87,2.87,0,0,1-1-1.14,4.16,4.16,0,0,1-.44-1.67l1.9-.13a2.55,2.55,0,0,0,.63,1.49,1.07,1.07,0,0,0,.82.33A1.29,1.29,0,0,0,310,89a1.36,1.36,0,0,0,.19-.78,2.06,2.06,0,0,0-.76-1.46l-1.79-1.49a7.52,7.52,0,0,1-1.41-1.53,3.2,3.2,0,0,1-.45-1.65A2.78,2.78,0,0,1,307,79.66a2.91,2.91,0,0,1,1.13-.44V78h1.45v1.21a3,3,0,0,1,1.11.36,2.54,2.54,0,0,1,1,.91,3,3,0,0,1,.45,1.37l-1.92.32a1.93,1.93,0,0,0-.47-1.12,1,1,0,0,0-.8-.29,1,1,0,0,0-.84.43,1.58,1.58,0,0,0-.22.87,2.44,2.44,0,0,0,.79,1.64,6.47,6.47,0,0,0,.89.75,9.89,9.89,0,0,1,.93.72,6.32,6.32,0,0,1,1.15,1.29c.12.21.23.38.31.55A3.07,3.07,0,0,1,312.26,88.14Z" transform="translate(-27.69 -52.47)"/><path class="a8c56312-d120-4f77-a972-84b11c51f3ea" d="M312.84,75.93a7.94,7.94,0,0,0-3.37-1.11,8.57,8.57,0,0,0-6.21,3.75s0,0,0,0a11.16,11.16,0,0,0-1.17,2.1,12.36,12.36,0,0,0,1.14,11.66A9.32,9.32,0,0,0,306.05,95a7.75,7.75,0,0,0,3.4,1.11,9,9,0,0,0,7.34-5.85C319,85,317.23,78.57,312.84,75.93Zm-1.29,14.32a2.65,2.65,0,0,1-1.38.85c-.15,0-.33.07-.51.1v1.2h-1.45V91.16a2.77,2.77,0,0,1-1.1-.44,2.87,2.87,0,0,1-1-1.14,4.16,4.16,0,0,1-.44-1.67l1.9-.13a2.55,2.55,0,0,0,.63,1.49,1.07,1.07,0,0,0,.82.33A1.29,1.29,0,0,0,310,89a1.36,1.36,0,0,0,.19-.78,2.06,2.06,0,0,0-.76-1.46l-1.79-1.49a7.52,7.52,0,0,1-1.41-1.53,3.2,3.2,0,0,1-.45-1.65A2.78,2.78,0,0,1,307,79.66a2.91,2.91,0,0,1,1.13-.44V78h1.45v1.21a3,3,0,0,1,1.11.36,2.54,2.54,0,0,1,1,.91,3,3,0,0,1,.45,1.37l-1.92.32a1.93,1.93,0,0,0-.47-1.12,1,1,0,0,0-.8-.29,1,1,0,0,0-.84.43,1.58,1.58,0,0,0-.22.87,2.44,2.44,0,0,0,.79,1.64,6.47,6.47,0,0,0,.89.75,9.89,9.89,0,0,1,.93.72,6.32,6.32,0,0,1,1.15,1.29c.12.21.23.38.31.55a3.07,3.07,0,0,1,.3,1.13A3.15,3.15,0,0,1,311.55,90.25Z" transform="translate(-27.69 -52.47)"/><path class="f6391afc-1338-44a0-9dad-c54b72b88b3f" d="M306.05,95a7.75,7.75,0,0,0,3.4,1.11A7.68,7.68,0,0,1,304.82,95,9.21,9.21,0,0,1,302,92.34a12.39,12.39,0,0,1-1.14-11.66,11.16,11.16,0,0,1,1.17-2.1s0,0,0,0a8.31,8.31,0,0,1,7.44-3.75,8.57,8.57,0,0,0-6.21,3.75s0,0,0,0a11.16,11.16,0,0,0-1.17,2.1,12.36,12.36,0,0,0,1.14,11.66A9.32,9.32,0,0,0,306.05,95Z" transform="translate(-27.69 -52.47)"/><path class="a8c56312-d120-4f77-a972-84b11c51f3ea" d="M312.26,88.14a3.15,3.15,0,0,1-.71,2.11,2.65,2.65,0,0,1-1.38.85c-.15,0-.33.07-.51.1v1.2h-1.45V91.16a2.77,2.77,0,0,1-1.1-.44,2.87,2.87,0,0,1-1-1.14,4.16,4.16,0,0,1-.44-1.67l1.9-.13a2.55,2.55,0,0,0,.63,1.49,1.07,1.07,0,0,0,.82.33A1.29,1.29,0,0,0,310,89a1.36,1.36,0,0,0,.19-.78,2.06,2.06,0,0,0-.76-1.46l-1.79-1.49a7.52,7.52,0,0,1-1.41-1.53,3.2,3.2,0,0,1-.45-1.65A2.78,2.78,0,0,1,307,79.66a2.91,2.91,0,0,1,1.13-.44V78h1.45v1.21a3,3,0,0,1,1.11.36,2.54,2.54,0,0,1,1,.91,3,3,0,0,1,.45,1.37l-1.92.32a1.93,1.93,0,0,0-.47-1.12,1,1,0,0,0-.8-.29,1,1,0,0,0-.84.43,1.58,1.58,0,0,0-.22.87,2.44,2.44,0,0,0,.79,1.64,6.47,6.47,0,0,0,.89.75,9.89,9.89,0,0,1,.93.72,6.32,6.32,0,0,1,1.15,1.29c.12.21.23.38.31.55A3.07,3.07,0,0,1,312.26,88.14Z" transform="translate(-27.69 -52.47)"/><path class="b45926b4-d1e1-481b-aad9-0d0629fddbfb" d="M316.79,90.27a9,9,0,0,1-7.34,5.85h0A7.89,7.89,0,0,1,306.05,95a9.32,9.32,0,0,1-2.82-2.67,12.36,12.36,0,0,1-1.14-11.66,11.16,11.16,0,0,1,1.17-2.1s0,0,0,0a8.57,8.57,0,0,1,6.21-3.75h0a7.85,7.85,0,0,1,3.36,1.11C317.23,78.57,319,85,316.79,90.27Z" transform="translate(-27.69 -52.47)"/><path class="a9317f4c-76af-41b9-b852-8ce0167c97cf" d="M312.26,88.14a3.15,3.15,0,0,1-.71,2.11,2.65,2.65,0,0,1-1.38.85c-.15,0-.33.07-.51.1v1.2h-1.45V91.16a2.77,2.77,0,0,1-1.1-.44,2.87,2.87,0,0,1-1-1.14,4.16,4.16,0,0,1-.44-1.67l1.9-.13a2.55,2.55,0,0,0,.63,1.49,1.07,1.07,0,0,0,.82.33A1.29,1.29,0,0,0,310,89a1.36,1.36,0,0,0,.19-.78,2.06,2.06,0,0,0-.76-1.46l-1.79-1.49a7.52,7.52,0,0,1-1.41-1.53,3.2,3.2,0,0,1-.45-1.65A2.78,2.78,0,0,1,307,79.66a2.91,2.91,0,0,1,1.13-.44V78h1.45v1.21a3,3,0,0,1,1.11.36,2.54,2.54,0,0,1,1,.91,3,3,0,0,1,.45,1.37l-1.92.32a1.93,1.93,0,0,0-.47-1.12,1,1,0,0,0-.8-.29,1,1,0,0,0-.84.43,1.58,1.58,0,0,0-.22.87,2.44,2.44,0,0,0,.79,1.64,6.47,6.47,0,0,0,.89.75,9.89,9.89,0,0,1,.93.72,6.32,6.32,0,0,1,1.15,1.29c.12.21.23.38.31.55A3.07,3.07,0,0,1,312.26,88.14Z" transform="translate(-27.69 -52.47)"/><path class="f6391afc-1338-44a0-9dad-c54b72b88b3f" d="M291.81,95.09a9.08,9.08,0,0,1-6.34,5.61,8.82,8.82,0,0,1-1.28.12h-2a4.54,4.54,0,0,0,.9-.06,3.07,3.07,0,0,0,.52-.06,9,9,0,0,0,6.31-5.61c2.15-5.12.43-11.37-3.84-14a8.39,8.39,0,0,0-3-1c-.31,0-.6-.06-.92-.06h1.86a7.78,7.78,0,0,1,3.89,1.1,9,9,0,0,1,1,.73l.06.06,1.16,1.16A12,12,0,0,1,291.81,95.09Z" transform="translate(-27.69 -52.47)"/><path class="a8c56312-d120-4f77-a972-84b11c51f3ea" d="M284.93,92.58a2.48,2.48,0,0,1-.57,1.69,2,2,0,0,1-1.11.68,2.7,2.7,0,0,1-.41.08v1h-1.16V95a2.13,2.13,0,0,1-.89-.35,2.29,2.29,0,0,1-.83-.91,3.37,3.37,0,0,1-.36-1.35l1.54-.1a1.91,1.91,0,0,0,.5,1.2.84.84,0,0,0,.65.26,1,1,0,0,0,.85-.47,1,1,0,0,0,.15-.62,1.67,1.67,0,0,0-.6-1.18l-1.44-1.19a5.5,5.5,0,0,1-1.13-1.23,2.58,2.58,0,0,1-.36-1.33,2.2,2.2,0,0,1,1.88-2.31v-1h1.16v1a2.52,2.52,0,0,1,.89.29,2.13,2.13,0,0,1,.78.74,2.55,2.55,0,0,1,.35,1.09l-1.54.26a1.55,1.55,0,0,0-.38-.91.82.82,0,0,0-.64-.22.74.74,0,0,0-.67.35,1.24,1.24,0,0,0-.18.69,2,2,0,0,0,.63,1.32,5.84,5.84,0,0,0,.72.61,7.18,7.18,0,0,1,.74.57,5.4,5.4,0,0,1,.93,1,4,4,0,0,1,.24.44A2.61,2.61,0,0,1,284.93,92.58Z" transform="translate(-27.69 -52.47)"/><path class="bb658393-1dd0-442b-9003-dda808276e62" d="M286.08,81.13a8.39,8.39,0,0,0-3-1c-.31,0-.6-.06-.92-.06h0c-3.17,0-6.23,2.12-7.77,5.73-1.94,4.71-.66,10.35,2.85,13.23l0,0a7.93,7.93,0,0,0,3.61,1.69,6.29,6.29,0,0,0,1.28.12h0a4.54,4.54,0,0,0,.9-.06,3.07,3.07,0,0,0,.52-.06,9,9,0,0,0,6.31-5.61C292.07,90,290.35,83.72,286.08,81.13Zm2.5,13.14a7.28,7.28,0,0,1-5.9,4.72h-.12a6.3,6.3,0,0,1-3.6-.88A7.51,7.51,0,0,1,276.69,96a9.74,9.74,0,0,1,0-11.07,6.8,6.8,0,0,1,5.47-3,3,3,0,0,1,.52,0h0a6,6,0,0,1,2.67.87C288.93,84.89,290.35,90.06,288.58,94.27Z" transform="translate(-27.69 -52.47)"/><path class="a8c56312-d120-4f77-a972-84b11c51f3ea" d="M284.93,92.58a2.48,2.48,0,0,1-.57,1.69,2,2,0,0,1-1.11.68,2.7,2.7,0,0,1-.41.08v1h-1.16V95a2.13,2.13,0,0,1-.89-.35,2.29,2.29,0,0,1-.83-.91,3.37,3.37,0,0,1-.36-1.35l1.54-.1a1.91,1.91,0,0,0,.5,1.2.84.84,0,0,0,.65.26,1,1,0,0,0,.85-.47,1,1,0,0,0,.15-.62,1.67,1.67,0,0,0-.6-1.18l-1.44-1.19a5.5,5.5,0,0,1-1.13-1.23,2.58,2.58,0,0,1-.36-1.33,2.2,2.2,0,0,1,1.88-2.31v-1h1.16v1a2.52,2.52,0,0,1,.89.29,2.13,2.13,0,0,1,.78.74,2.55,2.55,0,0,1,.35,1.09l-1.54.26a1.55,1.55,0,0,0-.38-.91.82.82,0,0,0-.64-.22.74.74,0,0,0-.67.35,1.24,1.24,0,0,0-.18.69,2,2,0,0,0,.63,1.32,5.84,5.84,0,0,0,.72.61,7.18,7.18,0,0,1,.74.57,5.4,5.4,0,0,1,.93,1,4,4,0,0,1,.24.44A2.61,2.61,0,0,1,284.93,92.58Z" transform="translate(-27.69 -52.47)"/><path class="a8c56312-d120-4f77-a972-84b11c51f3ea" d="M285.39,82.77a6.24,6.24,0,0,0-2.71-.89,6.91,6.91,0,0,0-5,3h0a8.46,8.46,0,0,0-.93,1.68,10,10,0,0,0,.91,9.37,7.5,7.5,0,0,0,2.27,2.15,6.41,6.41,0,0,0,2.73.89,7.26,7.26,0,0,0,5.9-4.71C290.35,90.06,288.92,84.89,285.39,82.77Zm-1,11.5a2,2,0,0,1-1.11.68,2.7,2.7,0,0,1-.41.08v1h-1.16V95a2.13,2.13,0,0,1-.89-.35,2.29,2.29,0,0,1-.83-.91,3.37,3.37,0,0,1-.36-1.35l1.54-.1a1.91,1.91,0,0,0,.5,1.2.84.84,0,0,0,.65.26,1,1,0,0,0,.85-.47,1,1,0,0,0,.15-.62,1.67,1.67,0,0,0-.6-1.18l-1.44-1.19a5.5,5.5,0,0,1-1.13-1.23,2.58,2.58,0,0,1-.36-1.33,2.2,2.2,0,0,1,1.88-2.31v-1h1.16v1a2.52,2.52,0,0,1,.89.29,2.13,2.13,0,0,1,.78.74,2.55,2.55,0,0,1,.35,1.09l-1.54.26a1.55,1.55,0,0,0-.38-.91.82.82,0,0,0-.64-.22.74.74,0,0,0-.67.35,1.24,1.24,0,0,0-.18.69,2,2,0,0,0,.63,1.32,5.84,5.84,0,0,0,.72.61,7.18,7.18,0,0,1,.74.57,5.4,5.4,0,0,1,.93,1,4,4,0,0,1,.24.44,2.61,2.61,0,0,1,.25.91A2.48,2.48,0,0,1,284.36,94.27Z" transform="translate(-27.69 -52.47)"/><path class="f6391afc-1338-44a0-9dad-c54b72b88b3f" d="M279.94,98.1a6.41,6.41,0,0,0,2.73.89A6.09,6.09,0,0,1,279,98.1,7.36,7.36,0,0,1,276.69,96a9.9,9.9,0,0,1-.92-9.37,9,9,0,0,1,.93-1.68h0a6.7,6.7,0,0,1,6-3,6.91,6.91,0,0,0-5,3h0a8.46,8.46,0,0,0-.93,1.68,10,10,0,0,0,.91,9.37A7.5,7.5,0,0,0,279.94,98.1Z" transform="translate(-27.69 -52.47)"/><path class="a8c56312-d120-4f77-a972-84b11c51f3ea" d="M284.93,92.58a2.48,2.48,0,0,1-.57,1.69,2,2,0,0,1-1.11.68,2.7,2.7,0,0,1-.41.08v1h-1.16V95a2.13,2.13,0,0,1-.89-.35,2.29,2.29,0,0,1-.83-.91,3.37,3.37,0,0,1-.36-1.35l1.54-.1a1.91,1.91,0,0,0,.5,1.2.84.84,0,0,0,.65.26,1,1,0,0,0,.85-.47,1,1,0,0,0,.15-.62,1.67,1.67,0,0,0-.6-1.18l-1.44-1.19a5.5,5.5,0,0,1-1.13-1.23,2.58,2.58,0,0,1-.36-1.33,2.2,2.2,0,0,1,1.88-2.31v-1h1.16v1a2.52,2.52,0,0,1,.89.29,2.13,2.13,0,0,1,.78.74,2.55,2.55,0,0,1,.35,1.09l-1.54.26a1.55,1.55,0,0,0-.38-.91.82.82,0,0,0-.64-.22.74.74,0,0,0-.67.35,1.24,1.24,0,0,0-.18.69,2,2,0,0,0,.63,1.32,5.84,5.84,0,0,0,.72.61,7.18,7.18,0,0,1,.74.57,5.4,5.4,0,0,1,.93,1,4,4,0,0,1,.24.44A2.61,2.61,0,0,1,284.93,92.58Z" transform="translate(-27.69 -52.47)"/><path class="b45926b4-d1e1-481b-aad9-0d0629fddbfb" d="M288.57,94.28a7.26,7.26,0,0,1-5.9,4.71h0a6.33,6.33,0,0,1-2.71-.89A7.5,7.5,0,0,1,277.67,96a10,10,0,0,1-.91-9.37,8.46,8.46,0,0,1,.93-1.68h0a6.91,6.91,0,0,1,5-3h0a6.3,6.3,0,0,1,2.69.89C288.92,84.89,290.35,90.06,288.57,94.28Z" transform="translate(-27.69 -52.47)"/><path class="a9317f4c-76af-41b9-b852-8ce0167c97cf" d="M284.93,92.58a2.48,2.48,0,0,1-.57,1.69,2,2,0,0,1-1.11.68,2.7,2.7,0,0,1-.41.08v1h-1.16V95a2.13,2.13,0,0,1-.89-.35,2.29,2.29,0,0,1-.83-.91,3.37,3.37,0,0,1-.36-1.35l1.54-.1a1.91,1.91,0,0,0,.5,1.2.84.84,0,0,0,.65.26,1,1,0,0,0,.85-.47,1,1,0,0,0,.15-.62,1.67,1.67,0,0,0-.6-1.18l-1.44-1.19a5.5,5.5,0,0,1-1.13-1.23,2.58,2.58,0,0,1-.36-1.33,2.2,2.2,0,0,1,1.88-2.31v-1h1.16v1a2.52,2.52,0,0,1,.89.29,2.13,2.13,0,0,1,.78.74,2.55,2.55,0,0,1,.35,1.09l-1.54.26a1.55,1.55,0,0,0-.38-.91.82.82,0,0,0-.64-.22.74.74,0,0,0-.67.35,1.24,1.24,0,0,0-.18.69,2,2,0,0,0,.63,1.32,5.84,5.84,0,0,0,.72.61,7.18,7.18,0,0,1,.74.57,5.4,5.4,0,0,1,.93,1,4,4,0,0,1,.24.44A2.61,2.61,0,0,1,284.93,92.58Z" transform="translate(-27.69 -52.47)"/><polygon class="ff4d7c1d-4a11-4d1e-b160-cfbcca2ad56c" points="243.63 98.16 221.02 119.49 221.02 97.6 243.63 98.16"/><polygon class="b1b6996a-cc0f-4de0-bee7-87971d70110b" points="322.58 98.16 322.58 104.7 247.75 104.7 225.15 126.03 221.02 119.49 243.63 98.16 322.58 98.16"/><polygon class="b1b6996a-cc0f-4de0-bee7-87971d70110b" points="221.02 98.16 221.02 104.7 215.69 104.7 211.56 98.16 221.02 98.16"/></g><path id="b07c0543-00af-46b9-9a8b-9f0722d870c5" data-name="group02" class="fa7e55d3-3120-49db-982b-44e8d256e01a" d="M311.65,250.18a72.62,72.62,0,0,0,96.5,106l64,50.91a22.81,22.81,0,1,0,28.41-35.7l-63.92-50.92a72.61,72.61,0,0,0-124.94-70.33Zm88.88,4.93a51.45,51.45,0,0,1,18.24,51.24,50.64,50.64,0,0,1-10,21.15,51.52,51.52,0,1,1-8.23-72.39Z" transform="translate(-27.69 -52.47)"/><g id="aa4ea9fb-08e6-4a62-a1e7-f214113e36d2" data-name="group01"><path class="fa7e55d3-3120-49db-982b-44e8d256e01a" d="M187,150.27a9.77,9.77,0,0,1,7.06-9.39,35.16,35.16,0,0,0-3.56-8.57,9.78,9.78,0,0,1-11.56-1.59l-.07-.07a.23.23,0,0,1-.06-.09h0l-.92-.91c.24.23.53.49.78.74a9.67,9.67,0,0,1-1.41-11.34,35.26,35.26,0,0,0-8.56-3.56,9.78,9.78,0,0,1-18.78,0,35.66,35.66,0,0,0-8.57,3.56,9.69,9.69,0,0,1-1.49,11.44l.79-.75c-.3.31-.63.61-.93.91l-.16.17a9.79,9.79,0,0,1-11.47,1.49,35.56,35.56,0,0,0-3.56,8.57,9.75,9.75,0,0,1,0,18.75,35.8,35.8,0,0,0,3.56,8.58,9.78,9.78,0,0,1,11.54,1.56s0,.07.06.09.06,0,.08,0a9.74,9.74,0,0,1,1.58,11.55,35.66,35.66,0,0,0,8.57,3.56,9.83,9.83,0,0,1,9-7.05h.74a9.82,9.82,0,0,1,9,7.05,35.26,35.26,0,0,0,8.56-3.56A9.76,9.76,0,0,1,178.76,170a0,0,0,0,1,0,0l.21-.21a9.76,9.76,0,0,1,11.51-1.54,36.21,36.21,0,0,0,3.56-8.58A9.74,9.74,0,0,1,187,150.27Zm-27.72,12.81a12.81,12.81,0,1,1,12.81-12.81A12.82,12.82,0,0,1,159.28,163.08Z" transform="translate(-27.69 -52.47)"/><path class="aeb1f8b0-e7b5-4595-95d5-2e91c3b48ae4" d="M159.28,137.46a12.81,12.81,0,1,0,12.81,12.81A12.8,12.8,0,0,0,159.28,137.46Zm0,22.57a9.76,9.76,0,1,1,9.76-9.76A9.75,9.75,0,0,1,159.28,160Z" transform="translate(-27.69 -52.47)"/><path class="b1dca86f-08f7-44de-82c9-49578a9d585f" d="M178.64,130.39c-.25-.25-.54-.51-.78-.74l.92.91A.79.79,0,0,0,178.64,130.39ZM158.91,178a2.36,2.36,0,0,0,.37,0,2.23,2.23,0,0,0,.37,0Zm-19.08-47.48a1.14,1.14,0,0,0-.14.16c.3-.3.63-.6.93-.91Zm-.17.16a1,1,0,0,0-.13.17l.16-.17Z" transform="translate(-27.69 -52.47)"/><path class="b8a8511c-9457-4750-8766-a5c289ccbfd5" d="M178.94,130.72l-.06-.05a.7.7,0,0,1-.08-.1,27.73,27.73,0,0,0-39.21,39.21l.09.07a.09.09,0,0,0,.06.06,27.69,27.69,0,0,0,39,.07l0,0,.09-.1.1-.08,0,0a27.73,27.73,0,0,0-.06-39Zm-19.66,39.84a20.3,20.3,0,1,1,20.3-20.29A20.29,20.29,0,0,1,159.28,170.56Z" transform="translate(-27.69 -52.47)"/><path class="b8a8511c-9457-4750-8766-a5c289ccbfd5" d="M159.28,137.46a12.81,12.81,0,1,0,12.81,12.81A12.8,12.8,0,0,0,159.28,137.46Zm0,22.57a9.76,9.76,0,1,1,9.76-9.76A9.75,9.75,0,0,1,159.28,160Z" transform="translate(-27.69 -52.47)"/></g></g></g></svg>