<svg xmlns="http://www.w3.org/2000/svg" xmlns:xlink="http://www.w3.org/1999/xlink" viewBox="0 0 663.69 547.28"><defs><style>.b3072a7d-6719-42d7-9840-59fb2bf9b135,.bdeef517-91c9-4d8e-9747-f7a746792d0c{fill:none;}.ad50d50e-2442-46d4-ab8c-9282cd2f76a8{isolation:isolate;}.ee3c3c2f-fd30-4e98-bca3-b4e8072b29d4{clip-path:url(#f452f0c7-ea7e-463b-b823-4cc92e12fd16);}.bac9c93c-146c-4390-9b32-5ca57cd51e7e,.bda41302-4f7d-4d07-855a-12d9fd5886d0{opacity:0.7;}.b3072a7d-6719-42d7-9840-59fb2bf9b135{stroke:#fff;stroke-linecap:round;stroke-linejoin:round;stroke-width:3px;}.a2d4cdc1-9acd-4cbf-a6b8-72fdb08360fc,.bda41302-4f7d-4d07-855a-12d9fd5886d0,.f1c63383-a869-469a-a1d5-eb547dc510c9{fill:#e1e1e1;}.f1c63383-a869-469a-a1d5-eb547dc510c9{opacity:0.5;}.e0e89fd0-f048-42e6-bd56-1ba346afd5a4{fill:#eaeaea;}.f8ed1221-0b1f-469f-a89d-b6cf715298c0{fill:#fff;}.aa097e28-1528-484e-811a-f744e72e4f65{fill:#d06c2a;}.f6f7536d-8dd2-440f-99fd-3eb1147eafc2{fill:#d6813f;}.aa10f83a-8ebf-4739-ab82-3aaca83baed7{fill:#fad258;}.ea632bb2-09ed-4d4a-b749-4e96b5be48fc,.eb772005-461c-456a-bbed-b2b1ec05929e{fill:#bebef3;}.ea632bb2-09ed-4d4a-b749-4e96b5be48fc{mix-blend-mode:multiply;}.f68aadc9-768c-49d8-8222-6d3ce456b2d3{fill:#f1aa63;}.a021de19-8ce6-4df1-b7d7-ec3cd70e9bbd{fill:#ab713b;}.ef83b4fe-60b4-4bcc-9525-6ba3e6573d0d{fill:#ffc69c;}.bea945bc-5ebe-460b-9295-4825a56325d0{fill:#a16b37;opacity:0.33;}.a7616e1c-16c8-4900-8677-5aca75e80a4d{fill:#bfbfbf;}.a7a913bd-e449-43ea-b143-638f618638d9{fill:#ffdebd;}.b0f57b25-60bc-48dc-8acd-55f6ba793c89{fill:#ffd1a4;}.b77daf34-f054-4021-8d05-6c6be58c4db4{fill:#fed3a0;}.e670e20a-2258-4c06-a4d3-347aba915e14{fill:#ef9c52;}.a0407b0a-9592-4a59-9b07-f972db71a75c{fill:#2f2f2f;}.a4a181c7-846b-4ba4-86a7-9f4f8b9b9c5c{fill:#363a85;}.fe8ad0bc-203a-4613-9709-5d67a681072a{fill:#1f214d;}.f0c0c84a-b2a3-4520-8af9-f781cfcff933{fill:#3a3a3a;}.e78fc6d7-1f89-456d-978c-b6fadcc4f0f9{fill:#2d2d2d;}.b69050c8-429f-49cc-8bc1-db263d0b743b{fill:#2a2c66;}</style><clipPath id="f452f0c7-ea7e-463b-b823-4cc92e12fd16" transform="translate(-89.11 -84.05)"><circle class="bdeef517-91c9-4d8e-9747-f7a746792d0c" cx="416.52" cy="348.74" r="321.74"/></clipPath></defs><g class="ad50d50e-2442-46d4-ab8c-9282cd2f76a8"><g id="b949cf37-ee77-479e-a16e-4c054fefe01e" data-name="groups"><g class="ee3c3c2f-fd30-4e98-bca3-b4e8072b29d4"><g class="bac9c93c-146c-4390-9b32-5ca57cd51e7e"><path class="b3072a7d-6719-42d7-9840-59fb2bf9b135" d="M319.68,574.88a234.52,234.52,0,0,1-45.13-31.27" transform="translate(-89.11 -84.05)"/><path class="b3072a7d-6719-42d7-9840-59fb2bf9b135" d="M556.74,564.27a234.86,234.86,0,0,1-23.92,13.66" transform="translate(-89.11 -84.05)"/><path class="b3072a7d-6719-42d7-9840-59fb2bf9b135" d="M626,241.91a234,234,0,0,1-1.9,255.57" transform="translate(-89.11 -84.05)"/><path class="b3072a7d-6719-42d7-9840-59fb2bf9b135" d="M298.84,174.12a233.93,233.93,0,0,1,269.68,6.32" transform="translate(-89.11 -84.05)"/><path class="b3072a7d-6719-42d7-9840-59fb2bf9b135" d="M216,464.34a234.19,234.19,0,0,1,19.34-226.82" transform="translate(-89.11 -84.05)"/></g><path class="f1c63383-a869-469a-a1d5-eb547dc510c9" d="M183.69,257.87h-8.06v-8.06a2.2,2.2,0,0,0-4.4,0v8.06h-8.07a2.2,2.2,0,1,0,0,4.4h8.07v8.07a2.2,2.2,0,0,0,4.4,0v-8.07h8.06a2.2,2.2,0,0,0,0-4.4Z" transform="translate(-89.11 -84.05)"/><path class="f1c63383-a869-469a-a1d5-eb547dc510c9" d="M695,248.54h-8.06v-8.06a2.2,2.2,0,1,0-4.4,0v8.06h-8.07a2.2,2.2,0,0,0,0,4.4h8.07V261a2.2,2.2,0,1,0,4.4,0v-8.07H695a2.2,2.2,0,1,0,0-4.4Z" transform="translate(-89.11 -84.05)"/><path class="f1c63383-a869-469a-a1d5-eb547dc510c9" d="M294.88,99.39h-8.07V91.33a2.2,2.2,0,0,0-4.4,0v8.06h-8.06a2.2,2.2,0,0,0,0,4.4h8.06v8.07a2.2,2.2,0,0,0,4.4,0v-8.07h8.07a2.2,2.2,0,0,0,0-4.4Z" transform="translate(-89.11 -84.05)"/><path class="bda41302-4f7d-4d07-855a-12d9fd5886d0" d="M752.8,120.84a19.89,19.89,0,0,0-28.27-17,28.87,28.87,0,0,0-54.87.28,19.9,19.9,0,0,0-28.85,16.77Z" transform="translate(-89.11 -84.05)"/><path class="f1c63383-a869-469a-a1d5-eb547dc510c9" d="M208.26,173.08a19.76,19.76,0,0,0-28.11-17,28.7,28.7,0,0,0-54.56.28,19.78,19.78,0,0,0-28.7,16.67Z" transform="translate(-89.11 -84.05)"/><path class="e0e89fd0-f048-42e6-bd56-1ba346afd5a4" d="M260.2,157.17c-15.84,0-28.73,12.46-28.73,27.78,0,10,4,15.87,7,20.18,1.85,2.71,2.89,4.31,2.89,5.91,0,3.6,1.92,7,5.35,9.55.09,2.14.41,7.35.41,7.35,0,1.43.79,4.51,5.93,6.22a9,9,0,0,0,2.36,2.32,3.65,3.65,0,0,0,2,.62H263a3.63,3.63,0,0,0,2-.62,8.66,8.66,0,0,0,2.35-2.32c5.11-1.7,5.89-4.73,5.95-6.21h0s.31-5.21.4-7.35c3.43-2.55,5.36-6,5.36-9.55,0-1.61,1-3.2,2.86-5.88,3-4.35,7-10.27,7-20.21,0-15.32-12.89-27.78-28.73-27.78Zm-15.72,43.9c-2.71-4-5.75-8.42-5.75-16.12,0-11.31,9.62-20.52,21.47-20.52s21.46,9.22,21.46,20.52c0,7.69-3,12.15-5.71,16.08-2.15,3.15-4.16,6.09-4.16,10,0,1.73-1.56,3.11-2.71,3.92H251.32c-1.16-.81-2.72-2.19-2.72-3.92,0-3.92-2-6.86-4.12-10Zm0,0" transform="translate(-89.11 -84.05)"/><path class="f8ed1221-0b1f-469f-a89d-b6cf715298c0" d="M293.71,204.54" transform="translate(-89.11 -84.05)"/><path class="f8ed1221-0b1f-469f-a89d-b6cf715298c0" d="M220.52,207.48" transform="translate(-89.11 -84.05)"/><path class="f8ed1221-0b1f-469f-a89d-b6cf715298c0" d="M215.6,185.18" transform="translate(-89.11 -84.05)"/><path class="f8ed1221-0b1f-469f-a89d-b6cf715298c0" d="M241.54,155.75" transform="translate(-89.11 -84.05)"/><path class="aa097e28-1528-484e-811a-f744e72e4f65" d="M263.85,183.24a21.56,21.56,0,0,0,.22-2.59v-6.43c0-2.83-1.61-4.26-4.37-4.26s-4.38,1.43-4.38,4.26v6.43a21.63,21.63,0,0,0,.23,2.59l1.71,13c.22,1.61,1,2.05,2.44,2.05s2.21-.44,2.43-2.05Zm-1.72,13" transform="translate(-89.11 -84.05)"/><path class="aa097e28-1528-484e-811a-f744e72e4f65" d="M259.7,201.85a4.54,4.54,0,1,0,4.54,4.53,4.56,4.56,0,0,0-4.54-4.53Zm0,0" transform="translate(-89.11 -84.05)"/><path class="e0e89fd0-f048-42e6-bd56-1ba346afd5a4" d="M564.87,216.28v14.46a1.63,1.63,0,0,0,1.62,1.62h11.18a1.62,1.62,0,0,0,1.61-1.62V205.3l-8.12,8.12a9.89,9.89,0,0,1-6.29,2.86Zm0,0" transform="translate(-89.11 -84.05)"/><path class="e0e89fd0-f048-42e6-bd56-1ba346afd5a4" d="M584.86,205.11v25.63a1.62,1.62,0,0,0,1.61,1.62h11.18a1.63,1.63,0,0,0,1.62-1.62V215.65a9.7,9.7,0,0,1-6.73-2.86Zm0,0" transform="translate(-89.11 -84.05)"/><path class="e0e89fd0-f048-42e6-bd56-1ba346afd5a4" d="M604.84,214.06v16.68a1.62,1.62,0,0,0,1.61,1.62h11.18a1.63,1.63,0,0,0,1.62-1.62V200l-12.82,12.82a9.7,9.7,0,0,1-1.59,1.28Zm0,0" transform="translate(-89.11 -84.05)"/><path class="e0e89fd0-f048-42e6-bd56-1ba346afd5a4" d="M638.15,181l-13.33,13.33v36.37a1.62,1.62,0,0,0,1.61,1.62h11.19a1.62,1.62,0,0,0,1.61-1.62V182.05c-.37-.31-.64-.59-.84-.77Zm0,0" transform="translate(-89.11 -84.05)"/><path class="f6f7536d-8dd2-440f-99fd-3eb1147eafc2" d="M654.24,151.21a3.1,3.1,0,0,0-2.36-.86h-.3l-15.6.73a3.39,3.39,0,0,0-2.4.83,2.77,2.77,0,0,0-.57.84,2.68,2.68,0,0,0,.83,3.26l1.3,1.32c.9.92,1.81,1.84,2.73,2.74l-2.11,2.11L626,171s.09,0,.13,0l-26.7,26.72-14.14-14.13a4.46,4.46,0,0,0-3.19-1.32,4.41,4.41,0,0,0-3.17,1.32l-18.83,18.81a4.49,4.49,0,0,0,0,6.36l.85.84a4.49,4.49,0,0,0,6.36,0l14.79-14.79L596.28,209a4.5,4.5,0,0,0,3.19,1.32,4.55,4.55,0,0,0,3.19-1.32l30-30v0l12.42-11.72,4,4a3,3,0,0,0,2.14,1.13,2.77,2.77,0,0,0,1.29-.34,3.75,3.75,0,0,0,.77-.57,3.79,3.79,0,0,0,1-2.59c.14-3.37.31-6.74.47-10.14l.24-5.07A3.14,3.14,0,0,0,654.24,151.21Z" transform="translate(-89.11 -84.05)"/><path class="aa10f83a-8ebf-4739-ab82-3aaca83baed7" d="M647.3,157.43" transform="translate(-89.11 -84.05)"/><path class="e0e89fd0-f048-42e6-bd56-1ba346afd5a4" d="M452,610.72l11.35,1.33,4.84-9.8-8-8.2.57-8.59,9-7.09L466.26,568l-11.43-.17-5.68-6.47L450.49,550l-9.8-4.84-8.2,8-8.6-.57-7.08-9-10.35,3.51-.17,11.43-6.48,5.67-11.34-1.33-4.84,9.8,8,8.2-.57,8.59-9,7.09,3.51,10.35,11.43.17,5.67,6.48-1.33,11.34,9.8,4.84,8.2-8,8.59.57,7.09,9,10.35-3.51.17-11.43Zm-10.53-5.49a23.62,23.62,0,1,1,2.2-33.32A23.6,23.6,0,0,1,441.47,605.23Z" transform="translate(-89.11 -84.05)"/><path class="aa097e28-1528-484e-811a-f744e72e4f65" d="M367.33,591.7l6.69.79,2.86-5.79-4.7-4.83.33-5.07,5.3-4.18-2.07-6.11-6.75-.1-3.35-3.82.79-6.7L360.65,553l-4.84,4.7-5.07-.33-4.18-5.29-6.11,2.07-.1,6.74-3.82,3.35-6.7-.79L327,569.27l4.69,4.83-.33,5.07-5.29,4.18,2.07,6.11,6.74.1,3.35,3.82-.79,6.7,5.79,2.85,4.84-4.69,5.07.33,4.18,5.29,6.1-2.07.1-6.74Zm-6.22-3.23a13.94,13.94,0,1,1,1.3-19.67A13.93,13.93,0,0,1,361.11,588.47Z" transform="translate(-89.11 -84.05)"/><path class="aa097e28-1528-484e-811a-f744e72e4f65" d="M516.93,591.7l6.7.79,2.86-5.79-4.7-4.83.33-5.07,5.3-4.18-2.08-6.11-6.74-.1-3.35-3.82.79-6.7L510.26,553l-4.84,4.7-5.07-.33-4.18-5.29-6.11,2.07-.1,6.74-3.82,3.35-6.7-.79-2.85,5.79,4.69,4.83-.33,5.07-5.29,4.18,2.07,6.11,6.74.1,3.35,3.82-.79,6.7,5.79,2.85,4.83-4.69,5.08.33,4.17,5.29,6.11-2.07.1-6.74Zm-6.21-3.23A13.94,13.94,0,1,1,512,568.8,13.93,13.93,0,0,1,510.72,588.47Z" transform="translate(-89.11 -84.05)"/><rect class="e0e89fd0-f048-42e6-bd56-1ba346afd5a4" x="231.9" y="25.51" width="211.43" height="299.74"/><rect class="ea632bb2-09ed-4d4a-b749-4e96b5be48fc" x="246.83" y="91.42" width="150.08" height="9.12"/><rect class="eb772005-461c-456a-bbed-b2b1ec05929e" x="281.03" y="51.21" width="98.25" height="9.12"/><rect class="ea632bb2-09ed-4d4a-b749-4e96b5be48fc" x="246.83" y="112.15" width="180.76" height="9.12"/><rect class="ea632bb2-09ed-4d4a-b749-4e96b5be48fc" x="246.83" y="132.88" width="180.76" height="9.12"/><rect class="ea632bb2-09ed-4d4a-b749-4e96b5be48fc" x="246.83" y="153.61" width="180.76" height="9.12"/><rect class="ea632bb2-09ed-4d4a-b749-4e96b5be48fc" x="246.83" y="174.34" width="180.76" height="9.12"/><rect class="ea632bb2-09ed-4d4a-b749-4e96b5be48fc" x="246.83" y="195.07" width="180.76" height="9.12"/><rect class="ea632bb2-09ed-4d4a-b749-4e96b5be48fc" x="246.83" y="217.45" width="180.76" height="9.12"/><rect class="eb772005-461c-456a-bbed-b2b1ec05929e" x="246.83" y="304.21" width="67.99" height="3.32"/><rect class="eb772005-461c-456a-bbed-b2b1ec05929e" x="357.52" y="304.21" width="67.99" height="3.32"/><path class="f68aadc9-768c-49d8-8222-6d3ce456b2d3" d="M361.29,487.13l.26-11.65c-3.43-3.58-3-9.55.87-13.41l6.93-6.83c4.7-4.49,11.8-4.7,15.85-.46h0c4.06,4.25,3.55,11.33-1.15,15.82l-5.45,7.72C376.22,482.88,372.07,490.24,361.29,487.13Z" transform="translate(-89.11 -84.05)"/><path class="f68aadc9-768c-49d8-8222-6d3ce456b2d3" d="M413.28,503l-9.55-3.63a5.5,5.5,0,0,1-1.12-7.59l8.27-11.4a10.11,10.11,0,0,1,14.17-1.89h0a10.11,10.11,0,0,1,1.9,14.17l-7,8.55A5.91,5.91,0,0,1,413.28,503Z" transform="translate(-89.11 -84.05)"/><path class="f68aadc9-768c-49d8-8222-6d3ce456b2d3" d="M386.06,497.39l-1-8.62c-3.42-3.58-3-9.55.88-13.41l6.92-6.82c4.7-4.5,11.8-4.71,15.86-.46h0c4.06,4.24,3.54,11.32-1.16,15.82l-5.29,9.34C398.23,497.19,392.8,501,386.06,497.39Z" transform="translate(-89.11 -84.05)"/><path class="f68aadc9-768c-49d8-8222-6d3ce456b2d3" d="M339,469.82l-.16-8c-3.43-3.59-3-9.55.87-13.41l6.93-6.83c4.7-4.49,11.8-4.7,15.86-.46h0c4.06,4.24,3.54,11.33-1.16,15.82l-6.17,6.68C353.42,467.93,342.52,473.49,339,469.82Z" transform="translate(-89.11 -84.05)"/><path class="a021de19-8ce6-4df1-b7d7-ec3cd70e9bbd" d="M446.17,330.31s-110.08,96.12-112.71,108c0,0,4.11,2.48,8.26,8.72,4.8,7.23,11.22,10.57,14.83,9.16,5.19-2,5.23-5.72,5.23-5.72l71,36.34s27.31-4.92,87.62-53.74l16.73-18.46Z" transform="translate(-89.11 -84.05)"/><path class="ef83b4fe-60b4-4bcc-9525-6ba3e6573d0d" d="M359.62,328.14l47.91-12.33s16.6-9.29,30.86,3.46c0,0-18.54,32.68,9.95,42.27,0,0,26.88,16.67,40.28,32,6.73,7.71,21.52,21.21,28.42,28.66,1.86,2,5.77,5.12,7.59,8,2.53,4,7.24,12.57-2.88,19,0,0-7,6.4-18.28-2.69-10.47-8.44-27-26-38.06-35.12-.41-.34-1.78-1.64-2.59-.66-.24.29-.17,1.17,1.27,2.68,5,5.2,26.41,26.24,26.41,26.24s8.16,7.34,9.89,10.76c1.51,3,3.62,9.44-2.56,15.35,0,0-8.86,9.06-20.88-.54l-33.27-30.5s-2.28-2.29-3.1-1.41c-.57.61.12,1.84,1.61,3.14,0,0,33.67,31,34.45,34.39,2.24,9.68-5.85,20.74-19.91,13.13L421.6,458.33a1.16,1.16,0,0,0-1.7.19c-.41.56.05,1.22.88,1.78,0,0,33,23,34.92,25.11,2.58,2.72-5.81,12.95-19.74,6.67-19.86-8.95-60.19-25.65-79.41-35.9a245.24,245.24,0,0,1-25.65-16.81s-20.77-17.05-51.6-21.55l34.16-86.44S344.42,334.37,359.62,328.14Z" transform="translate(-89.11 -84.05)"/><path class="bea945bc-5ebe-460b-9295-4825a56325d0" d="M357.75,329.07c-20.83,5-43.53,2.49-43.53,2.49l-34.3,86.26c30.83,4.5,51.6,21.55,51.6,21.55a245.24,245.24,0,0,0,25.65,16.81c1.9,1,4,2.09,6.29,3.22C352.11,447.85,320.91,398,357.75,329.07Z" transform="translate(-89.11 -84.05)"/><path class="a021de19-8ce6-4df1-b7d7-ec3cd70e9bbd" d="M375.11,387.17s17,17.36,42.22-24.72c0,0,10,4.94,27.32-2.4l4-4.82s-33.31-.65-33.25,0S375.11,387.17,375.11,387.17Z" transform="translate(-89.11 -84.05)"/><path class="a2d4cdc1-9acd-4cbf-a6b8-72fdb08360fc" d="M330.55,370.3a365.45,365.45,0,0,0-4.72-50.76H272.44l-6.5,116.27,59.92,2.05A366.87,366.87,0,0,0,330.55,370.3Z" transform="translate(-89.11 -84.05)"/><path class="a7616e1c-16c8-4900-8677-5aca75e80a4d" d="M302.27,319.61l-59.15-1.11-7.05,116.91c19.42.67,38.25,1,65.71,1.61Z" transform="translate(-89.11 -84.05)"/><path class="a7a913bd-e449-43ea-b143-638f618638d9" d="M460.73,319s-18.35-8.44-34.83,4.39l-26.39,11.91s-10.89,2.14-15.89,15.72l-14.05,21.74s-10,13.36,11.93,15.62a13.66,13.66,0,0,0,7.39-1.32c5.6-2.73,16.48-9.66,26.95-25.47l.3-3.09s1.22,4,10.08,3.58c0,0,9.33-2,22.22-4.5,0,0,1.7,2.7,12.76,10.72,0,0,27.14,18.88,32.87,27.84L525.54,427s5.68-1.48,21.76-20.69l31.35-6.88L558,318.5s-50.29,3.81-64.54,3.43Z" transform="translate(-89.11 -84.05)"/><path class="b0f57b25-60bc-48dc-8acd-55f6ba793c89" d="M474.16,320.68c74.46,19.79,72.8,76.17,72.58,87.77.59-.69,1.19-1.39,1.81-2.13l31.35-6.88L557.79,318.5s-48.82,3.81-63.07,3.43l-22.11-2A8.46,8.46,0,0,0,474.16,320.68Z" transform="translate(-89.11 -84.05)"/><path class="b77daf34-f054-4021-8d05-6c6be58c4db4" d="M376.55,361.94A9,9,0,0,1,386,363a6.5,6.5,0,0,1,2.11,7.93c-1.76,3.92-4.63,9.53-7.14,11.07-3.06,1.88-12.42,1.62-13.63-3.36C367.33,378.63,366.8,373.58,376.55,361.94Z" transform="translate(-89.11 -84.05)"/><path class="e670e20a-2258-4c06-a4d3-347aba915e14" d="M471.3,375.63s18.58,10.53,40.37-2.83c0,0-15.91,16.61-33.44,8.2Z" transform="translate(-89.11 -84.05)"/><path class="a0407b0a-9592-4a59-9b07-f972db71a75c" d="M303,419.71a6.56,6.56,0,1,1-8-4.7A6.56,6.56,0,0,1,303,419.71Z" transform="translate(-89.11 -84.05)"/><path class="a4a181c7-846b-4ba4-86a7-9f4f8b9b9c5c" d="M302.6,418.28a6.56,6.56,0,1,1-8-4.69A6.56,6.56,0,0,1,302.6,418.28Z" transform="translate(-89.11 -84.05)"/><path class="a021de19-8ce6-4df1-b7d7-ec3cd70e9bbd" d="M345.78,452.27c4.44,2.42,8.83,4.93,13.27,7.38l.87-1.35a13.12,13.12,0,0,0-4.26-18h0a13.12,13.12,0,0,0-18,4.26l-1.35,2.1A67.31,67.31,0,0,0,345.78,452.27Z" transform="translate(-89.11 -84.05)"/><path class="a021de19-8ce6-4df1-b7d7-ec3cd70e9bbd" d="M378.6,458.73c7.48,4.08,5.08,6.84,1.66,15.24l9-11.94A13.12,13.12,0,0,0,385,444h0a13.11,13.11,0,0,0-18,4.26l-7.09,11.88C360.11,460.24,378.41,458.63,378.6,458.73Z" transform="translate(-89.11 -84.05)"/><path class="a021de19-8ce6-4df1-b7d7-ec3cd70e9bbd" d="M391.37,477.15c5.19,2.85,10.33,5.81,15.49,8.71l4.83-8.29a13.11,13.11,0,0,0-4.26-18h0a13.11,13.11,0,0,0-18,4.26L384,473.13C386.43,474.47,388.91,475.8,391.37,477.15Z" transform="translate(-89.11 -84.05)"/><path class="a021de19-8ce6-4df1-b7d7-ec3cd70e9bbd" d="M421.13,493.56c1,.51,4.12-1.89,6.07-3.53a8.59,8.59,0,0,0,3.12-5.36c.46-3.34-1.18-6.44-4.61-8.56a10.11,10.11,0,0,0-13.91,3.29l-4.11,6.92C412.13,488.81,416.59,491.26,421.13,493.56Z" transform="translate(-89.11 -84.05)"/><path class="a7a913bd-e449-43ea-b143-638f618638d9" d="M334.73,469h0a13.09,13.09,0,0,1-4.13-18.22l3.08-4.81a13.12,13.12,0,0,1,18-4.26h0a13.12,13.12,0,0,1,4.26,18l-3.34,5.19A13.1,13.1,0,0,1,334.73,469Z" transform="translate(-89.11 -84.05)"/><path class="a7a913bd-e449-43ea-b143-638f618638d9" d="M357,485.75l-.6-.37A12.76,12.76,0,0,1,352.15,468l10.92-18.3a13.11,13.11,0,0,1,18-4.26h0a13.11,13.11,0,0,1,4.26,18l-10.71,17.95A12.75,12.75,0,0,1,357,485.75Z" transform="translate(-89.11 -84.05)"/><path class="a7a913bd-e449-43ea-b143-638f618638d9" d="M384.34,496.84l-3.61-2.22A11,11,0,0,1,377,479.75l8.44-14.5a13.12,13.12,0,0,1,18-4.26h0a13.11,13.11,0,0,1,4.26,18l-8.15,14A11,11,0,0,1,384.34,496.84Z" transform="translate(-89.11 -84.05)"/><path class="a7a913bd-e449-43ea-b143-638f618638d9" d="M407.11,505.27,404,503.32a8.26,8.26,0,0,1-2.76-11.23l6.67-11.24a10.11,10.11,0,0,1,13.91-3.29h0a10.11,10.11,0,0,1,3.29,13.91l-6.52,11A8.25,8.25,0,0,1,407.11,505.27Z" transform="translate(-89.11 -84.05)"/><path class="b77daf34-f054-4021-8d05-6c6be58c4db4" d="M340.41,446.64,339,448.71A7.07,7.07,0,1,0,351.11,456l1.17-1.77c.26-.39.43-.81,1.47-2.49l-11.59-7.27C340.92,446,340.63,446.3,340.41,446.64Z" transform="translate(-89.11 -84.05)"/><path class="b77daf34-f054-4021-8d05-6c6be58c4db4" d="M368.17,451.72a7.5,7.5,0,0,0,2.33,10.35,7.57,7.57,0,0,0,3.92,1.16,7.47,7.47,0,0,0,6.42-3.48l3.37-5.06-12.61-8.11Z" transform="translate(-89.11 -84.05)"/><path class="b77daf34-f054-4021-8d05-6c6be58c4db4" d="M390,468.37a7.49,7.49,0,0,0,12.92,7.6l2.45-4.46-12.88-7.67Z" transform="translate(-89.11 -84.05)"/><path class="b77daf34-f054-4021-8d05-6c6be58c4db4" d="M411.06,484.71a5.1,5.1,0,0,0,8.75,5.26l2.51-4.51-8.72-5.29Z" transform="translate(-89.11 -84.05)"/><polygon class="a4a181c7-846b-4ba4-86a7-9f4f8b9b9c5c" points="186.56 216.42 0.91 216.42 0 357.79 186.56 357.79 186.56 216.42"/><polygon class="a2d4cdc1-9acd-4cbf-a6b8-72fdb08360fc" points="452.87 225 456.12 331.84 498.43 331.89 493.85 223.25 452.87 225"/><polygon class="a7616e1c-16c8-4900-8677-5aca75e80a4d" points="476.52 223.77 479.66 332.27 527.39 332.24 522.98 222.01 476.52 223.77"/><path class="a0407b0a-9592-4a59-9b07-f972db71a75c" d="M570.56,400.62a6.56,6.56,0,1,1-4.56-8.08A6.56,6.56,0,0,1,570.56,400.62Z" transform="translate(-89.11 -84.05)"/><path class="fe8ad0bc-203a-4613-9709-5d67a681072a" d="M571,399.2a6.56,6.56,0,1,1-4.55-8.08A6.56,6.56,0,0,1,571,399.2Z" transform="translate(-89.11 -84.05)"/><rect class="f0c0c84a-b2a3-4520-8af9-f781cfcff933" x="504.95" y="205.85" width="148" height="141.58"/><path class="e78fc6d7-1f89-456d-978c-b6fadcc4f0f9" d="M593.71,431.47H742.06V335.25C688.9,432.92,593.57,430.66,593.71,431.47Z" transform="translate(-89.11 -84.05)"/><path class="b69050c8-429f-49cc-8bc1-db263d0b743b" d="M108.7,300.46H90l-.91,141.38H205.29C202,439.34,125.8,409.29,108.7,300.46Z" transform="translate(-89.11 -84.05)"/><path class="aa097e28-1528-484e-811a-f744e72e4f65" d="M513.51,161.86a12.88,12.88,0,0,1-5.85,2.67,21.16,21.16,0,0,1-6.05.22A40.42,40.42,0,0,1,497,164c-1.62-.34-3.22-.75-4.83-1.12-2.65-.61-5.3-1.22-7.95-1.81l-.37-.09-1.61-.36-.67,2.9a4.23,4.23,0,0,0,.57,3.32,4.39,4.39,0,0,0,2.75,2l23.44,5.38a4.23,4.23,0,0,0,3.32-.57,4.42,4.42,0,0,0,2-2.75l3-12.95A12.64,12.64,0,0,1,513.51,161.86Z" transform="translate(-89.11 -84.05)"/><path class="f6f7536d-8dd2-440f-99fd-3eb1147eafc2" d="M521.46,132.63a10.76,10.76,0,0,0-1.37-3.92l-7.64-12.2a4.23,4.23,0,0,0-2.76-2,4.32,4.32,0,0,0-3.34.54l-12.2,7.63a10.75,10.75,0,0,0-2.95,2.93,10.48,10.48,0,0,0-1.78,3.74l-6.27,27.17,1.58.36c2.6.58,5.2,1.18,7.81,1.78,3.56.81,7.14,1.83,10.82,2a11.59,11.59,0,0,0,6.74-1.46,9.35,9.35,0,0,0,3.65-5.16v0a9.49,9.49,0,0,0-.49-7.87c-1.52-2.65-4.6-4.66-8.45-5.52l.91-4c5,1.12,9,3.85,11.14,7.51a12.57,12.57,0,0,1,1.61,5.57l3-12.86A10.76,10.76,0,0,0,521.46,132.63Zm-17,19.61-.87,3.92-3.33-.74-.9,3.59-3.92-.88.9-3.59-1.18-.27L486,152.21l.86-3.85,12.2-11.21-1.38,6.15-6.59,5.93,5,1.12,1.18.27,3.38-15.12,3.92.88-3.38,15.11Zm5.33-23.48a3.21,3.21,0,0,1-1.48,2.07,3.24,3.24,0,0,1-2.52.43,3.33,3.33,0,0,1-2.49-4,3.16,3.16,0,0,1,1.47-2.07,3.33,3.33,0,0,1,4.6,1A3.28,3.28,0,0,1,509.84,128.76Z" transform="translate(-89.11 -84.05)"/></g></g></g></svg>