<svg id="e880bee7-d787-466f-8814-5e33660500e9" data-name="圖層 1" xmlns="http://www.w3.org/2000/svg" viewBox="0 0 371.26 564"><defs><style>.a2ca3103-7894-4eb8-b3ba-e295ed0c3a88{fill:none;}.ae0d2ed4-1353-4df1-b274-e7215bc599f6{fill:#657991;}.e89a8029-af7f-40a8-a7e6-dd68d4b2e6c2{fill:#fff;}.e031110b-eca7-4772-bcb6-775bb68eff6f{fill:#90b8da;}.f9966942-ade7-4333-8c67-387323902ba7{fill:#f0f3f6;}.f903fd49-479d-4dcc-bd62-b6d39ed4fb02{fill:#596b7f;}.a8cb35ff-51a5-41ec-a8ee-f52cd9a66621{fill:#b7d2e7;}.b0d7ada7-d19e-437e-ba24-96948c62c483{fill:#e04540;}</style></defs><path class="a2ca3103-7894-4eb8-b3ba-e295ed0c3a88" d="M540,133.91a7.94,7.94,0,1,0-7.94-7.94A7.93,7.93,0,0,0,540,133.91Z" transform="translate(-354.37 -109.32)"/><path class="ae0d2ed4-1353-4df1-b274-e7215bc599f6" d="M705.57,139H579.09a40.44,40.44,0,0,1,1.46,9.2H654a14.4,14.4,0,0,1,14.4,14.4v.23h14.39A14.47,14.47,0,0,1,697.2,177.3V635a14.46,14.46,0,0,1-14.46,14.46H397.26A14.46,14.46,0,0,1,382.8,635V177.3a14.47,14.47,0,0,1,14.46-14.47h14.39v-.23a14.4,14.4,0,0,1,14.4-14.4h73.4a40.44,40.44,0,0,1,1.46-9.2H374.43a20.06,20.06,0,0,0-20.06,20.06V653.25a20.07,20.07,0,0,0,20.06,20.07H705.57a20.07,20.07,0,0,0,20.06-20.07V159.06A20.06,20.06,0,0,0,705.57,139Z" transform="translate(-354.37 -109.32)"/><path class="e89a8029-af7f-40a8-a7e6-dd68d4b2e6c2" d="M664,185H416a4.34,4.34,0,0,1-4.34-4.34V162.83H397.26A14.47,14.47,0,0,0,382.8,177.3V635a14.46,14.46,0,0,0,14.46,14.46H682.74A14.46,14.46,0,0,0,697.2,635V177.3a14.47,14.47,0,0,0-14.46-14.47H668.35v17.82A4.34,4.34,0,0,1,664,185Z" transform="translate(-354.37 -109.32)"/><path class="e031110b-eca7-4772-bcb6-775bb68eff6f" d="M426.05,148.2a14.4,14.4,0,0,0-14.4,14.4v18.05A4.34,4.34,0,0,0,416,185H664a4.34,4.34,0,0,0,4.34-4.34V162.6A14.4,14.4,0,0,0,654,148.2h-73.4a40.59,40.59,0,0,0-81.1,0ZM540,118a7.94,7.94,0,1,1-7.94,7.94A7.93,7.93,0,0,1,540,118Z" transform="translate(-354.37 -109.32)"/><path class="f9966942-ade7-4333-8c67-387323902ba7" d="M416,190.13H664a4.34,4.34,0,0,0,4.34-4.34v-5.14A4.34,4.34,0,0,1,664,185H416a4.34,4.34,0,0,1-4.34-4.34v5.14A4.34,4.34,0,0,0,416,190.13Z" transform="translate(-354.37 -109.32)"/><path class="f903fd49-479d-4dcc-bd62-b6d39ed4fb02" d="M682.74,649.48H397.26A14.46,14.46,0,0,1,382.8,635V200.81l-28.43-41.6v494a20.07,20.07,0,0,0,20.06,20.07H705.58l0,0-17.09-25A14.38,14.38,0,0,1,682.74,649.48Z" transform="translate(-354.37 -109.32)"/><path class="f9966942-ade7-4333-8c67-387323902ba7" d="M397.26,649.48H682.74a14.38,14.38,0,0,0,5.8-1.22h0L382.8,200.81V635A14.46,14.46,0,0,0,397.26,649.48Z" transform="translate(-354.37 -109.32)"/><path class="a8cb35ff-51a5-41ec-a8ee-f52cd9a66621" d="M654.64,148.23c-1,.94-1.94,1.87-2.89,2.82Q634.43,167.93,617.3,185h9.51c9.79-9.84,19.49-19.78,29.18-29.72,1.7-1.72,3.38-3.45,5.06-5.19A14.26,14.26,0,0,0,654.64,148.23Z" transform="translate(-354.37 -109.32)"/><path class="a8cb35ff-51a5-41ec-a8ee-f52cd9a66621" d="M428.63,185q18.48-18.31,36.79-36.79h-6.64Q440.33,166.5,422.06,185Z" transform="translate(-354.37 -109.32)"/><path class="a8cb35ff-51a5-41ec-a8ee-f52cd9a66621" d="M618.5,169.34l21.11-21.14H620.47L608.9,159.74c-8.46,8.45-17.51,16.7-26.19,25.25h20.7C608.44,179.7,613.43,174.41,618.5,169.34Z" transform="translate(-354.37 -109.32)"/><path class="a8cb35ff-51a5-41ec-a8ee-f52cd9a66621" d="M488.81,148.2H473.62C461,160.43,448.33,172.61,435.86,185h17.2C465,172.77,476.88,160.42,488.81,148.2Z" transform="translate(-354.37 -109.32)"/><path class="e031110b-eca7-4772-bcb6-775bb68eff6f" d="M447.88,227.21h-21a8.31,8.31,0,0,0-8.31,8.31v21a8.31,8.31,0,0,0,8.31,8.31h21a8.31,8.31,0,0,0,8.31-8.31v-21A8.31,8.31,0,0,0,447.88,227.21Zm3.72,24.71a8.31,8.31,0,0,1-8.31,8.31h-11.8a8.31,8.31,0,0,1-8.31-8.31V240.11a8.31,8.31,0,0,1,8.31-8.31h11.8a8.31,8.31,0,0,1,8.31,8.31Z" transform="translate(-354.37 -109.32)"/><path class="e031110b-eca7-4772-bcb6-775bb68eff6f" d="M660.05,235.3H506.14a2.08,2.08,0,0,1-2.07-2.08h0a2.07,2.07,0,0,1,2.07-2.07H660.05a2.08,2.08,0,0,1,2.08,2.07h0A2.08,2.08,0,0,1,660.05,235.3Z" transform="translate(-354.37 -109.32)"/><path class="e031110b-eca7-4772-bcb6-775bb68eff6f" d="M660.05,248.09H474.44a2.07,2.07,0,0,1-2.07-2.07h0a2.08,2.08,0,0,1,2.07-2.08H660.05a2.08,2.08,0,0,1,2.08,2.08h0A2.08,2.08,0,0,1,660.05,248.09Z" transform="translate(-354.37 -109.32)"/><path class="e031110b-eca7-4772-bcb6-775bb68eff6f" d="M627.46,260.88h-153a2.07,2.07,0,0,1-2.07-2.07h0a2.08,2.08,0,0,1,2.07-2.08h153a2.08,2.08,0,0,1,2.08,2.08h0A2.08,2.08,0,0,1,627.46,260.88Z" transform="translate(-354.37 -109.32)"/><path class="e031110b-eca7-4772-bcb6-775bb68eff6f" d="M447.88,311.16h-21a8.31,8.31,0,0,0-8.31,8.31v21a8.31,8.31,0,0,0,8.31,8.31h21a8.31,8.31,0,0,0,8.31-8.31v-21A8.31,8.31,0,0,0,447.88,311.16Zm3.72,24.71a8.31,8.31,0,0,1-8.31,8.3h-11.8a8.31,8.31,0,0,1-8.31-8.3V324.06a8.31,8.31,0,0,1,8.31-8.31h11.8a8.31,8.31,0,0,1,8.31,8.31Z" transform="translate(-354.37 -109.32)"/><path class="e031110b-eca7-4772-bcb6-775bb68eff6f" d="M660.05,319.25H506.14a2.08,2.08,0,0,1-2.07-2.08h0a2.07,2.07,0,0,1,2.07-2.07H660.05a2.08,2.08,0,0,1,2.08,2.07h0A2.08,2.08,0,0,1,660.05,319.25Z" transform="translate(-354.37 -109.32)"/><path class="e031110b-eca7-4772-bcb6-775bb68eff6f" d="M660.05,332H474.44a2.08,2.08,0,0,1-2.07-2.08h0a2.07,2.07,0,0,1,2.07-2.07H660.05a2.08,2.08,0,0,1,2.08,2.07h0A2.08,2.08,0,0,1,660.05,332Z" transform="translate(-354.37 -109.32)"/><path class="e031110b-eca7-4772-bcb6-775bb68eff6f" d="M627.46,344.83h-153a2.07,2.07,0,0,1-2.07-2.07h0a2.08,2.08,0,0,1,2.07-2.08h153a2.08,2.08,0,0,1,2.08,2.08h0A2.08,2.08,0,0,1,627.46,344.83Z" transform="translate(-354.37 -109.32)"/><path class="e031110b-eca7-4772-bcb6-775bb68eff6f" d="M447.88,395.11h-21a8.31,8.31,0,0,0-8.31,8.31v21a8.3,8.3,0,0,0,8.31,8.3h21a8.3,8.3,0,0,0,8.31-8.3v-21A8.31,8.31,0,0,0,447.88,395.11Zm3.72,24.71a8.31,8.31,0,0,1-8.31,8.3h-11.8a8.31,8.31,0,0,1-8.31-8.3V408a8.31,8.31,0,0,1,8.31-8.31h11.8A8.31,8.31,0,0,1,451.6,408Z" transform="translate(-354.37 -109.32)"/><path class="e031110b-eca7-4772-bcb6-775bb68eff6f" d="M660.05,403.2H506.14a2.08,2.08,0,0,1-2.07-2.08h0a2.07,2.07,0,0,1,2.07-2.07H660.05a2.08,2.08,0,0,1,2.08,2.07h0A2.08,2.08,0,0,1,660.05,403.2Z" transform="translate(-354.37 -109.32)"/><path class="e031110b-eca7-4772-bcb6-775bb68eff6f" d="M660.05,416H474.44a2.08,2.08,0,0,1-2.07-2.08h0a2.07,2.07,0,0,1,2.07-2.07H660.05a2.08,2.08,0,0,1,2.08,2.07h0A2.08,2.08,0,0,1,660.05,416Z" transform="translate(-354.37 -109.32)"/><path class="e031110b-eca7-4772-bcb6-775bb68eff6f" d="M627.46,428.78h-153a2.07,2.07,0,0,1-2.07-2.07h0a2.08,2.08,0,0,1,2.07-2.08h153a2.08,2.08,0,0,1,2.08,2.08h0A2.08,2.08,0,0,1,627.46,428.78Z" transform="translate(-354.37 -109.32)"/><path class="e031110b-eca7-4772-bcb6-775bb68eff6f" d="M447.88,479.06h-21a8.31,8.31,0,0,0-8.31,8.31v21a8.31,8.31,0,0,0,8.31,8.3h21a8.31,8.31,0,0,0,8.31-8.3v-21A8.31,8.31,0,0,0,447.88,479.06Zm3.72,24.71a8.31,8.31,0,0,1-8.31,8.3h-11.8a8.31,8.31,0,0,1-8.31-8.3V492a8.31,8.31,0,0,1,8.31-8.31h11.8A8.31,8.31,0,0,1,451.6,492Z" transform="translate(-354.37 -109.32)"/><path class="e031110b-eca7-4772-bcb6-775bb68eff6f" d="M660.05,487.15H506.14a2.08,2.08,0,0,1-2.07-2.08h0a2.07,2.07,0,0,1,2.07-2.07H660.05a2.08,2.08,0,0,1,2.08,2.07h0A2.08,2.08,0,0,1,660.05,487.15Z" transform="translate(-354.37 -109.32)"/><path class="e031110b-eca7-4772-bcb6-775bb68eff6f" d="M660.05,499.94H474.44a2.08,2.08,0,0,1-2.07-2.08h0a2.07,2.07,0,0,1,2.07-2.07H660.05a2.08,2.08,0,0,1,2.08,2.07h0A2.08,2.08,0,0,1,660.05,499.94Z" transform="translate(-354.37 -109.32)"/><path class="e031110b-eca7-4772-bcb6-775bb68eff6f" d="M627.46,512.73h-153a2.08,2.08,0,0,1-2.07-2.08h0a2.07,2.07,0,0,1,2.07-2.07h153a2.08,2.08,0,0,1,2.08,2.07h0A2.08,2.08,0,0,1,627.46,512.73Z" transform="translate(-354.37 -109.32)"/><path class="e031110b-eca7-4772-bcb6-775bb68eff6f" d="M447.88,563h-21a8.31,8.31,0,0,0-8.31,8.31v21a8.31,8.31,0,0,0,8.31,8.3h21a8.31,8.31,0,0,0,8.31-8.3v-21A8.31,8.31,0,0,0,447.88,563Zm3.72,24.7a8.31,8.31,0,0,1-8.31,8.31h-11.8a8.31,8.31,0,0,1-8.31-8.31v-11.8a8.31,8.31,0,0,1,8.31-8.31h11.8a8.31,8.31,0,0,1,8.31,8.31Z" transform="translate(-354.37 -109.32)"/><path class="e031110b-eca7-4772-bcb6-775bb68eff6f" d="M660.05,571.09H506.14a2.07,2.07,0,0,1-2.07-2.07h0a2.07,2.07,0,0,1,2.07-2.07H660.05a2.07,2.07,0,0,1,2.08,2.07h0A2.07,2.07,0,0,1,660.05,571.09Z" transform="translate(-354.37 -109.32)"/><path class="e031110b-eca7-4772-bcb6-775bb68eff6f" d="M660.05,583.89H474.44a2.08,2.08,0,0,1-2.07-2.08h0a2.07,2.07,0,0,1,2.07-2.07H660.05a2.08,2.08,0,0,1,2.08,2.07h0A2.08,2.08,0,0,1,660.05,583.89Z" transform="translate(-354.37 -109.32)"/><path class="e031110b-eca7-4772-bcb6-775bb68eff6f" d="M627.46,596.68h-153a2.08,2.08,0,0,1-2.07-2.08h0a2.07,2.07,0,0,1,2.07-2.07h153a2.08,2.08,0,0,1,2.08,2.07h0A2.08,2.08,0,0,1,627.46,596.68Z" transform="translate(-354.37 -109.32)"/><path class="b0d7ada7-d19e-437e-ba24-96948c62c483" d="M455,225.27a51.5,51.5,0,0,0-17.67,24.21c-3.11-3-6.27-5.67-11.06-5-2.23.31-2.15,4,0,4.41,4.39.78,7.67,6,9.84,9.56a3.9,3.9,0,0,0,6.68,0c5.26-9.55,9-19.79,15.82-28.5C460.5,227.52,458,223.11,455,225.27Z" transform="translate(-354.37 -109.32)"/><path class="b0d7ada7-d19e-437e-ba24-96948c62c483" d="M455,308.88a51.6,51.6,0,0,0-17.67,24.21c-3.11-2.95-6.27-5.67-11.06-5-2.23.3-2.15,4,0,4.41,4.39.78,7.67,6,9.84,9.56a3.91,3.91,0,0,0,6.68,0c5.26-9.55,9-19.79,15.82-28.5C460.5,311.13,458,306.72,455,308.88Z" transform="translate(-354.37 -109.32)"/><path class="b0d7ada7-d19e-437e-ba24-96948c62c483" d="M455,392.5a51.6,51.6,0,0,0-17.67,24.21c-3.11-2.95-6.27-5.67-11.06-5-2.23.3-2.15,4,0,4.41,4.39.78,7.67,6,9.84,9.55a3.9,3.9,0,0,0,6.68,0c5.26-9.54,9-19.78,15.82-28.49C460.5,394.75,458,390.34,455,392.5Z" transform="translate(-354.37 -109.32)"/><path class="b0d7ada7-d19e-437e-ba24-96948c62c483" d="M455,476.8A51.6,51.6,0,0,0,437.34,501c-3.11-2.95-6.27-5.67-11.06-5-2.23.3-2.15,4,0,4.41,4.39.78,7.67,6,9.84,9.55a3.9,3.9,0,0,0,6.68,0c5.26-9.54,9-19.78,15.82-28.49C460.5,479.05,458,474.64,455,476.8Z" transform="translate(-354.37 -109.32)"/><path class="b0d7ada7-d19e-437e-ba24-96948c62c483" d="M455,561.79A51.6,51.6,0,0,0,437.34,586c-3.11-3-6.27-5.67-11.06-5-2.23.3-2.15,4,0,4.41,4.39.78,7.67,6,9.84,9.55a3.9,3.9,0,0,0,6.68,0c5.26-9.54,9-19.78,15.82-28.49C460.5,564,458,559.63,455,561.79Z" transform="translate(-354.37 -109.32)"/></svg>