<svg xmlns="http://www.w3.org/2000/svg" xmlns:xlink="http://www.w3.org/1999/xlink" viewBox="0 0 511.48 266.57"><defs><style>.acc383b4-dd5b-4121-a289-29201e750b92{fill:#279fcc;}.e2a28122-8ddb-4678-a5c4-e12222d67c36{fill:#eeb033;}.af03d7c0-aeba-4793-9c6f-39c6838a1a80{fill:#18a99e;}.ab8e066e-4ec7-413f-acea-0a1e72622a70{isolation:isolate;}.f4071455-d49b-49e8-9515-a5239adc3600{clip-path:url(#ea852412-1c6f-4671-907a-688f29a62382);}.b112626a-3d86-4515-b030-9327cfac89a6{fill:#040000;}.a03e4d8e-a19c-4c40-91f8-ee3acd5d1acf{fill:#f3c6a3;}.bbc6cdbd-137f-40ed-a55e-6a0e7069c48d{fill:#dcdcdc;}.b64907e4-173c-48a6-a1f7-ebaea6d989d0,.bbc6cdbd-137f-40ed-a55e-6a0e7069c48d,.eafd6339-82e8-443d-9508-cc19a34ad642{mix-blend-mode:multiply;}.b21e1a2f-23cc-485f-aac5-b9153019cf9d{fill:none;stroke:#40210f;stroke-linecap:round;stroke-miterlimit:10;stroke-width:0.54px;}.ad709169-daa7-441d-883a-15d789512d3b{fill:#d1aa8e;}.ee41cd30-883c-47e7-93d7-9d9edb6c3edf{fill:#fff;}.ba734d00-815c-4c9c-8d6d-36f210ac8aba{fill:#d79787;}.e2edbaff-26e1-4500-bdbd-4996a0d05133{fill:#40210f;}.b937ea05-91a0-4cc7-b507-ba47afaae87f{fill:#701a40;}.a65da580-5c4e-4b57-a0df-c9902e53d90a{fill:#300e05;}.f9faa1a8-5a2e-4eb6-ae2e-bd1c23b511b9{fill:#e5e5e5;}.b64907e4-173c-48a6-a1f7-ebaea6d989d0{fill:#efeeef;}.b6eb85f5-9ade-4569-a70c-f3dc11734312{clip-path:url(#e8e6e89b-6dea-4fdf-8589-bce7439926a0);}.a0f02748-a495-4074-95e4-69afaf520797{fill:#3c4756;}.aeb3bee0-d488-48d3-9d69-5c1a678e0b78{fill:#deb697;}.eafd6339-82e8-443d-9508-cc19a34ad642{fill:#b5b4b5;}.b3349fc2-9371-45ff-9447-80fe660e65d0{fill:#4f0d0e;}.fa3f0a4f-9721-4b68-b941-69f159f90094{clip-path:url(#b1af855f-9d57-4f44-a145-5ea23c89b207);}.a834d72b-ebd1-48f2-aec6-98a2a55fe7eb{fill:#b03337;}.eb41fee3-380b-4dc8-ae72-92147cce27dd{fill:#831e24;}.ecb882af-3233-41aa-b62d-69c0b6aedad8{fill:#5d3625;}</style><clipPath id="ea852412-1c6f-4671-907a-688f29a62382" transform="translate(-281.65 -232.61)"><circle class="acc383b4-dd5b-4121-a289-29201e750b92" cx="392.62" cy="344.83" r="110.96" transform="translate(-33.19 647.72) rotate(-76.72)"/></clipPath><clipPath id="e8e6e89b-6dea-4fdf-8589-bce7439926a0" transform="translate(-281.65 -232.61)"><path class="e2a28122-8ddb-4678-a5c4-e12222d67c36" d="M793.13,343.58a111,111,0,1,1-111-111A111,111,0,0,1,793.13,343.58Z"/></clipPath><clipPath id="b1af855f-9d57-4f44-a145-5ea23c89b207" transform="translate(-281.65 -232.61)"><path class="af03d7c0-aeba-4793-9c6f-39c6838a1a80" d="M653.55,388.23a111,111,0,1,1-111-111A111,111,0,0,1,653.55,388.23Z"/></clipPath></defs><g class="ab8e066e-4ec7-413f-acea-0a1e72622a70"><g id="a853a165-21f7-4cf2-8504-837aecb51556" data-name="圖層 1"><circle class="acc383b4-dd5b-4121-a289-29201e750b92" cx="392.62" cy="344.83" r="110.96" transform="translate(-314.85 415.1) rotate(-76.72)"/><g class="f4071455-d49b-49e8-9515-a5239adc3600"><rect class="b112626a-3d86-4515-b030-9327cfac89a6" x="60.37" y="126.15" width="104.18" height="85.3"/><rect class="a03e4d8e-a19c-4c40-91f8-ee3acd5d1acf" x="99.01" y="165.71" width="23.91" height="20.23"/><path class="bbc6cdbd-137f-40ed-a55e-6a0e7069c48d" d="M399.53,405.05a23,23,0,0,1,5,.55v-7.28h-23.9V418C383.25,410.8,389.53,405.05,399.53,405.05Z" transform="translate(-281.65 -232.61)"/><path class="a03e4d8e-a19c-4c40-91f8-ee3acd5d1acf" d="M402.87,415.48h-20.5s-41-2.2-48.84,40.31H451.71C443.83,413.28,402.87,415.48,402.87,415.48Z" transform="translate(-281.65 -232.61)"/><path class="a03e4d8e-a19c-4c40-91f8-ee3acd5d1acf" d="M441.77,340.38c0,34.8-20.34,63-49.15,63s-49.15-28.19-49.15-63,20.34-63,49.15-63S441.77,305.59,441.77,340.38Z" transform="translate(-281.65 -232.61)"/><path class="a03e4d8e-a19c-4c40-91f8-ee3acd5d1acf" d="M435.53,355.38c-1,5.48.92,10.45,4.37,11.1s7.08-3.27,8.12-8.75-.94-10.45-4.39-11.1S436.56,349.91,435.53,355.38Z" transform="translate(-281.65 -232.61)"/><path class="bbc6cdbd-137f-40ed-a55e-6a0e7069c48d" d="M441.74,352a5.24,5.24,0,0,0,.63.26,1.5,1.5,0,0,1,.66.32c.19.2.41.27.55.55a2,2,0,0,1,.42.79c.15.25.09.68.19,1a9.23,9.23,0,0,1-.23,2.41,10.41,10.41,0,0,1-.74,2.37,6.31,6.31,0,0,1-1.09,1.77,3.59,3.59,0,0,1-.63.46c-.21,0-.45.19-.63.12l-.66-.07a4.18,4.18,0,0,0,.54.47c.19.18.5.17.85.26a2.62,2.62,0,0,0,1.18-.21,5.15,5.15,0,0,0,2.06-1.89,8.21,8.21,0,0,0,1.19-2.85,8.41,8.41,0,0,0,.17-1.59,7.31,7.31,0,0,0-.17-1.56,4.34,4.34,0,0,0-.65-1.43,7.32,7.32,0,0,0-.45-.58l-.59-.39a2.27,2.27,0,0,0-1.12-.38,1.84,1.84,0,0,0-.8,0C442,351.9,441.74,352,441.74,352Z" transform="translate(-281.65 -232.61)"/><path class="a03e4d8e-a19c-4c40-91f8-ee3acd5d1acf" d="M349.7,355.38c1,5.48-.92,10.45-4.36,11.1s-7.08-3.27-8.12-8.75.93-10.45,4.38-11.1S348.68,349.91,349.7,355.38Z" transform="translate(-281.65 -232.61)"/><path class="bbc6cdbd-137f-40ed-a55e-6a0e7069c48d" d="M343.5,352a6,6,0,0,1-.64.26,1.61,1.61,0,0,0-.66.32c-.19.2-.41.27-.55.55a2,2,0,0,0-.41.79c-.16.25-.1.68-.2,1a9.26,9.26,0,0,0,.24,2.41,10.92,10.92,0,0,0,.73,2.37,6.55,6.55,0,0,0,1.09,1.77,3.65,3.65,0,0,0,.64.46c.21,0,.45.19.62.12l.66-.07a3.56,3.56,0,0,1-.53.47c-.19.18-.5.17-.86.26a2.55,2.55,0,0,1-1.17-.21,5,5,0,0,1-2.06-1.89,7.9,7.9,0,0,1-1.36-4.44,6.72,6.72,0,0,1,.17-1.56,4.34,4.34,0,0,1,.65-1.43,5.54,5.54,0,0,1,.45-.58l.58-.39a2.31,2.31,0,0,1,1.13-.38,1.85,1.85,0,0,1,.8,0C343.25,351.9,343.5,352,343.5,352Z" transform="translate(-281.65 -232.61)"/><path class="b21e1a2f-23cc-485f-aac5-b9153019cf9d" d="M356,329.73s6.52-12,18.85-3.22" transform="translate(-281.65 -232.61)"/><path class="b21e1a2f-23cc-485f-aac5-b9153019cf9d" d="M427.53,329.73s-6.52-12-18.85-3.22" transform="translate(-281.65 -232.61)"/><path class="ad709169-daa7-441d-883a-15d789512d3b" d="M398,362.31a4,4,0,0,1,.67.68,7.28,7.28,0,0,1,1.3,2.2,4.59,4.59,0,0,1-.29,4.07,5,5,0,0,1-1.85,1.67,9.79,9.79,0,0,1-2.2.73,15.66,15.66,0,0,1-4.16,0,22,22,0,0,1-3.38-.83,25.73,25.73,0,0,1-3.09-1.4,29,29,0,0,1,3.34-.16c1,0,2.1-.06,3.28,0a30.94,30.94,0,0,0,3.51-.3,7.5,7.5,0,0,0,1.52-.41,3.3,3.3,0,0,0,1-.69,3.49,3.49,0,0,0,.73-2.36,10.51,10.51,0,0,0-.24-2.27Z" transform="translate(-281.65 -232.61)"/><path class="ee41cd30-883c-47e7-93d7-9d9edb6c3edf" d="M380.8,378.63c2.45,5.14,6.81,8.58,11.82,8.58s9.37-3.44,11.82-8.58Z" transform="translate(-281.65 -232.61)"/><path class="ba734d00-815c-4c9c-8d6d-36f210ac8aba" d="M380.8,378.63a24.32,24.32,0,0,0,2.25,3.1,16.47,16.47,0,0,0,2.79,2.49,12.42,12.42,0,0,0,3.24,1.66,11.87,11.87,0,0,0,3.54.49l1.83-.2c.55-.18,1.09-.29,1.63-.49a12.27,12.27,0,0,0,3.07-1.79,15.28,15.28,0,0,0,2.49-2.59,23.84,23.84,0,0,0,1.94-3.08l.86,1.37c-3.94-.07-7.88,0-11.82-.26S384.74,379,380.8,378.63Zm0,0c3.94-.35,7.88-.56,11.82-.7s7.88-.18,11.82-.26a1,1,0,0,1,1,.93.93.93,0,0,1-.11.44,20.79,20.79,0,0,1-2.08,3.48,17.19,17.19,0,0,1-2.91,2.87,14.23,14.23,0,0,1-3.61,2c-.66.22-1.39.36-2.08.53l-2,.15a13.26,13.26,0,0,1-4-.88,14.32,14.32,0,0,1-3.43-2.11,15.38,15.38,0,0,1-2.61-3A18.15,18.15,0,0,1,380.8,378.63Z" transform="translate(-281.65 -232.61)"/><path class="e2edbaff-26e1-4500-bdbd-4996a0d05133" d="M372,341.57c0,3.24-2.26,5.86-5.06,5.86s-5.05-2.62-5.05-5.86,2.26-5.86,5.05-5.86S372,338.34,372,341.57Z" transform="translate(-281.65 -232.61)"/><path class="ee41cd30-883c-47e7-93d7-9d9edb6c3edf" d="M365.38,339.21a2.36,2.36,0,1,1-2.35-2.36A2.35,2.35,0,0,1,365.38,339.21Z" transform="translate(-281.65 -232.61)"/><path class="ee41cd30-883c-47e7-93d7-9d9edb6c3edf" d="M365.27,342.63a1.12,1.12,0,1,1-2.24,0,1.12,1.12,0,0,1,2.24,0Z" transform="translate(-281.65 -232.61)"/><path class="e2edbaff-26e1-4500-bdbd-4996a0d05133" d="M411.79,341.57c0,3.24,2.26,5.86,5,5.86s5.06-2.62,5.06-5.86-2.27-5.86-5.06-5.86S411.79,338.34,411.79,341.57Z" transform="translate(-281.65 -232.61)"/><path class="ee41cd30-883c-47e7-93d7-9d9edb6c3edf" d="M418.39,339.21a2.36,2.36,0,1,0,2.35-2.36A2.35,2.35,0,0,0,418.39,339.21Z" transform="translate(-281.65 -232.61)"/><path class="ee41cd30-883c-47e7-93d7-9d9edb6c3edf" d="M418.5,342.63a1.12,1.12,0,1,0,1.12-1.11A1.12,1.12,0,0,0,418.5,342.63Z" transform="translate(-281.65 -232.61)"/><path class="b937ea05-91a0-4cc7-b507-ba47afaae87f" d="M433.55,455.79H354.94c13.74-10.62,3.68-35,3.68-35a51.76,51.76,0,0,1,8.3-3.16s25.7,31.48,51.18-.06A49.54,49.54,0,0,1,428.84,422S414.86,445.25,433.55,455.79Z" transform="translate(-281.65 -232.61)"/><path class="a65da580-5c4e-4b57-a0df-c9902e53d90a" d="M343.47,346.56" transform="translate(-281.65 -232.61)"/><path class="a65da580-5c4e-4b57-a0df-c9902e53d90a" d="M370.86,278.55" transform="translate(-281.65 -232.61)"/><path class="f9faa1a8-5a2e-4eb6-ae2e-bd1c23b511b9" d="M347.37,365.4a3.34,3.34,0,1,1-3.33-3.33A3.34,3.34,0,0,1,347.37,365.4Z" transform="translate(-281.65 -232.61)"/><path class="b64907e4-173c-48a6-a1f7-ebaea6d989d0" d="M347.08,366.51a2.64,2.64,0,0,1-4.5-1.86v0a2.66,2.66,0,0,1,.77-1.87,2.7,2.7,0,0,1,1.1-.66l-.41,0a3.34,3.34,0,1,0,3.2,4.28C347.18,366.4,347.13,366.46,347.08,366.51Z" transform="translate(-281.65 -232.61)"/><path class="ee41cd30-883c-47e7-93d7-9d9edb6c3edf" d="M346.48,364.43a1.22,1.22,0,0,1-2.44,0,1.22,1.22,0,0,1,2.44,0Z" transform="translate(-281.65 -232.61)"/><path class="f9faa1a8-5a2e-4eb6-ae2e-bd1c23b511b9" d="M443.55,365.4a3.34,3.34,0,1,1-3.34-3.33A3.34,3.34,0,0,1,443.55,365.4Z" transform="translate(-281.65 -232.61)"/><path class="b64907e4-173c-48a6-a1f7-ebaea6d989d0" d="M443.26,366.51a2.62,2.62,0,0,1-1.86.78,2.65,2.65,0,0,1-2.65-2.64v0a2.63,2.63,0,0,1,1.88-2.53l-.42,0a3.34,3.34,0,1,0,3.21,4.28Z" transform="translate(-281.65 -232.61)"/><path class="ee41cd30-883c-47e7-93d7-9d9edb6c3edf" d="M442.66,364.43a1.23,1.23,0,0,1-2.45,0,1.23,1.23,0,0,1,2.45,0Z" transform="translate(-281.65 -232.61)"/><path class="b112626a-3d86-4515-b030-9327cfac89a6" d="M388.47,284.77s7.42,26.65,47.69,41.75c0,0,5.12,4.1,4.44,22,0,0,2.18-4.26,5.9,0,0,0,7.89-41.3-6.29-63.78,0,0-17.18-23.95-46.1-20.28C394.11,264.49,384.62,269.5,388.47,284.77Z" transform="translate(-281.65 -232.61)"/><path class="b112626a-3d86-4515-b030-9327cfac89a6" d="M397.16,284.77s-7.4,26.65-47.67,41.75c0,0-5.13,4.1-4.44,22,0,0-2.18-4.26-5.91,0,0,0-7.9-41.3,6.29-63.78,0,0,17.19-23.95,46.09-20.28C391.52,264.49,401,269.5,397.16,284.77Z" transform="translate(-281.65 -232.61)"/></g><ellipse class="a03e4d8e-a19c-4c40-91f8-ee3acd5d1acf" cx="110.03" cy="117.94" rx="44.67" ry="37.79"/><path class="e2a28122-8ddb-4678-a5c4-e12222d67c36" d="M793.13,343.58a111,111,0,1,1-111-111A111,111,0,0,1,793.13,343.58Z" transform="translate(-281.65 -232.61)"/><g class="b6eb85f5-9ade-4569-a70c-f3dc11734312"><path class="a03e4d8e-a19c-4c40-91f8-ee3acd5d1acf" d="M694.13,414.21H670.21s-61.67,8.4-64.84,34.94v5.38H759v-5.38C755.8,422.61,694.13,414.21,694.13,414.21Z" transform="translate(-281.65 -232.61)"/><path class="a03e4d8e-a19c-4c40-91f8-ee3acd5d1acf" d="M727.48,350.92c-1,5.48.92,10.45,4.37,11.1s7.08-3.27,8.1-8.75-.92-10.45-4.37-11.1S728.5,345.44,727.48,350.92Z" transform="translate(-281.65 -232.61)"/><path class="bbc6cdbd-137f-40ed-a55e-6a0e7069c48d" d="M733.69,347.51a6.72,6.72,0,0,0,.63.26,1.42,1.42,0,0,1,.66.33c.18.18.4.26.55.54a1.94,1.94,0,0,1,.41.78,5.64,5.64,0,0,1,.2,1,9.24,9.24,0,0,1-.23,2.4,10.75,10.75,0,0,1-.75,2.37,6,6,0,0,1-1.09,1.77,3,3,0,0,1-.62.45c-.21,0-.46.2-.63.14a6.09,6.09,0,0,0-.66-.07,3.86,3.86,0,0,0,.54.46c.19.17.48.16.85.26a2.69,2.69,0,0,0,1.17-.21,5.17,5.17,0,0,0,2.07-1.89,8.19,8.19,0,0,0,1.18-2.85,7,7,0,0,0,.16-1.59,6.39,6.39,0,0,0-.16-1.57,4.58,4.58,0,0,0-.64-1.42,5.59,5.59,0,0,0-.46-.58l-.58-.4a2.32,2.32,0,0,0-1.14-.37,1.87,1.87,0,0,0-.8,0C733.93,347.44,733.69,347.51,733.69,347.51Z" transform="translate(-281.65 -232.61)"/><path class="a03e4d8e-a19c-4c40-91f8-ee3acd5d1acf" d="M638.54,350.92c1,5.48-.93,10.45-4.38,11.1s-7.07-3.27-8.1-8.75.93-10.45,4.38-11.1S637.51,345.44,638.54,350.92Z" transform="translate(-281.65 -232.61)"/><path class="bbc6cdbd-137f-40ed-a55e-6a0e7069c48d" d="M632.33,347.51a6.38,6.38,0,0,1-.64.26,1.35,1.35,0,0,0-.65.33c-.19.18-.41.26-.56.54a1.93,1.93,0,0,0-.4.78,5.61,5.61,0,0,0-.21,1,8.85,8.85,0,0,0,.24,2.4,10.23,10.23,0,0,0,.74,2.37,6.17,6.17,0,0,0,1.09,1.77,2.83,2.83,0,0,0,.63.45c.2,0,.45.2.64.14a5.8,5.8,0,0,1,.65-.07,4.88,4.88,0,0,1-.54.46c-.18.17-.49.16-.85.26a2.67,2.67,0,0,1-1.17-.21,5.11,5.11,0,0,1-2.07-1.89,8,8,0,0,1-1.19-2.85,7.66,7.66,0,0,1-.16-1.59,6.92,6.92,0,0,1,.16-1.57,4.38,4.38,0,0,1,.65-1.42,7.32,7.32,0,0,1,.45-.58l.58-.4a2.36,2.36,0,0,1,1.14-.37,1.87,1.87,0,0,1,.8,0C632.08,347.44,632.33,347.51,632.33,347.51Z" transform="translate(-281.65 -232.61)"/><rect class="a03e4d8e-a19c-4c40-91f8-ee3acd5d1acf" x="388.56" y="165.83" width="23.92" height="20.23"/><path class="bbc6cdbd-137f-40ed-a55e-6a0e7069c48d" d="M694.13,400.53v-2.09H670.21V414C674.19,405.43,684.48,400.86,694.13,400.53Z" transform="translate(-281.65 -232.61)"/><path class="a03e4d8e-a19c-4c40-91f8-ee3acd5d1acf" d="M733.53,335.6c0,35.79-21.71,64.8-51.34,64.8s-50.77-30.07-50.77-65.86c-.54-47.54,21.14-63.74,50.77-63.74S736.13,285.36,733.53,335.6Z" transform="translate(-281.65 -232.61)"/><path class="a0f02748-a495-4074-95e4-69afaf520797" d="M697.45,414.74c12.84,2.18,58.79,11.58,61.52,34.41v5.38H605.37v-5.38c2.73-22.84,48.74-32.24,61.54-34.42l15.26,19.91Z" transform="translate(-281.65 -232.61)"/><path class="b21e1a2f-23cc-485f-aac5-b9153019cf9d" d="M646.42,325.27s6.52-12,18.85-3.23" transform="translate(-281.65 -232.61)"/><path class="b21e1a2f-23cc-485f-aac5-b9153019cf9d" d="M717.92,325.27s-6.53-12-18.86-3.23" transform="translate(-281.65 -232.61)"/><path class="ad709169-daa7-441d-883a-15d789512d3b" d="M688.4,357.86a3.86,3.86,0,0,1,.66.67,7.48,7.48,0,0,1,1.31,2.2,4.66,4.66,0,0,1-.29,4.07,5,5,0,0,1-1.86,1.67,10.71,10.71,0,0,1-2.2.73,15.59,15.59,0,0,1-4.15,0,23.89,23.89,0,0,1-3.38-.83,25.73,25.73,0,0,1-3.09-1.4,29.23,29.23,0,0,1,3.34-.16c1,0,2.1-.07,3.28,0a27.09,27.09,0,0,0,3.51-.3,7.5,7.5,0,0,0,1.52-.4,3.61,3.61,0,0,0,1.05-.69,3.44,3.44,0,0,0,.72-2.36,10.41,10.41,0,0,0-.24-2.26C688.47,358.18,688.4,357.86,688.4,357.86Z" transform="translate(-281.65 -232.61)"/><path class="ee41cd30-883c-47e7-93d7-9d9edb6c3edf" d="M668.11,377.08c3,5.5,8.35,9.18,14.46,9.18S694,382.58,697,377.08Z" transform="translate(-281.65 -232.61)"/><path class="aeb3bee0-d488-48d3-9d69-5c1a678e0b78" d="M668.11,377.08a28,28,0,0,0,2.83,3.44,22.06,22.06,0,0,0,3.48,2.65,17.51,17.51,0,0,0,3.94,1.68l2.09.39,2.12.07,2.16-.22,2-.5a18.86,18.86,0,0,0,3.74-1.85,19.17,19.17,0,0,0,3.14-2.76,23.61,23.61,0,0,0,2.45-3.44l1,1.66C687.38,378.12,677.75,377.87,668.11,377.08Zm0,0c9.64-.8,19.27-1.05,28.9-1.13a1.12,1.12,0,0,1,1.14,1.09,1.21,1.21,0,0,1-.15.57,22.81,22.81,0,0,1-2.72,3.89,20.67,20.67,0,0,1-3.63,3.1l-2.1,1.16-2.25.84-2.42.49-2.32.12-2.37-.27-2.28-.61a19,19,0,0,1-4.15-2.16,19.36,19.36,0,0,1-3.31-3.21l-1.31-1.88Z" transform="translate(-281.65 -232.61)"/><path class="e2edbaff-26e1-4500-bdbd-4996a0d05133" d="M662.37,337.11c0,3.23-2.26,5.86-5,5.86s-5.06-2.63-5.06-5.86,2.26-5.87,5.06-5.87S662.37,333.87,662.37,337.11Z" transform="translate(-281.65 -232.61)"/><path class="ee41cd30-883c-47e7-93d7-9d9edb6c3edf" d="M655.78,334.75a2.36,2.36,0,1,1-2.36-2.36A2.36,2.36,0,0,1,655.78,334.75Z" transform="translate(-281.65 -232.61)"/><ellipse class="ee41cd30-883c-47e7-93d7-9d9edb6c3edf" cx="372.88" cy="105.56" rx="1.12" ry="1.12"/><path class="e2edbaff-26e1-4500-bdbd-4996a0d05133" d="M702.17,337.11c0,3.23,2.27,5.86,5.06,5.86s5.06-2.63,5.06-5.86-2.26-5.87-5.06-5.87S702.17,333.87,702.17,337.11Z" transform="translate(-281.65 -232.61)"/><path class="ee41cd30-883c-47e7-93d7-9d9edb6c3edf" d="M708.77,334.75a2.36,2.36,0,1,0,2.35-2.36A2.36,2.36,0,0,0,708.77,334.75Z" transform="translate(-281.65 -232.61)"/><path class="ee41cd30-883c-47e7-93d7-9d9edb6c3edf" d="M708.89,338.17a1.12,1.12,0,1,0,1.12-1.12A1.12,1.12,0,0,0,708.89,338.17Z" transform="translate(-281.65 -232.61)"/><path class="eafd6339-82e8-443d-9508-cc19a34ad642" d="M642.72,302.49s36.61,14.61,73.21-12.39C715.93,290.1,652.43,268.94,642.72,302.49Z" transform="translate(-281.65 -232.61)"/><path class="b3349fc2-9371-45ff-9447-80fe660e65d0" d="M711.26,293.27c-1.76,1-71.65,24-85.06-7.41,0,0,2.64,2.46,8.27.72,0,0-10.48-1.35-8.41-11.47,0,0,4,3.11,8.4,3.49,0,0-6.54-3-5.47-12.06,0,0,6.67,6.47,14.3,4.09,0,0,31.57-25.29,62.33-7.16C705.62,263.47,736.21,279.15,711.26,293.27Z" transform="translate(-281.65 -232.61)"/><path class="b3349fc2-9371-45ff-9447-80fe660e65d0" d="M662.13,292.8s-14.28-2-17.2,22.14c0,0,.21,10.2-5.32,16.3,0,0-5.4,3.51-2.18,20.86l-3.65-9.93s-4.65-9.78-2.5-35.75c0,0,4.37-35.55,27-36.3Z" transform="translate(-281.65 -232.61)"/><path class="b3349fc2-9371-45ff-9447-80fe660e65d0" d="M707.23,292.8s14.28-2,17.21,22.14c0,0-.21,10.2,5.32,16.3,0,0,5.39,3.51,2.17,20.86l3.65-9.93s4.65-9.78,2.5-35.75c0,0-4.37-35.55-27-36.3Z" transform="translate(-281.65 -232.61)"/></g><ellipse class="a03e4d8e-a19c-4c40-91f8-ee3acd5d1acf" cx="400.93" cy="115.65" rx="44.67" ry="40.08"/><path class="af03d7c0-aeba-4793-9c6f-39c6838a1a80" d="M653.55,388.23a111,111,0,1,1-111-111A111,111,0,0,1,653.55,388.23Z" transform="translate(-281.65 -232.61)"/><g class="fa3f0a4f-9721-4b68-b941-69f159f90094"><path class="a03e4d8e-a19c-4c40-91f8-ee3acd5d1acf" d="M554.55,458.86H530.63s-61.66,8.4-64.84,34.94v5.39h153.6V493.8C616.22,467.26,554.55,458.86,554.55,458.86Z" transform="translate(-281.65 -232.61)"/><path class="a03e4d8e-a19c-4c40-91f8-ee3acd5d1acf" d="M587.9,395.58c-1,5.48.92,10.45,4.37,11.09s7.08-3.27,8.1-8.75-.92-10.45-4.37-11.09S588.93,390.1,587.9,395.58Z" transform="translate(-281.65 -232.61)"/><path class="bbc6cdbd-137f-40ed-a55e-6a0e7069c48d" d="M594.11,392.16a4.44,4.44,0,0,0,.63.26,1.56,1.56,0,0,1,.67.33c.18.19.4.27.54.55a1.84,1.84,0,0,1,.42.78,6.8,6.8,0,0,1,.2,1,9.68,9.68,0,0,1-.24,2.4,10.49,10.49,0,0,1-.74,2.38,6.33,6.33,0,0,1-1.09,1.76,3.54,3.54,0,0,1-.62.46c-.22,0-.46.2-.65.13-.36,0-.65-.07-.65-.07a3.86,3.86,0,0,0,.54.46c.19.18.49.17.85.26a2.53,2.53,0,0,0,1.17-.21,5.08,5.08,0,0,0,2.07-1.88,8,8,0,0,0,1.35-4.44,6.35,6.35,0,0,0-.17-1.57,4.27,4.27,0,0,0-.64-1.42,7,7,0,0,0-.45-.59l-.59-.39a2.23,2.23,0,0,0-1.14-.37,1.84,1.84,0,0,0-.79,0C594.35,392.09,594.11,392.16,594.11,392.16Z" transform="translate(-281.65 -232.61)"/><path class="a03e4d8e-a19c-4c40-91f8-ee3acd5d1acf" d="M499,395.58c1,5.48-.92,10.45-4.37,11.09s-7.08-3.27-8.11-8.75.93-10.45,4.38-11.09S497.93,390.1,499,395.58Z" transform="translate(-281.65 -232.61)"/><path class="bbc6cdbd-137f-40ed-a55e-6a0e7069c48d" d="M492.75,392.16a4.32,4.32,0,0,1-.64.26,1.54,1.54,0,0,0-.65.33c-.18.19-.41.27-.55.55a1.82,1.82,0,0,0-.41.78c-.15.26-.1.68-.21,1a9.68,9.68,0,0,0,.24,2.4,10,10,0,0,0,.74,2.38,6.11,6.11,0,0,0,1.1,1.76,3.2,3.2,0,0,0,.62.46c.21,0,.46.2.64.13.36,0,.65-.07.65-.07a3.86,3.86,0,0,1-.54.46c-.18.18-.48.17-.84.26a2.57,2.57,0,0,1-1.18-.21,5.08,5.08,0,0,1-2.07-1.88,8,8,0,0,1-1.35-4.44,6.87,6.87,0,0,1,.17-1.57,4.27,4.27,0,0,1,.64-1.42c.16-.21.3-.41.45-.59s.4-.27.58-.39a2.29,2.29,0,0,1,1.14-.37,1.87,1.87,0,0,1,.8,0C492.51,392.09,492.75,392.16,492.75,392.16Z" transform="translate(-281.65 -232.61)"/><rect class="a03e4d8e-a19c-4c40-91f8-ee3acd5d1acf" x="248.98" y="210.49" width="23.92" height="20.23"/><path class="bbc6cdbd-137f-40ed-a55e-6a0e7069c48d" d="M554.55,445.19V443.1H530.63v15.54C534.62,450.08,544.9,445.52,554.55,445.19Z" transform="translate(-281.65 -232.61)"/><path class="a03e4d8e-a19c-4c40-91f8-ee3acd5d1acf" d="M594,380.25c0,35.79-21.71,64.81-51.34,64.81S491.85,415,491.85,379.19c-.54-47.54,21.13-63.74,50.76-63.74S596.55,330,594,380.25Z" transform="translate(-281.65 -232.61)"/><path class="a834d72b-ebd1-48f2-aec6-98a2a55fe7eb" d="M557.88,459.39c-2.3,5.6-7.38,9.93-15.27,9.93s-13-4.34-15.28-9.93c-12.8,2.18-58.81,11.58-61.54,34.41v5.39h153.6V493.8C616.66,471,570.71,461.58,557.88,459.39Z" transform="translate(-281.65 -232.61)"/><path class="eb41fee3-380b-4dc8-ae72-92147cce27dd" d="M557.88,459.39c-2.3,5.6-7.38,9.93-15.27,9.93s-13-4.34-15.28-9.93c-1.33.23-3.05.54-5,.93a21.12,21.12,0,0,0,20.06,15.16h.23a21.13,21.13,0,0,0,20.07-15.2C560.8,459.91,559.17,459.61,557.88,459.39Z" transform="translate(-281.65 -232.61)"/><path class="b21e1a2f-23cc-485f-aac5-b9153019cf9d" d="M506.84,369.92s6.53-11.95,18.86-3.22" transform="translate(-281.65 -232.61)"/><path class="b21e1a2f-23cc-485f-aac5-b9153019cf9d" d="M578.34,369.92s-6.52-11.95-18.85-3.22" transform="translate(-281.65 -232.61)"/><path class="ad709169-daa7-441d-883a-15d789512d3b" d="M548.82,402.51a4.25,4.25,0,0,1,.66.68,7.48,7.48,0,0,1,1.31,2.2,4.6,4.6,0,0,1-.29,4.06,4.93,4.93,0,0,1-1.85,1.67,9.79,9.79,0,0,1-2.2.73,15.27,15.27,0,0,1-4.16,0,23.4,23.4,0,0,1-3.37-.83,27.82,27.82,0,0,1-3.09-1.4,29,29,0,0,1,3.34-.16c1,0,2.1-.07,3.28,0a28.81,28.81,0,0,0,3.5-.3,7.5,7.5,0,0,0,1.52-.4,3.67,3.67,0,0,0,1.06-.69,3.48,3.48,0,0,0,.71-2.36,10.51,10.51,0,0,0-.24-2.27C548.89,402.84,548.82,402.51,548.82,402.51Z" transform="translate(-281.65 -232.61)"/><path class="ee41cd30-883c-47e7-93d7-9d9edb6c3edf" d="M528.54,421.73c3,5.51,8.34,9.18,14.46,9.18s11.44-3.67,14.44-9.18Z" transform="translate(-281.65 -232.61)"/><path class="aeb3bee0-d488-48d3-9d69-5c1a678e0b78" d="M528.54,421.73a28.11,28.11,0,0,0,2.83,3.45,22,22,0,0,0,3.47,2.65l1.92,1,2,.7,2.09.38L543,430l2.16-.22,2-.49a20.1,20.1,0,0,0,3.75-1.85,19.66,19.66,0,0,0,3.14-2.77,22.58,22.58,0,0,0,2.45-3.44l1,1.67C547.8,422.77,538.18,422.52,528.54,421.73Zm0,0c9.64-.79,19.26-1,28.9-1.12a1.1,1.1,0,0,1,1.14,1.09,1.21,1.21,0,0,1-.15.57,22.31,22.31,0,0,1-2.73,3.89,21,21,0,0,1-3.62,3.09l-2.1,1.17-2.25.83-2.42.49-2.32.12-2.37-.26-2.29-.61-2.16-.94-2-1.22a19,19,0,0,1-3.31-3.21l-1.31-1.88Z" transform="translate(-281.65 -232.61)"/><path class="e2edbaff-26e1-4500-bdbd-4996a0d05133" d="M522.8,381.76c0,3.24-2.27,5.87-5.06,5.87s-5-2.63-5-5.87,2.26-5.86,5-5.86S522.8,378.52,522.8,381.76Z" transform="translate(-281.65 -232.61)"/><path class="ee41cd30-883c-47e7-93d7-9d9edb6c3edf" d="M516.2,379.41a2.36,2.36,0,1,1-2.36-2.36A2.36,2.36,0,0,1,516.2,379.41Z" transform="translate(-281.65 -232.61)"/><path class="ee41cd30-883c-47e7-93d7-9d9edb6c3edf" d="M516.08,382.83a1.12,1.12,0,1,1-1.12-1.12A1.11,1.11,0,0,1,516.08,382.83Z" transform="translate(-281.65 -232.61)"/><path class="e2edbaff-26e1-4500-bdbd-4996a0d05133" d="M562.59,381.76c0,3.24,2.27,5.87,5.06,5.87s5.06-2.63,5.06-5.87-2.26-5.86-5.06-5.86S562.59,378.52,562.59,381.76Z" transform="translate(-281.65 -232.61)"/><path class="ee41cd30-883c-47e7-93d7-9d9edb6c3edf" d="M569.2,379.41a2.35,2.35,0,1,0,2.35-2.36A2.35,2.35,0,0,0,569.2,379.41Z" transform="translate(-281.65 -232.61)"/><path class="ee41cd30-883c-47e7-93d7-9d9edb6c3edf" d="M569.31,382.83a1.12,1.12,0,1,0,1.12-1.12A1.11,1.11,0,0,0,569.31,382.83Z" transform="translate(-281.65 -232.61)"/><path class="ecb882af-3233-41aa-b62d-69c0b6aedad8" d="M584.77,308.42s9.15,8.08,18.68-4c0,0-1.09,11.62-7.88,15.89,0,0,6.41,6.33,14.12-.2,0,0,2.19,8.13-6.61,15.82,0,0,1.49,22.45-4.5,44.33L596,386.83l-2.37.8-1.28,9.12h-2.46l2.69-30s2.46-35.56-30-36.66c0,0-14.5-2.6-17.05,8.05,0,0-.49-11-19.84-8.05,0,0-9.43-14.61,4.93-27.49C530.63,302.57,553.62,284.94,584.77,308.42Z" transform="translate(-281.65 -232.61)"/><path class="ecb882af-3233-41aa-b62d-69c0b6aedad8" d="M501.78,308.42c31.15-23.48,62.11-10.63,62.11-10.63,14.36,12.87-3,32.27-3,32.27-13.64-1.47-15.3,8.05-15.3,8.05-.17-11.53-21.6-8.05-21.6-8.05-27,1.28-27.86,36.66-27.86,36.66l.57,30h-2.46l-1.28-9.12-2.37-.8S474.5,329.28,501.78,308.42Z" transform="translate(-281.65 -232.61)"/></g><circle class="a03e4d8e-a19c-4c40-91f8-ee3acd5d1acf" cx="261.21" cy="156.88" r="44.67"/></g></g></svg>