<svg id="a877f56d-ccab-41a7-8c00-a7f877f59231" data-name="groups" xmlns="http://www.w3.org/2000/svg" xmlns:xlink="http://www.w3.org/1999/xlink" viewBox="0 0 1073.79 1120.34"><defs><style>.aa228722-6a0f-4550-96b8-0a6129f11ed8{fill:#1992cd;}.eae33587-cab4-4f02-8781-e25b3a0bdd49{fill:#106fa0;}.a73c1117-7f3e-4984-8d88-0d45c902e437,.b6d3236d-bab9-4736-95f3-628ed6bf0692{opacity:0.3;}.a73c1117-7f3e-4984-8d88-0d45c902e437,.b605f23b-6c8a-4bd8-a0a7-433cb22be29b,.e1fab8e4-52c9-41a9-9715-52e3890e17ec,.f60e594b-8a79-4fb7-b5a1-df933b1c49ba{fill:#231f20;}.b81d3fd4-a1e4-4e78-9eab-f0e3f04dca74{fill:#f6d27d;}.ad1c3d62-afac-4898-809e-44c4949f8566{fill:#e4aa2b;}.ef5f5c40-004e-4283-8847-33217d36de51{fill:#a6cdda;}.e3f275e5-09d2-4f2c-8e05-0a9179c75e24{clip-path:url(#e9313f63-c7f6-4f3c-bf1c-09c817ae5108);}.e7ad173d-9cbd-4d92-a1cc-9a1196c7028e{fill:#333;}.a432c7ae-49e4-469e-8e62-bd88f85331e1{fill:#eff6fa;}.b8aa7b58-5965-44fd-8df8-f8996be10310{fill:#5a5b5b;}.a4df9aaa-61e6-419d-9aee-e620e9740f98,.aa49d190-8d00-4919-bb3b-68397157f7be{fill:#fff;}.a4df9aaa-61e6-419d-9aee-e620e9740f98,.a52657b5-191c-440a-a02c-13b473189153{opacity:0.1;}.e1fab8e4-52c9-41a9-9715-52e3890e17ec{font-size:33.55px;}.e1fab8e4-52c9-41a9-9715-52e3890e17ec,.f60e594b-8a79-4fb7-b5a1-df933b1c49ba{font-family:OpenSans-Bold, Open Sans;font-weight:700;}.f60e594b-8a79-4fb7-b5a1-df933b1c49ba{font-size:38.02px;}.b52123e4-9e33-4303-8256-813003908a76{fill:none;stroke:#a6cdda;stroke-miterlimit:10;stroke-width:2px;}.e4044812-2fa8-4e58-9682-4d985956ba6b{fill:#b8ced7;}.e93ee847-2264-4ee4-bcf0-ac82ccf70e1d{clip-path:url(#a9c811d0-f53b-4c61-a156-8b3ba6840ba9);}.a139463b-de1b-430d-b06d-3e43103e085c{fill:#f0d561;}.b4bbd004-839a-408d-aedc-c8138e4f9cdc{fill:#1c92d1;}.aa2b9dcf-8f39-4283-8a95-176ba691adef{fill:#d25b63;}</style><clipPath id="e9313f63-c7f6-4f3c-bf1c-09c817ae5108" transform="translate(-37.3 -62.04)"><path class="aa228722-6a0f-4550-96b8-0a6129f11ed8" d="M551.65,773.86,148.76,907.71a22.29,22.29,0,0,1-28.19-14.13L43.94,662.93a22.29,22.29,0,0,1,14.13-28.19L461,500.88A22.31,22.31,0,0,1,489.15,515l76.63,230.65A22.3,22.3,0,0,1,551.65,773.86Z"/></clipPath><clipPath id="a9c811d0-f53b-4c61-a156-8b3ba6840ba9" transform="translate(-37.3 -62.04)"><path class="eae33587-cab4-4f02-8781-e25b3a0bdd49" d="M472.47,1097.21l-417-79.45A22.31,22.31,0,0,1,37.7,991.68L83.19,752.92a22.29,22.29,0,0,1,26.08-17.73l417,79.45A22.32,22.32,0,0,1,544,840.73l-45.49,238.75A22.3,22.3,0,0,1,472.47,1097.21Z"/></clipPath></defs><g id="a632c726-e7ec-4e95-99c2-bd1c422d990f" data-name="group02"><g class="b6d3236d-bab9-4736-95f3-628ed6bf0692"><path class="b605f23b-6c8a-4bd8-a0a7-433cb22be29b" d="M944.33,250.15a62.63,62.63,0,1,0-85.67,22.51A62.62,62.62,0,0,0,944.33,250.15Z" transform="translate(-37.3 -62.04)"/><circle class="b605f23b-6c8a-4bd8-a0a7-433cb22be29b" cx="957.14" cy="415.03" r="62.64" transform="translate(-76.6 44) rotate(-6.21)"/><circle class="b605f23b-6c8a-4bd8-a0a7-433cb22be29b" cx="1032.93" cy="292.97" r="62.64" transform="translate(-75.55 304.1) rotate(-19.74)"/></g><g id="b7796ece-dd94-453a-a606-9cb0a2be1e3b" data-name="money03"><circle class="b81d3fd4-a1e4-4e78-9eab-f0e3f04dca74" cx="905.75" cy="206.2" r="62.64" transform="translate(82.18 638.81) rotate(-45)"/><path class="ad1c3d62-afac-4898-809e-44c4949f8566" d="M949.66,231.84a50.85,50.85,0,1,1-18.27-69.56A50.85,50.85,0,0,1,949.66,231.84Z" transform="translate(-37.3 -62.04)"/><path class="b81d3fd4-a1e4-4e78-9eab-f0e3f04dca74" d="M881.75,239.17l5.26-9c-5.12-3.11-9.53-7.83-11.35-11.88l5.63-4.72a27.41,27.41,0,0,0,10.59,11.32c6.33,3.69,12.73,2.54,15.7-2.54,2.86-4.9,1.15-10-3.88-16.48-7-8.87-10.23-16.25-5.7-24,4.32-7.39,12.85-9.94,21.83-6.49l5.25-9,5.53,3.23-5.05,8.64a27.48,27.48,0,0,1,9.76,9.88l-5.66,4.58a24.88,24.88,0,0,0-9.45-9.58c-6.86-4-11.84-1.42-13.92,2.15-2.71,4.63-.76,8.87,5.12,16.6,7,9.1,8.92,16.44,4.29,24.37-4.11,7-12.86,10.77-22.93,6.93l-5.41,9.27Z" transform="translate(-37.3 -62.04)"/></g><g id="f93a5d28-5405-4bd5-923e-21eda3dbd173" data-name="money02"><circle class="b81d3fd4-a1e4-4e78-9eab-f0e3f04dca74" cx="972.65" cy="402.66" r="62.64" transform="translate(-102.6 164.99) rotate(-12.88)"/><circle class="ad1c3d62-afac-4898-809e-44c4949f8566" cx="972.65" cy="402.66" r="50.86" transform="translate(-37.14 743.66) rotate(-45)"/><path class="b81d3fd4-a1e4-4e78-9eab-f0e3f04dca74" d="M983.54,442l-3.78-9.71c-5.61,2.07-12,2.59-16.35,1.5l-.2-7.34a27.46,27.46,0,0,0,15.45-1.26c6.83-2.66,9.91-8.39,7.77-13.87-2-5.29-7.07-7.1-15.31-7.22-11.31,0-19.09-2.09-22.34-10.46-3.11-8,.21-16.24,8.49-21.13l-3.78-9.71,6-2.32,3.63,9.33a27.45,27.45,0,0,1,13.81-1.5l.07,7.28A24.89,24.89,0,0,0,963.57,377c-7.4,2.88-8.47,8.39-7,12.23,1.94,5,6.47,6.12,16.19,6.32,11.47.19,18.42,3.24,21.75,11.8,3,7.59.44,16.77-8.83,22.25l3.89,10Z" transform="translate(-37.3 -62.04)"/></g><g id="e60c42f5-c077-43b2-8191-9e74b19ae699" data-name="money01"><path class="b81d3fd4-a1e4-4e78-9eab-f0e3f04dca74" d="M1106.81,257.88a62.64,62.64,0,1,1-81.09-35.66A62.63,62.63,0,0,1,1106.81,257.88Z" transform="translate(-37.3 -62.04)"/><circle class="ad1c3d62-afac-4898-809e-44c4949f8566" cx="1048.44" cy="280.6" r="50.86" transform="matrix(0.39, -0.92, 0.92, 0.39, 347.23, 1077.15)"/><path class="b81d3fd4-a1e4-4e78-9eab-f0e3f04dca74" d="M1059.33,319.89l-3.78-9.71c-5.61,2.07-12,2.59-16.35,1.49l-.2-7.34a27.53,27.53,0,0,0,15.45-1.25c6.83-2.66,9.91-8.4,7.78-13.88-2.06-5.28-7.08-7.09-15.32-7.21-11.31,0-19.09-2.09-22.34-10.46-3.11-8,.21-16.24,8.49-21.13l-3.78-9.71,6-2.32,3.63,9.33a27.45,27.45,0,0,1,13.81-1.5l.07,7.28a25,25,0,0,0-13.39,1.44c-7.4,2.89-8.47,8.39-7,12.24,1.94,5,6.47,6.11,16.19,6.32,11.47.18,18.42,3.24,21.75,11.79,3,7.6.44,16.77-8.83,22.26l3.89,10Z" transform="translate(-37.3 -62.04)"/></g></g><g id="bdbce1bc-fd1f-4a52-9034-fa8f94d191dc" data-name="group01"><rect class="ef5f5c40-004e-4283-8847-33217d36de51" x="596.75" y="65.23" width="158.07" height="14.91"/><rect class="ef5f5c40-004e-4283-8847-33217d36de51" x="747.1" y="291.48" width="71.57" height="14.91"/><rect class="ef5f5c40-004e-4283-8847-33217d36de51" x="631.55" y="291.48" width="70.1" height="14.91"/><rect class="ef5f5c40-004e-4283-8847-33217d36de51" x="631.55" y="408.9" width="70.1" height="14.91"/><rect class="ef5f5c40-004e-4283-8847-33217d36de51" x="767.23" y="330.62" width="51.44" height="14.91"/><rect class="ef5f5c40-004e-4283-8847-33217d36de51" x="747.1" y="369.76" width="71.57" height="14.91"/><rect class="ef5f5c40-004e-4283-8847-33217d36de51" x="747.1" y="408.9" width="71.57" height="14.91"/><rect class="ef5f5c40-004e-4283-8847-33217d36de51" x="747.1" y="448.03" width="71.57" height="14.91"/><rect class="ef5f5c40-004e-4283-8847-33217d36de51" x="591.3" y="330.62" width="119.28" height="14.91"/><rect class="ef5f5c40-004e-4283-8847-33217d36de51" x="591.3" y="448.03" width="119.28" height="14.91"/><rect class="ef5f5c40-004e-4283-8847-33217d36de51" x="767.23" y="487.17" width="51.44" height="14.91"/><rect class="ef5f5c40-004e-4283-8847-33217d36de51" x="747.1" y="673.7" width="71.57" height="14.91"/><rect class="ef5f5c40-004e-4283-8847-33217d36de51" x="631.55" y="522.52" width="70.1" height="14.91"/><rect class="ef5f5c40-004e-4283-8847-33217d36de51" x="747.1" y="522.52" width="71.57" height="14.91"/><rect class="ef5f5c40-004e-4283-8847-33217d36de51" x="747.1" y="561.66" width="71.57" height="14.91"/><rect class="ef5f5c40-004e-4283-8847-33217d36de51" x="591.3" y="561.66" width="119.28" height="14.91"/><rect class="ef5f5c40-004e-4283-8847-33217d36de51" x="767.23" y="600.8" width="51.44" height="14.91"/><path class="aa228722-6a0f-4550-96b8-0a6129f11ed8" d="M551.65,773.86,148.76,907.71a22.29,22.29,0,0,1-28.19-14.13L43.94,662.93a22.29,22.29,0,0,1,14.13-28.19L461,500.88A22.31,22.31,0,0,1,489.15,515l76.63,230.65A22.3,22.3,0,0,1,551.65,773.86Z" transform="translate(-37.3 -62.04)"/><g class="e3f275e5-09d2-4f2c-8e05-0a9179c75e24"><circle class="aa228722-6a0f-4550-96b8-0a6129f11ed8" cx="423.92" cy="590.31" r="235.3"/></g><rect class="e7ad173d-9cbd-4d92-a1cc-9a1196c7028e" x="43.11" y="597.22" width="469.14" height="50.54" transform="matrix(0.95, -0.32, 0.32, 0.95, -219.4, 57.26)"/><rect class="a432c7ae-49e4-469e-8e62-bd88f85331e1" x="89.27" y="657.42" width="414.25" height="42.83" transform="translate(-236.21 66.03) rotate(-18.38)"/><rect class="eae33587-cab4-4f02-8781-e25b3a0bdd49" x="112.55" y="752.01" width="245.06" height="21.15" transform="translate(-265.75 50.97) rotate(-18.38)"/><rect class="b8aa7b58-5965-44fd-8df8-f8996be10310" x="109.7" y="702.18" width="169.21" height="21.15" transform="translate(-252.12 35.57) rotate(-18.38)"/><rect class="eae33587-cab4-4f02-8781-e25b3a0bdd49" x="125.48" y="797.04" width="169.21" height="21.15" transform="translate(-281.22 45.39) rotate(-18.38)"/><polygon class="a4df9aaa-61e6-419d-9aee-e620e9740f98" points="409.52 746.65 291.1 785.99 307.79 477.33 426.21 437.99 409.52 746.65"/><g class="a52657b5-191c-440a-a02c-13b473189153"><text class="e1fab8e4-52c9-41a9-9715-52e3890e17ec" transform="translate(486.46 720.44)">TOTAL</text><text class="f60e594b-8a79-4fb7-b5a1-df933b1c49ba" transform="translate(490.66 163.08)">RECEIPT</text></g><g class="a52657b5-191c-440a-a02c-13b473189153"><text class="e1fab8e4-52c9-41a9-9715-52e3890e17ec" transform="translate(431.93 708.56)">TOTAL</text><text class="f60e594b-8a79-4fb7-b5a1-df933b1c49ba" transform="translate(475.15 151.2)">RECEIPT</text></g><polygon class="a73c1117-7f3e-4984-8d88-0d45c902e437" points="762.79 273.35 762.79 47.84 762.79 28.46 748.88 19.51 734.97 28.46 721.07 19.51 707.16 28.46 693.25 19.51 679.35 28.46 665.44 19.51 651.52 28.46 637.62 19.51 623.7 28.46 609.79 19.51 595.88 28.46 581.96 19.51 568.05 28.46 554.13 19.51 540.22 28.46 526.3 19.51 512.38 28.46 498.46 19.51 484.54 28.46 470.64 19.51 456.72 28.46 442.8 19.51 428.88 28.46 414.96 19.51 401.04 28.46 387.13 19.51 373.2 28.46 359.26 19.51 345.32 28.46 345.32 47.84 345.32 273.35 345.32 407.16 345.32 443.32 345.32 443.32 371.04 443.32 409.17 443.32 409.17 831.02 409.17 833.02 409.17 850.4 423.09 859.35 436.99 850.4 450.9 859.35 464.8 850.4 478.72 859.35 492.62 850.4 506.53 859.35 520.45 850.4 534.35 859.35 548.27 850.4 562.18 859.35 576.09 850.4 590 859.35 603.92 850.4 617.83 859.35 631.75 850.4 645.67 859.35 659.59 850.4 673.5 859.35 687.42 850.4 701.33 859.35 715.24 850.4 729.16 859.35 743.08 850.4 757 859.35 770.93 850.4 784.84 859.35 798.77 850.4 812.71 859.35 826.64 850.4 826.64 833.02 826.64 831.02 826.64 273.35 762.79 273.35"/><path class="a432c7ae-49e4-469e-8e62-bd88f85331e1" d="M343.71,375.14h170a0,0,0,0,1,0,0v51.44a0,0,0,0,1,0,0H352.94a9.23,9.23,0,0,1-9.23-9.23V375.14a0,0,0,0,1,0,0Z" transform="translate(-9.47 767.52) rotate(-90)"/><rect class="a432c7ae-49e4-469e-8e62-bd88f85331e1" x="365.67" y="28.33" width="417.47" height="359.32"/><polygon class="a432c7ae-49e4-469e-8e62-bd88f85331e1" points="783.14 8.95 769.23 0 755.33 8.95 741.42 0 727.51 8.95 713.6 0 699.7 8.95 685.79 0 671.87 8.95 657.97 0 644.05 8.95 630.14 0 616.23 8.95 602.32 0 588.4 8.95 574.49 0 560.57 8.95 546.65 0 532.73 8.95 518.81 0 504.89 8.95 490.99 0 477.07 8.95 463.16 0 449.24 8.95 435.32 0 421.39 8.95 407.48 0 393.55 8.95 379.61 0 365.68 8.95 365.68 28.33 783.14 28.33 783.14 8.95"/><rect class="ef5f5c40-004e-4283-8847-33217d36de51" x="567.7" y="271.73" width="70.1" height="14.91"/><rect class="ef5f5c40-004e-4283-8847-33217d36de51" x="703.38" y="193.45" width="51.44" height="14.91"/><rect class="ef5f5c40-004e-4283-8847-33217d36de51" x="394" y="193.45" width="119.28" height="14.91"/><rect class="ef5f5c40-004e-4283-8847-33217d36de51" x="683.25" y="232.59" width="71.57" height="14.91"/><rect class="ef5f5c40-004e-4283-8847-33217d36de51" x="394" y="232.59" width="180.41" height="14.91"/><rect class="ef5f5c40-004e-4283-8847-33217d36de51" x="683.25" y="271.73" width="71.57" height="14.91"/><rect class="ef5f5c40-004e-4283-8847-33217d36de51" x="394" y="271.73" width="158.07" height="14.91"/><rect class="ef5f5c40-004e-4283-8847-33217d36de51" x="683.25" y="310.87" width="71.57" height="14.91"/><rect class="ef5f5c40-004e-4283-8847-33217d36de51" x="394" y="310.87" width="119.28" height="14.91"/><rect class="ef5f5c40-004e-4283-8847-33217d36de51" x="527.44" y="193.45" width="119.28" height="14.91"/><rect class="ef5f5c40-004e-4283-8847-33217d36de51" x="527.44" y="310.87" width="119.28" height="14.91"/><rect class="ef5f5c40-004e-4283-8847-33217d36de51" x="703.38" y="350" width="51.44" height="14.91"/><rect class="ef5f5c40-004e-4283-8847-33217d36de51" x="394" y="350" width="180.41" height="14.91"/><rect class="aa49d190-8d00-4919-bb3b-68397157f7be" x="429.53" y="253.84" width="417.47" height="559.67"/><polygon class="aa49d190-8d00-4919-bb3b-68397157f7be" points="429.52 830.89 443.44 839.84 457.35 830.89 471.25 839.84 485.15 830.89 499.07 839.84 512.97 830.89 526.88 839.84 540.8 830.89 554.7 839.84 568.62 830.89 582.53 839.84 596.44 830.89 610.36 839.84 624.27 830.89 638.18 839.84 652.1 830.89 666.02 839.84 679.94 830.89 693.86 839.84 707.77 830.89 721.68 839.84 735.6 830.89 749.51 839.84 763.43 830.89 777.35 839.84 791.28 830.89 805.19 839.84 819.12 830.89 833.06 839.84 847 830.89 847 811.51 429.52 811.51 429.52 830.89"/><rect class="ef5f5c40-004e-4283-8847-33217d36de51" x="559.23" y="744.61" width="158.07" height="14.91"/><rect class="ef5f5c40-004e-4283-8847-33217d36de51" x="457.85" y="291.48" width="158.07" height="14.91"/><rect class="ef5f5c40-004e-4283-8847-33217d36de51" x="457.85" y="330.62" width="119.28" height="14.91"/><rect class="ef5f5c40-004e-4283-8847-33217d36de51" x="457.85" y="369.76" width="180.41" height="14.91"/><rect class="ef5f5c40-004e-4283-8847-33217d36de51" x="457.85" y="408.9" width="158.07" height="14.91"/><rect class="ef5f5c40-004e-4283-8847-33217d36de51" x="457.85" y="448.03" width="119.28" height="14.91"/><rect class="ef5f5c40-004e-4283-8847-33217d36de51" x="457.85" y="487.17" width="180.41" height="14.91"/><rect class="ef5f5c40-004e-4283-8847-33217d36de51" x="457.85" y="522.52" width="158.07" height="14.91"/><rect class="ef5f5c40-004e-4283-8847-33217d36de51" x="457.85" y="561.66" width="119.28" height="14.91"/><rect class="ef5f5c40-004e-4283-8847-33217d36de51" x="457.85" y="600.8" width="180.41" height="14.91"/><line class="b52123e4-9e33-4303-8256-813003908a76" x1="395.12" y1="155.9" x2="755.93" y2="155.9"/><line class="b52123e4-9e33-4303-8256-813003908a76" x1="457.85" y1="647.42" x2="818.67" y2="647.42"/><line class="b52123e4-9e33-4303-8256-813003908a76" x1="457.85" y1="714.88" x2="818.67" y2="714.88"/><polygon class="e4044812-2fa8-4e58-9682-4d985956ba6b" points="429.52 253.84 429.52 423.81 365.68 423.81 429.52 253.84"/><path class="eae33587-cab4-4f02-8781-e25b3a0bdd49" d="M472.47,1097.21l-417-79.45A22.31,22.31,0,0,1,37.7,991.68L83.19,752.92a22.29,22.29,0,0,1,26.08-17.73l417,79.45A22.32,22.32,0,0,1,544,840.73l-45.49,238.75A22.3,22.3,0,0,1,472.47,1097.21Z" transform="translate(-37.3 -62.04)"/><g class="e93ee847-2264-4ee4-bcf0-ac82ccf70e1d"><circle class="eae33587-cab4-4f02-8781-e25b3a0bdd49" cx="452.72" cy="947.04" r="235.3" transform="translate(-574.36 535.46) rotate(-45)"/></g><polygon class="a4df9aaa-61e6-419d-9aee-e620e9740f98" points="326.66 1014.5 204.08 991.14 369.07 729.75 491.65 753.11 326.66 1014.5"/><rect class="a432c7ae-49e4-469e-8e62-bd88f85331e1" x="83.29" y="892.03" width="92.89" height="22.74" transform="translate(134.07 -70.36) rotate(10.79)"/><rect class="a432c7ae-49e4-469e-8e62-bd88f85331e1" x="345.84" y="980.28" width="49.18" height="22.74" transform="translate(154.84 -113.85) rotate(10.79)"/><rect class="a432c7ae-49e4-469e-8e62-bd88f85331e1" x="281.82" y="968.08" width="49.18" height="22.74" transform="translate(151.43 -102.08) rotate(10.79)"/><rect class="a432c7ae-49e4-469e-8e62-bd88f85331e1" x="186.21" y="911.64" width="92.89" height="22.74" transform="translate(139.56 -89.28) rotate(10.79)"/><rect class="a432c7ae-49e4-469e-8e62-bd88f85331e1" x="398.73" y="952.13" width="92.89" height="22.74" transform="translate(150.89 -128.34) rotate(10.79)"/><rect class="a432c7ae-49e4-469e-8e62-bd88f85331e1" x="289.13" y="931.25" width="92.89" height="22.74" transform="translate(145.05 -108.19) rotate(10.79)"/><rect class="aa228722-6a0f-4550-96b8-0a6129f11ed8" x="304.82" y="830.13" width="205.93" height="21.15" transform="translate(127.25 -123.51) rotate(10.79)"/><rect class="aa228722-6a0f-4550-96b8-0a6129f11ed8" x="67.22" y="980.82" width="169.21" height="21.15" transform="translate(150.93 -72.94) rotate(10.79)"/><rect class="a139463b-de1b-430d-b06d-3e43103e085c" x="94.75" y="809.31" width="84.6" height="67.15" rx="7.08" transform="translate(122.88 -72.8) rotate(10.79)"/><circle class="b4bbd004-839a-408d-aedc-c8138e4f9cdc" cx="452.4" cy="1053.66" r="21.92" transform="translate(-462.98 254.16) rotate(-26.74)"/><path class="aa2b9dcf-8f39-4283-8a95-176ba691adef" d="M447.8,1052.79a21.91,21.91,0,1,1-17.42-25.63A21.9,21.9,0,0,1,447.8,1052.79Z" transform="translate(-37.3 -62.04)"/></g></svg>