<svg id="bdf6c062-34d5-41c6-b55f-1b40c37bde91" data-name="圖層 1" xmlns="http://www.w3.org/2000/svg" xmlns:xlink="http://www.w3.org/1999/xlink" viewBox="0 0 435.69 769.54"><defs><style>.fa04b25f-eb9d-41d4-afcc-aed59dbf61f2{fill:#5250a0;}.a1cdd341-a74b-48c8-a4b4-c5b6756a2a0a,.e2c16d94-c7fa-48ef-8f32-6ca8a63860ea{fill:#fff;}.e23a5109-ab02-4e9e-a8ce-0066a2eeee2d{fill:#8ecebc;}.b98556d8-b70b-499a-b961-cc3897238d80{fill:#7c9ad0;}.b6a8ebf9-09ef-4d4b-b085-23071c443586{fill:#f0f2f6;}.ada848e3-80f9-4603-80cb-8a3cbf2ff82d{fill:#ced1e3;}.a453de79-d842-47c7-b606-6cf63a4ab38e{fill:url(#f2f6a30e-b854-4e5c-b94f-08e59c067605);}.add2784c-5c47-4fab-ac0e-e46c691880b2{fill:url(#bbc97491-4b36-4f2b-8385-ef92f9632a47);}.a0cb13a6-df0a-47f6-9900-13b05b32e25a{fill:url(#b2af24bb-4f79-4814-8e86-94d693854ab2);}.aceeaf34-a7fe-4fd6-9412-c40b2df83fe4{fill:url(#ae9591df-6083-442f-a6ef-f707311e3fa1);}.a043711e-a932-4b0e-85ce-1f27a9ce2695{fill:url(#f6929d03-9deb-4b65-9bbd-c0d6f422896a);}.ad83655d-7159-46f3-9eef-3f6428b9ae45{fill:url(#bc8c3bc5-655a-4066-8da7-b03949fd59e5);}.f05d4fcf-bf1c-4ee6-a339-3d03e59e0650{fill:url(#b21521d7-2fc2-4022-a15b-22dafa3a3a4b);}.bc77aece-4c61-4ea4-9ddd-67cc83993da4{fill:url(#b4dcdf79-0474-4dd5-8558-a217c82dffad);}.b002a89a-1229-46f6-bf43-f0d5d7a15065{fill:#5161ab;}.bb91eab2-6c57-44b5-91b7-708ebd888d54{fill:#1b2f68;}.e7ecffa3-e9c5-44ee-b1e0-2974523af1ca{fill:#e4c287;}.e2c16d94-c7fa-48ef-8f32-6ca8a63860ea{opacity:0.55;}</style><linearGradient id="f2f6a30e-b854-4e5c-b94f-08e59c067605" x1="858.01" y1="649.08" x2="1591.4" y2="689.74" gradientUnits="userSpaceOnUse"><stop offset="0" stop-color="#e8cb6d"/><stop offset="1" stop-color="#c8593b"/></linearGradient><linearGradient id="bbc97491-4b36-4f2b-8385-ef92f9632a47" x1="858.38" y1="642.28" x2="1591.81" y2="682.94" xlink:href="#f2f6a30e-b854-4e5c-b94f-08e59c067605"/><linearGradient id="b2af24bb-4f79-4814-8e86-94d693854ab2" x1="858.77" y1="635.48" x2="1592.16" y2="676.14" xlink:href="#f2f6a30e-b854-4e5c-b94f-08e59c067605"/><linearGradient id="ae9591df-6083-442f-a6ef-f707311e3fa1" x1="856.56" y1="628.23" x2="1606.51" y2="669.81" xlink:href="#f2f6a30e-b854-4e5c-b94f-08e59c067605"/><linearGradient id="f6929d03-9deb-4b65-9bbd-c0d6f422896a" x1="51.23" y1="87.29" x2="66.4" y2="203.6" xlink:href="#f2f6a30e-b854-4e5c-b94f-08e59c067605"/><linearGradient id="bc8c3bc5-655a-4066-8da7-b03949fd59e5" x1="160.44" y1="73.04" x2="175.61" y2="189.35" xlink:href="#f2f6a30e-b854-4e5c-b94f-08e59c067605"/><linearGradient id="b21521d7-2fc2-4022-a15b-22dafa3a3a4b" x1="270.1" y1="58.74" x2="285.27" y2="175.05" xlink:href="#f2f6a30e-b854-4e5c-b94f-08e59c067605"/><linearGradient id="b4dcdf79-0474-4dd5-8558-a217c82dffad" x1="379.43" y1="29.47" x2="394.6" y2="145.78" xlink:href="#f2f6a30e-b854-4e5c-b94f-08e59c067605"/></defs><path class="fa04b25f-eb9d-41d4-afcc-aed59dbf61f2" d="M1235.47,1253l-261.17-1.21a56.87,56.87,0,0,1-56.62-57.11l2.76-654.58a56.9,56.9,0,0,1,57.16-56.64l261.16,1.21a56.88,56.88,0,0,1,56.63,57.12l-2.77,654.58A56.87,56.87,0,0,1,1235.47,1253Z" transform="translate(-881.03 -483.45)"/><path class="a1cdd341-a74b-48c8-a4b4-c5b6756a2a0a" d="M1238.39,507.25l-50.64-.23a12.56,12.56,0,0,0-12.34,12.79l0,9.18c0,7.1-5.56,12.83-12.35,12.8l-98.7-.46c-6.79,0-12.27-5.81-12.24-12.91l0-9.18c0-7.1-5.46-12.88-12.25-12.91l-17.81-.08-44.31-.2a39.84,39.84,0,0,0-40,39.66L935,1184.63a39.84,39.84,0,0,0,39.66,40l260.64,1.2a39.83,39.83,0,0,0,40-39.66l2.7-638.92A39.84,39.84,0,0,0,1238.39,507.25Z" transform="translate(-881.03 -483.45)"/><rect class="e23a5109-ab02-4e9e-a8ce-0066a2eeee2d" x="86.64" y="486.73" width="275.34" height="194.46" rx="2"/><path class="a1cdd341-a74b-48c8-a4b4-c5b6756a2a0a" d="M1016.9,1005.51H1032c2.72,0,16,.91,13.38-1.2,4.41,3.54,7,18.18,9,23.24q12.29,31.77,24.57,63.54a1.85,1.85,0,0,0,1.73,1.33H1149a1.78,1.78,0,0,0,1.56-.9q14.48-31.27,29-62.57a1.82,1.82,0,0,0-1.55-2.7H1089.9a1.8,1.8,0,0,0,0,3.59h67.79c5,0,10.33.58,15.26,0,1.28-.14,2.61.12,3.89,0,2-.18-.2-3-.87-1.76-5.54,10.13-9.82,21.21-14.67,31.68l-8.61,18.6c-1.25,2.7-2.74,9-5.08,11,1.88-1.57-3.12-.52-5.73-.52h-19.79c-12.71,0-25.65.73-38.33,0-4.76-.27-.41,2.18-2.09-.46-2.21-3.49-3.27-8.47-4.76-12.33l-28.15-72.79a1.87,1.87,0,0,0-1.73-1.33H1016.9a1.8,1.8,0,0,0,0,3.6Z" transform="translate(-881.03 -483.45)"/><path class="a1cdd341-a74b-48c8-a4b4-c5b6756a2a0a" d="M1152.38,1113.79c-.6,11.12-17.38,11.22-17.38,0s16.78-11.13,17.38,0c.12,2.3,3.72,2.31,3.59,0-.35-6.66-5.33-12.29-12.28-12.29a12.28,12.28,0,0,0-.57,24.54c7.17.33,12.48-5.35,12.85-12.25C1156.1,1111.48,1152.5,1111.48,1152.38,1113.79Z" transform="translate(-881.03 -483.45)"/><path class="a1cdd341-a74b-48c8-a4b4-c5b6756a2a0a" d="M1092.86,1113.79c-.6,11.12-17.38,11.22-17.38,0s16.78-11.13,17.38,0c.12,2.3,3.72,2.31,3.59,0-.35-6.66-5.33-12.29-12.28-12.29a12.28,12.28,0,0,0-.57,24.54c7.17.33,12.48-5.35,12.85-12.25C1096.58,1111.48,1093,1111.48,1092.86,1113.79Z" transform="translate(-881.03 -483.45)"/><path class="a1cdd341-a74b-48c8-a4b4-c5b6756a2a0a" d="M1066.81,1054.16c31.5,2,64,1.38,95.59.48a1.77,1.77,0,0,0,0-3.54c-31.56-.91-64.09-1.5-95.59.48a1.29,1.29,0,0,0,0,2.58Z" transform="translate(-881.03 -483.45)"/><path class="a1cdd341-a74b-48c8-a4b4-c5b6756a2a0a" d="M1075.55,1075.13c25.33,2.79,53.79,2.24,79.2.41a1.38,1.38,0,0,0,0-2.75c-25.42-1.82-53.88-2.37-79.2.43a1,1,0,0,0,0,1.91Z" transform="translate(-881.03 -483.45)"/><path class="a1cdd341-a74b-48c8-a4b4-c5b6756a2a0a" d="M1149.26,1031.85c-4.82,19.46-8.55,39.19-13.5,58.62-.17.69.93,1,1.06.29,3.86-19.68,8.94-39.11,12.92-58.78a.25.25,0,0,0-.48-.13Z" transform="translate(-881.03 -483.45)"/><path class="a1cdd341-a74b-48c8-a4b4-c5b6756a2a0a" d="M1118.85,1036.19c-.38,18.14-1.35,36.31.21,54.43a.62.62,0,0,0,1.24,0c.23-18.15-.82-36.3-1.2-54.43a.13.13,0,0,0-.25,0Z" transform="translate(-881.03 -483.45)"/><path class="a1cdd341-a74b-48c8-a4b4-c5b6756a2a0a" d="M1087.29,1037.55c4.15,17.7,6.77,35.8,12.11,53.23.19.63,1.3.56,1.21-.16-2.32-18.23-8.77-35.38-12.94-53.18-.06-.25-.44-.14-.38.11Z" transform="translate(-881.03 -483.45)"/><rect class="b98556d8-b70b-499a-b961-cc3897238d80" x="74.68" y="159.3" width="293.72" height="293.71"/><polygon class="b6a8ebf9-09ef-4d4b-b085-23071c443586" points="57.74 79.09 0 141.85 435.69 141.85 397.89 79.09 57.74 79.09"/><path class="ada848e3-80f9-4603-80cb-8a3cbf2ff82d" d="M942.55,625.31v24.26a30.93,30.93,0,0,0,30.94,30.93h0a30.93,30.93,0,0,0,30.93-30.93V625.31Z" transform="translate(-881.03 -483.45)"/><path class="ada848e3-80f9-4603-80cb-8a3cbf2ff82d" d="M1065.6,625.31v24.26a30.93,30.93,0,0,0,30.94,30.93h0a30.93,30.93,0,0,0,30.93-30.93V625.31Z" transform="translate(-881.03 -483.45)"/><path class="ada848e3-80f9-4603-80cb-8a3cbf2ff82d" d="M1188.65,625.31v24.26c0,17.09,15.47,30.93,34.55,30.93h0c19.08,0,34.54-13.84,34.54-30.93l-1.36-24.26Z" transform="translate(-881.03 -483.45)"/><path class="a453de79-d842-47c7-b606-6cf63a4ab38e" d="M881,625.31v24.26A30.93,30.93,0,0,0,912,680.5h0a30.93,30.93,0,0,0,30.93-30.93V625.31Z" transform="translate(-881.03 -483.45)"/><path class="add2784c-5c47-4fab-ac0e-e46c691880b2" d="M1004.08,625.31v24.26A30.93,30.93,0,0,0,1035,680.5h0A30.93,30.93,0,0,0,1066,649.57V625.31Z" transform="translate(-881.03 -483.45)"/><path class="a0cb13a6-df0a-47f6-9900-13b05b32e25a" d="M1127.12,625.31v24.26a30.93,30.93,0,0,0,30.94,30.93h0A30.93,30.93,0,0,0,1189,649.57V625.31Z" transform="translate(-881.03 -483.45)"/><path class="aceeaf34-a7fe-4fd6-9412-c40b2df83fe4" d="M1256.38,625.31l1.36,24.26c0,17.09,13.21,30.93,29.5,30.93h0c16.29,0,29.49-13.84,29.49-30.93V625.31Z" transform="translate(-881.03 -483.45)"/><polygon class="a043711e-a932-4b0e-85ce-1f27a9ce2695" points="108.51 79.09 61.52 141.85 0 141.85 57.74 79.09 108.51 79.09"/><polygon class="ad83655d-7159-46f3-9eef-3f6428b9ae45" points="160.07 79.09 123.04 141.85 184.57 141.85 207.6 79.09 160.07 79.09"/><polygon class="f05d4fcf-bf1c-4ee6-a339-3d03e59e0650" points="259.17 79.09 246.09 141.85 307.61 141.85 307.61 79.09 259.17 79.09"/><polygon class="bc77aece-4c61-4ea4-9ddd-67cc83993da4" points="344.29 79.09 375.35 141.85 435.69 141.85 397.89 79.09 344.29 79.09"/><rect class="b002a89a-1229-46f6-bf43-f0d5d7a15065" x="91.6" y="231.13" width="258.46" height="151.28" rx="6.12"/><rect class="bb91eab2-6c57-44b5-91b7-708ebd888d54" x="282.53" y="340.11" width="47.26" height="23.18"/><rect class="e7ecffa3-e9c5-44ee-b1e0-2974523af1ca" x="111.7" y="255.58" width="47.26" height="31.05"/><rect class="a1cdd341-a74b-48c8-a4b4-c5b6756a2a0a" x="108.33" y="311.58" width="29.72" height="10.21"/><rect class="a1cdd341-a74b-48c8-a4b4-c5b6756a2a0a" x="143.76" y="311.58" width="33.91" height="10.21"/><rect class="a1cdd341-a74b-48c8-a4b4-c5b6756a2a0a" x="182.5" y="311.58" width="33.91" height="10.21"/><rect class="a1cdd341-a74b-48c8-a4b4-c5b6756a2a0a" x="304.11" y="311.58" width="23.62" height="10.21"/><rect class="a1cdd341-a74b-48c8-a4b4-c5b6756a2a0a" x="220.63" y="311.58" width="33.91" height="10.21"/><rect class="a1cdd341-a74b-48c8-a4b4-c5b6756a2a0a" x="257.57" y="311.58" width="39.72" height="10.21"/><rect class="e2c16d94-c7fa-48ef-8f32-6ca8a63860ea" x="108.33" y="340.11" width="99.69" height="6.3"/><rect class="e2c16d94-c7fa-48ef-8f32-6ca8a63860ea" x="108.33" y="353.33" width="99.69" height="6.31"/></svg>