<svg xmlns="http://www.w3.org/2000/svg" viewBox="0 0 961.53 669.43"><defs><style>.f7ad920a-7073-470e-9e2c-db211e43bd86{isolation:isolate;}.b001736d-4e16-490a-b70e-8caf80b46797{fill:#473f97;}.a06f245a-0873-4ab3-9550-6a721d44d695{fill:#5250a0;}.ae6121c6-1a28-4d76-a015-fb7e2837e3c0,.bae5a3db-0c15-4d4a-a626-b2fc951bbb95{fill:#c1bfdf;}.f57bbbf3-cccd-4477-aa12-82409f0cbf00{opacity:0.35;}.a06de97e-1abc-4b0c-971a-3a69d865bbd4{fill:#fff;}.f21e8da2-f247-488f-92dd-a92d6d8a079a{opacity:0.25;}.aed838ca-2f82-4782-87c5-35747245f5d6,.bae5a3db-0c15-4d4a-a626-b2fc951bbb95,.f21e8da2-f247-488f-92dd-a92d6d8a079a,.ff695aac-69e2-46c4-9bf3-23852b8aaff4{mix-blend-mode:multiply;}.a24e3be7-c323-482d-b04b-18b22e79dc28{fill:#f2a31d;}.b910cde6-703c-4690-a988-aaece4fb002a{fill:#abaad4;}.ff695aac-69e2-46c4-9bf3-23852b8aaff4{opacity:0.15;}.b114c897-d796-43ec-98bc-f250f17b6519{fill:#040000;opacity:0.26;}.aed838ca-2f82-4782-87c5-35747245f5d6{opacity:0.62;}.a6cd8dab-75fc-4083-a4fd-acf8665dfb79{fill:#d5dad9;}.ba6f6e7f-ef2b-438a-95b4-bfbbd81a4172{fill:#f0efef;}.b0bef970-87e0-4107-8475-ed381c1fbebc{fill:#7175b6;}.f52d4bee-9cb7-48ee-acf6-b2cc42d3692d{fill:#cccbe6;}.bae5a3db-0c15-4d4a-a626-b2fc951bbb95{opacity:0.55;}.aafbed4b-500a-4689-9c54-7591f15b7e55{fill:#9f9fcf;}.a1751ddc-137a-43f3-afd7-b244949b3ff3{fill:#d4d3ea;}.bbd4908f-c17b-46a7-b8d6-c25f3b9a664b{fill:#e7e3f1;}.e6511d68-22e6-41d3-8451-f1dc3b6b1f47{fill:#bac1e2;}.a025cb00-c6a8-46a5-955d-c6a996cc3b08{fill:#7d7fbc;}.ad98b12e-81ed-4dbc-8f5d-d85fed62f67d{fill:#969dce;}.b5712651-5a12-4fa8-9bb7-26c1f434acec{fill:none;stroke:#969dce;stroke-miterlimit:10;stroke-width:1.5px;}</style></defs><g class="f7ad920a-7073-470e-9e2c-db211e43bd86"><g id="b5029697-db01-4e30-9e55-6127e4bde62b" data-name="圖層 1"><rect class="b001736d-4e16-490a-b70e-8caf80b46797" x="475.04" y="522.91" width="217.32" height="58.46"/><rect class="a06f245a-0873-4ab3-9550-6a721d44d695" x="208.17" width="753.36" height="541.99" rx="9.39"/><rect class="ae6121c6-1a28-4d76-a015-fb7e2837e3c0" x="229.21" y="19.76" width="708.98" height="470.23" rx="5.77"/><path class="a06f245a-0873-4ab3-9550-6a721d44d695" d="M389,576.28H778.45a7.32,7.32,0,0,1,7.32,7.32v29.53a0,0,0,0,1,0,0H381.63a0,0,0,0,1,0,0V583.61A7.32,7.32,0,0,1,389,576.28Z"/><g class="f57bbbf3-cccd-4477-aa12-82409f0cbf00"><rect class="a06de97e-1abc-4b0c-971a-3a69d865bbd4" x="398.52" y="52.24" width="496.08" height="333.45" rx="21.74"/></g><g class="f21e8da2-f247-488f-92dd-a92d6d8a079a"><rect class="a24e3be7-c323-482d-b04b-18b22e79dc28" x="445.67" y="295.82" width="21.61" height="54.25"/><rect class="b910cde6-703c-4690-a988-aaece4fb002a" x="494.36" y="248.2" width="21.61" height="101.87"/><rect class="a24e3be7-c323-482d-b04b-18b22e79dc28" x="543.06" y="258.73" width="21.61" height="91.34"/><rect class="b910cde6-703c-4690-a988-aaece4fb002a" x="591.75" y="207.16" width="21.61" height="142.91"/><g class="ff695aac-69e2-46c4-9bf3-23852b8aaff4"><rect class="b114c897-d796-43ec-98bc-f250f17b6519" x="494.36" y="248.2" width="9.92" height="101.87"/></g><g class="ff695aac-69e2-46c4-9bf3-23852b8aaff4"><rect class="b114c897-d796-43ec-98bc-f250f17b6519" x="445.67" y="295.82" width="9.92" height="54.25"/></g><g class="aed838ca-2f82-4782-87c5-35747245f5d6"><rect class="b114c897-d796-43ec-98bc-f250f17b6519" x="591.75" y="207.16" width="9.92" height="142.91"/></g><g class="ff695aac-69e2-46c4-9bf3-23852b8aaff4"><rect class="b114c897-d796-43ec-98bc-f250f17b6519" x="543.06" y="258.73" width="9.92" height="91.34"/></g><polygon class="a6cd8dab-75fc-4083-a4fd-acf8665dfb79" points="624.79 365.01 431.4 365.01 431.4 159.08 434.35 159.08 434.35 362.06 624.79 362.06 624.79 365.01"/><polygon class="a6cd8dab-75fc-4083-a4fd-acf8665dfb79" points="451.26 270.42 449.29 268.22 499.88 222.79 546.74 232.97 597.49 176.49 599.68 178.46 547.79 236.22 500.73 226 451.26 270.42"/><polygon class="a6cd8dab-75fc-4083-a4fd-acf8665dfb79" points="603.65 186.8 589.35 173.08 607.82 168.14 603.65 186.8"/><rect class="b910cde6-703c-4690-a988-aaece4fb002a" x="643.11" y="291.98" width="14.84" height="14.84"/><rect class="a24e3be7-c323-482d-b04b-18b22e79dc28" x="643.11" y="317.98" width="14.84" height="14.84"/><rect class="ba6f6e7f-ef2b-438a-95b4-bfbbd81a4172" x="662.04" y="324.38" width="47.04" height="8.43"/><rect class="ba6f6e7f-ef2b-438a-95b4-bfbbd81a4172" x="662.04" y="298.38" width="47.04" height="8.43"/><rect class="b910cde6-703c-4690-a988-aaece4fb002a" x="730.38" y="291.98" width="14.84" height="14.84"/><rect class="a24e3be7-c323-482d-b04b-18b22e79dc28" x="730.38" y="317.98" width="14.84" height="14.84"/><rect class="ba6f6e7f-ef2b-438a-95b4-bfbbd81a4172" x="749.31" y="324.38" width="47.04" height="8.43"/><rect class="ba6f6e7f-ef2b-438a-95b4-bfbbd81a4172" x="749.31" y="298.38" width="47.04" height="8.43"/><rect class="b910cde6-703c-4690-a988-aaece4fb002a" x="808.97" y="291.98" width="14.84" height="14.84"/><rect class="a24e3be7-c323-482d-b04b-18b22e79dc28" x="808.97" y="317.98" width="14.84" height="14.84"/><rect class="ba6f6e7f-ef2b-438a-95b4-bfbbd81a4172" x="827.9" y="324.38" width="30.96" height="8.43"/><rect class="ba6f6e7f-ef2b-438a-95b4-bfbbd81a4172" x="827.9" y="298.38" width="30.96" height="8.43"/><rect class="ba6f6e7f-ef2b-438a-95b4-bfbbd81a4172" x="645.89" y="150.19" width="212.97" height="3.87"/><rect class="ba6f6e7f-ef2b-438a-95b4-bfbbd81a4172" x="431.4" y="102.66" width="427.45" height="8.86"/><rect class="ba6f6e7f-ef2b-438a-95b4-bfbbd81a4172" x="645.25" y="162.23" width="213.61" height="3.87"/><rect class="ba6f6e7f-ef2b-438a-95b4-bfbbd81a4172" x="645.25" y="138.15" width="213.61" height="3.87"/><rect class="ba6f6e7f-ef2b-438a-95b4-bfbbd81a4172" x="645.25" y="174.27" width="213.61" height="3.87"/><rect class="ba6f6e7f-ef2b-438a-95b4-bfbbd81a4172" x="645.25" y="186.31" width="213.61" height="3.87"/><rect class="ba6f6e7f-ef2b-438a-95b4-bfbbd81a4172" x="645.25" y="198.35" width="213.61" height="3.87"/><rect class="ba6f6e7f-ef2b-438a-95b4-bfbbd81a4172" x="645.25" y="210.39" width="213.61" height="3.87"/><rect class="ba6f6e7f-ef2b-438a-95b4-bfbbd81a4172" x="645.25" y="222.43" width="213.61" height="3.87"/><rect class="ba6f6e7f-ef2b-438a-95b4-bfbbd81a4172" x="645.25" y="234.48" width="213.61" height="3.87"/><rect class="ba6f6e7f-ef2b-438a-95b4-bfbbd81a4172" x="671.4" y="246.52" width="187.45" height="3.87"/><path class="b0bef970-87e0-4107-8475-ed381c1fbebc" d="M1400.69,607.48H948.08a21.74,21.74,0,0,0-21.74,21.73v19h496.08v-19A21.73,21.73,0,0,0,1400.69,607.48Z" transform="translate(-527.82 -555.24)"/><path class="f52d4bee-9cb7-48ee-acf6-b2cc42d3692d" d="M1358.62,628.6a6.27,6.27,0,1,1-6.27-6.26A6.27,6.27,0,0,1,1358.62,628.6Z" transform="translate(-527.82 -555.24)"/><circle class="f52d4bee-9cb7-48ee-acf6-b2cc42d3692d" cx="850.08" cy="73.37" r="6.27"/><circle class="f52d4bee-9cb7-48ee-acf6-b2cc42d3692d" cx="875.62" cy="73.37" r="6.27"/></g><rect class="bae5a3db-0c15-4d4a-a626-b2fc951bbb95" x="266.75" y="126" width="496.08" height="333.45" rx="21.74"/><rect class="a06de97e-1abc-4b0c-971a-3a69d865bbd4" x="276.81" y="113.01" width="496.08" height="333.45" rx="21.74"/><path class="aafbed4b-500a-4689-9c54-7591f15b7e55" d="M1279,668.25H826.37A21.74,21.74,0,0,0,804.63,690v19h496.08V690A21.74,21.74,0,0,0,1279,668.25Z" transform="translate(-527.82 -555.24)"/><path class="f52d4bee-9cb7-48ee-acf6-b2cc42d3692d" d="M1236.91,689.38a6.27,6.27,0,1,1-6.27-6.27A6.27,6.27,0,0,1,1236.91,689.38Z" transform="translate(-527.82 -555.24)"/><path class="f52d4bee-9cb7-48ee-acf6-b2cc42d3692d" d="M1262.45,689.38a6.27,6.27,0,1,1-6.27-6.27A6.27,6.27,0,0,1,1262.45,689.38Z" transform="translate(-527.82 -555.24)"/><path class="f52d4bee-9cb7-48ee-acf6-b2cc42d3692d" d="M1288,689.38a6.27,6.27,0,1,1-6.27-6.27A6.27,6.27,0,0,1,1288,689.38Z" transform="translate(-527.82 -555.24)"/><polygon class="a24e3be7-c323-482d-b04b-18b22e79dc28" points="435.16 197.57 414.9 407.41 613.91 407.45 594.66 197.22 435.16 197.57"/><path class="a06f245a-0873-4ab3-9550-6a721d44d695" d="M997.68,772h0c0-3.48,3.33-6.32,7.45-6.33h0c4.11,0,7.46,2.82,7.47,6.3s-3.33,6.32-7.45,6.33h0C1001,778.31,997.69,775.49,997.68,772Zm7.45-3.92c-2.78,0-5,1.77-5,3.91s2.28,3.9,5.06,3.9h0c2.79,0,5.06-1.77,5.05-3.91s-2.27-3.9-5.06-3.9ZM998.85,772h0Z" transform="translate(-527.82 -555.24)"/><path class="a06f245a-0873-4ab3-9550-6a721d44d695" d="M1071.85,771.84h0a5.75,5.75,0,0,1,1.74-4.08,8.08,8.08,0,0,1,5.7-2.24h0c4.1,0,7.45,2.81,7.46,6.29a5.81,5.81,0,0,1-2.27,4.54,8.18,8.18,0,0,1-5.18,1.79h0C1075.21,778.14,1071.86,775.32,1071.85,771.84Zm7.44-3.92a5.7,5.7,0,0,0-4,1.54,3.32,3.32,0,0,0-1,2.37h0c0,2.15,2.27,3.9,5.06,3.9h0a5.8,5.8,0,0,0,3.66-1.24,3.47,3.47,0,0,0,1.38-2.67c0-2.15-2.27-3.9-5-3.9Z" transform="translate(-527.82 -555.24)"/><path class="a06f245a-0873-4ab3-9550-6a721d44d695" d="M1040,817.87l2.12,0c13.63-.46,24-4.85,30.89-13.05,11.37-13.58,8.79-32.51,8.68-33.31a2.41,2.41,0,0,0-4.77.69c0,.17,2.37,17.65-7.62,29.56-5.95,7.08-15.16,10.89-27.34,11.29q-17.7.53-26.45-9.23c-10.63-11.83-8-31.26-8-31.46a2.41,2.41,0,0,0-4.77-.68c-.12.89-3,21.81,9.15,35.34C1018.41,814.22,1027.86,817.87,1040,817.87Z" transform="translate(-527.82 -555.24)"/><polygon class="a1751ddc-137a-43f3-afd7-b244949b3ff3" points="50.24 379.03 39.64 527.52 181.28 527.52 171.52 378.75 50.24 379.03"/><path class="bbd4908f-c17b-46a7-b8d6-c25f3b9a664b" d="M606.16,947.32h0c0-2.26,2.17-4.11,4.85-4.12h0c2.68,0,4.86,1.84,4.87,4.11s-2.17,4.11-4.85,4.11h0C608.34,951.41,606.16,949.58,606.16,947.32Zm4.85-2.56c-1.82,0-3.29,1.15-3.29,2.55s1.49,2.54,3.3,2.54h0c1.82,0,3.29-1.15,3.29-2.55s-1.48-2.54-3.29-2.54Zm-4.09,2.55h0Z" transform="translate(-527.82 -555.24)"/><path class="bbd4908f-c17b-46a7-b8d6-c25f3b9a664b" d="M654.44,947.2h0a3.78,3.78,0,0,1,1.14-2.66,5.25,5.25,0,0,1,3.71-1.45h0c2.67,0,4.84,1.83,4.85,4.09a3.8,3.8,0,0,1-1.47,3,5.3,5.3,0,0,1-3.38,1.16h0C656.63,951.3,654.45,949.47,654.44,947.2Zm4.85-2.55a3.73,3.73,0,0,0-2.6,1,2.23,2.23,0,0,0-.68,1.55h0c0,1.4,1.48,2.53,3.29,2.53h0a3.72,3.72,0,0,0,2.38-.8,2.26,2.26,0,0,0,.9-1.74c0-1.4-1.48-2.54-3.29-2.54Z" transform="translate(-527.82 -555.24)"/><path class="bbd4908f-c17b-46a7-b8d6-c25f3b9a664b" d="M633.71,977.17l1.38,0c8.87-.3,15.64-3.16,20.11-8.5,7.4-8.84,5.73-21.16,5.65-21.68a1.57,1.57,0,1,0-3.1.44c0,.12,1.54,11.5-5,19.25-3.87,4.61-9.86,7.09-17.79,7.35-7.69.23-13.41-1.76-17.22-6-6.92-7.7-5.22-20.35-5.2-20.48a1.57,1.57,0,0,0-3.11-.44c-.08.57-1.93,14.2,6,23C619.64,974.79,625.79,977.17,633.71,977.17Z" transform="translate(-527.82 -555.24)"/><polygon class="e6511d68-22e6-41d3-8451-f1dc3b6b1f47" points="116.85 420.65 99.93 531.05 253.71 530.69 238.13 420.37 116.85 420.65"/><path class="a025cb00-c6a8-46a5-955d-c6a996cc3b08" d="M587.72,1162.29a31.19,31.19,0,1,0,31.19,31.19A31.2,31.2,0,0,0,587.72,1162.29Zm0,45.67a14.48,14.48,0,1,1,14.54-14.48A14.47,14.47,0,0,1,587.72,1208Z" transform="translate(-527.82 -555.24)"/><path class="ad98b12e-81ed-4dbc-8f5d-d85fed62f67d" d="M582.59,1162.29a31.19,31.19,0,1,0,31.19,31.19A31.2,31.2,0,0,0,582.59,1162.29Zm0,45.67a14.48,14.48,0,1,1,14.54-14.48A14.47,14.47,0,0,1,582.59,1208Z" transform="translate(-527.82 -555.24)"/><path class="a025cb00-c6a8-46a5-955d-c6a996cc3b08" d="M763.94,1162.29a31.19,31.19,0,1,0,31.19,31.19A31.2,31.2,0,0,0,763.94,1162.29Zm0,45.67a14.48,14.48,0,1,1,14.54-14.48A14.47,14.47,0,0,1,763.94,1208Z" transform="translate(-527.82 -555.24)"/><path class="ad98b12e-81ed-4dbc-8f5d-d85fed62f67d" d="M758.81,1162.29A31.19,31.19,0,1,0,790,1193.48,31.2,31.2,0,0,0,758.81,1162.29Zm0,45.67a14.48,14.48,0,1,1,14.54-14.48A14.47,14.47,0,0,1,758.81,1208Z" transform="translate(-527.82 -555.24)"/><path class="b5712651-5a12-4fa8-9bb7-26c1f434acec" d="M999.35,812.17H905.63a28.54,28.54,0,0,0-24.23,13.46l-56.65,91" transform="translate(-527.82 -555.24)"/><path class="b5712651-5a12-4fa8-9bb7-26c1f434acec" d="M573,1083.75H782.38a22.71,22.71,0,0,0,22.42-19.12l21.67-135.18a22.7,22.7,0,0,0-22.42-26.29H551.28a22.7,22.7,0,0,0-22.42,26.29l21.67,135.18A22.71,22.71,0,0,0,573,1083.75Z" transform="translate(-527.82 -555.24)"/><line class="b5712651-5a12-4fa8-9bb7-26c1f434acec" x1="149.84" y1="347.92" x2="149.84" y2="528.51"/><line class="b5712651-5a12-4fa8-9bb7-26c1f434acec" x1="288.39" y1="438.22" x2="11.3" y2="438.22"/><line class="b5712651-5a12-4fa8-9bb7-26c1f434acec" x1="232.56" y1="347.92" x2="214.64" y2="528.51"/><line class="b5712651-5a12-4fa8-9bb7-26c1f434acec" x1="71.27" y1="347.92" x2="87.81" y2="528.51"/><path class="b5712651-5a12-4fa8-9bb7-26c1f434acec" d="M799.86,1075.53,833.79,1126a20.67,20.67,0,0,1-17.16,32.2H539.12" transform="translate(-527.82 -555.24)"/></g></g></svg>